; NON-PLATED HOLES START AT T1
; THROUGH (PLATED) HOLES START AT T100
M48
INCH
T1C0.118110
T100C0.098425
T101C0.030000
T102C0.033608
T103C0.035000
T104C0.027559
T105C0.035050
%
T1
X007351Y026221
X012989Y003448
X012989Y005448
X010989Y005448
X008989Y007448
X008989Y005448
X010989Y003448
X010989Y007448
X012448Y026221
X012989Y007448
T100
X018032Y001616
X018051Y025923
X001642Y025910
X001643Y001604
T101
X014375Y003488
X012983Y022554
T102
X007080Y011559
X007080Y012558
X007080Y010559
T103
X017989Y012559
X001612Y022559
X018989Y003559
X018069Y011559
X001612Y014559
X001692Y021559
X001612Y020559
X001612Y012559
X001692Y013559
X001692Y009559
X018069Y013559
X017989Y010559
X001692Y023559
X001612Y016559
X017989Y008559
X018069Y021559
X017989Y014559
X018069Y015559
X001612Y018559
X017989Y016559
X001612Y008559
X001612Y010559
X018069Y009559
X001692Y017559
X001692Y015559
X018069Y019559
X017989Y018559
X018069Y017559
X018069Y023559
X017989Y007559
X001692Y019559
X001692Y011559
X017989Y020559
X017989Y022559
X018989Y007559
X017989Y003559
T104
X001489Y006061
X001489Y007061
X001489Y003443
X001489Y004443
T105
X005368Y016935
X014379Y020941
X005368Y017937
X003629Y006567
X014379Y024947
X014379Y017937
X003629Y005566
X010332Y024556
X005368Y019940
X016987Y003932
X005368Y010927
X009331Y024556
X005368Y024947
X014379Y019940
X014379Y013931
X014379Y012930
X003629Y002562
X005368Y023946
X014379Y011928
X014379Y021943
X014379Y014933
X005368Y012930
X016987Y004934
X014379Y016935
X008329Y024556
X003629Y004565
X003629Y003563
X005368Y013931
X016987Y005935
X011334Y024556
X015265Y004560
X005368Y021943
X014379Y023946
X014379Y015934
X005368Y020941
X014379Y018938
X015265Y006563
X005368Y022944
X005368Y014933
X005368Y018938
X014379Y022944
X015265Y005561
X016987Y006936
X005368Y011928
X005368Y015934
X015265Y003559
X014379Y010927
T00
M30
