; NON-PLATED HOLES START AT T1
; THROUGH (PLATED) HOLES START AT T100
M48
INCH
T1C0.118110
T100C0.035000
T101C0.035050
T102C0.027559
T103C0.086614
T104C0.033608
%
T1
X010989Y005448
X007351Y026221
X010989Y007448
X008989Y005448
X012448Y026221
X010989Y003448
X012989Y007448
X012989Y005448
X008989Y007448
X012989Y003448
T100
X018069Y017559
X018989Y007559
X017989Y008559
X001481Y008559
X001481Y010559
X018069Y013559
X017989Y022559
X018069Y009559
X001561Y019559
X001481Y014559
X018069Y023559
X018989Y003559
X001481Y018559
X017989Y003559
X001561Y021559
X001561Y015559
X001561Y017559
X001561Y009559
X018069Y021559
X001561Y013559
X001561Y011559
X018069Y015559
X001561Y023559
X017989Y012559
X017989Y007559
X017989Y020559
X017989Y016559
X017989Y014559
X018069Y011559
X001481Y022559
X018069Y019559
X017989Y018559
X001481Y020559
X017989Y010559
X001481Y016559
X001481Y012559
T101
X005368Y013931
X014379Y024947
X015265Y006563
X005368Y012930
X014379Y023946
X003629Y004565
X010332Y024556
X005368Y014933
X014379Y011928
X005368Y021943
X014379Y013931
X014379Y018938
X005368Y010927
X014379Y022944
X016987Y006936
X015265Y003559
X011334Y024556
X003629Y003563
X005368Y011928
X005368Y016935
X014379Y020941
X015265Y005561
X015265Y004560
X005368Y020941
X003629Y002562
X008329Y024556
X014379Y021943
X016987Y005935
X005368Y023946
X014379Y014933
X009331Y024556
X005368Y015934
X003629Y005566
X014379Y017937
X005368Y024947
X014379Y015934
X005368Y022944
X014379Y010927
X005368Y019940
X016987Y004934
X014379Y019940
X014379Y016935
X005368Y017937
X014379Y012930
X003629Y006567
X005368Y018938
X016987Y003932
T102
X002058Y004559
X001058Y004559
T103
X001666Y025864
X017951Y025865
X017970Y001751
X001650Y001751
T104
X006989Y012558
X006989Y011559
X006989Y010559
T00
M30
