G04 MADE WITH FRITZING*
G04 WWW.FRITZING.ORG*
G04 DOUBLE SIDED*
G04 HOLES PLATED*
G04 CONTOUR ON CENTER OF CONTOUR VECTOR*
%ASAXBY*%
%FSLAX23Y23*%
%MOIN*%
%OFA0B0*%
%SFA1.0B1.0*%
%ADD10C,0.085000*%
%ADD11C,0.065000*%
%ADD12C,0.128110*%
%ADD13C,0.206850*%
%ADD14R,0.001000X0.001000*%
%LNMASK1*%
G90*
G70*
G54D10*
X1899Y356D03*
X1899Y756D03*
X1799Y356D03*
X1799Y756D03*
G54D11*
X148Y856D03*
X156Y956D03*
X148Y1056D03*
X156Y1156D03*
X148Y1256D03*
X156Y1356D03*
X148Y1456D03*
X156Y1556D03*
X148Y1656D03*
X156Y1756D03*
X148Y1856D03*
X156Y1956D03*
X148Y2056D03*
X156Y2156D03*
X148Y2256D03*
X156Y2356D03*
X148Y856D03*
X156Y956D03*
X148Y1056D03*
X156Y1156D03*
X148Y1256D03*
X156Y1356D03*
X148Y1456D03*
X156Y1556D03*
X148Y1656D03*
X156Y1756D03*
X148Y1856D03*
X156Y1956D03*
X148Y2056D03*
X156Y2156D03*
X148Y2256D03*
X156Y2356D03*
X1799Y856D03*
X1807Y956D03*
X1799Y1056D03*
X1807Y1156D03*
X1799Y1256D03*
X1807Y1356D03*
X1799Y1456D03*
X1807Y1556D03*
X1799Y1656D03*
X1807Y1756D03*
X1799Y1856D03*
X1807Y1956D03*
X1799Y2056D03*
X1807Y2156D03*
X1799Y2256D03*
X1807Y2356D03*
X1799Y856D03*
X1807Y956D03*
X1799Y1056D03*
X1807Y1156D03*
X1799Y1256D03*
X1807Y1356D03*
X1799Y1456D03*
X1807Y1556D03*
X1799Y1656D03*
X1807Y1756D03*
X1799Y1856D03*
X1807Y1956D03*
X1799Y2056D03*
X1807Y2156D03*
X1799Y2256D03*
X1807Y2356D03*
G54D12*
X1099Y345D03*
X899Y545D03*
X899Y745D03*
X1099Y545D03*
X1099Y745D03*
X1299Y345D03*
X1299Y545D03*
X1299Y745D03*
X1245Y2604D03*
X735Y2604D03*
G54D13*
X1797Y175D03*
X165Y175D03*
X1795Y2587D03*
X1795Y2587D03*
X167Y2586D03*
X167Y2586D03*
G54D14*
X532Y2519D02*
X541Y2519D01*
X1433Y2519D02*
X1442Y2519D01*
X526Y2518D02*
X546Y2518D01*
X1427Y2518D02*
X1447Y2518D01*
X523Y2517D02*
X549Y2517D01*
X1424Y2517D02*
X1450Y2517D01*
X520Y2516D02*
X552Y2516D01*
X1421Y2516D02*
X1453Y2516D01*
X518Y2515D02*
X554Y2515D01*
X1419Y2515D02*
X1455Y2515D01*
X516Y2514D02*
X556Y2514D01*
X1417Y2514D02*
X1457Y2514D01*
X515Y2513D02*
X558Y2513D01*
X1416Y2513D02*
X1459Y2513D01*
X513Y2512D02*
X559Y2512D01*
X1414Y2512D02*
X1460Y2512D01*
X512Y2511D02*
X561Y2511D01*
X1413Y2511D02*
X1462Y2511D01*
X510Y2510D02*
X562Y2510D01*
X1411Y2510D02*
X1463Y2510D01*
X509Y2509D02*
X563Y2509D01*
X1410Y2509D02*
X1464Y2509D01*
X508Y2508D02*
X564Y2508D01*
X1409Y2508D02*
X1465Y2508D01*
X507Y2507D02*
X565Y2507D01*
X1408Y2507D02*
X1466Y2507D01*
X506Y2506D02*
X566Y2506D01*
X1407Y2506D02*
X1467Y2506D01*
X505Y2505D02*
X567Y2505D01*
X1406Y2505D02*
X1468Y2505D01*
X504Y2504D02*
X568Y2504D01*
X1405Y2504D02*
X1469Y2504D01*
X504Y2503D02*
X569Y2503D01*
X1404Y2503D02*
X1470Y2503D01*
X503Y2502D02*
X570Y2502D01*
X1404Y2502D02*
X1471Y2502D01*
X502Y2501D02*
X570Y2501D01*
X1403Y2501D02*
X1471Y2501D01*
X501Y2500D02*
X571Y2500D01*
X1402Y2500D02*
X1472Y2500D01*
X501Y2499D02*
X572Y2499D01*
X1402Y2499D02*
X1473Y2499D01*
X500Y2498D02*
X572Y2498D01*
X828Y2498D02*
X837Y2498D01*
X928Y2498D02*
X937Y2498D01*
X1028Y2498D02*
X1037Y2498D01*
X1128Y2498D02*
X1137Y2498D01*
X1401Y2498D02*
X1473Y2498D01*
X500Y2497D02*
X573Y2497D01*
X822Y2497D02*
X842Y2497D01*
X923Y2497D02*
X942Y2497D01*
X1023Y2497D02*
X1042Y2497D01*
X1123Y2497D02*
X1142Y2497D01*
X1401Y2497D02*
X1474Y2497D01*
X499Y2496D02*
X573Y2496D01*
X819Y2496D02*
X846Y2496D01*
X919Y2496D02*
X946Y2496D01*
X1019Y2496D02*
X1046Y2496D01*
X1119Y2496D02*
X1146Y2496D01*
X1400Y2496D02*
X1474Y2496D01*
X499Y2495D02*
X574Y2495D01*
X816Y2495D02*
X848Y2495D01*
X916Y2495D02*
X948Y2495D01*
X1016Y2495D02*
X1049Y2495D01*
X1117Y2495D02*
X1149Y2495D01*
X1400Y2495D02*
X1475Y2495D01*
X498Y2494D02*
X574Y2494D01*
X814Y2494D02*
X850Y2494D01*
X914Y2494D02*
X950Y2494D01*
X1014Y2494D02*
X1051Y2494D01*
X1115Y2494D02*
X1151Y2494D01*
X1399Y2494D02*
X1475Y2494D01*
X498Y2493D02*
X575Y2493D01*
X812Y2493D02*
X852Y2493D01*
X912Y2493D02*
X952Y2493D01*
X1013Y2493D02*
X1052Y2493D01*
X1113Y2493D02*
X1153Y2493D01*
X1399Y2493D02*
X1476Y2493D01*
X497Y2492D02*
X575Y2492D01*
X811Y2492D02*
X854Y2492D01*
X911Y2492D02*
X954Y2492D01*
X1011Y2492D02*
X1054Y2492D01*
X1111Y2492D02*
X1154Y2492D01*
X1398Y2492D02*
X1476Y2492D01*
X497Y2491D02*
X575Y2491D01*
X809Y2491D02*
X855Y2491D01*
X909Y2491D02*
X956Y2491D01*
X1009Y2491D02*
X1056Y2491D01*
X1109Y2491D02*
X1156Y2491D01*
X1398Y2491D02*
X1476Y2491D01*
X497Y2490D02*
X576Y2490D01*
X808Y2490D02*
X857Y2490D01*
X908Y2490D02*
X957Y2490D01*
X1008Y2490D02*
X1057Y2490D01*
X1108Y2490D02*
X1157Y2490D01*
X1398Y2490D02*
X1477Y2490D01*
X496Y2489D02*
X576Y2489D01*
X806Y2489D02*
X858Y2489D01*
X906Y2489D02*
X958Y2489D01*
X1007Y2489D02*
X1058Y2489D01*
X1107Y2489D02*
X1159Y2489D01*
X1397Y2489D02*
X1477Y2489D01*
X496Y2488D02*
X576Y2488D01*
X805Y2488D02*
X859Y2488D01*
X905Y2488D02*
X959Y2488D01*
X1005Y2488D02*
X1060Y2488D01*
X1106Y2488D02*
X1160Y2488D01*
X1397Y2488D02*
X1477Y2488D01*
X496Y2487D02*
X577Y2487D01*
X804Y2487D02*
X860Y2487D01*
X904Y2487D02*
X961Y2487D01*
X1004Y2487D02*
X1061Y2487D01*
X1104Y2487D02*
X1161Y2487D01*
X1397Y2487D02*
X1477Y2487D01*
X496Y2486D02*
X577Y2486D01*
X803Y2486D02*
X862Y2486D01*
X903Y2486D02*
X962Y2486D01*
X1003Y2486D02*
X1062Y2486D01*
X1103Y2486D02*
X1162Y2486D01*
X1397Y2486D02*
X1478Y2486D01*
X495Y2485D02*
X577Y2485D01*
X802Y2485D02*
X862Y2485D01*
X902Y2485D02*
X963Y2485D01*
X1002Y2485D02*
X1063Y2485D01*
X1102Y2485D02*
X1163Y2485D01*
X1396Y2485D02*
X1478Y2485D01*
X495Y2484D02*
X577Y2484D01*
X801Y2484D02*
X863Y2484D01*
X901Y2484D02*
X963Y2484D01*
X1001Y2484D02*
X1064Y2484D01*
X1102Y2484D02*
X1164Y2484D01*
X1396Y2484D02*
X1478Y2484D01*
X495Y2483D02*
X577Y2483D01*
X800Y2483D02*
X864Y2483D01*
X900Y2483D02*
X964Y2483D01*
X1001Y2483D02*
X1064Y2483D01*
X1101Y2483D02*
X1165Y2483D01*
X1396Y2483D02*
X1478Y2483D01*
X495Y2482D02*
X577Y2482D01*
X800Y2482D02*
X865Y2482D01*
X900Y2482D02*
X965Y2482D01*
X1000Y2482D02*
X1065Y2482D01*
X1100Y2482D02*
X1165Y2482D01*
X1396Y2482D02*
X1478Y2482D01*
X495Y2481D02*
X578Y2481D01*
X799Y2481D02*
X866Y2481D01*
X899Y2481D02*
X966Y2481D01*
X999Y2481D02*
X1066Y2481D01*
X1099Y2481D02*
X1166Y2481D01*
X1396Y2481D02*
X1478Y2481D01*
X495Y2480D02*
X578Y2480D01*
X798Y2480D02*
X866Y2480D01*
X898Y2480D02*
X967Y2480D01*
X998Y2480D02*
X1067Y2480D01*
X1098Y2480D02*
X1167Y2480D01*
X1396Y2480D02*
X1479Y2480D01*
X495Y2479D02*
X578Y2479D01*
X797Y2479D02*
X867Y2479D01*
X898Y2479D02*
X967Y2479D01*
X998Y2479D02*
X1067Y2479D01*
X1098Y2479D02*
X1167Y2479D01*
X1396Y2479D02*
X1479Y2479D01*
X495Y2478D02*
X578Y2478D01*
X797Y2478D02*
X868Y2478D01*
X897Y2478D02*
X968Y2478D01*
X997Y2478D02*
X1068Y2478D01*
X1097Y2478D02*
X1168Y2478D01*
X1396Y2478D02*
X1479Y2478D01*
X495Y2477D02*
X578Y2477D01*
X796Y2477D02*
X868Y2477D01*
X896Y2477D02*
X968Y2477D01*
X996Y2477D02*
X1069Y2477D01*
X1097Y2477D02*
X1169Y2477D01*
X1396Y2477D02*
X1479Y2477D01*
X495Y2476D02*
X578Y2476D01*
X796Y2476D02*
X869Y2476D01*
X896Y2476D02*
X969Y2476D01*
X996Y2476D02*
X1069Y2476D01*
X1096Y2476D02*
X1169Y2476D01*
X1396Y2476D02*
X1479Y2476D01*
X495Y2475D02*
X578Y2475D01*
X795Y2475D02*
X869Y2475D01*
X895Y2475D02*
X970Y2475D01*
X995Y2475D02*
X1070Y2475D01*
X1096Y2475D02*
X1170Y2475D01*
X1396Y2475D02*
X1479Y2475D01*
X495Y2474D02*
X578Y2474D01*
X795Y2474D02*
X870Y2474D01*
X895Y2474D02*
X970Y2474D01*
X995Y2474D02*
X1070Y2474D01*
X1095Y2474D02*
X1170Y2474D01*
X1396Y2474D02*
X1478Y2474D01*
X495Y2473D02*
X577Y2473D01*
X794Y2473D02*
X870Y2473D01*
X894Y2473D02*
X970Y2473D01*
X994Y2473D02*
X1071Y2473D01*
X1095Y2473D02*
X1171Y2473D01*
X1396Y2473D02*
X1478Y2473D01*
X495Y2472D02*
X577Y2472D01*
X794Y2472D02*
X871Y2472D01*
X894Y2472D02*
X971Y2472D01*
X994Y2472D02*
X1071Y2472D01*
X1094Y2472D02*
X1171Y2472D01*
X1396Y2472D02*
X1478Y2472D01*
X495Y2471D02*
X577Y2471D01*
X793Y2471D02*
X871Y2471D01*
X894Y2471D02*
X971Y2471D01*
X994Y2471D02*
X1071Y2471D01*
X1094Y2471D02*
X1171Y2471D01*
X1396Y2471D02*
X1478Y2471D01*
X495Y2470D02*
X577Y2470D01*
X793Y2470D02*
X871Y2470D01*
X893Y2470D02*
X972Y2470D01*
X993Y2470D02*
X1072Y2470D01*
X1093Y2470D02*
X1172Y2470D01*
X1396Y2470D02*
X1478Y2470D01*
X496Y2469D02*
X577Y2469D01*
X793Y2469D02*
X872Y2469D01*
X893Y2469D02*
X972Y2469D01*
X993Y2469D02*
X1072Y2469D01*
X1093Y2469D02*
X1172Y2469D01*
X1396Y2469D02*
X1478Y2469D01*
X496Y2468D02*
X577Y2468D01*
X792Y2468D02*
X872Y2468D01*
X893Y2468D02*
X972Y2468D01*
X993Y2468D02*
X1072Y2468D01*
X1093Y2468D02*
X1172Y2468D01*
X1397Y2468D02*
X1478Y2468D01*
X496Y2467D02*
X576Y2467D01*
X792Y2467D02*
X872Y2467D01*
X892Y2467D02*
X972Y2467D01*
X992Y2467D02*
X1073Y2467D01*
X1093Y2467D02*
X1173Y2467D01*
X1397Y2467D02*
X1477Y2467D01*
X496Y2466D02*
X576Y2466D01*
X792Y2466D02*
X873Y2466D01*
X892Y2466D02*
X973Y2466D01*
X992Y2466D02*
X1073Y2466D01*
X1092Y2466D02*
X1173Y2466D01*
X1397Y2466D02*
X1477Y2466D01*
X497Y2465D02*
X576Y2465D01*
X792Y2465D02*
X873Y2465D01*
X892Y2465D02*
X973Y2465D01*
X992Y2465D02*
X1073Y2465D01*
X1092Y2465D02*
X1173Y2465D01*
X1397Y2465D02*
X1477Y2465D01*
X497Y2464D02*
X576Y2464D01*
X792Y2464D02*
X873Y2464D01*
X892Y2464D02*
X973Y2464D01*
X992Y2464D02*
X1073Y2464D01*
X1092Y2464D02*
X1173Y2464D01*
X1398Y2464D02*
X1476Y2464D01*
X497Y2463D02*
X575Y2463D01*
X791Y2463D02*
X873Y2463D01*
X891Y2463D02*
X973Y2463D01*
X992Y2463D02*
X1073Y2463D01*
X1092Y2463D02*
X1174Y2463D01*
X1398Y2463D02*
X1476Y2463D01*
X498Y2462D02*
X575Y2462D01*
X791Y2462D02*
X873Y2462D01*
X891Y2462D02*
X973Y2462D01*
X991Y2462D02*
X1074Y2462D01*
X1092Y2462D02*
X1174Y2462D01*
X1399Y2462D02*
X1476Y2462D01*
X498Y2461D02*
X574Y2461D01*
X791Y2461D02*
X873Y2461D01*
X891Y2461D02*
X974Y2461D01*
X991Y2461D02*
X1074Y2461D01*
X1091Y2461D02*
X1174Y2461D01*
X1399Y2461D02*
X1475Y2461D01*
X498Y2460D02*
X574Y2460D01*
X791Y2460D02*
X874Y2460D01*
X891Y2460D02*
X974Y2460D01*
X991Y2460D02*
X1074Y2460D01*
X1091Y2460D02*
X1174Y2460D01*
X1399Y2460D02*
X1475Y2460D01*
X499Y2459D02*
X573Y2459D01*
X791Y2459D02*
X874Y2459D01*
X891Y2459D02*
X974Y2459D01*
X991Y2459D02*
X1074Y2459D01*
X1091Y2459D02*
X1174Y2459D01*
X1400Y2459D02*
X1474Y2459D01*
X499Y2458D02*
X573Y2458D01*
X791Y2458D02*
X874Y2458D01*
X891Y2458D02*
X974Y2458D01*
X991Y2458D02*
X1074Y2458D01*
X1091Y2458D02*
X1174Y2458D01*
X1400Y2458D02*
X1474Y2458D01*
X500Y2457D02*
X572Y2457D01*
X791Y2457D02*
X874Y2457D01*
X891Y2457D02*
X974Y2457D01*
X991Y2457D02*
X1074Y2457D01*
X1091Y2457D02*
X1174Y2457D01*
X1401Y2457D02*
X1473Y2457D01*
X501Y2456D02*
X572Y2456D01*
X791Y2456D02*
X874Y2456D01*
X891Y2456D02*
X974Y2456D01*
X991Y2456D02*
X1074Y2456D01*
X1091Y2456D02*
X1174Y2456D01*
X1402Y2456D02*
X1473Y2456D01*
X501Y2455D02*
X571Y2455D01*
X791Y2455D02*
X874Y2455D01*
X891Y2455D02*
X974Y2455D01*
X991Y2455D02*
X1074Y2455D01*
X1091Y2455D02*
X1174Y2455D01*
X1402Y2455D02*
X1472Y2455D01*
X502Y2454D02*
X571Y2454D01*
X791Y2454D02*
X874Y2454D01*
X891Y2454D02*
X974Y2454D01*
X991Y2454D02*
X1074Y2454D01*
X1091Y2454D02*
X1174Y2454D01*
X1403Y2454D02*
X1472Y2454D01*
X503Y2453D02*
X570Y2453D01*
X791Y2453D02*
X874Y2453D01*
X891Y2453D02*
X974Y2453D01*
X991Y2453D02*
X1074Y2453D01*
X1091Y2453D02*
X1174Y2453D01*
X1403Y2453D02*
X1471Y2453D01*
X503Y2452D02*
X569Y2452D01*
X791Y2452D02*
X874Y2452D01*
X891Y2452D02*
X974Y2452D01*
X991Y2452D02*
X1074Y2452D01*
X1091Y2452D02*
X1174Y2452D01*
X1404Y2452D02*
X1470Y2452D01*
X504Y2451D02*
X568Y2451D01*
X791Y2451D02*
X873Y2451D01*
X891Y2451D02*
X973Y2451D01*
X991Y2451D02*
X1074Y2451D01*
X1092Y2451D02*
X1174Y2451D01*
X1405Y2451D02*
X1469Y2451D01*
X505Y2450D02*
X568Y2450D01*
X791Y2450D02*
X873Y2450D01*
X891Y2450D02*
X973Y2450D01*
X992Y2450D02*
X1073Y2450D01*
X1092Y2450D02*
X1174Y2450D01*
X1406Y2450D02*
X1469Y2450D01*
X506Y2449D02*
X567Y2449D01*
X791Y2449D02*
X873Y2449D01*
X892Y2449D02*
X973Y2449D01*
X992Y2449D02*
X1073Y2449D01*
X1092Y2449D02*
X1173Y2449D01*
X1407Y2449D02*
X1468Y2449D01*
X507Y2448D02*
X566Y2448D01*
X792Y2448D02*
X873Y2448D01*
X892Y2448D02*
X973Y2448D01*
X992Y2448D02*
X1073Y2448D01*
X1092Y2448D02*
X1173Y2448D01*
X1408Y2448D02*
X1467Y2448D01*
X508Y2447D02*
X565Y2447D01*
X792Y2447D02*
X873Y2447D01*
X892Y2447D02*
X973Y2447D01*
X992Y2447D02*
X1073Y2447D01*
X1092Y2447D02*
X1173Y2447D01*
X1409Y2447D02*
X1466Y2447D01*
X509Y2446D02*
X564Y2446D01*
X792Y2446D02*
X872Y2446D01*
X892Y2446D02*
X973Y2446D01*
X992Y2446D02*
X1073Y2446D01*
X1092Y2446D02*
X1173Y2446D01*
X1410Y2446D02*
X1465Y2446D01*
X510Y2445D02*
X563Y2445D01*
X792Y2445D02*
X872Y2445D01*
X893Y2445D02*
X972Y2445D01*
X993Y2445D02*
X1072Y2445D01*
X1093Y2445D02*
X1173Y2445D01*
X1411Y2445D02*
X1463Y2445D01*
X511Y2444D02*
X561Y2444D01*
X793Y2444D02*
X872Y2444D01*
X893Y2444D02*
X972Y2444D01*
X993Y2444D02*
X1072Y2444D01*
X1093Y2444D02*
X1172Y2444D01*
X1412Y2444D02*
X1462Y2444D01*
X513Y2443D02*
X560Y2443D01*
X793Y2443D02*
X872Y2443D01*
X893Y2443D02*
X972Y2443D01*
X993Y2443D02*
X1072Y2443D01*
X1093Y2443D02*
X1172Y2443D01*
X1414Y2443D02*
X1461Y2443D01*
X514Y2442D02*
X558Y2442D01*
X793Y2442D02*
X871Y2442D01*
X893Y2442D02*
X971Y2442D01*
X994Y2442D02*
X1071Y2442D01*
X1094Y2442D02*
X1172Y2442D01*
X1415Y2442D02*
X1459Y2442D01*
X516Y2441D02*
X557Y2441D01*
X794Y2441D02*
X871Y2441D01*
X894Y2441D02*
X971Y2441D01*
X994Y2441D02*
X1071Y2441D01*
X1094Y2441D02*
X1171Y2441D01*
X1417Y2441D02*
X1458Y2441D01*
X517Y2440D02*
X555Y2440D01*
X794Y2440D02*
X870Y2440D01*
X894Y2440D02*
X971Y2440D01*
X994Y2440D02*
X1071Y2440D01*
X1094Y2440D02*
X1171Y2440D01*
X1418Y2440D02*
X1456Y2440D01*
X520Y2439D02*
X553Y2439D01*
X795Y2439D02*
X870Y2439D01*
X895Y2439D02*
X970Y2439D01*
X995Y2439D02*
X1070Y2439D01*
X1095Y2439D02*
X1170Y2439D01*
X1420Y2439D02*
X1454Y2439D01*
X522Y2438D02*
X550Y2438D01*
X795Y2438D02*
X870Y2438D01*
X895Y2438D02*
X970Y2438D01*
X995Y2438D02*
X1070Y2438D01*
X1095Y2438D02*
X1170Y2438D01*
X1423Y2438D02*
X1451Y2438D01*
X525Y2437D02*
X547Y2437D01*
X796Y2437D02*
X869Y2437D01*
X896Y2437D02*
X969Y2437D01*
X996Y2437D02*
X1069Y2437D01*
X1096Y2437D02*
X1169Y2437D01*
X1426Y2437D02*
X1448Y2437D01*
X530Y2436D02*
X543Y2436D01*
X796Y2436D02*
X868Y2436D01*
X896Y2436D02*
X969Y2436D01*
X996Y2436D02*
X1069Y2436D01*
X1096Y2436D02*
X1169Y2436D01*
X1431Y2436D02*
X1444Y2436D01*
X797Y2435D02*
X868Y2435D01*
X897Y2435D02*
X968Y2435D01*
X997Y2435D02*
X1068Y2435D01*
X1097Y2435D02*
X1168Y2435D01*
X797Y2434D02*
X867Y2434D01*
X897Y2434D02*
X967Y2434D01*
X998Y2434D02*
X1068Y2434D01*
X1098Y2434D02*
X1168Y2434D01*
X798Y2433D02*
X867Y2433D01*
X898Y2433D02*
X967Y2433D01*
X998Y2433D02*
X1067Y2433D01*
X1098Y2433D02*
X1167Y2433D01*
X799Y2432D02*
X866Y2432D01*
X899Y2432D02*
X966Y2432D01*
X999Y2432D02*
X1066Y2432D01*
X1099Y2432D02*
X1166Y2432D01*
X799Y2431D02*
X865Y2431D01*
X899Y2431D02*
X965Y2431D01*
X1000Y2431D02*
X1065Y2431D01*
X1100Y2431D02*
X1166Y2431D01*
X800Y2430D02*
X864Y2430D01*
X900Y2430D02*
X965Y2430D01*
X1000Y2430D02*
X1065Y2430D01*
X1100Y2430D02*
X1165Y2430D01*
X801Y2429D02*
X864Y2429D01*
X901Y2429D02*
X964Y2429D01*
X1001Y2429D02*
X1064Y2429D01*
X1101Y2429D02*
X1164Y2429D01*
X802Y2428D02*
X863Y2428D01*
X902Y2428D02*
X963Y2428D01*
X1002Y2428D02*
X1063Y2428D01*
X1102Y2428D02*
X1163Y2428D01*
X803Y2427D02*
X862Y2427D01*
X903Y2427D02*
X962Y2427D01*
X1003Y2427D02*
X1062Y2427D01*
X1103Y2427D02*
X1162Y2427D01*
X804Y2426D02*
X861Y2426D01*
X904Y2426D02*
X961Y2426D01*
X1004Y2426D02*
X1061Y2426D01*
X1104Y2426D02*
X1161Y2426D01*
X805Y2425D02*
X860Y2425D01*
X905Y2425D02*
X960Y2425D01*
X1005Y2425D02*
X1060Y2425D01*
X1105Y2425D02*
X1160Y2425D01*
X806Y2424D02*
X859Y2424D01*
X906Y2424D02*
X959Y2424D01*
X1006Y2424D02*
X1059Y2424D01*
X1106Y2424D02*
X1159Y2424D01*
X807Y2423D02*
X857Y2423D01*
X907Y2423D02*
X957Y2423D01*
X1008Y2423D02*
X1057Y2423D01*
X1108Y2423D02*
X1158Y2423D01*
X809Y2422D02*
X856Y2422D01*
X909Y2422D02*
X956Y2422D01*
X1009Y2422D02*
X1056Y2422D01*
X1109Y2422D02*
X1156Y2422D01*
X810Y2421D02*
X854Y2421D01*
X910Y2421D02*
X954Y2421D01*
X1010Y2421D02*
X1055Y2421D01*
X1111Y2421D02*
X1155Y2421D01*
X812Y2420D02*
X853Y2420D01*
X912Y2420D02*
X953Y2420D01*
X1012Y2420D02*
X1053Y2420D01*
X1112Y2420D02*
X1153Y2420D01*
X533Y2419D02*
X540Y2419D01*
X814Y2419D02*
X851Y2419D01*
X914Y2419D02*
X951Y2419D01*
X1014Y2419D02*
X1051Y2419D01*
X1114Y2419D02*
X1151Y2419D01*
X1433Y2419D02*
X1441Y2419D01*
X527Y2418D02*
X545Y2418D01*
X816Y2418D02*
X849Y2418D01*
X916Y2418D02*
X949Y2418D01*
X1016Y2418D02*
X1049Y2418D01*
X1116Y2418D02*
X1149Y2418D01*
X1428Y2418D02*
X1446Y2418D01*
X523Y2417D02*
X549Y2417D01*
X818Y2417D02*
X846Y2417D01*
X918Y2417D02*
X947Y2417D01*
X1018Y2417D02*
X1047Y2417D01*
X1119Y2417D02*
X1147Y2417D01*
X1424Y2417D02*
X1450Y2417D01*
X520Y2416D02*
X552Y2416D01*
X821Y2416D02*
X843Y2416D01*
X921Y2416D02*
X943Y2416D01*
X1022Y2416D02*
X1043Y2416D01*
X1122Y2416D02*
X1144Y2416D01*
X1421Y2416D02*
X1453Y2416D01*
X518Y2415D02*
X554Y2415D01*
X826Y2415D02*
X839Y2415D01*
X926Y2415D02*
X939Y2415D01*
X1026Y2415D02*
X1039Y2415D01*
X1126Y2415D02*
X1139Y2415D01*
X1419Y2415D02*
X1455Y2415D01*
X516Y2414D02*
X556Y2414D01*
X1417Y2414D02*
X1457Y2414D01*
X515Y2413D02*
X558Y2413D01*
X1416Y2413D02*
X1459Y2413D01*
X513Y2412D02*
X559Y2412D01*
X1414Y2412D02*
X1460Y2412D01*
X512Y2411D02*
X561Y2411D01*
X1413Y2411D02*
X1461Y2411D01*
X511Y2410D02*
X562Y2410D01*
X1411Y2410D02*
X1463Y2410D01*
X509Y2409D02*
X563Y2409D01*
X1410Y2409D02*
X1464Y2409D01*
X508Y2408D02*
X564Y2408D01*
X1409Y2408D02*
X1465Y2408D01*
X507Y2407D02*
X565Y2407D01*
X1408Y2407D02*
X1466Y2407D01*
X506Y2406D02*
X566Y2406D01*
X1407Y2406D02*
X1467Y2406D01*
X505Y2405D02*
X567Y2405D01*
X1406Y2405D02*
X1468Y2405D01*
X504Y2404D02*
X568Y2404D01*
X1405Y2404D02*
X1469Y2404D01*
X504Y2403D02*
X569Y2403D01*
X1405Y2403D02*
X1470Y2403D01*
X503Y2402D02*
X570Y2402D01*
X1404Y2402D02*
X1470Y2402D01*
X502Y2401D02*
X570Y2401D01*
X1403Y2401D02*
X1471Y2401D01*
X501Y2400D02*
X571Y2400D01*
X1402Y2400D02*
X1472Y2400D01*
X501Y2399D02*
X572Y2399D01*
X1402Y2399D02*
X1472Y2399D01*
X500Y2398D02*
X572Y2398D01*
X1401Y2398D02*
X1473Y2398D01*
X500Y2397D02*
X573Y2397D01*
X1401Y2397D02*
X1474Y2397D01*
X499Y2396D02*
X573Y2396D01*
X1400Y2396D02*
X1474Y2396D01*
X499Y2395D02*
X574Y2395D01*
X1400Y2395D02*
X1475Y2395D01*
X498Y2394D02*
X574Y2394D01*
X1399Y2394D02*
X1475Y2394D01*
X498Y2393D02*
X575Y2393D01*
X1399Y2393D02*
X1476Y2393D01*
X497Y2392D02*
X575Y2392D01*
X1398Y2392D02*
X1476Y2392D01*
X497Y2391D02*
X575Y2391D01*
X1398Y2391D02*
X1476Y2391D01*
X497Y2390D02*
X576Y2390D01*
X1398Y2390D02*
X1477Y2390D01*
X496Y2389D02*
X576Y2389D01*
X1397Y2389D02*
X1477Y2389D01*
X496Y2388D02*
X576Y2388D01*
X1397Y2388D02*
X1477Y2388D01*
X496Y2387D02*
X576Y2387D01*
X1397Y2387D02*
X1477Y2387D01*
X496Y2386D02*
X577Y2386D01*
X1397Y2386D02*
X1478Y2386D01*
X495Y2385D02*
X577Y2385D01*
X1396Y2385D02*
X1478Y2385D01*
X495Y2384D02*
X577Y2384D01*
X1396Y2384D02*
X1478Y2384D01*
X495Y2383D02*
X577Y2383D01*
X1396Y2383D02*
X1478Y2383D01*
X495Y2382D02*
X577Y2382D01*
X1396Y2382D02*
X1478Y2382D01*
X495Y2381D02*
X578Y2381D01*
X1396Y2381D02*
X1478Y2381D01*
X495Y2380D02*
X578Y2380D01*
X1396Y2380D02*
X1479Y2380D01*
X495Y2379D02*
X578Y2379D01*
X1396Y2379D02*
X1479Y2379D01*
X495Y2378D02*
X578Y2378D01*
X1396Y2378D02*
X1479Y2378D01*
X495Y2377D02*
X578Y2377D01*
X1396Y2377D02*
X1479Y2377D01*
X495Y2376D02*
X578Y2376D01*
X1396Y2376D02*
X1479Y2376D01*
X495Y2375D02*
X578Y2375D01*
X1396Y2375D02*
X1479Y2375D01*
X495Y2374D02*
X578Y2374D01*
X1396Y2374D02*
X1478Y2374D01*
X495Y2373D02*
X577Y2373D01*
X1396Y2373D02*
X1478Y2373D01*
X495Y2372D02*
X577Y2372D01*
X1396Y2372D02*
X1478Y2372D01*
X495Y2371D02*
X577Y2371D01*
X1396Y2371D02*
X1478Y2371D01*
X495Y2370D02*
X577Y2370D01*
X1396Y2370D02*
X1478Y2370D01*
X496Y2369D02*
X577Y2369D01*
X1396Y2369D02*
X1478Y2369D01*
X496Y2368D02*
X577Y2368D01*
X1397Y2368D02*
X1478Y2368D01*
X496Y2367D02*
X576Y2367D01*
X1397Y2367D02*
X1477Y2367D01*
X496Y2366D02*
X576Y2366D01*
X1397Y2366D02*
X1477Y2366D01*
X497Y2365D02*
X576Y2365D01*
X1397Y2365D02*
X1477Y2365D01*
X497Y2364D02*
X576Y2364D01*
X1398Y2364D02*
X1476Y2364D01*
X497Y2363D02*
X575Y2363D01*
X1398Y2363D02*
X1476Y2363D01*
X498Y2362D02*
X575Y2362D01*
X1398Y2362D02*
X1476Y2362D01*
X498Y2361D02*
X574Y2361D01*
X1399Y2361D02*
X1475Y2361D01*
X498Y2360D02*
X574Y2360D01*
X1399Y2360D02*
X1475Y2360D01*
X499Y2359D02*
X574Y2359D01*
X1400Y2359D02*
X1474Y2359D01*
X499Y2358D02*
X573Y2358D01*
X1400Y2358D02*
X1474Y2358D01*
X500Y2357D02*
X573Y2357D01*
X1401Y2357D02*
X1473Y2357D01*
X501Y2356D02*
X572Y2356D01*
X1401Y2356D02*
X1473Y2356D01*
X501Y2355D02*
X571Y2355D01*
X1402Y2355D02*
X1472Y2355D01*
X502Y2354D02*
X571Y2354D01*
X1403Y2354D02*
X1472Y2354D01*
X502Y2353D02*
X570Y2353D01*
X1403Y2353D02*
X1471Y2353D01*
X503Y2352D02*
X569Y2352D01*
X1404Y2352D02*
X1470Y2352D01*
X504Y2351D02*
X568Y2351D01*
X1405Y2351D02*
X1469Y2351D01*
X505Y2350D02*
X568Y2350D01*
X1406Y2350D02*
X1469Y2350D01*
X506Y2349D02*
X567Y2349D01*
X1407Y2349D02*
X1468Y2349D01*
X507Y2348D02*
X566Y2348D01*
X1407Y2348D02*
X1467Y2348D01*
X508Y2347D02*
X565Y2347D01*
X1408Y2347D02*
X1466Y2347D01*
X509Y2346D02*
X564Y2346D01*
X1410Y2346D02*
X1465Y2346D01*
X510Y2345D02*
X563Y2345D01*
X1411Y2345D02*
X1464Y2345D01*
X511Y2344D02*
X561Y2344D01*
X1412Y2344D02*
X1462Y2344D01*
X512Y2343D02*
X560Y2343D01*
X1413Y2343D02*
X1461Y2343D01*
X514Y2342D02*
X558Y2342D01*
X1415Y2342D02*
X1459Y2342D01*
X516Y2341D02*
X557Y2341D01*
X1416Y2341D02*
X1458Y2341D01*
X517Y2340D02*
X555Y2340D01*
X1418Y2340D02*
X1456Y2340D01*
X519Y2339D02*
X553Y2339D01*
X1420Y2339D02*
X1454Y2339D01*
X522Y2338D02*
X551Y2338D01*
X1423Y2338D02*
X1452Y2338D01*
X525Y2337D02*
X548Y2337D01*
X1426Y2337D02*
X1449Y2337D01*
X529Y2336D02*
X543Y2336D01*
X1430Y2336D02*
X1444Y2336D01*
X534Y2319D02*
X538Y2319D01*
X1435Y2319D02*
X1439Y2319D01*
X527Y2318D02*
X545Y2318D01*
X1428Y2318D02*
X1446Y2318D01*
X524Y2317D02*
X549Y2317D01*
X1425Y2317D02*
X1450Y2317D01*
X521Y2316D02*
X552Y2316D01*
X1422Y2316D02*
X1453Y2316D01*
X519Y2315D02*
X554Y2315D01*
X1420Y2315D02*
X1455Y2315D01*
X517Y2314D02*
X556Y2314D01*
X1418Y2314D02*
X1457Y2314D01*
X515Y2313D02*
X557Y2313D01*
X1416Y2313D02*
X1458Y2313D01*
X513Y2312D02*
X559Y2312D01*
X1414Y2312D02*
X1460Y2312D01*
X512Y2311D02*
X560Y2311D01*
X1413Y2311D02*
X1461Y2311D01*
X511Y2310D02*
X562Y2310D01*
X1412Y2310D02*
X1463Y2310D01*
X509Y2309D02*
X563Y2309D01*
X1410Y2309D02*
X1464Y2309D01*
X508Y2308D02*
X564Y2308D01*
X1409Y2308D02*
X1465Y2308D01*
X507Y2307D02*
X565Y2307D01*
X1408Y2307D02*
X1466Y2307D01*
X506Y2306D02*
X566Y2306D01*
X1407Y2306D02*
X1467Y2306D01*
X505Y2305D02*
X567Y2305D01*
X1406Y2305D02*
X1468Y2305D01*
X504Y2304D02*
X568Y2304D01*
X1405Y2304D02*
X1469Y2304D01*
X504Y2303D02*
X569Y2303D01*
X1405Y2303D02*
X1470Y2303D01*
X503Y2302D02*
X569Y2302D01*
X1404Y2302D02*
X1470Y2302D01*
X502Y2301D02*
X570Y2301D01*
X1403Y2301D02*
X1471Y2301D01*
X502Y2300D02*
X571Y2300D01*
X1402Y2300D02*
X1472Y2300D01*
X501Y2299D02*
X571Y2299D01*
X1402Y2299D02*
X1472Y2299D01*
X500Y2298D02*
X572Y2298D01*
X1401Y2298D02*
X1473Y2298D01*
X500Y2297D02*
X573Y2297D01*
X1401Y2297D02*
X1474Y2297D01*
X499Y2296D02*
X573Y2296D01*
X1400Y2296D02*
X1474Y2296D01*
X499Y2295D02*
X574Y2295D01*
X1400Y2295D02*
X1475Y2295D01*
X498Y2294D02*
X574Y2294D01*
X1399Y2294D02*
X1475Y2294D01*
X498Y2293D02*
X575Y2293D01*
X1399Y2293D02*
X1476Y2293D01*
X497Y2292D02*
X575Y2292D01*
X1398Y2292D02*
X1476Y2292D01*
X497Y2291D02*
X575Y2291D01*
X1398Y2291D02*
X1476Y2291D01*
X497Y2290D02*
X576Y2290D01*
X1398Y2290D02*
X1477Y2290D01*
X496Y2289D02*
X576Y2289D01*
X1397Y2289D02*
X1477Y2289D01*
X496Y2288D02*
X576Y2288D01*
X1397Y2288D02*
X1477Y2288D01*
X496Y2287D02*
X576Y2287D01*
X1397Y2287D02*
X1477Y2287D01*
X496Y2286D02*
X577Y2286D01*
X1397Y2286D02*
X1478Y2286D01*
X496Y2285D02*
X577Y2285D01*
X1396Y2285D02*
X1478Y2285D01*
X495Y2284D02*
X577Y2284D01*
X1396Y2284D02*
X1478Y2284D01*
X495Y2283D02*
X577Y2283D01*
X1396Y2283D02*
X1478Y2283D01*
X495Y2282D02*
X577Y2282D01*
X1396Y2282D02*
X1478Y2282D01*
X495Y2281D02*
X578Y2281D01*
X1396Y2281D02*
X1478Y2281D01*
X495Y2280D02*
X578Y2280D01*
X1396Y2280D02*
X1478Y2280D01*
X495Y2279D02*
X578Y2279D01*
X1396Y2279D02*
X1479Y2279D01*
X495Y2278D02*
X578Y2278D01*
X1396Y2278D02*
X1479Y2278D01*
X495Y2277D02*
X578Y2277D01*
X1396Y2277D02*
X1479Y2277D01*
X495Y2276D02*
X578Y2276D01*
X1396Y2276D02*
X1479Y2276D01*
X495Y2275D02*
X578Y2275D01*
X1396Y2275D02*
X1479Y2275D01*
X495Y2274D02*
X578Y2274D01*
X1396Y2274D02*
X1478Y2274D01*
X495Y2273D02*
X577Y2273D01*
X1396Y2273D02*
X1478Y2273D01*
X495Y2272D02*
X577Y2272D01*
X1396Y2272D02*
X1478Y2272D01*
X495Y2271D02*
X577Y2271D01*
X1396Y2271D02*
X1478Y2271D01*
X495Y2270D02*
X577Y2270D01*
X1396Y2270D02*
X1478Y2270D01*
X496Y2269D02*
X577Y2269D01*
X1396Y2269D02*
X1478Y2269D01*
X496Y2268D02*
X577Y2268D01*
X1397Y2268D02*
X1478Y2268D01*
X496Y2267D02*
X576Y2267D01*
X1397Y2267D02*
X1477Y2267D01*
X496Y2266D02*
X576Y2266D01*
X1397Y2266D02*
X1477Y2266D01*
X497Y2265D02*
X576Y2265D01*
X1397Y2265D02*
X1477Y2265D01*
X497Y2264D02*
X576Y2264D01*
X1398Y2264D02*
X1477Y2264D01*
X497Y2263D02*
X575Y2263D01*
X1398Y2263D02*
X1476Y2263D01*
X498Y2262D02*
X575Y2262D01*
X1398Y2262D02*
X1476Y2262D01*
X498Y2261D02*
X575Y2261D01*
X1399Y2261D02*
X1475Y2261D01*
X498Y2260D02*
X574Y2260D01*
X1399Y2260D02*
X1475Y2260D01*
X499Y2259D02*
X574Y2259D01*
X1400Y2259D02*
X1475Y2259D01*
X499Y2258D02*
X573Y2258D01*
X1400Y2258D02*
X1474Y2258D01*
X500Y2257D02*
X573Y2257D01*
X1401Y2257D02*
X1473Y2257D01*
X500Y2256D02*
X572Y2256D01*
X1401Y2256D02*
X1473Y2256D01*
X501Y2255D02*
X571Y2255D01*
X1402Y2255D02*
X1472Y2255D01*
X502Y2254D02*
X571Y2254D01*
X1403Y2254D02*
X1472Y2254D01*
X502Y2253D02*
X570Y2253D01*
X1403Y2253D02*
X1471Y2253D01*
X503Y2252D02*
X569Y2252D01*
X1404Y2252D02*
X1470Y2252D01*
X504Y2251D02*
X569Y2251D01*
X1405Y2251D02*
X1469Y2251D01*
X505Y2250D02*
X568Y2250D01*
X1406Y2250D02*
X1469Y2250D01*
X506Y2249D02*
X567Y2249D01*
X1406Y2249D02*
X1468Y2249D01*
X506Y2248D02*
X566Y2248D01*
X1407Y2248D02*
X1467Y2248D01*
X507Y2247D02*
X565Y2247D01*
X1408Y2247D02*
X1466Y2247D01*
X509Y2246D02*
X564Y2246D01*
X1409Y2246D02*
X1465Y2246D01*
X510Y2245D02*
X563Y2245D01*
X1411Y2245D02*
X1464Y2245D01*
X511Y2244D02*
X561Y2244D01*
X1412Y2244D02*
X1462Y2244D01*
X512Y2243D02*
X560Y2243D01*
X1413Y2243D02*
X1461Y2243D01*
X514Y2242D02*
X559Y2242D01*
X1415Y2242D02*
X1460Y2242D01*
X515Y2241D02*
X557Y2241D01*
X1416Y2241D02*
X1458Y2241D01*
X517Y2240D02*
X555Y2240D01*
X1418Y2240D02*
X1456Y2240D01*
X519Y2239D02*
X553Y2239D01*
X1420Y2239D02*
X1454Y2239D01*
X521Y2238D02*
X551Y2238D01*
X1422Y2238D02*
X1452Y2238D01*
X524Y2237D02*
X548Y2237D01*
X1425Y2237D02*
X1449Y2237D01*
X528Y2236D02*
X544Y2236D01*
X1429Y2236D02*
X1445Y2236D01*
X536Y2219D02*
X536Y2219D01*
X1437Y2219D02*
X1437Y2219D01*
X528Y2218D02*
X545Y2218D01*
X1429Y2218D02*
X1446Y2218D01*
X524Y2217D02*
X549Y2217D01*
X1425Y2217D02*
X1449Y2217D01*
X521Y2216D02*
X551Y2216D01*
X1422Y2216D02*
X1452Y2216D01*
X519Y2215D02*
X554Y2215D01*
X1420Y2215D02*
X1454Y2215D01*
X517Y2214D02*
X556Y2214D01*
X1418Y2214D02*
X1456Y2214D01*
X515Y2213D02*
X557Y2213D01*
X1416Y2213D02*
X1458Y2213D01*
X514Y2212D02*
X559Y2212D01*
X1414Y2212D02*
X1460Y2212D01*
X512Y2211D02*
X560Y2211D01*
X1413Y2211D02*
X1461Y2211D01*
X511Y2210D02*
X562Y2210D01*
X1412Y2210D02*
X1463Y2210D01*
X510Y2209D02*
X563Y2209D01*
X1410Y2209D02*
X1464Y2209D01*
X508Y2208D02*
X564Y2208D01*
X1409Y2208D02*
X1465Y2208D01*
X507Y2207D02*
X565Y2207D01*
X1408Y2207D02*
X1466Y2207D01*
X506Y2206D02*
X566Y2206D01*
X1407Y2206D02*
X1467Y2206D01*
X505Y2205D02*
X567Y2205D01*
X1406Y2205D02*
X1468Y2205D01*
X505Y2204D02*
X568Y2204D01*
X1405Y2204D02*
X1469Y2204D01*
X504Y2203D02*
X569Y2203D01*
X1405Y2203D02*
X1470Y2203D01*
X503Y2202D02*
X569Y2202D01*
X1404Y2202D02*
X1470Y2202D01*
X502Y2201D02*
X570Y2201D01*
X1403Y2201D02*
X1471Y2201D01*
X502Y2200D02*
X571Y2200D01*
X1403Y2200D02*
X1472Y2200D01*
X501Y2199D02*
X571Y2199D01*
X1402Y2199D02*
X1472Y2199D01*
X500Y2198D02*
X572Y2198D01*
X1401Y2198D02*
X1473Y2198D01*
X500Y2197D02*
X573Y2197D01*
X1401Y2197D02*
X1474Y2197D01*
X499Y2196D02*
X573Y2196D01*
X1400Y2196D02*
X1474Y2196D01*
X499Y2195D02*
X574Y2195D01*
X1400Y2195D02*
X1475Y2195D01*
X498Y2194D02*
X574Y2194D01*
X1399Y2194D02*
X1475Y2194D01*
X498Y2193D02*
X575Y2193D01*
X1399Y2193D02*
X1475Y2193D01*
X497Y2192D02*
X575Y2192D01*
X1398Y2192D02*
X1476Y2192D01*
X497Y2191D02*
X575Y2191D01*
X1398Y2191D02*
X1476Y2191D01*
X497Y2190D02*
X576Y2190D01*
X1398Y2190D02*
X1477Y2190D01*
X496Y2189D02*
X576Y2189D01*
X1397Y2189D02*
X1477Y2189D01*
X496Y2188D02*
X576Y2188D01*
X1397Y2188D02*
X1477Y2188D01*
X496Y2187D02*
X576Y2187D01*
X1397Y2187D02*
X1477Y2187D01*
X496Y2186D02*
X577Y2186D01*
X1397Y2186D02*
X1478Y2186D01*
X496Y2185D02*
X577Y2185D01*
X1396Y2185D02*
X1478Y2185D01*
X495Y2184D02*
X577Y2184D01*
X1396Y2184D02*
X1478Y2184D01*
X495Y2183D02*
X577Y2183D01*
X1396Y2183D02*
X1478Y2183D01*
X495Y2182D02*
X577Y2182D01*
X1396Y2182D02*
X1478Y2182D01*
X495Y2181D02*
X578Y2181D01*
X1396Y2181D02*
X1478Y2181D01*
X495Y2180D02*
X578Y2180D01*
X1396Y2180D02*
X1478Y2180D01*
X495Y2179D02*
X578Y2179D01*
X1396Y2179D02*
X1479Y2179D01*
X495Y2178D02*
X578Y2178D01*
X1396Y2178D02*
X1479Y2178D01*
X495Y2177D02*
X578Y2177D01*
X1396Y2177D02*
X1479Y2177D01*
X495Y2176D02*
X578Y2176D01*
X1396Y2176D02*
X1479Y2176D01*
X495Y2175D02*
X578Y2175D01*
X1396Y2175D02*
X1479Y2175D01*
X495Y2174D02*
X578Y2174D01*
X1396Y2174D02*
X1478Y2174D01*
X495Y2173D02*
X578Y2173D01*
X1396Y2173D02*
X1478Y2173D01*
X495Y2172D02*
X577Y2172D01*
X1396Y2172D02*
X1478Y2172D01*
X495Y2171D02*
X577Y2171D01*
X1396Y2171D02*
X1478Y2171D01*
X495Y2170D02*
X577Y2170D01*
X1396Y2170D02*
X1478Y2170D01*
X496Y2169D02*
X577Y2169D01*
X1396Y2169D02*
X1478Y2169D01*
X496Y2168D02*
X577Y2168D01*
X1397Y2168D02*
X1478Y2168D01*
X496Y2167D02*
X576Y2167D01*
X1397Y2167D02*
X1477Y2167D01*
X496Y2166D02*
X576Y2166D01*
X1397Y2166D02*
X1477Y2166D01*
X496Y2165D02*
X576Y2165D01*
X1397Y2165D02*
X1477Y2165D01*
X497Y2164D02*
X576Y2164D01*
X1398Y2164D02*
X1477Y2164D01*
X497Y2163D02*
X575Y2163D01*
X1398Y2163D02*
X1476Y2163D01*
X497Y2162D02*
X575Y2162D01*
X1398Y2162D02*
X1476Y2162D01*
X498Y2161D02*
X575Y2161D01*
X1399Y2161D02*
X1475Y2161D01*
X498Y2160D02*
X574Y2160D01*
X1399Y2160D02*
X1475Y2160D01*
X499Y2159D02*
X574Y2159D01*
X1400Y2159D02*
X1475Y2159D01*
X499Y2158D02*
X573Y2158D01*
X1400Y2158D02*
X1474Y2158D01*
X500Y2157D02*
X573Y2157D01*
X1401Y2157D02*
X1474Y2157D01*
X500Y2156D02*
X572Y2156D01*
X1401Y2156D02*
X1473Y2156D01*
X501Y2155D02*
X571Y2155D01*
X1402Y2155D02*
X1472Y2155D01*
X502Y2154D02*
X571Y2154D01*
X1403Y2154D02*
X1472Y2154D01*
X502Y2153D02*
X570Y2153D01*
X1403Y2153D02*
X1471Y2153D01*
X503Y2152D02*
X569Y2152D01*
X1404Y2152D02*
X1470Y2152D01*
X504Y2151D02*
X569Y2151D01*
X1405Y2151D02*
X1470Y2151D01*
X505Y2150D02*
X568Y2150D01*
X1405Y2150D02*
X1469Y2150D01*
X505Y2149D02*
X567Y2149D01*
X1406Y2149D02*
X1468Y2149D01*
X506Y2148D02*
X566Y2148D01*
X1407Y2148D02*
X1467Y2148D01*
X507Y2147D02*
X565Y2147D01*
X1408Y2147D02*
X1466Y2147D01*
X508Y2146D02*
X564Y2146D01*
X1409Y2146D02*
X1465Y2146D01*
X510Y2145D02*
X563Y2145D01*
X1410Y2145D02*
X1464Y2145D01*
X511Y2144D02*
X562Y2144D01*
X1412Y2144D02*
X1463Y2144D01*
X512Y2143D02*
X560Y2143D01*
X1413Y2143D02*
X1461Y2143D01*
X514Y2142D02*
X559Y2142D01*
X1414Y2142D02*
X1460Y2142D01*
X515Y2141D02*
X557Y2141D01*
X1416Y2141D02*
X1458Y2141D01*
X517Y2140D02*
X556Y2140D01*
X1418Y2140D02*
X1457Y2140D01*
X519Y2139D02*
X554Y2139D01*
X1420Y2139D02*
X1454Y2139D01*
X521Y2138D02*
X551Y2138D01*
X1422Y2138D02*
X1452Y2138D01*
X524Y2137D02*
X549Y2137D01*
X1425Y2137D02*
X1449Y2137D01*
X528Y2136D02*
X545Y2136D01*
X1429Y2136D02*
X1446Y2136D01*
X536Y2135D02*
X536Y2135D01*
X1437Y2135D02*
X1437Y2135D01*
X528Y2118D02*
X544Y2118D01*
X1429Y2118D02*
X1445Y2118D01*
X524Y2117D02*
X548Y2117D01*
X1425Y2117D02*
X1449Y2117D01*
X521Y2116D02*
X551Y2116D01*
X1422Y2116D02*
X1452Y2116D01*
X519Y2115D02*
X553Y2115D01*
X1420Y2115D02*
X1454Y2115D01*
X517Y2114D02*
X555Y2114D01*
X1418Y2114D02*
X1456Y2114D01*
X515Y2113D02*
X557Y2113D01*
X1416Y2113D02*
X1458Y2113D01*
X514Y2112D02*
X559Y2112D01*
X1415Y2112D02*
X1460Y2112D01*
X512Y2111D02*
X560Y2111D01*
X1413Y2111D02*
X1461Y2111D01*
X511Y2110D02*
X561Y2110D01*
X1412Y2110D02*
X1462Y2110D01*
X510Y2109D02*
X563Y2109D01*
X1411Y2109D02*
X1464Y2109D01*
X509Y2108D02*
X564Y2108D01*
X1409Y2108D02*
X1465Y2108D01*
X507Y2107D02*
X565Y2107D01*
X1408Y2107D02*
X1466Y2107D01*
X506Y2106D02*
X566Y2106D01*
X1407Y2106D02*
X1467Y2106D01*
X506Y2105D02*
X567Y2105D01*
X1406Y2105D02*
X1468Y2105D01*
X505Y2104D02*
X568Y2104D01*
X1406Y2104D02*
X1469Y2104D01*
X504Y2103D02*
X569Y2103D01*
X1405Y2103D02*
X1469Y2103D01*
X503Y2102D02*
X569Y2102D01*
X1404Y2102D02*
X1470Y2102D01*
X502Y2101D02*
X570Y2101D01*
X1403Y2101D02*
X1471Y2101D01*
X502Y2100D02*
X571Y2100D01*
X1403Y2100D02*
X1472Y2100D01*
X501Y2099D02*
X571Y2099D01*
X1402Y2099D02*
X1472Y2099D01*
X500Y2098D02*
X572Y2098D01*
X1401Y2098D02*
X1473Y2098D01*
X500Y2097D02*
X573Y2097D01*
X1401Y2097D02*
X1473Y2097D01*
X499Y2096D02*
X573Y2096D01*
X1400Y2096D02*
X1474Y2096D01*
X499Y2095D02*
X574Y2095D01*
X1400Y2095D02*
X1474Y2095D01*
X498Y2094D02*
X574Y2094D01*
X1399Y2094D02*
X1475Y2094D01*
X498Y2093D02*
X575Y2093D01*
X1399Y2093D02*
X1475Y2093D01*
X498Y2092D02*
X575Y2092D01*
X1398Y2092D02*
X1476Y2092D01*
X497Y2091D02*
X575Y2091D01*
X1398Y2091D02*
X1476Y2091D01*
X497Y2090D02*
X576Y2090D01*
X1398Y2090D02*
X1477Y2090D01*
X497Y2089D02*
X576Y2089D01*
X1397Y2089D02*
X1477Y2089D01*
X496Y2088D02*
X576Y2088D01*
X1397Y2088D02*
X1477Y2088D01*
X496Y2087D02*
X576Y2087D01*
X1397Y2087D02*
X1477Y2087D01*
X496Y2086D02*
X577Y2086D01*
X1397Y2086D02*
X1478Y2086D01*
X496Y2085D02*
X577Y2085D01*
X1396Y2085D02*
X1478Y2085D01*
X495Y2084D02*
X577Y2084D01*
X1396Y2084D02*
X1478Y2084D01*
X495Y2083D02*
X577Y2083D01*
X1396Y2083D02*
X1478Y2083D01*
X495Y2082D02*
X577Y2082D01*
X1396Y2082D02*
X1478Y2082D01*
X495Y2081D02*
X577Y2081D01*
X1396Y2081D02*
X1478Y2081D01*
X495Y2080D02*
X578Y2080D01*
X1396Y2080D02*
X1478Y2080D01*
X495Y2079D02*
X578Y2079D01*
X1396Y2079D02*
X1479Y2079D01*
X495Y2078D02*
X578Y2078D01*
X1396Y2078D02*
X1479Y2078D01*
X495Y2077D02*
X578Y2077D01*
X1396Y2077D02*
X1479Y2077D01*
X495Y2076D02*
X578Y2076D01*
X1396Y2076D02*
X1479Y2076D01*
X495Y2075D02*
X578Y2075D01*
X1396Y2075D02*
X1479Y2075D01*
X495Y2074D02*
X578Y2074D01*
X1396Y2074D02*
X1478Y2074D01*
X495Y2073D02*
X578Y2073D01*
X1396Y2073D02*
X1478Y2073D01*
X495Y2072D02*
X577Y2072D01*
X1396Y2072D02*
X1478Y2072D01*
X495Y2071D02*
X577Y2071D01*
X1396Y2071D02*
X1478Y2071D01*
X495Y2070D02*
X577Y2070D01*
X1396Y2070D02*
X1478Y2070D01*
X495Y2069D02*
X577Y2069D01*
X1396Y2069D02*
X1478Y2069D01*
X496Y2068D02*
X577Y2068D01*
X1397Y2068D02*
X1478Y2068D01*
X496Y2067D02*
X576Y2067D01*
X1397Y2067D02*
X1477Y2067D01*
X496Y2066D02*
X576Y2066D01*
X1397Y2066D02*
X1477Y2066D01*
X496Y2065D02*
X576Y2065D01*
X1397Y2065D02*
X1477Y2065D01*
X497Y2064D02*
X576Y2064D01*
X1398Y2064D02*
X1477Y2064D01*
X497Y2063D02*
X575Y2063D01*
X1398Y2063D02*
X1476Y2063D01*
X497Y2062D02*
X575Y2062D01*
X1398Y2062D02*
X1476Y2062D01*
X498Y2061D02*
X575Y2061D01*
X1399Y2061D02*
X1476Y2061D01*
X498Y2060D02*
X574Y2060D01*
X1399Y2060D02*
X1475Y2060D01*
X499Y2059D02*
X574Y2059D01*
X1400Y2059D02*
X1475Y2059D01*
X499Y2058D02*
X573Y2058D01*
X1400Y2058D02*
X1474Y2058D01*
X500Y2057D02*
X573Y2057D01*
X1401Y2057D02*
X1474Y2057D01*
X500Y2056D02*
X572Y2056D01*
X1401Y2056D02*
X1473Y2056D01*
X501Y2055D02*
X571Y2055D01*
X1402Y2055D02*
X1472Y2055D01*
X502Y2054D02*
X571Y2054D01*
X1402Y2054D02*
X1472Y2054D01*
X502Y2053D02*
X570Y2053D01*
X1403Y2053D02*
X1471Y2053D01*
X503Y2052D02*
X569Y2052D01*
X1404Y2052D02*
X1470Y2052D01*
X504Y2051D02*
X569Y2051D01*
X1405Y2051D02*
X1470Y2051D01*
X504Y2050D02*
X568Y2050D01*
X1405Y2050D02*
X1469Y2050D01*
X505Y2049D02*
X567Y2049D01*
X1406Y2049D02*
X1468Y2049D01*
X506Y2048D02*
X566Y2048D01*
X1407Y2048D02*
X1467Y2048D01*
X507Y2047D02*
X565Y2047D01*
X1408Y2047D02*
X1466Y2047D01*
X508Y2046D02*
X564Y2046D01*
X1409Y2046D02*
X1465Y2046D01*
X509Y2045D02*
X563Y2045D01*
X1410Y2045D02*
X1464Y2045D01*
X511Y2044D02*
X562Y2044D01*
X1412Y2044D02*
X1463Y2044D01*
X512Y2043D02*
X560Y2043D01*
X1413Y2043D02*
X1461Y2043D01*
X513Y2042D02*
X559Y2042D01*
X1414Y2042D02*
X1460Y2042D01*
X515Y2041D02*
X557Y2041D01*
X1416Y2041D02*
X1458Y2041D01*
X517Y2040D02*
X556Y2040D01*
X1418Y2040D02*
X1457Y2040D01*
X519Y2039D02*
X554Y2039D01*
X1420Y2039D02*
X1455Y2039D01*
X521Y2038D02*
X552Y2038D01*
X1422Y2038D02*
X1453Y2038D01*
X524Y2037D02*
X549Y2037D01*
X1424Y2037D02*
X1450Y2037D01*
X527Y2036D02*
X545Y2036D01*
X1428Y2036D02*
X1446Y2036D01*
X534Y2035D02*
X538Y2035D01*
X1435Y2035D02*
X1439Y2035D01*
X529Y2018D02*
X543Y2018D01*
X1430Y2018D02*
X1444Y2018D01*
X525Y2017D02*
X548Y2017D01*
X1426Y2017D02*
X1449Y2017D01*
X522Y2016D02*
X551Y2016D01*
X1423Y2016D02*
X1452Y2016D01*
X519Y2015D02*
X553Y2015D01*
X1420Y2015D02*
X1454Y2015D01*
X517Y2014D02*
X555Y2014D01*
X1418Y2014D02*
X1456Y2014D01*
X516Y2013D02*
X557Y2013D01*
X1416Y2013D02*
X1458Y2013D01*
X514Y2012D02*
X558Y2012D01*
X1415Y2012D02*
X1459Y2012D01*
X512Y2011D02*
X560Y2011D01*
X1413Y2011D02*
X1461Y2011D01*
X511Y2010D02*
X561Y2010D01*
X1412Y2010D02*
X1462Y2010D01*
X510Y2009D02*
X563Y2009D01*
X1411Y2009D02*
X1464Y2009D01*
X509Y2008D02*
X564Y2008D01*
X1410Y2008D02*
X1465Y2008D01*
X508Y2007D02*
X565Y2007D01*
X1408Y2007D02*
X1466Y2007D01*
X507Y2006D02*
X566Y2006D01*
X1407Y2006D02*
X1467Y2006D01*
X506Y2005D02*
X567Y2005D01*
X1407Y2005D02*
X1468Y2005D01*
X505Y2004D02*
X568Y2004D01*
X1406Y2004D02*
X1469Y2004D01*
X504Y2003D02*
X568Y2003D01*
X1405Y2003D02*
X1469Y2003D01*
X503Y2002D02*
X569Y2002D01*
X1404Y2002D02*
X1470Y2002D01*
X502Y2001D02*
X570Y2001D01*
X1403Y2001D02*
X1471Y2001D01*
X502Y2000D02*
X571Y2000D01*
X1403Y2000D02*
X1472Y2000D01*
X501Y1999D02*
X571Y1999D01*
X1402Y1999D02*
X1472Y1999D01*
X501Y1998D02*
X572Y1998D01*
X1401Y1998D02*
X1473Y1998D01*
X500Y1997D02*
X573Y1997D01*
X1401Y1997D02*
X1473Y1997D01*
X499Y1996D02*
X573Y1996D01*
X1400Y1996D02*
X1474Y1996D01*
X499Y1995D02*
X574Y1995D01*
X1400Y1995D02*
X1474Y1995D01*
X498Y1994D02*
X574Y1994D01*
X1399Y1994D02*
X1475Y1994D01*
X498Y1993D02*
X574Y1993D01*
X1399Y1993D02*
X1475Y1993D01*
X498Y1992D02*
X575Y1992D01*
X1398Y1992D02*
X1476Y1992D01*
X497Y1991D02*
X575Y1991D01*
X1398Y1991D02*
X1476Y1991D01*
X497Y1990D02*
X576Y1990D01*
X1398Y1990D02*
X1476Y1990D01*
X497Y1989D02*
X576Y1989D01*
X1397Y1989D02*
X1477Y1989D01*
X496Y1988D02*
X576Y1988D01*
X1397Y1988D02*
X1477Y1988D01*
X496Y1987D02*
X576Y1987D01*
X1397Y1987D02*
X1477Y1987D01*
X496Y1986D02*
X577Y1986D01*
X1397Y1986D02*
X1478Y1986D01*
X496Y1985D02*
X577Y1985D01*
X1396Y1985D02*
X1478Y1985D01*
X495Y1984D02*
X577Y1984D01*
X1396Y1984D02*
X1478Y1984D01*
X495Y1983D02*
X577Y1983D01*
X1396Y1983D02*
X1478Y1983D01*
X495Y1982D02*
X577Y1982D01*
X1396Y1982D02*
X1478Y1982D01*
X495Y1981D02*
X577Y1981D01*
X1396Y1981D02*
X1478Y1981D01*
X495Y1980D02*
X578Y1980D01*
X1396Y1980D02*
X1478Y1980D01*
X495Y1979D02*
X578Y1979D01*
X1396Y1979D02*
X1479Y1979D01*
X495Y1978D02*
X578Y1978D01*
X1396Y1978D02*
X1479Y1978D01*
X495Y1977D02*
X578Y1977D01*
X1396Y1977D02*
X1479Y1977D01*
X495Y1976D02*
X578Y1976D01*
X1396Y1976D02*
X1479Y1976D01*
X495Y1975D02*
X578Y1975D01*
X1396Y1975D02*
X1479Y1975D01*
X495Y1974D02*
X578Y1974D01*
X1396Y1974D02*
X1479Y1974D01*
X495Y1973D02*
X578Y1973D01*
X1396Y1973D02*
X1478Y1973D01*
X495Y1972D02*
X577Y1972D01*
X1396Y1972D02*
X1478Y1972D01*
X495Y1971D02*
X577Y1971D01*
X1396Y1971D02*
X1478Y1971D01*
X495Y1970D02*
X577Y1970D01*
X1396Y1970D02*
X1478Y1970D01*
X495Y1969D02*
X577Y1969D01*
X1396Y1969D02*
X1478Y1969D01*
X496Y1968D02*
X577Y1968D01*
X1397Y1968D02*
X1478Y1968D01*
X496Y1967D02*
X576Y1967D01*
X1397Y1967D02*
X1477Y1967D01*
X496Y1966D02*
X576Y1966D01*
X1397Y1966D02*
X1477Y1966D01*
X496Y1965D02*
X576Y1965D01*
X1397Y1965D02*
X1477Y1965D01*
X497Y1964D02*
X576Y1964D01*
X1398Y1964D02*
X1477Y1964D01*
X497Y1963D02*
X575Y1963D01*
X1398Y1963D02*
X1476Y1963D01*
X497Y1962D02*
X575Y1962D01*
X1398Y1962D02*
X1476Y1962D01*
X498Y1961D02*
X575Y1961D01*
X1399Y1961D02*
X1476Y1961D01*
X498Y1960D02*
X574Y1960D01*
X1399Y1960D02*
X1475Y1960D01*
X499Y1959D02*
X574Y1959D01*
X1400Y1959D02*
X1475Y1959D01*
X499Y1958D02*
X573Y1958D01*
X1400Y1958D02*
X1474Y1958D01*
X500Y1957D02*
X573Y1957D01*
X1401Y1957D02*
X1474Y1957D01*
X500Y1956D02*
X572Y1956D01*
X1401Y1956D02*
X1473Y1956D01*
X501Y1955D02*
X572Y1955D01*
X1402Y1955D02*
X1472Y1955D01*
X501Y1954D02*
X571Y1954D01*
X1402Y1954D02*
X1472Y1954D01*
X502Y1953D02*
X570Y1953D01*
X1403Y1953D02*
X1471Y1953D01*
X503Y1952D02*
X570Y1952D01*
X1404Y1952D02*
X1470Y1952D01*
X504Y1951D02*
X569Y1951D01*
X1405Y1951D02*
X1470Y1951D01*
X504Y1950D02*
X568Y1950D01*
X1405Y1950D02*
X1469Y1950D01*
X505Y1949D02*
X567Y1949D01*
X1406Y1949D02*
X1468Y1949D01*
X506Y1948D02*
X566Y1948D01*
X1407Y1948D02*
X1467Y1948D01*
X507Y1947D02*
X565Y1947D01*
X1408Y1947D02*
X1466Y1947D01*
X508Y1946D02*
X564Y1946D01*
X1409Y1946D02*
X1465Y1946D01*
X509Y1945D02*
X563Y1945D01*
X1410Y1945D02*
X1464Y1945D01*
X510Y1944D02*
X562Y1944D01*
X1411Y1944D02*
X1463Y1944D01*
X512Y1943D02*
X561Y1943D01*
X1413Y1943D02*
X1461Y1943D01*
X513Y1942D02*
X559Y1942D01*
X1414Y1942D02*
X1460Y1942D01*
X515Y1941D02*
X558Y1941D01*
X1416Y1941D02*
X1459Y1941D01*
X516Y1940D02*
X556Y1940D01*
X1417Y1940D02*
X1457Y1940D01*
X518Y1939D02*
X554Y1939D01*
X1419Y1939D02*
X1455Y1939D01*
X520Y1938D02*
X552Y1938D01*
X1421Y1938D02*
X1453Y1938D01*
X523Y1937D02*
X549Y1937D01*
X1424Y1937D02*
X1450Y1937D01*
X527Y1936D02*
X546Y1936D01*
X1428Y1936D02*
X1446Y1936D01*
X533Y1935D02*
X540Y1935D01*
X1433Y1935D02*
X1441Y1935D01*
X530Y1918D02*
X543Y1918D01*
X1431Y1918D02*
X1444Y1918D01*
X525Y1917D02*
X547Y1917D01*
X1426Y1917D02*
X1448Y1917D01*
X522Y1916D02*
X550Y1916D01*
X1423Y1916D02*
X1451Y1916D01*
X520Y1915D02*
X553Y1915D01*
X1420Y1915D02*
X1454Y1915D01*
X517Y1914D02*
X555Y1914D01*
X1418Y1914D02*
X1456Y1914D01*
X516Y1913D02*
X557Y1913D01*
X1417Y1913D02*
X1458Y1913D01*
X514Y1912D02*
X558Y1912D01*
X1415Y1912D02*
X1459Y1912D01*
X513Y1911D02*
X560Y1911D01*
X1414Y1911D02*
X1461Y1911D01*
X511Y1910D02*
X561Y1910D01*
X1412Y1910D02*
X1462Y1910D01*
X510Y1909D02*
X563Y1909D01*
X1411Y1909D02*
X1463Y1909D01*
X509Y1908D02*
X564Y1908D01*
X1410Y1908D02*
X1465Y1908D01*
X508Y1907D02*
X565Y1907D01*
X1409Y1907D02*
X1466Y1907D01*
X507Y1906D02*
X566Y1906D01*
X1408Y1906D02*
X1467Y1906D01*
X506Y1905D02*
X567Y1905D01*
X1407Y1905D02*
X1468Y1905D01*
X505Y1904D02*
X568Y1904D01*
X1406Y1904D02*
X1469Y1904D01*
X504Y1903D02*
X568Y1903D01*
X1405Y1903D02*
X1469Y1903D01*
X503Y1902D02*
X569Y1902D01*
X1404Y1902D02*
X1470Y1902D01*
X503Y1901D02*
X570Y1901D01*
X1403Y1901D02*
X1471Y1901D01*
X502Y1900D02*
X571Y1900D01*
X1403Y1900D02*
X1471Y1900D01*
X501Y1899D02*
X571Y1899D01*
X1402Y1899D02*
X1472Y1899D01*
X501Y1898D02*
X572Y1898D01*
X1402Y1898D02*
X1473Y1898D01*
X500Y1897D02*
X572Y1897D01*
X1401Y1897D02*
X1473Y1897D01*
X499Y1896D02*
X573Y1896D01*
X1400Y1896D02*
X1474Y1896D01*
X499Y1895D02*
X573Y1895D01*
X1400Y1895D02*
X1474Y1895D01*
X498Y1894D02*
X574Y1894D01*
X1399Y1894D02*
X1475Y1894D01*
X498Y1893D02*
X574Y1893D01*
X1399Y1893D02*
X1475Y1893D01*
X498Y1892D02*
X575Y1892D01*
X1399Y1892D02*
X1476Y1892D01*
X497Y1891D02*
X575Y1891D01*
X1398Y1891D02*
X1476Y1891D01*
X497Y1890D02*
X576Y1890D01*
X1398Y1890D02*
X1476Y1890D01*
X497Y1889D02*
X576Y1889D01*
X1397Y1889D02*
X1477Y1889D01*
X496Y1888D02*
X576Y1888D01*
X1397Y1888D02*
X1477Y1888D01*
X496Y1887D02*
X576Y1887D01*
X1397Y1887D02*
X1477Y1887D01*
X496Y1886D02*
X577Y1886D01*
X1397Y1886D02*
X1478Y1886D01*
X496Y1885D02*
X577Y1885D01*
X1397Y1885D02*
X1478Y1885D01*
X495Y1884D02*
X577Y1884D01*
X1396Y1884D02*
X1478Y1884D01*
X495Y1883D02*
X577Y1883D01*
X1396Y1883D02*
X1478Y1883D01*
X495Y1882D02*
X577Y1882D01*
X1396Y1882D02*
X1478Y1882D01*
X495Y1881D02*
X577Y1881D01*
X1396Y1881D02*
X1478Y1881D01*
X495Y1880D02*
X578Y1880D01*
X1396Y1880D02*
X1478Y1880D01*
X495Y1879D02*
X578Y1879D01*
X1396Y1879D02*
X1479Y1879D01*
X495Y1878D02*
X578Y1878D01*
X1396Y1878D02*
X1479Y1878D01*
X495Y1877D02*
X578Y1877D01*
X1396Y1877D02*
X1479Y1877D01*
X495Y1876D02*
X578Y1876D01*
X1396Y1876D02*
X1479Y1876D01*
X495Y1875D02*
X578Y1875D01*
X1396Y1875D02*
X1479Y1875D01*
X495Y1874D02*
X578Y1874D01*
X1396Y1874D02*
X1479Y1874D01*
X495Y1873D02*
X578Y1873D01*
X1396Y1873D02*
X1478Y1873D01*
X495Y1872D02*
X577Y1872D01*
X1396Y1872D02*
X1478Y1872D01*
X495Y1871D02*
X577Y1871D01*
X1396Y1871D02*
X1478Y1871D01*
X495Y1870D02*
X577Y1870D01*
X1396Y1870D02*
X1478Y1870D01*
X495Y1869D02*
X577Y1869D01*
X1396Y1869D02*
X1478Y1869D01*
X496Y1868D02*
X577Y1868D01*
X1397Y1868D02*
X1478Y1868D01*
X496Y1867D02*
X577Y1867D01*
X1397Y1867D02*
X1477Y1867D01*
X496Y1866D02*
X576Y1866D01*
X1397Y1866D02*
X1477Y1866D01*
X496Y1865D02*
X576Y1865D01*
X1397Y1865D02*
X1477Y1865D01*
X497Y1864D02*
X576Y1864D01*
X1398Y1864D02*
X1477Y1864D01*
X497Y1863D02*
X575Y1863D01*
X1398Y1863D02*
X1476Y1863D01*
X497Y1862D02*
X575Y1862D01*
X1398Y1862D02*
X1476Y1862D01*
X498Y1861D02*
X575Y1861D01*
X1399Y1861D02*
X1476Y1861D01*
X498Y1860D02*
X574Y1860D01*
X1399Y1860D02*
X1475Y1860D01*
X499Y1859D02*
X574Y1859D01*
X1400Y1859D02*
X1475Y1859D01*
X499Y1858D02*
X573Y1858D01*
X1400Y1858D02*
X1474Y1858D01*
X500Y1857D02*
X573Y1857D01*
X1401Y1857D02*
X1474Y1857D01*
X500Y1856D02*
X572Y1856D01*
X1401Y1856D02*
X1473Y1856D01*
X501Y1855D02*
X572Y1855D01*
X1402Y1855D02*
X1473Y1855D01*
X501Y1854D02*
X571Y1854D01*
X1402Y1854D02*
X1472Y1854D01*
X502Y1853D02*
X570Y1853D01*
X1403Y1853D02*
X1471Y1853D01*
X503Y1852D02*
X570Y1852D01*
X1404Y1852D02*
X1471Y1852D01*
X504Y1851D02*
X569Y1851D01*
X1404Y1851D02*
X1470Y1851D01*
X504Y1850D02*
X568Y1850D01*
X1405Y1850D02*
X1469Y1850D01*
X505Y1849D02*
X567Y1849D01*
X1406Y1849D02*
X1468Y1849D01*
X506Y1848D02*
X566Y1848D01*
X1407Y1848D02*
X1467Y1848D01*
X507Y1847D02*
X565Y1847D01*
X1408Y1847D02*
X1466Y1847D01*
X508Y1846D02*
X564Y1846D01*
X1409Y1846D02*
X1465Y1846D01*
X509Y1845D02*
X563Y1845D01*
X1410Y1845D02*
X1464Y1845D01*
X510Y1844D02*
X562Y1844D01*
X1411Y1844D02*
X1463Y1844D01*
X512Y1843D02*
X561Y1843D01*
X1413Y1843D02*
X1462Y1843D01*
X513Y1842D02*
X559Y1842D01*
X1414Y1842D02*
X1460Y1842D01*
X515Y1841D02*
X558Y1841D01*
X1416Y1841D02*
X1459Y1841D01*
X516Y1840D02*
X556Y1840D01*
X1417Y1840D02*
X1457Y1840D01*
X518Y1839D02*
X554Y1839D01*
X1419Y1839D02*
X1455Y1839D01*
X520Y1838D02*
X552Y1838D01*
X1421Y1838D02*
X1453Y1838D01*
X523Y1837D02*
X549Y1837D01*
X1424Y1837D02*
X1450Y1837D01*
X527Y1836D02*
X546Y1836D01*
X1427Y1836D02*
X1447Y1836D01*
X532Y1835D02*
X541Y1835D01*
X1433Y1835D02*
X1442Y1835D01*
X530Y1818D02*
X542Y1818D01*
X1431Y1818D02*
X1443Y1818D01*
X526Y1817D02*
X547Y1817D01*
X1427Y1817D02*
X1448Y1817D01*
X522Y1816D02*
X550Y1816D01*
X1423Y1816D02*
X1451Y1816D01*
X520Y1815D02*
X553Y1815D01*
X1421Y1815D02*
X1454Y1815D01*
X518Y1814D02*
X555Y1814D01*
X1419Y1814D02*
X1456Y1814D01*
X516Y1813D02*
X556Y1813D01*
X1417Y1813D02*
X1457Y1813D01*
X514Y1812D02*
X558Y1812D01*
X1415Y1812D02*
X1459Y1812D01*
X513Y1811D02*
X560Y1811D01*
X1414Y1811D02*
X1461Y1811D01*
X511Y1810D02*
X561Y1810D01*
X1412Y1810D02*
X1462Y1810D01*
X510Y1809D02*
X562Y1809D01*
X1411Y1809D02*
X1463Y1809D01*
X509Y1808D02*
X564Y1808D01*
X1410Y1808D02*
X1464Y1808D01*
X508Y1807D02*
X565Y1807D01*
X1409Y1807D02*
X1466Y1807D01*
X507Y1806D02*
X566Y1806D01*
X1408Y1806D02*
X1467Y1806D01*
X506Y1805D02*
X567Y1805D01*
X1407Y1805D02*
X1468Y1805D01*
X505Y1804D02*
X567Y1804D01*
X1406Y1804D02*
X1468Y1804D01*
X504Y1803D02*
X568Y1803D01*
X1405Y1803D02*
X1469Y1803D01*
X503Y1802D02*
X569Y1802D01*
X1404Y1802D02*
X1470Y1802D01*
X503Y1801D02*
X570Y1801D01*
X1404Y1801D02*
X1471Y1801D01*
X502Y1800D02*
X571Y1800D01*
X1403Y1800D02*
X1471Y1800D01*
X501Y1799D02*
X571Y1799D01*
X1402Y1799D02*
X1472Y1799D01*
X501Y1798D02*
X572Y1798D01*
X1402Y1798D02*
X1473Y1798D01*
X500Y1797D02*
X572Y1797D01*
X1401Y1797D02*
X1473Y1797D01*
X499Y1796D02*
X573Y1796D01*
X1400Y1796D02*
X1474Y1796D01*
X499Y1795D02*
X573Y1795D01*
X1400Y1795D02*
X1474Y1795D01*
X498Y1794D02*
X574Y1794D01*
X1399Y1794D02*
X1475Y1794D01*
X498Y1793D02*
X574Y1793D01*
X1399Y1793D02*
X1475Y1793D01*
X498Y1792D02*
X575Y1792D01*
X1399Y1792D02*
X1476Y1792D01*
X497Y1791D02*
X575Y1791D01*
X1398Y1791D02*
X1476Y1791D01*
X497Y1790D02*
X575Y1790D01*
X1398Y1790D02*
X1476Y1790D01*
X497Y1789D02*
X576Y1789D01*
X1398Y1789D02*
X1477Y1789D01*
X496Y1788D02*
X576Y1788D01*
X1397Y1788D02*
X1477Y1788D01*
X496Y1787D02*
X576Y1787D01*
X1397Y1787D02*
X1477Y1787D01*
X496Y1786D02*
X577Y1786D01*
X1397Y1786D02*
X1477Y1786D01*
X496Y1785D02*
X577Y1785D01*
X1397Y1785D02*
X1478Y1785D01*
X495Y1784D02*
X577Y1784D01*
X1396Y1784D02*
X1478Y1784D01*
X495Y1783D02*
X577Y1783D01*
X1396Y1783D02*
X1478Y1783D01*
X495Y1782D02*
X577Y1782D01*
X1396Y1782D02*
X1478Y1782D01*
X495Y1781D02*
X577Y1781D01*
X1396Y1781D02*
X1478Y1781D01*
X495Y1780D02*
X578Y1780D01*
X1396Y1780D02*
X1478Y1780D01*
X495Y1779D02*
X578Y1779D01*
X1396Y1779D02*
X1479Y1779D01*
X495Y1778D02*
X578Y1778D01*
X1396Y1778D02*
X1479Y1778D01*
X495Y1777D02*
X578Y1777D01*
X1396Y1777D02*
X1479Y1777D01*
X495Y1776D02*
X578Y1776D01*
X1396Y1776D02*
X1479Y1776D01*
X495Y1775D02*
X578Y1775D01*
X1396Y1775D02*
X1479Y1775D01*
X495Y1774D02*
X578Y1774D01*
X1396Y1774D02*
X1479Y1774D01*
X495Y1773D02*
X578Y1773D01*
X1396Y1773D02*
X1478Y1773D01*
X495Y1772D02*
X577Y1772D01*
X1396Y1772D02*
X1478Y1772D01*
X495Y1771D02*
X577Y1771D01*
X1396Y1771D02*
X1478Y1771D01*
X495Y1770D02*
X577Y1770D01*
X1396Y1770D02*
X1478Y1770D01*
X495Y1769D02*
X577Y1769D01*
X1396Y1769D02*
X1478Y1769D01*
X496Y1768D02*
X577Y1768D01*
X1397Y1768D02*
X1478Y1768D01*
X496Y1767D02*
X577Y1767D01*
X1397Y1767D02*
X1477Y1767D01*
X496Y1766D02*
X576Y1766D01*
X1397Y1766D02*
X1477Y1766D01*
X496Y1765D02*
X576Y1765D01*
X1397Y1765D02*
X1477Y1765D01*
X497Y1764D02*
X576Y1764D01*
X1398Y1764D02*
X1477Y1764D01*
X497Y1763D02*
X575Y1763D01*
X1398Y1763D02*
X1476Y1763D01*
X497Y1762D02*
X575Y1762D01*
X1398Y1762D02*
X1476Y1762D01*
X498Y1761D02*
X575Y1761D01*
X1399Y1761D02*
X1476Y1761D01*
X498Y1760D02*
X574Y1760D01*
X1399Y1760D02*
X1475Y1760D01*
X499Y1759D02*
X574Y1759D01*
X1399Y1759D02*
X1475Y1759D01*
X499Y1758D02*
X573Y1758D01*
X1400Y1758D02*
X1474Y1758D01*
X500Y1757D02*
X573Y1757D01*
X1400Y1757D02*
X1474Y1757D01*
X500Y1756D02*
X572Y1756D01*
X1401Y1756D02*
X1473Y1756D01*
X501Y1755D02*
X572Y1755D01*
X1402Y1755D02*
X1473Y1755D01*
X501Y1754D02*
X571Y1754D01*
X1402Y1754D02*
X1472Y1754D01*
X502Y1753D02*
X570Y1753D01*
X1403Y1753D02*
X1471Y1753D01*
X503Y1752D02*
X570Y1752D01*
X1404Y1752D02*
X1471Y1752D01*
X503Y1751D02*
X569Y1751D01*
X1404Y1751D02*
X1470Y1751D01*
X504Y1750D02*
X568Y1750D01*
X1405Y1750D02*
X1469Y1750D01*
X505Y1749D02*
X567Y1749D01*
X1406Y1749D02*
X1468Y1749D01*
X506Y1748D02*
X566Y1748D01*
X1407Y1748D02*
X1467Y1748D01*
X507Y1747D02*
X566Y1747D01*
X1408Y1747D02*
X1467Y1747D01*
X508Y1746D02*
X565Y1746D01*
X1409Y1746D02*
X1465Y1746D01*
X509Y1745D02*
X563Y1745D01*
X1410Y1745D02*
X1464Y1745D01*
X510Y1744D02*
X562Y1744D01*
X1411Y1744D02*
X1463Y1744D01*
X512Y1743D02*
X561Y1743D01*
X1412Y1743D02*
X1462Y1743D01*
X513Y1742D02*
X560Y1742D01*
X1414Y1742D02*
X1460Y1742D01*
X514Y1741D02*
X558Y1741D01*
X1415Y1741D02*
X1459Y1741D01*
X516Y1740D02*
X556Y1740D01*
X1417Y1740D02*
X1457Y1740D01*
X518Y1739D02*
X554Y1739D01*
X1419Y1739D02*
X1455Y1739D01*
X520Y1738D02*
X552Y1738D01*
X1421Y1738D02*
X1453Y1738D01*
X523Y1737D02*
X550Y1737D01*
X1424Y1737D02*
X1451Y1737D01*
X526Y1736D02*
X546Y1736D01*
X1427Y1736D02*
X1447Y1736D01*
X531Y1735D02*
X541Y1735D01*
X1432Y1735D02*
X1442Y1735D01*
X531Y1718D02*
X541Y1718D01*
X1432Y1718D02*
X1442Y1718D01*
X526Y1717D02*
X546Y1717D01*
X1427Y1717D02*
X1447Y1717D01*
X523Y1716D02*
X550Y1716D01*
X1424Y1716D02*
X1451Y1716D01*
X520Y1715D02*
X552Y1715D01*
X1421Y1715D02*
X1453Y1715D01*
X518Y1714D02*
X554Y1714D01*
X1419Y1714D02*
X1455Y1714D01*
X516Y1713D02*
X556Y1713D01*
X1417Y1713D02*
X1457Y1713D01*
X514Y1712D02*
X558Y1712D01*
X1415Y1712D02*
X1459Y1712D01*
X513Y1711D02*
X560Y1711D01*
X1414Y1711D02*
X1460Y1711D01*
X512Y1710D02*
X561Y1710D01*
X1412Y1710D02*
X1462Y1710D01*
X510Y1709D02*
X562Y1709D01*
X1411Y1709D02*
X1463Y1709D01*
X509Y1708D02*
X563Y1708D01*
X1410Y1708D02*
X1464Y1708D01*
X508Y1707D02*
X565Y1707D01*
X1409Y1707D02*
X1465Y1707D01*
X507Y1706D02*
X566Y1706D01*
X1408Y1706D02*
X1466Y1706D01*
X506Y1705D02*
X566Y1705D01*
X1407Y1705D02*
X1467Y1705D01*
X505Y1704D02*
X567Y1704D01*
X1406Y1704D02*
X1468Y1704D01*
X504Y1703D02*
X568Y1703D01*
X1405Y1703D02*
X1469Y1703D01*
X503Y1702D02*
X569Y1702D01*
X1404Y1702D02*
X1470Y1702D01*
X503Y1701D02*
X570Y1701D01*
X1404Y1701D02*
X1471Y1701D01*
X502Y1700D02*
X570Y1700D01*
X1403Y1700D02*
X1471Y1700D01*
X501Y1699D02*
X571Y1699D01*
X1402Y1699D02*
X1472Y1699D01*
X501Y1698D02*
X572Y1698D01*
X1402Y1698D02*
X1473Y1698D01*
X500Y1697D02*
X572Y1697D01*
X1401Y1697D02*
X1473Y1697D01*
X500Y1696D02*
X573Y1696D01*
X1400Y1696D02*
X1474Y1696D01*
X499Y1695D02*
X573Y1695D01*
X1400Y1695D02*
X1474Y1695D01*
X499Y1694D02*
X574Y1694D01*
X1399Y1694D02*
X1475Y1694D01*
X498Y1693D02*
X574Y1693D01*
X1399Y1693D02*
X1475Y1693D01*
X498Y1692D02*
X575Y1692D01*
X1399Y1692D02*
X1476Y1692D01*
X497Y1691D02*
X575Y1691D01*
X1398Y1691D02*
X1476Y1691D01*
X497Y1690D02*
X575Y1690D01*
X1398Y1690D02*
X1476Y1690D01*
X497Y1689D02*
X576Y1689D01*
X1398Y1689D02*
X1477Y1689D01*
X496Y1688D02*
X576Y1688D01*
X1397Y1688D02*
X1477Y1688D01*
X496Y1687D02*
X576Y1687D01*
X1397Y1687D02*
X1477Y1687D01*
X496Y1686D02*
X577Y1686D01*
X1397Y1686D02*
X1477Y1686D01*
X496Y1685D02*
X577Y1685D01*
X1397Y1685D02*
X1478Y1685D01*
X495Y1684D02*
X577Y1684D01*
X1396Y1684D02*
X1478Y1684D01*
X495Y1683D02*
X577Y1683D01*
X1396Y1683D02*
X1478Y1683D01*
X495Y1682D02*
X577Y1682D01*
X1396Y1682D02*
X1478Y1682D01*
X495Y1681D02*
X577Y1681D01*
X1396Y1681D02*
X1478Y1681D01*
X495Y1680D02*
X578Y1680D01*
X1396Y1680D02*
X1478Y1680D01*
X495Y1679D02*
X578Y1679D01*
X1396Y1679D02*
X1479Y1679D01*
X495Y1678D02*
X578Y1678D01*
X1396Y1678D02*
X1479Y1678D01*
X495Y1677D02*
X578Y1677D01*
X1396Y1677D02*
X1479Y1677D01*
X495Y1676D02*
X578Y1676D01*
X1396Y1676D02*
X1479Y1676D01*
X495Y1675D02*
X578Y1675D01*
X1396Y1675D02*
X1479Y1675D01*
X495Y1674D02*
X578Y1674D01*
X1396Y1674D02*
X1479Y1674D01*
X495Y1673D02*
X578Y1673D01*
X1396Y1673D02*
X1478Y1673D01*
X495Y1672D02*
X577Y1672D01*
X1396Y1672D02*
X1478Y1672D01*
X495Y1671D02*
X577Y1671D01*
X1396Y1671D02*
X1478Y1671D01*
X495Y1670D02*
X577Y1670D01*
X1396Y1670D02*
X1478Y1670D01*
X495Y1669D02*
X577Y1669D01*
X1396Y1669D02*
X1478Y1669D01*
X496Y1668D02*
X577Y1668D01*
X1397Y1668D02*
X1478Y1668D01*
X496Y1667D02*
X577Y1667D01*
X1397Y1667D02*
X1477Y1667D01*
X496Y1666D02*
X576Y1666D01*
X1397Y1666D02*
X1477Y1666D01*
X496Y1665D02*
X576Y1665D01*
X1397Y1665D02*
X1477Y1665D01*
X497Y1664D02*
X576Y1664D01*
X1398Y1664D02*
X1477Y1664D01*
X497Y1663D02*
X575Y1663D01*
X1398Y1663D02*
X1476Y1663D01*
X497Y1662D02*
X575Y1662D01*
X1398Y1662D02*
X1476Y1662D01*
X498Y1661D02*
X575Y1661D01*
X1399Y1661D02*
X1476Y1661D01*
X498Y1660D02*
X574Y1660D01*
X1399Y1660D02*
X1475Y1660D01*
X498Y1659D02*
X574Y1659D01*
X1399Y1659D02*
X1475Y1659D01*
X499Y1658D02*
X573Y1658D01*
X1400Y1658D02*
X1474Y1658D01*
X499Y1657D02*
X573Y1657D01*
X1400Y1657D02*
X1474Y1657D01*
X500Y1656D02*
X572Y1656D01*
X1401Y1656D02*
X1473Y1656D01*
X501Y1655D02*
X572Y1655D01*
X1402Y1655D02*
X1473Y1655D01*
X501Y1654D02*
X571Y1654D01*
X1402Y1654D02*
X1472Y1654D01*
X502Y1653D02*
X571Y1653D01*
X1403Y1653D02*
X1471Y1653D01*
X503Y1652D02*
X570Y1652D01*
X1404Y1652D02*
X1471Y1652D01*
X503Y1651D02*
X569Y1651D01*
X1404Y1651D02*
X1470Y1651D01*
X504Y1650D02*
X568Y1650D01*
X1405Y1650D02*
X1469Y1650D01*
X505Y1649D02*
X567Y1649D01*
X1406Y1649D02*
X1468Y1649D01*
X506Y1648D02*
X567Y1648D01*
X1407Y1648D02*
X1468Y1648D01*
X507Y1647D02*
X566Y1647D01*
X1408Y1647D02*
X1467Y1647D01*
X508Y1646D02*
X565Y1646D01*
X1409Y1646D02*
X1466Y1646D01*
X509Y1645D02*
X564Y1645D01*
X1410Y1645D02*
X1464Y1645D01*
X510Y1644D02*
X562Y1644D01*
X1411Y1644D02*
X1463Y1644D01*
X511Y1643D02*
X561Y1643D01*
X1412Y1643D02*
X1462Y1643D01*
X513Y1642D02*
X560Y1642D01*
X1414Y1642D02*
X1461Y1642D01*
X514Y1641D02*
X558Y1641D01*
X1415Y1641D02*
X1459Y1641D01*
X516Y1640D02*
X557Y1640D01*
X1417Y1640D02*
X1457Y1640D01*
X518Y1639D02*
X555Y1639D01*
X1419Y1639D02*
X1456Y1639D01*
X520Y1638D02*
X553Y1638D01*
X1421Y1638D02*
X1454Y1638D01*
X522Y1637D02*
X550Y1637D01*
X1423Y1637D02*
X1451Y1637D01*
X526Y1636D02*
X547Y1636D01*
X1426Y1636D02*
X1448Y1636D01*
X530Y1635D02*
X542Y1635D01*
X1431Y1635D02*
X1443Y1635D01*
X532Y1618D02*
X541Y1618D01*
X1433Y1618D02*
X1442Y1618D01*
X526Y1617D02*
X546Y1617D01*
X1427Y1617D02*
X1447Y1617D01*
X523Y1616D02*
X549Y1616D01*
X1424Y1616D02*
X1450Y1616D01*
X520Y1615D02*
X552Y1615D01*
X1421Y1615D02*
X1453Y1615D01*
X518Y1614D02*
X554Y1614D01*
X1419Y1614D02*
X1455Y1614D01*
X516Y1613D02*
X556Y1613D01*
X1417Y1613D02*
X1457Y1613D01*
X515Y1612D02*
X558Y1612D01*
X1416Y1612D02*
X1459Y1612D01*
X513Y1611D02*
X559Y1611D01*
X1414Y1611D02*
X1460Y1611D01*
X512Y1610D02*
X561Y1610D01*
X1413Y1610D02*
X1462Y1610D01*
X510Y1609D02*
X562Y1609D01*
X1411Y1609D02*
X1463Y1609D01*
X509Y1608D02*
X563Y1608D01*
X1410Y1608D02*
X1464Y1608D01*
X508Y1607D02*
X564Y1607D01*
X1409Y1607D02*
X1465Y1607D01*
X507Y1606D02*
X565Y1606D01*
X1408Y1606D02*
X1466Y1606D01*
X506Y1605D02*
X566Y1605D01*
X1407Y1605D02*
X1467Y1605D01*
X505Y1604D02*
X567Y1604D01*
X1406Y1604D02*
X1468Y1604D01*
X504Y1603D02*
X568Y1603D01*
X1405Y1603D02*
X1469Y1603D01*
X504Y1602D02*
X569Y1602D01*
X1404Y1602D02*
X1470Y1602D01*
X503Y1601D02*
X570Y1601D01*
X1404Y1601D02*
X1471Y1601D01*
X502Y1600D02*
X570Y1600D01*
X1403Y1600D02*
X1471Y1600D01*
X501Y1599D02*
X571Y1599D01*
X1402Y1599D02*
X1472Y1599D01*
X501Y1598D02*
X572Y1598D01*
X1402Y1598D02*
X1473Y1598D01*
X500Y1597D02*
X572Y1597D01*
X1401Y1597D02*
X1473Y1597D01*
X500Y1596D02*
X573Y1596D01*
X1401Y1596D02*
X1474Y1596D01*
X499Y1595D02*
X573Y1595D01*
X1400Y1595D02*
X1474Y1595D01*
X499Y1594D02*
X574Y1594D01*
X1400Y1594D02*
X1475Y1594D01*
X498Y1593D02*
X574Y1593D01*
X1399Y1593D02*
X1475Y1593D01*
X498Y1592D02*
X575Y1592D01*
X1399Y1592D02*
X1476Y1592D01*
X497Y1591D02*
X575Y1591D01*
X1398Y1591D02*
X1476Y1591D01*
X497Y1590D02*
X575Y1590D01*
X1398Y1590D02*
X1476Y1590D01*
X497Y1589D02*
X576Y1589D01*
X1398Y1589D02*
X1477Y1589D01*
X496Y1588D02*
X576Y1588D01*
X1397Y1588D02*
X1477Y1588D01*
X496Y1587D02*
X576Y1587D01*
X1397Y1587D02*
X1477Y1587D01*
X496Y1586D02*
X577Y1586D01*
X1397Y1586D02*
X1477Y1586D01*
X496Y1585D02*
X577Y1585D01*
X1397Y1585D02*
X1478Y1585D01*
X495Y1584D02*
X577Y1584D01*
X1396Y1584D02*
X1478Y1584D01*
X495Y1583D02*
X577Y1583D01*
X1396Y1583D02*
X1478Y1583D01*
X495Y1582D02*
X577Y1582D01*
X1396Y1582D02*
X1478Y1582D01*
X495Y1581D02*
X577Y1581D01*
X1396Y1581D02*
X1478Y1581D01*
X495Y1580D02*
X578Y1580D01*
X1396Y1580D02*
X1478Y1580D01*
X495Y1579D02*
X578Y1579D01*
X1396Y1579D02*
X1479Y1579D01*
X495Y1578D02*
X578Y1578D01*
X1396Y1578D02*
X1479Y1578D01*
X495Y1577D02*
X578Y1577D01*
X1396Y1577D02*
X1479Y1577D01*
X495Y1576D02*
X578Y1576D01*
X1396Y1576D02*
X1479Y1576D01*
X495Y1575D02*
X578Y1575D01*
X1396Y1575D02*
X1479Y1575D01*
X495Y1574D02*
X578Y1574D01*
X1396Y1574D02*
X1479Y1574D01*
X495Y1573D02*
X578Y1573D01*
X1396Y1573D02*
X1478Y1573D01*
X495Y1572D02*
X577Y1572D01*
X1396Y1572D02*
X1478Y1572D01*
X495Y1571D02*
X577Y1571D01*
X1396Y1571D02*
X1478Y1571D01*
X495Y1570D02*
X577Y1570D01*
X1396Y1570D02*
X1478Y1570D01*
X495Y1569D02*
X577Y1569D01*
X1396Y1569D02*
X1478Y1569D01*
X496Y1568D02*
X577Y1568D01*
X1396Y1568D02*
X1478Y1568D01*
X496Y1567D02*
X577Y1567D01*
X1397Y1567D02*
X1478Y1567D01*
X496Y1566D02*
X576Y1566D01*
X1397Y1566D02*
X1477Y1566D01*
X496Y1565D02*
X576Y1565D01*
X1397Y1565D02*
X1477Y1565D01*
X497Y1564D02*
X576Y1564D01*
X1397Y1564D02*
X1477Y1564D01*
X497Y1563D02*
X576Y1563D01*
X1398Y1563D02*
X1476Y1563D01*
X497Y1562D02*
X575Y1562D01*
X1398Y1562D02*
X1476Y1562D01*
X498Y1561D02*
X575Y1561D01*
X1399Y1561D02*
X1476Y1561D01*
X498Y1560D02*
X574Y1560D01*
X1399Y1560D02*
X1475Y1560D01*
X498Y1559D02*
X574Y1559D01*
X1399Y1559D02*
X1475Y1559D01*
X499Y1558D02*
X573Y1558D01*
X1400Y1558D02*
X1474Y1558D01*
X499Y1557D02*
X573Y1557D01*
X1400Y1557D02*
X1474Y1557D01*
X500Y1556D02*
X572Y1556D01*
X1401Y1556D02*
X1473Y1556D01*
X501Y1555D02*
X572Y1555D01*
X1402Y1555D02*
X1473Y1555D01*
X501Y1554D02*
X571Y1554D01*
X1402Y1554D02*
X1472Y1554D01*
X502Y1553D02*
X571Y1553D01*
X1403Y1553D02*
X1472Y1553D01*
X503Y1552D02*
X570Y1552D01*
X1403Y1552D02*
X1471Y1552D01*
X503Y1551D02*
X569Y1551D01*
X1404Y1551D02*
X1470Y1551D01*
X504Y1550D02*
X568Y1550D01*
X1405Y1550D02*
X1469Y1550D01*
X505Y1549D02*
X568Y1549D01*
X1406Y1549D02*
X1469Y1549D01*
X506Y1548D02*
X567Y1548D01*
X1407Y1548D02*
X1468Y1548D01*
X507Y1547D02*
X566Y1547D01*
X1408Y1547D02*
X1467Y1547D01*
X508Y1546D02*
X565Y1546D01*
X1409Y1546D02*
X1466Y1546D01*
X509Y1545D02*
X564Y1545D01*
X1410Y1545D02*
X1465Y1545D01*
X510Y1544D02*
X563Y1544D01*
X1411Y1544D02*
X1463Y1544D01*
X511Y1543D02*
X561Y1543D01*
X1412Y1543D02*
X1462Y1543D01*
X513Y1542D02*
X560Y1542D01*
X1414Y1542D02*
X1461Y1542D01*
X514Y1541D02*
X558Y1541D01*
X1415Y1541D02*
X1459Y1541D01*
X516Y1540D02*
X557Y1540D01*
X1417Y1540D02*
X1458Y1540D01*
X517Y1539D02*
X555Y1539D01*
X1418Y1539D02*
X1456Y1539D01*
X520Y1538D02*
X553Y1538D01*
X1420Y1538D02*
X1454Y1538D01*
X522Y1537D02*
X550Y1537D01*
X1423Y1537D02*
X1451Y1537D01*
X525Y1536D02*
X547Y1536D01*
X1426Y1536D02*
X1448Y1536D01*
X530Y1535D02*
X543Y1535D01*
X1431Y1535D02*
X1444Y1535D01*
X533Y1518D02*
X540Y1518D01*
X1433Y1518D02*
X1441Y1518D01*
X527Y1517D02*
X545Y1517D01*
X1428Y1517D02*
X1446Y1517D01*
X523Y1516D02*
X549Y1516D01*
X1424Y1516D02*
X1450Y1516D01*
X520Y1515D02*
X552Y1515D01*
X1421Y1515D02*
X1453Y1515D01*
X518Y1514D02*
X554Y1514D01*
X1419Y1514D02*
X1455Y1514D01*
X516Y1513D02*
X556Y1513D01*
X1417Y1513D02*
X1457Y1513D01*
X515Y1512D02*
X558Y1512D01*
X1416Y1512D02*
X1459Y1512D01*
X513Y1511D02*
X559Y1511D01*
X1414Y1511D02*
X1460Y1511D01*
X512Y1510D02*
X561Y1510D01*
X1413Y1510D02*
X1461Y1510D01*
X511Y1509D02*
X562Y1509D01*
X1411Y1509D02*
X1463Y1509D01*
X509Y1508D02*
X563Y1508D01*
X1410Y1508D02*
X1464Y1508D01*
X508Y1507D02*
X564Y1507D01*
X1409Y1507D02*
X1465Y1507D01*
X507Y1506D02*
X565Y1506D01*
X1408Y1506D02*
X1466Y1506D01*
X506Y1505D02*
X566Y1505D01*
X1407Y1505D02*
X1467Y1505D01*
X505Y1504D02*
X567Y1504D01*
X1406Y1504D02*
X1468Y1504D01*
X504Y1503D02*
X568Y1503D01*
X1405Y1503D02*
X1469Y1503D01*
X504Y1502D02*
X569Y1502D01*
X1405Y1502D02*
X1470Y1502D01*
X503Y1501D02*
X570Y1501D01*
X1404Y1501D02*
X1470Y1501D01*
X502Y1500D02*
X570Y1500D01*
X1403Y1500D02*
X1471Y1500D01*
X501Y1499D02*
X571Y1499D01*
X1402Y1499D02*
X1472Y1499D01*
X501Y1498D02*
X572Y1498D01*
X1402Y1498D02*
X1472Y1498D01*
X500Y1497D02*
X572Y1497D01*
X1401Y1497D02*
X1473Y1497D01*
X500Y1496D02*
X573Y1496D01*
X1401Y1496D02*
X1474Y1496D01*
X499Y1495D02*
X573Y1495D01*
X1400Y1495D02*
X1474Y1495D01*
X499Y1494D02*
X574Y1494D01*
X1400Y1494D02*
X1475Y1494D01*
X498Y1493D02*
X574Y1493D01*
X1399Y1493D02*
X1475Y1493D01*
X498Y1492D02*
X575Y1492D01*
X1399Y1492D02*
X1476Y1492D01*
X497Y1491D02*
X575Y1491D01*
X1398Y1491D02*
X1476Y1491D01*
X497Y1490D02*
X575Y1490D01*
X1398Y1490D02*
X1476Y1490D01*
X497Y1489D02*
X576Y1489D01*
X1398Y1489D02*
X1477Y1489D01*
X496Y1488D02*
X576Y1488D01*
X1397Y1488D02*
X1477Y1488D01*
X496Y1487D02*
X576Y1487D01*
X1397Y1487D02*
X1477Y1487D01*
X496Y1486D02*
X576Y1486D01*
X1397Y1486D02*
X1477Y1486D01*
X496Y1485D02*
X577Y1485D01*
X1397Y1485D02*
X1478Y1485D01*
X495Y1484D02*
X577Y1484D01*
X1396Y1484D02*
X1478Y1484D01*
X495Y1483D02*
X577Y1483D01*
X1396Y1483D02*
X1478Y1483D01*
X495Y1482D02*
X577Y1482D01*
X1396Y1482D02*
X1478Y1482D01*
X495Y1481D02*
X577Y1481D01*
X1396Y1481D02*
X1478Y1481D01*
X495Y1480D02*
X578Y1480D01*
X1396Y1480D02*
X1478Y1480D01*
X495Y1479D02*
X578Y1479D01*
X1396Y1479D02*
X1479Y1479D01*
X495Y1478D02*
X578Y1478D01*
X1396Y1478D02*
X1479Y1478D01*
X495Y1477D02*
X578Y1477D01*
X1396Y1477D02*
X1479Y1477D01*
X495Y1476D02*
X578Y1476D01*
X1396Y1476D02*
X1479Y1476D01*
X495Y1475D02*
X578Y1475D01*
X1396Y1475D02*
X1479Y1475D01*
X495Y1474D02*
X578Y1474D01*
X1396Y1474D02*
X1479Y1474D01*
X495Y1473D02*
X578Y1473D01*
X1396Y1473D02*
X1478Y1473D01*
X495Y1472D02*
X577Y1472D01*
X1396Y1472D02*
X1478Y1472D01*
X495Y1471D02*
X577Y1471D01*
X1396Y1471D02*
X1478Y1471D01*
X495Y1470D02*
X577Y1470D01*
X1396Y1470D02*
X1478Y1470D01*
X495Y1469D02*
X577Y1469D01*
X1396Y1469D02*
X1478Y1469D01*
X496Y1468D02*
X577Y1468D01*
X1396Y1468D02*
X1478Y1468D01*
X496Y1467D02*
X577Y1467D01*
X1397Y1467D02*
X1478Y1467D01*
X496Y1466D02*
X576Y1466D01*
X1397Y1466D02*
X1477Y1466D01*
X496Y1465D02*
X576Y1465D01*
X1397Y1465D02*
X1477Y1465D01*
X497Y1464D02*
X576Y1464D01*
X1397Y1464D02*
X1477Y1464D01*
X497Y1463D02*
X576Y1463D01*
X1398Y1463D02*
X1476Y1463D01*
X497Y1462D02*
X575Y1462D01*
X1398Y1462D02*
X1476Y1462D01*
X498Y1461D02*
X575Y1461D01*
X1398Y1461D02*
X1476Y1461D01*
X498Y1460D02*
X574Y1460D01*
X1399Y1460D02*
X1475Y1460D01*
X498Y1459D02*
X574Y1459D01*
X1399Y1459D02*
X1475Y1459D01*
X499Y1458D02*
X574Y1458D01*
X1400Y1458D02*
X1474Y1458D01*
X499Y1457D02*
X573Y1457D01*
X1400Y1457D02*
X1474Y1457D01*
X500Y1456D02*
X573Y1456D01*
X1401Y1456D02*
X1473Y1456D01*
X501Y1455D02*
X572Y1455D01*
X1401Y1455D02*
X1473Y1455D01*
X501Y1454D02*
X571Y1454D01*
X1402Y1454D02*
X1472Y1454D01*
X502Y1453D02*
X571Y1453D01*
X1403Y1453D02*
X1472Y1453D01*
X502Y1452D02*
X570Y1452D01*
X1403Y1452D02*
X1471Y1452D01*
X503Y1451D02*
X569Y1451D01*
X1404Y1451D02*
X1470Y1451D01*
X504Y1450D02*
X568Y1450D01*
X1405Y1450D02*
X1469Y1450D01*
X505Y1449D02*
X568Y1449D01*
X1406Y1449D02*
X1469Y1449D01*
X506Y1448D02*
X567Y1448D01*
X1407Y1448D02*
X1468Y1448D01*
X507Y1447D02*
X566Y1447D01*
X1407Y1447D02*
X1467Y1447D01*
X508Y1446D02*
X565Y1446D01*
X1408Y1446D02*
X1466Y1446D01*
X509Y1445D02*
X564Y1445D01*
X1410Y1445D02*
X1465Y1445D01*
X510Y1444D02*
X563Y1444D01*
X1411Y1444D02*
X1464Y1444D01*
X511Y1443D02*
X561Y1443D01*
X1412Y1443D02*
X1462Y1443D01*
X512Y1442D02*
X560Y1442D01*
X1413Y1442D02*
X1461Y1442D01*
X514Y1441D02*
X558Y1441D01*
X1415Y1441D02*
X1459Y1441D01*
X516Y1440D02*
X557Y1440D01*
X1416Y1440D02*
X1458Y1440D01*
X517Y1439D02*
X555Y1439D01*
X1418Y1439D02*
X1456Y1439D01*
X519Y1438D02*
X553Y1438D01*
X1420Y1438D02*
X1454Y1438D01*
X522Y1437D02*
X551Y1437D01*
X1423Y1437D02*
X1452Y1437D01*
X525Y1436D02*
X548Y1436D01*
X1426Y1436D02*
X1449Y1436D01*
X529Y1435D02*
X543Y1435D01*
X1430Y1435D02*
X1444Y1435D01*
X534Y1418D02*
X538Y1418D01*
X1435Y1418D02*
X1439Y1418D01*
X527Y1417D02*
X545Y1417D01*
X1428Y1417D02*
X1446Y1417D01*
X524Y1416D02*
X549Y1416D01*
X1425Y1416D02*
X1450Y1416D01*
X521Y1415D02*
X552Y1415D01*
X1422Y1415D02*
X1453Y1415D01*
X519Y1414D02*
X554Y1414D01*
X1420Y1414D02*
X1455Y1414D01*
X517Y1413D02*
X556Y1413D01*
X1418Y1413D02*
X1457Y1413D01*
X515Y1412D02*
X557Y1412D01*
X1416Y1412D02*
X1458Y1412D01*
X513Y1411D02*
X559Y1411D01*
X1414Y1411D02*
X1460Y1411D01*
X512Y1410D02*
X560Y1410D01*
X1413Y1410D02*
X1461Y1410D01*
X511Y1409D02*
X562Y1409D01*
X1412Y1409D02*
X1463Y1409D01*
X509Y1408D02*
X563Y1408D01*
X1410Y1408D02*
X1464Y1408D01*
X508Y1407D02*
X564Y1407D01*
X1409Y1407D02*
X1465Y1407D01*
X507Y1406D02*
X565Y1406D01*
X1408Y1406D02*
X1466Y1406D01*
X506Y1405D02*
X566Y1405D01*
X1407Y1405D02*
X1467Y1405D01*
X505Y1404D02*
X567Y1404D01*
X1406Y1404D02*
X1468Y1404D01*
X504Y1403D02*
X568Y1403D01*
X1405Y1403D02*
X1469Y1403D01*
X504Y1402D02*
X569Y1402D01*
X1405Y1402D02*
X1470Y1402D01*
X503Y1401D02*
X569Y1401D01*
X1404Y1401D02*
X1470Y1401D01*
X502Y1400D02*
X570Y1400D01*
X1403Y1400D02*
X1471Y1400D01*
X502Y1399D02*
X571Y1399D01*
X1402Y1399D02*
X1472Y1399D01*
X501Y1398D02*
X571Y1398D01*
X1402Y1398D02*
X1472Y1398D01*
X500Y1397D02*
X572Y1397D01*
X1401Y1397D02*
X1473Y1397D01*
X500Y1396D02*
X573Y1396D01*
X1401Y1396D02*
X1474Y1396D01*
X499Y1395D02*
X573Y1395D01*
X1400Y1395D02*
X1474Y1395D01*
X499Y1394D02*
X574Y1394D01*
X1400Y1394D02*
X1475Y1394D01*
X498Y1393D02*
X574Y1393D01*
X1399Y1393D02*
X1475Y1393D01*
X498Y1392D02*
X575Y1392D01*
X1399Y1392D02*
X1476Y1392D01*
X497Y1391D02*
X575Y1391D01*
X1398Y1391D02*
X1476Y1391D01*
X497Y1390D02*
X575Y1390D01*
X1398Y1390D02*
X1476Y1390D01*
X497Y1389D02*
X576Y1389D01*
X1398Y1389D02*
X1477Y1389D01*
X496Y1388D02*
X576Y1388D01*
X1397Y1388D02*
X1477Y1388D01*
X496Y1387D02*
X576Y1387D01*
X1397Y1387D02*
X1477Y1387D01*
X496Y1386D02*
X576Y1386D01*
X1397Y1386D02*
X1477Y1386D01*
X496Y1385D02*
X577Y1385D01*
X1397Y1385D02*
X1478Y1385D01*
X495Y1384D02*
X577Y1384D01*
X1396Y1384D02*
X1478Y1384D01*
X495Y1383D02*
X577Y1383D01*
X1396Y1383D02*
X1478Y1383D01*
X495Y1382D02*
X577Y1382D01*
X1396Y1382D02*
X1478Y1382D01*
X495Y1381D02*
X577Y1381D01*
X1396Y1381D02*
X1478Y1381D01*
X495Y1380D02*
X578Y1380D01*
X1396Y1380D02*
X1478Y1380D01*
X495Y1379D02*
X578Y1379D01*
X1396Y1379D02*
X1478Y1379D01*
X495Y1378D02*
X578Y1378D01*
X1396Y1378D02*
X1479Y1378D01*
X495Y1377D02*
X578Y1377D01*
X1396Y1377D02*
X1479Y1377D01*
X495Y1376D02*
X578Y1376D01*
X1396Y1376D02*
X1479Y1376D01*
X495Y1375D02*
X578Y1375D01*
X1396Y1375D02*
X1479Y1375D01*
X495Y1374D02*
X578Y1374D01*
X1396Y1374D02*
X1479Y1374D01*
X495Y1373D02*
X578Y1373D01*
X1396Y1373D02*
X1478Y1373D01*
X495Y1372D02*
X577Y1372D01*
X1396Y1372D02*
X1478Y1372D01*
X495Y1371D02*
X577Y1371D01*
X1396Y1371D02*
X1478Y1371D01*
X495Y1370D02*
X577Y1370D01*
X1396Y1370D02*
X1478Y1370D01*
X495Y1369D02*
X577Y1369D01*
X1396Y1369D02*
X1478Y1369D01*
X496Y1368D02*
X577Y1368D01*
X1396Y1368D02*
X1478Y1368D01*
X496Y1367D02*
X577Y1367D01*
X1397Y1367D02*
X1478Y1367D01*
X496Y1366D02*
X576Y1366D01*
X1397Y1366D02*
X1477Y1366D01*
X496Y1365D02*
X576Y1365D01*
X1397Y1365D02*
X1477Y1365D01*
X497Y1364D02*
X576Y1364D01*
X1397Y1364D02*
X1477Y1364D01*
X497Y1363D02*
X576Y1363D01*
X1398Y1363D02*
X1477Y1363D01*
X497Y1362D02*
X575Y1362D01*
X1398Y1362D02*
X1476Y1362D01*
X498Y1361D02*
X575Y1361D01*
X1398Y1361D02*
X1476Y1361D01*
X498Y1360D02*
X575Y1360D01*
X1399Y1360D02*
X1475Y1360D01*
X498Y1359D02*
X574Y1359D01*
X1399Y1359D02*
X1475Y1359D01*
X499Y1358D02*
X574Y1358D01*
X1400Y1358D02*
X1475Y1358D01*
X499Y1357D02*
X573Y1357D01*
X1400Y1357D02*
X1474Y1357D01*
X500Y1356D02*
X573Y1356D01*
X1401Y1356D02*
X1473Y1356D01*
X500Y1355D02*
X572Y1355D01*
X1401Y1355D02*
X1473Y1355D01*
X501Y1354D02*
X571Y1354D01*
X1402Y1354D02*
X1472Y1354D01*
X502Y1353D02*
X571Y1353D01*
X1403Y1353D02*
X1472Y1353D01*
X502Y1352D02*
X570Y1352D01*
X1403Y1352D02*
X1471Y1352D01*
X503Y1351D02*
X569Y1351D01*
X1404Y1351D02*
X1470Y1351D01*
X504Y1350D02*
X569Y1350D01*
X1405Y1350D02*
X1469Y1350D01*
X505Y1349D02*
X568Y1349D01*
X1406Y1349D02*
X1469Y1349D01*
X506Y1348D02*
X567Y1348D01*
X1406Y1348D02*
X1468Y1348D01*
X506Y1347D02*
X566Y1347D01*
X1407Y1347D02*
X1467Y1347D01*
X507Y1346D02*
X565Y1346D01*
X1408Y1346D02*
X1466Y1346D01*
X509Y1345D02*
X564Y1345D01*
X1409Y1345D02*
X1465Y1345D01*
X510Y1344D02*
X563Y1344D01*
X1411Y1344D02*
X1464Y1344D01*
X511Y1343D02*
X561Y1343D01*
X1412Y1343D02*
X1462Y1343D01*
X512Y1342D02*
X560Y1342D01*
X1413Y1342D02*
X1461Y1342D01*
X514Y1341D02*
X559Y1341D01*
X1415Y1341D02*
X1460Y1341D01*
X515Y1340D02*
X557Y1340D01*
X1416Y1340D02*
X1458Y1340D01*
X517Y1339D02*
X555Y1339D01*
X1418Y1339D02*
X1456Y1339D01*
X519Y1338D02*
X553Y1338D01*
X1420Y1338D02*
X1454Y1338D01*
X521Y1337D02*
X551Y1337D01*
X1422Y1337D02*
X1452Y1337D01*
X524Y1336D02*
X548Y1336D01*
X1425Y1336D02*
X1449Y1336D01*
X528Y1335D02*
X544Y1335D01*
X1429Y1335D02*
X1445Y1335D01*
X536Y1318D02*
X536Y1318D01*
X1437Y1318D02*
X1437Y1318D01*
X528Y1317D02*
X545Y1317D01*
X1429Y1317D02*
X1446Y1317D01*
X524Y1316D02*
X549Y1316D01*
X1425Y1316D02*
X1449Y1316D01*
X521Y1315D02*
X551Y1315D01*
X1422Y1315D02*
X1452Y1315D01*
X519Y1314D02*
X554Y1314D01*
X1420Y1314D02*
X1454Y1314D01*
X517Y1313D02*
X556Y1313D01*
X1418Y1313D02*
X1456Y1313D01*
X515Y1312D02*
X557Y1312D01*
X1416Y1312D02*
X1458Y1312D01*
X514Y1311D02*
X559Y1311D01*
X1414Y1311D02*
X1460Y1311D01*
X512Y1310D02*
X560Y1310D01*
X1413Y1310D02*
X1461Y1310D01*
X511Y1309D02*
X562Y1309D01*
X1412Y1309D02*
X1463Y1309D01*
X510Y1308D02*
X563Y1308D01*
X1410Y1308D02*
X1464Y1308D01*
X508Y1307D02*
X564Y1307D01*
X1409Y1307D02*
X1465Y1307D01*
X507Y1306D02*
X565Y1306D01*
X1408Y1306D02*
X1466Y1306D01*
X506Y1305D02*
X566Y1305D01*
X1407Y1305D02*
X1467Y1305D01*
X505Y1304D02*
X567Y1304D01*
X1406Y1304D02*
X1468Y1304D01*
X505Y1303D02*
X568Y1303D01*
X1405Y1303D02*
X1469Y1303D01*
X504Y1302D02*
X569Y1302D01*
X1405Y1302D02*
X1470Y1302D01*
X503Y1301D02*
X569Y1301D01*
X1404Y1301D02*
X1470Y1301D01*
X502Y1300D02*
X570Y1300D01*
X1403Y1300D02*
X1471Y1300D01*
X502Y1299D02*
X571Y1299D01*
X1403Y1299D02*
X1472Y1299D01*
X501Y1298D02*
X571Y1298D01*
X1402Y1298D02*
X1472Y1298D01*
X500Y1297D02*
X572Y1297D01*
X1401Y1297D02*
X1473Y1297D01*
X500Y1296D02*
X573Y1296D01*
X1401Y1296D02*
X1474Y1296D01*
X499Y1295D02*
X573Y1295D01*
X1400Y1295D02*
X1474Y1295D01*
X499Y1294D02*
X574Y1294D01*
X1400Y1294D02*
X1475Y1294D01*
X498Y1293D02*
X574Y1293D01*
X1399Y1293D02*
X1475Y1293D01*
X498Y1292D02*
X575Y1292D01*
X1399Y1292D02*
X1475Y1292D01*
X497Y1291D02*
X575Y1291D01*
X1398Y1291D02*
X1476Y1291D01*
X497Y1290D02*
X575Y1290D01*
X1398Y1290D02*
X1476Y1290D01*
X497Y1289D02*
X576Y1289D01*
X1398Y1289D02*
X1477Y1289D01*
X496Y1288D02*
X576Y1288D01*
X1397Y1288D02*
X1477Y1288D01*
X496Y1287D02*
X576Y1287D01*
X1397Y1287D02*
X1477Y1287D01*
X496Y1286D02*
X576Y1286D01*
X1397Y1286D02*
X1477Y1286D01*
X496Y1285D02*
X577Y1285D01*
X1397Y1285D02*
X1478Y1285D01*
X496Y1284D02*
X577Y1284D01*
X1396Y1284D02*
X1478Y1284D01*
X495Y1283D02*
X577Y1283D01*
X1396Y1283D02*
X1478Y1283D01*
X495Y1282D02*
X577Y1282D01*
X1396Y1282D02*
X1478Y1282D01*
X495Y1281D02*
X577Y1281D01*
X1396Y1281D02*
X1478Y1281D01*
X495Y1280D02*
X578Y1280D01*
X1396Y1280D02*
X1478Y1280D01*
X495Y1279D02*
X578Y1279D01*
X1396Y1279D02*
X1478Y1279D01*
X495Y1278D02*
X578Y1278D01*
X1396Y1278D02*
X1479Y1278D01*
X495Y1277D02*
X578Y1277D01*
X1396Y1277D02*
X1479Y1277D01*
X495Y1276D02*
X578Y1276D01*
X1396Y1276D02*
X1479Y1276D01*
X495Y1275D02*
X578Y1275D01*
X1396Y1275D02*
X1479Y1275D01*
X495Y1274D02*
X578Y1274D01*
X1396Y1274D02*
X1479Y1274D01*
X495Y1273D02*
X578Y1273D01*
X1396Y1273D02*
X1478Y1273D01*
X495Y1272D02*
X578Y1272D01*
X1396Y1272D02*
X1478Y1272D01*
X495Y1271D02*
X577Y1271D01*
X1396Y1271D02*
X1478Y1271D01*
X495Y1270D02*
X577Y1270D01*
X1396Y1270D02*
X1478Y1270D01*
X495Y1269D02*
X577Y1269D01*
X1396Y1269D02*
X1478Y1269D01*
X496Y1268D02*
X577Y1268D01*
X1396Y1268D02*
X1478Y1268D01*
X496Y1267D02*
X577Y1267D01*
X1397Y1267D02*
X1478Y1267D01*
X496Y1266D02*
X576Y1266D01*
X1397Y1266D02*
X1477Y1266D01*
X496Y1265D02*
X576Y1265D01*
X1397Y1265D02*
X1477Y1265D01*
X496Y1264D02*
X576Y1264D01*
X1397Y1264D02*
X1477Y1264D01*
X497Y1263D02*
X576Y1263D01*
X1398Y1263D02*
X1477Y1263D01*
X497Y1262D02*
X575Y1262D01*
X1398Y1262D02*
X1476Y1262D01*
X497Y1261D02*
X575Y1261D01*
X1398Y1261D02*
X1476Y1261D01*
X498Y1260D02*
X575Y1260D01*
X1399Y1260D02*
X1475Y1260D01*
X498Y1259D02*
X574Y1259D01*
X1399Y1259D02*
X1475Y1259D01*
X499Y1258D02*
X574Y1258D01*
X1400Y1258D02*
X1475Y1258D01*
X499Y1257D02*
X573Y1257D01*
X1400Y1257D02*
X1474Y1257D01*
X500Y1256D02*
X573Y1256D01*
X1401Y1256D02*
X1474Y1256D01*
X500Y1255D02*
X572Y1255D01*
X1401Y1255D02*
X1473Y1255D01*
X501Y1254D02*
X571Y1254D01*
X1402Y1254D02*
X1472Y1254D01*
X502Y1253D02*
X571Y1253D01*
X1403Y1253D02*
X1472Y1253D01*
X502Y1252D02*
X570Y1252D01*
X1403Y1252D02*
X1471Y1252D01*
X503Y1251D02*
X569Y1251D01*
X1404Y1251D02*
X1470Y1251D01*
X504Y1250D02*
X569Y1250D01*
X1405Y1250D02*
X1470Y1250D01*
X505Y1249D02*
X568Y1249D01*
X1405Y1249D02*
X1469Y1249D01*
X505Y1248D02*
X567Y1248D01*
X1406Y1248D02*
X1468Y1248D01*
X506Y1247D02*
X566Y1247D01*
X1407Y1247D02*
X1467Y1247D01*
X507Y1246D02*
X565Y1246D01*
X1408Y1246D02*
X1466Y1246D01*
X508Y1245D02*
X564Y1245D01*
X1409Y1245D02*
X1465Y1245D01*
X510Y1244D02*
X563Y1244D01*
X1410Y1244D02*
X1464Y1244D01*
X511Y1243D02*
X562Y1243D01*
X1412Y1243D02*
X1463Y1243D01*
X512Y1242D02*
X560Y1242D01*
X1413Y1242D02*
X1461Y1242D01*
X514Y1241D02*
X559Y1241D01*
X1414Y1241D02*
X1460Y1241D01*
X515Y1240D02*
X557Y1240D01*
X1416Y1240D02*
X1458Y1240D01*
X517Y1239D02*
X556Y1239D01*
X1418Y1239D02*
X1457Y1239D01*
X519Y1238D02*
X554Y1238D01*
X1420Y1238D02*
X1454Y1238D01*
X521Y1237D02*
X551Y1237D01*
X1422Y1237D02*
X1452Y1237D01*
X524Y1236D02*
X549Y1236D01*
X1425Y1236D02*
X1449Y1236D01*
X528Y1235D02*
X545Y1235D01*
X1429Y1235D02*
X1446Y1235D01*
X536Y1234D02*
X536Y1234D01*
X1437Y1234D02*
X1437Y1234D01*
X528Y1217D02*
X544Y1217D01*
X1429Y1217D02*
X1445Y1217D01*
X524Y1216D02*
X548Y1216D01*
X1425Y1216D02*
X1449Y1216D01*
X521Y1215D02*
X551Y1215D01*
X1422Y1215D02*
X1452Y1215D01*
X519Y1214D02*
X553Y1214D01*
X1420Y1214D02*
X1454Y1214D01*
X517Y1213D02*
X555Y1213D01*
X1418Y1213D02*
X1456Y1213D01*
X515Y1212D02*
X557Y1212D01*
X1416Y1212D02*
X1458Y1212D01*
X514Y1211D02*
X559Y1211D01*
X1415Y1211D02*
X1460Y1211D01*
X512Y1210D02*
X560Y1210D01*
X1413Y1210D02*
X1461Y1210D01*
X511Y1209D02*
X561Y1209D01*
X1412Y1209D02*
X1462Y1209D01*
X510Y1208D02*
X563Y1208D01*
X1411Y1208D02*
X1464Y1208D01*
X509Y1207D02*
X564Y1207D01*
X1409Y1207D02*
X1465Y1207D01*
X507Y1206D02*
X565Y1206D01*
X1408Y1206D02*
X1466Y1206D01*
X506Y1205D02*
X566Y1205D01*
X1407Y1205D02*
X1467Y1205D01*
X506Y1204D02*
X567Y1204D01*
X1406Y1204D02*
X1468Y1204D01*
X505Y1203D02*
X568Y1203D01*
X1406Y1203D02*
X1469Y1203D01*
X504Y1202D02*
X569Y1202D01*
X1405Y1202D02*
X1469Y1202D01*
X503Y1201D02*
X569Y1201D01*
X1404Y1201D02*
X1470Y1201D01*
X502Y1200D02*
X570Y1200D01*
X1403Y1200D02*
X1471Y1200D01*
X502Y1199D02*
X571Y1199D01*
X1403Y1199D02*
X1472Y1199D01*
X501Y1198D02*
X571Y1198D01*
X1402Y1198D02*
X1472Y1198D01*
X500Y1197D02*
X572Y1197D01*
X1401Y1197D02*
X1473Y1197D01*
X500Y1196D02*
X573Y1196D01*
X1401Y1196D02*
X1473Y1196D01*
X499Y1195D02*
X573Y1195D01*
X1400Y1195D02*
X1474Y1195D01*
X499Y1194D02*
X574Y1194D01*
X1400Y1194D02*
X1474Y1194D01*
X498Y1193D02*
X574Y1193D01*
X1399Y1193D02*
X1475Y1193D01*
X498Y1192D02*
X575Y1192D01*
X1399Y1192D02*
X1475Y1192D01*
X498Y1191D02*
X575Y1191D01*
X1398Y1191D02*
X1476Y1191D01*
X497Y1190D02*
X575Y1190D01*
X1398Y1190D02*
X1476Y1190D01*
X497Y1189D02*
X576Y1189D01*
X1398Y1189D02*
X1477Y1189D01*
X497Y1188D02*
X576Y1188D01*
X1397Y1188D02*
X1477Y1188D01*
X496Y1187D02*
X576Y1187D01*
X1397Y1187D02*
X1477Y1187D01*
X496Y1186D02*
X576Y1186D01*
X1397Y1186D02*
X1477Y1186D01*
X496Y1185D02*
X577Y1185D01*
X1397Y1185D02*
X1478Y1185D01*
X496Y1184D02*
X577Y1184D01*
X1396Y1184D02*
X1478Y1184D01*
X495Y1183D02*
X577Y1183D01*
X1396Y1183D02*
X1478Y1183D01*
X495Y1182D02*
X577Y1182D01*
X1396Y1182D02*
X1478Y1182D01*
X495Y1181D02*
X577Y1181D01*
X1396Y1181D02*
X1478Y1181D01*
X495Y1180D02*
X577Y1180D01*
X1396Y1180D02*
X1478Y1180D01*
X495Y1179D02*
X578Y1179D01*
X1396Y1179D02*
X1478Y1179D01*
X495Y1178D02*
X578Y1178D01*
X1396Y1178D02*
X1479Y1178D01*
X495Y1177D02*
X578Y1177D01*
X1396Y1177D02*
X1479Y1177D01*
X495Y1176D02*
X578Y1176D01*
X1396Y1176D02*
X1479Y1176D01*
X495Y1175D02*
X578Y1175D01*
X1396Y1175D02*
X1479Y1175D01*
X495Y1174D02*
X578Y1174D01*
X1396Y1174D02*
X1479Y1174D01*
X495Y1173D02*
X578Y1173D01*
X1396Y1173D02*
X1478Y1173D01*
X495Y1172D02*
X578Y1172D01*
X1396Y1172D02*
X1478Y1172D01*
X495Y1171D02*
X577Y1171D01*
X1396Y1171D02*
X1478Y1171D01*
X495Y1170D02*
X577Y1170D01*
X1396Y1170D02*
X1478Y1170D01*
X495Y1169D02*
X577Y1169D01*
X1396Y1169D02*
X1478Y1169D01*
X495Y1168D02*
X577Y1168D01*
X1396Y1168D02*
X1478Y1168D01*
X496Y1167D02*
X577Y1167D01*
X1397Y1167D02*
X1478Y1167D01*
X496Y1166D02*
X576Y1166D01*
X1397Y1166D02*
X1477Y1166D01*
X496Y1165D02*
X576Y1165D01*
X1397Y1165D02*
X1477Y1165D01*
X496Y1164D02*
X576Y1164D01*
X1397Y1164D02*
X1477Y1164D01*
X497Y1163D02*
X576Y1163D01*
X1398Y1163D02*
X1477Y1163D01*
X497Y1162D02*
X575Y1162D01*
X1398Y1162D02*
X1476Y1162D01*
X497Y1161D02*
X575Y1161D01*
X1398Y1161D02*
X1476Y1161D01*
X498Y1160D02*
X575Y1160D01*
X1399Y1160D02*
X1476Y1160D01*
X498Y1159D02*
X574Y1159D01*
X1399Y1159D02*
X1475Y1159D01*
X499Y1158D02*
X574Y1158D01*
X1400Y1158D02*
X1475Y1158D01*
X499Y1157D02*
X573Y1157D01*
X1400Y1157D02*
X1474Y1157D01*
X500Y1156D02*
X573Y1156D01*
X1401Y1156D02*
X1474Y1156D01*
X500Y1155D02*
X572Y1155D01*
X1401Y1155D02*
X1473Y1155D01*
X501Y1154D02*
X571Y1154D01*
X1402Y1154D02*
X1472Y1154D01*
X502Y1153D02*
X571Y1153D01*
X1402Y1153D02*
X1472Y1153D01*
X502Y1152D02*
X570Y1152D01*
X1403Y1152D02*
X1471Y1152D01*
X503Y1151D02*
X569Y1151D01*
X1404Y1151D02*
X1470Y1151D01*
X504Y1150D02*
X569Y1150D01*
X1405Y1150D02*
X1470Y1150D01*
X504Y1149D02*
X568Y1149D01*
X1405Y1149D02*
X1469Y1149D01*
X505Y1148D02*
X567Y1148D01*
X1406Y1148D02*
X1468Y1148D01*
X506Y1147D02*
X566Y1147D01*
X1407Y1147D02*
X1467Y1147D01*
X507Y1146D02*
X565Y1146D01*
X1408Y1146D02*
X1466Y1146D01*
X508Y1145D02*
X564Y1145D01*
X1409Y1145D02*
X1465Y1145D01*
X509Y1144D02*
X563Y1144D01*
X1410Y1144D02*
X1464Y1144D01*
X511Y1143D02*
X562Y1143D01*
X1412Y1143D02*
X1463Y1143D01*
X512Y1142D02*
X560Y1142D01*
X1413Y1142D02*
X1461Y1142D01*
X513Y1141D02*
X559Y1141D01*
X1414Y1141D02*
X1460Y1141D01*
X515Y1140D02*
X557Y1140D01*
X1416Y1140D02*
X1458Y1140D01*
X517Y1139D02*
X556Y1139D01*
X1418Y1139D02*
X1457Y1139D01*
X519Y1138D02*
X554Y1138D01*
X1420Y1138D02*
X1455Y1138D01*
X521Y1137D02*
X552Y1137D01*
X1422Y1137D02*
X1453Y1137D01*
X524Y1136D02*
X549Y1136D01*
X1425Y1136D02*
X1450Y1136D01*
X527Y1135D02*
X545Y1135D01*
X1428Y1135D02*
X1446Y1135D01*
X534Y1134D02*
X538Y1134D01*
X1435Y1134D02*
X1439Y1134D01*
X529Y1117D02*
X543Y1117D01*
X1430Y1117D02*
X1444Y1117D01*
X525Y1116D02*
X548Y1116D01*
X1426Y1116D02*
X1449Y1116D01*
X522Y1115D02*
X551Y1115D01*
X1423Y1115D02*
X1452Y1115D01*
X519Y1114D02*
X553Y1114D01*
X1420Y1114D02*
X1454Y1114D01*
X517Y1113D02*
X555Y1113D01*
X1418Y1113D02*
X1456Y1113D01*
X516Y1112D02*
X557Y1112D01*
X1416Y1112D02*
X1458Y1112D01*
X514Y1111D02*
X558Y1111D01*
X1415Y1111D02*
X1459Y1111D01*
X512Y1110D02*
X560Y1110D01*
X1413Y1110D02*
X1461Y1110D01*
X511Y1109D02*
X561Y1109D01*
X1412Y1109D02*
X1462Y1109D01*
X510Y1108D02*
X563Y1108D01*
X1411Y1108D02*
X1464Y1108D01*
X509Y1107D02*
X564Y1107D01*
X1410Y1107D02*
X1465Y1107D01*
X508Y1106D02*
X565Y1106D01*
X1408Y1106D02*
X1466Y1106D01*
X507Y1105D02*
X566Y1105D01*
X1407Y1105D02*
X1467Y1105D01*
X506Y1104D02*
X567Y1104D01*
X1407Y1104D02*
X1468Y1104D01*
X505Y1103D02*
X568Y1103D01*
X1406Y1103D02*
X1469Y1103D01*
X504Y1102D02*
X568Y1102D01*
X1405Y1102D02*
X1469Y1102D01*
X503Y1101D02*
X569Y1101D01*
X1404Y1101D02*
X1470Y1101D01*
X502Y1100D02*
X570Y1100D01*
X1403Y1100D02*
X1471Y1100D01*
X502Y1099D02*
X571Y1099D01*
X1403Y1099D02*
X1472Y1099D01*
X501Y1098D02*
X571Y1098D01*
X1402Y1098D02*
X1472Y1098D01*
X501Y1097D02*
X572Y1097D01*
X1401Y1097D02*
X1473Y1097D01*
X500Y1096D02*
X573Y1096D01*
X1401Y1096D02*
X1473Y1096D01*
X499Y1095D02*
X573Y1095D01*
X1400Y1095D02*
X1474Y1095D01*
X499Y1094D02*
X574Y1094D01*
X1400Y1094D02*
X1474Y1094D01*
X498Y1093D02*
X574Y1093D01*
X1399Y1093D02*
X1475Y1093D01*
X498Y1092D02*
X574Y1092D01*
X1399Y1092D02*
X1475Y1092D01*
X498Y1091D02*
X575Y1091D01*
X1398Y1091D02*
X1476Y1091D01*
X497Y1090D02*
X575Y1090D01*
X1398Y1090D02*
X1476Y1090D01*
X497Y1089D02*
X576Y1089D01*
X1398Y1089D02*
X1476Y1089D01*
X497Y1088D02*
X576Y1088D01*
X1397Y1088D02*
X1477Y1088D01*
X496Y1087D02*
X576Y1087D01*
X1397Y1087D02*
X1477Y1087D01*
X496Y1086D02*
X576Y1086D01*
X1397Y1086D02*
X1477Y1086D01*
X496Y1085D02*
X577Y1085D01*
X1397Y1085D02*
X1478Y1085D01*
X496Y1084D02*
X577Y1084D01*
X1396Y1084D02*
X1478Y1084D01*
X495Y1083D02*
X577Y1083D01*
X1396Y1083D02*
X1478Y1083D01*
X495Y1082D02*
X577Y1082D01*
X1396Y1082D02*
X1478Y1082D01*
X495Y1081D02*
X577Y1081D01*
X1396Y1081D02*
X1478Y1081D01*
X495Y1080D02*
X577Y1080D01*
X1396Y1080D02*
X1478Y1080D01*
X495Y1079D02*
X578Y1079D01*
X1396Y1079D02*
X1478Y1079D01*
X495Y1078D02*
X578Y1078D01*
X1396Y1078D02*
X1479Y1078D01*
X495Y1077D02*
X578Y1077D01*
X1396Y1077D02*
X1479Y1077D01*
X495Y1076D02*
X578Y1076D01*
X1396Y1076D02*
X1479Y1076D01*
X495Y1075D02*
X578Y1075D01*
X1396Y1075D02*
X1479Y1075D01*
X495Y1074D02*
X578Y1074D01*
X1396Y1074D02*
X1479Y1074D01*
X495Y1073D02*
X578Y1073D01*
X1396Y1073D02*
X1479Y1073D01*
X495Y1072D02*
X578Y1072D01*
X1396Y1072D02*
X1478Y1072D01*
X495Y1071D02*
X577Y1071D01*
X1396Y1071D02*
X1478Y1071D01*
X495Y1070D02*
X577Y1070D01*
X1396Y1070D02*
X1478Y1070D01*
X495Y1069D02*
X577Y1069D01*
X1396Y1069D02*
X1478Y1069D01*
X495Y1068D02*
X577Y1068D01*
X1396Y1068D02*
X1478Y1068D01*
X496Y1067D02*
X577Y1067D01*
X1397Y1067D02*
X1478Y1067D01*
X496Y1066D02*
X576Y1066D01*
X1397Y1066D02*
X1477Y1066D01*
X496Y1065D02*
X576Y1065D01*
X1397Y1065D02*
X1477Y1065D01*
X496Y1064D02*
X576Y1064D01*
X1397Y1064D02*
X1477Y1064D01*
X497Y1063D02*
X576Y1063D01*
X1398Y1063D02*
X1477Y1063D01*
X497Y1062D02*
X575Y1062D01*
X1398Y1062D02*
X1476Y1062D01*
X497Y1061D02*
X575Y1061D01*
X1398Y1061D02*
X1476Y1061D01*
X498Y1060D02*
X575Y1060D01*
X1399Y1060D02*
X1476Y1060D01*
X498Y1059D02*
X574Y1059D01*
X1399Y1059D02*
X1475Y1059D01*
X499Y1058D02*
X574Y1058D01*
X1400Y1058D02*
X1475Y1058D01*
X499Y1057D02*
X573Y1057D01*
X1400Y1057D02*
X1474Y1057D01*
X500Y1056D02*
X573Y1056D01*
X1401Y1056D02*
X1474Y1056D01*
X500Y1055D02*
X572Y1055D01*
X1401Y1055D02*
X1473Y1055D01*
X501Y1054D02*
X572Y1054D01*
X1402Y1054D02*
X1472Y1054D01*
X501Y1053D02*
X571Y1053D01*
X1402Y1053D02*
X1472Y1053D01*
X502Y1052D02*
X570Y1052D01*
X1403Y1052D02*
X1471Y1052D01*
X503Y1051D02*
X570Y1051D01*
X1404Y1051D02*
X1470Y1051D01*
X504Y1050D02*
X569Y1050D01*
X1405Y1050D02*
X1470Y1050D01*
X504Y1049D02*
X568Y1049D01*
X1405Y1049D02*
X1469Y1049D01*
X505Y1048D02*
X567Y1048D01*
X1406Y1048D02*
X1468Y1048D01*
X506Y1047D02*
X566Y1047D01*
X1407Y1047D02*
X1467Y1047D01*
X507Y1046D02*
X565Y1046D01*
X1408Y1046D02*
X1466Y1046D01*
X508Y1045D02*
X564Y1045D01*
X1409Y1045D02*
X1465Y1045D01*
X509Y1044D02*
X563Y1044D01*
X1410Y1044D02*
X1464Y1044D01*
X510Y1043D02*
X562Y1043D01*
X1411Y1043D02*
X1463Y1043D01*
X512Y1042D02*
X561Y1042D01*
X1413Y1042D02*
X1461Y1042D01*
X513Y1041D02*
X559Y1041D01*
X1414Y1041D02*
X1460Y1041D01*
X515Y1040D02*
X558Y1040D01*
X1416Y1040D02*
X1459Y1040D01*
X516Y1039D02*
X556Y1039D01*
X1417Y1039D02*
X1457Y1039D01*
X518Y1038D02*
X554Y1038D01*
X1419Y1038D02*
X1455Y1038D01*
X521Y1037D02*
X552Y1037D01*
X1421Y1037D02*
X1453Y1037D01*
X523Y1036D02*
X549Y1036D01*
X1424Y1036D02*
X1450Y1036D01*
X527Y1035D02*
X545Y1035D01*
X1428Y1035D02*
X1446Y1035D01*
X533Y1034D02*
X540Y1034D01*
X1433Y1034D02*
X1441Y1034D01*
X1698Y737D02*
X1698Y737D01*
X1690Y736D02*
X1706Y736D01*
X1686Y735D02*
X1710Y735D01*
X1683Y734D02*
X1713Y734D01*
X1681Y733D02*
X1715Y733D01*
X1679Y732D02*
X1717Y732D01*
X1677Y731D02*
X1719Y731D01*
X1675Y730D02*
X1720Y730D01*
X1674Y729D02*
X1722Y729D01*
X1672Y728D02*
X1723Y728D01*
X1671Y727D02*
X1725Y727D01*
X1670Y726D02*
X1726Y726D01*
X1669Y725D02*
X1727Y725D01*
X1668Y724D02*
X1728Y724D01*
X1667Y723D02*
X1729Y723D01*
X1666Y722D02*
X1729Y722D01*
X1665Y721D02*
X1730Y721D01*
X1665Y720D02*
X1731Y720D01*
X1664Y719D02*
X1732Y719D01*
X1663Y718D02*
X1732Y718D01*
X1663Y717D02*
X1733Y717D01*
X1662Y716D02*
X1734Y716D01*
X1661Y715D02*
X1734Y715D01*
X1661Y714D02*
X1735Y714D01*
X1660Y713D02*
X1735Y713D01*
X1660Y712D02*
X1736Y712D01*
X1660Y711D02*
X1736Y711D01*
X1659Y710D02*
X1737Y710D01*
X1659Y709D02*
X1737Y709D01*
X1658Y708D02*
X1737Y708D01*
X1658Y707D02*
X1738Y707D01*
X1658Y706D02*
X1738Y706D01*
X1658Y705D02*
X1738Y705D01*
X1657Y704D02*
X1738Y704D01*
X1657Y703D02*
X1739Y703D01*
X1657Y702D02*
X1739Y702D01*
X1657Y701D02*
X1739Y701D01*
X1657Y700D02*
X1739Y700D01*
X1657Y699D02*
X1739Y699D01*
X1656Y698D02*
X1739Y698D01*
X1656Y697D02*
X1739Y697D01*
X1656Y696D02*
X1739Y696D01*
X1656Y695D02*
X1739Y695D01*
X1656Y694D02*
X1739Y694D01*
X1656Y693D02*
X1739Y693D01*
X1656Y692D02*
X1739Y692D01*
X1657Y691D02*
X1739Y691D01*
X1657Y690D02*
X1739Y690D01*
X1657Y689D02*
X1739Y689D01*
X1657Y688D02*
X1739Y688D01*
X1657Y687D02*
X1739Y687D01*
X1657Y686D02*
X1738Y686D01*
X1658Y685D02*
X1738Y685D01*
X1658Y684D02*
X1738Y684D01*
X1658Y683D02*
X1738Y683D01*
X1658Y682D02*
X1737Y682D01*
X1659Y681D02*
X1737Y681D01*
X1659Y680D02*
X1737Y680D01*
X329Y679D02*
X340Y679D01*
X1497Y679D02*
X1499Y679D01*
X1659Y679D02*
X1736Y679D01*
X324Y678D02*
X345Y678D01*
X1490Y678D02*
X1507Y678D01*
X1660Y678D02*
X1736Y678D01*
X321Y677D02*
X348Y677D01*
X1486Y677D02*
X1510Y677D01*
X1660Y677D02*
X1735Y677D01*
X318Y676D02*
X351Y676D01*
X1483Y676D02*
X1513Y676D01*
X1661Y676D02*
X1735Y676D01*
X316Y675D02*
X353Y675D01*
X1481Y675D02*
X1515Y675D01*
X1661Y675D02*
X1734Y675D01*
X315Y674D02*
X355Y674D01*
X1479Y674D02*
X1517Y674D01*
X1662Y674D02*
X1734Y674D01*
X313Y673D02*
X357Y673D01*
X1477Y673D02*
X1519Y673D01*
X1663Y673D02*
X1733Y673D01*
X311Y672D02*
X358Y672D01*
X1475Y672D02*
X1521Y672D01*
X1663Y672D02*
X1732Y672D01*
X310Y671D02*
X359Y671D01*
X1474Y671D02*
X1522Y671D01*
X1664Y671D02*
X1732Y671D01*
X309Y670D02*
X361Y670D01*
X1473Y670D02*
X1523Y670D01*
X1665Y670D02*
X1731Y670D01*
X308Y669D02*
X362Y669D01*
X1471Y669D02*
X1525Y669D01*
X1665Y669D02*
X1730Y669D01*
X306Y668D02*
X363Y668D01*
X1470Y668D02*
X1526Y668D01*
X1666Y668D02*
X1730Y668D01*
X305Y667D02*
X364Y667D01*
X1469Y667D02*
X1527Y667D01*
X1667Y667D02*
X1729Y667D01*
X304Y666D02*
X365Y666D01*
X1468Y666D02*
X1528Y666D01*
X1668Y666D02*
X1728Y666D01*
X304Y665D02*
X366Y665D01*
X1467Y665D02*
X1529Y665D01*
X1669Y665D02*
X1727Y665D01*
X303Y664D02*
X367Y664D01*
X1466Y664D02*
X1530Y664D01*
X1670Y664D02*
X1726Y664D01*
X302Y663D02*
X368Y663D01*
X1466Y663D02*
X1530Y663D01*
X1671Y663D02*
X1725Y663D01*
X301Y662D02*
X368Y662D01*
X1465Y662D02*
X1531Y662D01*
X1672Y662D02*
X1723Y662D01*
X301Y661D02*
X369Y661D01*
X1464Y661D02*
X1532Y661D01*
X1674Y661D02*
X1722Y661D01*
X300Y660D02*
X370Y660D01*
X1463Y660D02*
X1533Y660D01*
X1675Y660D02*
X1721Y660D01*
X299Y659D02*
X370Y659D01*
X1463Y659D02*
X1533Y659D01*
X1677Y659D02*
X1719Y659D01*
X299Y658D02*
X371Y658D01*
X1462Y658D02*
X1534Y658D01*
X1678Y658D02*
X1717Y658D01*
X298Y657D02*
X371Y657D01*
X1462Y657D02*
X1534Y657D01*
X1680Y657D02*
X1715Y657D01*
X298Y656D02*
X372Y656D01*
X1461Y656D02*
X1535Y656D01*
X1683Y656D02*
X1713Y656D01*
X297Y655D02*
X372Y655D01*
X1461Y655D02*
X1535Y655D01*
X1685Y655D02*
X1710Y655D01*
X297Y654D02*
X373Y654D01*
X1460Y654D02*
X1536Y654D01*
X1689Y654D02*
X1706Y654D01*
X296Y653D02*
X373Y653D01*
X1460Y653D02*
X1536Y653D01*
X1697Y653D02*
X1698Y653D01*
X296Y652D02*
X374Y652D01*
X1459Y652D02*
X1537Y652D01*
X296Y651D02*
X374Y651D01*
X1459Y651D02*
X1537Y651D01*
X295Y650D02*
X374Y650D01*
X1459Y650D02*
X1537Y650D01*
X295Y649D02*
X375Y649D01*
X1458Y649D02*
X1538Y649D01*
X295Y648D02*
X375Y648D01*
X1458Y648D02*
X1538Y648D01*
X294Y647D02*
X375Y647D01*
X1458Y647D02*
X1538Y647D01*
X294Y646D02*
X375Y646D01*
X1458Y646D02*
X1539Y646D01*
X294Y645D02*
X376Y645D01*
X1457Y645D02*
X1539Y645D01*
X294Y644D02*
X376Y644D01*
X1457Y644D02*
X1539Y644D01*
X294Y643D02*
X376Y643D01*
X1457Y643D02*
X1539Y643D01*
X294Y642D02*
X376Y642D01*
X1457Y642D02*
X1539Y642D01*
X293Y641D02*
X376Y641D01*
X1457Y641D02*
X1539Y641D01*
X293Y640D02*
X376Y640D01*
X1457Y640D02*
X1539Y640D01*
X293Y639D02*
X376Y639D01*
X1457Y639D02*
X1539Y639D01*
X293Y638D02*
X376Y638D01*
X1457Y638D02*
X1540Y638D01*
X293Y637D02*
X376Y637D01*
X1457Y637D02*
X1540Y637D01*
X293Y636D02*
X376Y636D01*
X1457Y636D02*
X1540Y636D01*
X1690Y636D02*
X1706Y636D01*
X293Y635D02*
X376Y635D01*
X1457Y635D02*
X1539Y635D01*
X1686Y635D02*
X1710Y635D01*
X293Y634D02*
X376Y634D01*
X1457Y634D02*
X1539Y634D01*
X1683Y634D02*
X1713Y634D01*
X294Y633D02*
X376Y633D01*
X1457Y633D02*
X1539Y633D01*
X1681Y633D02*
X1715Y633D01*
X294Y632D02*
X376Y632D01*
X1457Y632D02*
X1539Y632D01*
X1679Y632D02*
X1717Y632D01*
X294Y631D02*
X376Y631D01*
X1457Y631D02*
X1539Y631D01*
X1677Y631D02*
X1719Y631D01*
X294Y630D02*
X376Y630D01*
X1457Y630D02*
X1539Y630D01*
X1675Y630D02*
X1720Y630D01*
X294Y629D02*
X375Y629D01*
X1457Y629D02*
X1539Y629D01*
X1674Y629D02*
X1722Y629D01*
X294Y628D02*
X375Y628D01*
X1458Y628D02*
X1539Y628D01*
X1673Y628D02*
X1723Y628D01*
X295Y627D02*
X375Y627D01*
X1458Y627D02*
X1538Y627D01*
X1671Y627D02*
X1724Y627D01*
X295Y626D02*
X375Y626D01*
X1458Y626D02*
X1538Y626D01*
X1670Y626D02*
X1726Y626D01*
X295Y625D02*
X374Y625D01*
X1458Y625D02*
X1538Y625D01*
X1669Y625D02*
X1727Y625D01*
X295Y624D02*
X374Y624D01*
X1459Y624D02*
X1537Y624D01*
X1668Y624D02*
X1728Y624D01*
X296Y623D02*
X374Y623D01*
X1459Y623D02*
X1537Y623D01*
X1667Y623D02*
X1728Y623D01*
X296Y622D02*
X373Y622D01*
X1459Y622D02*
X1537Y622D01*
X1666Y622D02*
X1729Y622D01*
X297Y621D02*
X373Y621D01*
X1460Y621D02*
X1536Y621D01*
X1666Y621D02*
X1730Y621D01*
X297Y620D02*
X372Y620D01*
X1460Y620D02*
X1536Y620D01*
X1665Y620D02*
X1731Y620D01*
X298Y619D02*
X372Y619D01*
X1461Y619D02*
X1535Y619D01*
X1664Y619D02*
X1732Y619D01*
X298Y618D02*
X371Y618D01*
X1461Y618D02*
X1535Y618D01*
X1663Y618D02*
X1732Y618D01*
X299Y617D02*
X371Y617D01*
X1462Y617D02*
X1534Y617D01*
X1663Y617D02*
X1733Y617D01*
X299Y616D02*
X370Y616D01*
X1462Y616D02*
X1534Y616D01*
X1662Y616D02*
X1734Y616D01*
X300Y615D02*
X370Y615D01*
X1463Y615D02*
X1533Y615D01*
X1662Y615D02*
X1734Y615D01*
X300Y614D02*
X369Y614D01*
X1463Y614D02*
X1533Y614D01*
X1661Y614D02*
X1735Y614D01*
X301Y613D02*
X368Y613D01*
X1464Y613D02*
X1532Y613D01*
X1660Y613D02*
X1735Y613D01*
X302Y612D02*
X368Y612D01*
X1465Y612D02*
X1531Y612D01*
X1660Y612D02*
X1736Y612D01*
X303Y611D02*
X367Y611D01*
X1466Y611D02*
X1530Y611D01*
X1660Y611D02*
X1736Y611D01*
X304Y610D02*
X366Y610D01*
X1466Y610D02*
X1530Y610D01*
X1659Y610D02*
X1737Y610D01*
X304Y609D02*
X365Y609D01*
X1467Y609D02*
X1529Y609D01*
X1659Y609D02*
X1737Y609D01*
X305Y608D02*
X364Y608D01*
X1468Y608D02*
X1528Y608D01*
X1658Y608D02*
X1737Y608D01*
X306Y607D02*
X363Y607D01*
X1469Y607D02*
X1527Y607D01*
X1658Y607D02*
X1738Y607D01*
X307Y606D02*
X362Y606D01*
X1470Y606D02*
X1526Y606D01*
X1658Y606D02*
X1738Y606D01*
X309Y605D02*
X361Y605D01*
X1471Y605D02*
X1525Y605D01*
X1658Y605D02*
X1738Y605D01*
X310Y604D02*
X360Y604D01*
X1473Y604D02*
X1523Y604D01*
X1657Y604D02*
X1738Y604D01*
X311Y603D02*
X358Y603D01*
X1474Y603D02*
X1522Y603D01*
X1657Y603D02*
X1739Y603D01*
X313Y602D02*
X357Y602D01*
X1475Y602D02*
X1521Y602D01*
X1657Y602D02*
X1739Y602D01*
X314Y601D02*
X355Y601D01*
X1477Y601D02*
X1519Y601D01*
X1657Y601D02*
X1739Y601D01*
X316Y600D02*
X353Y600D01*
X1479Y600D02*
X1517Y600D01*
X1657Y600D02*
X1739Y600D01*
X318Y599D02*
X351Y599D01*
X1481Y599D02*
X1515Y599D01*
X1657Y599D02*
X1739Y599D01*
X321Y598D02*
X349Y598D01*
X1483Y598D02*
X1513Y598D01*
X1656Y598D02*
X1739Y598D01*
X324Y597D02*
X345Y597D01*
X1486Y597D02*
X1510Y597D01*
X1656Y597D02*
X1739Y597D01*
X329Y596D02*
X340Y596D01*
X1490Y596D02*
X1506Y596D01*
X1656Y596D02*
X1739Y596D01*
X1498Y595D02*
X1498Y595D01*
X1656Y595D02*
X1739Y595D01*
X1656Y594D02*
X1739Y594D01*
X1656Y593D02*
X1739Y593D01*
X1656Y592D02*
X1739Y592D01*
X1657Y591D02*
X1739Y591D01*
X1657Y590D02*
X1739Y590D01*
X1657Y589D02*
X1739Y589D01*
X1657Y588D02*
X1739Y588D01*
X1657Y587D02*
X1739Y587D01*
X1657Y586D02*
X1738Y586D01*
X1658Y585D02*
X1738Y585D01*
X1658Y584D02*
X1738Y584D01*
X1658Y583D02*
X1738Y583D01*
X1658Y582D02*
X1737Y582D01*
X1659Y581D02*
X1737Y581D01*
X1659Y580D02*
X1737Y580D01*
X330Y579D02*
X339Y579D01*
X1659Y579D02*
X1736Y579D01*
X325Y578D02*
X345Y578D01*
X1490Y578D02*
X1506Y578D01*
X1660Y578D02*
X1736Y578D01*
X321Y577D02*
X348Y577D01*
X1486Y577D02*
X1510Y577D01*
X1660Y577D02*
X1735Y577D01*
X319Y576D02*
X351Y576D01*
X1483Y576D02*
X1513Y576D01*
X1661Y576D02*
X1735Y576D01*
X317Y575D02*
X353Y575D01*
X1481Y575D02*
X1515Y575D01*
X1661Y575D02*
X1734Y575D01*
X315Y574D02*
X355Y574D01*
X1479Y574D02*
X1517Y574D01*
X1662Y574D02*
X1734Y574D01*
X313Y573D02*
X356Y573D01*
X1477Y573D02*
X1519Y573D01*
X1663Y573D02*
X1733Y573D01*
X312Y572D02*
X358Y572D01*
X1476Y572D02*
X1521Y572D01*
X1663Y572D02*
X1733Y572D01*
X310Y571D02*
X359Y571D01*
X1474Y571D02*
X1522Y571D01*
X1664Y571D02*
X1732Y571D01*
X309Y570D02*
X361Y570D01*
X1473Y570D02*
X1523Y570D01*
X1665Y570D02*
X1731Y570D01*
X308Y569D02*
X362Y569D01*
X1471Y569D02*
X1525Y569D01*
X1665Y569D02*
X1730Y569D01*
X307Y568D02*
X363Y568D01*
X1470Y568D02*
X1526Y568D01*
X1666Y568D02*
X1730Y568D01*
X305Y567D02*
X364Y567D01*
X1469Y567D02*
X1527Y567D01*
X1667Y567D02*
X1729Y567D01*
X305Y566D02*
X365Y566D01*
X1468Y566D02*
X1528Y566D01*
X1668Y566D02*
X1728Y566D01*
X304Y565D02*
X366Y565D01*
X1467Y565D02*
X1529Y565D01*
X1669Y565D02*
X1727Y565D01*
X303Y564D02*
X367Y564D01*
X1466Y564D02*
X1530Y564D01*
X1670Y564D02*
X1726Y564D01*
X302Y563D02*
X367Y563D01*
X1466Y563D02*
X1530Y563D01*
X1671Y563D02*
X1725Y563D01*
X301Y562D02*
X368Y562D01*
X1465Y562D02*
X1531Y562D01*
X1672Y562D02*
X1723Y562D01*
X301Y561D02*
X369Y561D01*
X1464Y561D02*
X1532Y561D01*
X1674Y561D02*
X1722Y561D01*
X300Y560D02*
X370Y560D01*
X1464Y560D02*
X1533Y560D01*
X1675Y560D02*
X1721Y560D01*
X299Y559D02*
X370Y559D01*
X1463Y559D02*
X1533Y559D01*
X1677Y559D02*
X1719Y559D01*
X299Y558D02*
X371Y558D01*
X1462Y558D02*
X1534Y558D01*
X1678Y558D02*
X1717Y558D01*
X298Y557D02*
X371Y557D01*
X1462Y557D02*
X1534Y557D01*
X1680Y557D02*
X1715Y557D01*
X298Y556D02*
X372Y556D01*
X1461Y556D02*
X1535Y556D01*
X1682Y556D02*
X1713Y556D01*
X297Y555D02*
X372Y555D01*
X1461Y555D02*
X1535Y555D01*
X1685Y555D02*
X1711Y555D01*
X297Y554D02*
X373Y554D01*
X1460Y554D02*
X1536Y554D01*
X1689Y554D02*
X1707Y554D01*
X296Y553D02*
X373Y553D01*
X1460Y553D02*
X1536Y553D01*
X1695Y553D02*
X1700Y553D01*
X296Y552D02*
X374Y552D01*
X1459Y552D02*
X1537Y552D01*
X296Y551D02*
X374Y551D01*
X1459Y551D02*
X1537Y551D01*
X295Y550D02*
X374Y550D01*
X1459Y550D02*
X1537Y550D01*
X295Y549D02*
X375Y549D01*
X1458Y549D02*
X1538Y549D01*
X295Y548D02*
X375Y548D01*
X1458Y548D02*
X1538Y548D01*
X294Y547D02*
X375Y547D01*
X1458Y547D02*
X1538Y547D01*
X294Y546D02*
X375Y546D01*
X1458Y546D02*
X1538Y546D01*
X294Y545D02*
X376Y545D01*
X1457Y545D02*
X1539Y545D01*
X294Y544D02*
X376Y544D01*
X1457Y544D02*
X1539Y544D01*
X294Y543D02*
X376Y543D01*
X1457Y543D02*
X1539Y543D01*
X294Y542D02*
X376Y542D01*
X1457Y542D02*
X1539Y542D01*
X293Y541D02*
X376Y541D01*
X1457Y541D02*
X1539Y541D01*
X293Y540D02*
X376Y540D01*
X1457Y540D02*
X1539Y540D01*
X293Y539D02*
X376Y539D01*
X1457Y539D02*
X1539Y539D01*
X293Y538D02*
X376Y538D01*
X1457Y538D02*
X1540Y538D01*
X293Y537D02*
X376Y537D01*
X1457Y537D02*
X1540Y537D01*
X293Y536D02*
X376Y536D01*
X1457Y536D02*
X1540Y536D01*
X1691Y536D02*
X1705Y536D01*
X293Y535D02*
X376Y535D01*
X1457Y535D02*
X1539Y535D01*
X1686Y535D02*
X1709Y535D01*
X293Y534D02*
X376Y534D01*
X1457Y534D02*
X1539Y534D01*
X1683Y534D02*
X1712Y534D01*
X293Y533D02*
X376Y533D01*
X1457Y533D02*
X1539Y533D01*
X1681Y533D02*
X1715Y533D01*
X294Y532D02*
X376Y532D01*
X1457Y532D02*
X1539Y532D01*
X1679Y532D02*
X1717Y532D01*
X294Y531D02*
X376Y531D01*
X1457Y531D02*
X1539Y531D01*
X1677Y531D02*
X1718Y531D01*
X294Y530D02*
X376Y530D01*
X1457Y530D02*
X1539Y530D01*
X1676Y530D02*
X1720Y530D01*
X294Y529D02*
X375Y529D01*
X1457Y529D02*
X1539Y529D01*
X1674Y529D02*
X1722Y529D01*
X294Y528D02*
X375Y528D01*
X1458Y528D02*
X1539Y528D01*
X1673Y528D02*
X1723Y528D01*
X295Y527D02*
X375Y527D01*
X1458Y527D02*
X1538Y527D01*
X1671Y527D02*
X1724Y527D01*
X295Y526D02*
X375Y526D01*
X1458Y526D02*
X1538Y526D01*
X1670Y526D02*
X1725Y526D01*
X295Y525D02*
X374Y525D01*
X1458Y525D02*
X1538Y525D01*
X1669Y525D02*
X1726Y525D01*
X295Y524D02*
X374Y524D01*
X1459Y524D02*
X1538Y524D01*
X1668Y524D02*
X1727Y524D01*
X296Y523D02*
X374Y523D01*
X1459Y523D02*
X1537Y523D01*
X1667Y523D02*
X1728Y523D01*
X296Y522D02*
X373Y522D01*
X1459Y522D02*
X1537Y522D01*
X1666Y522D02*
X1729Y522D01*
X297Y521D02*
X373Y521D01*
X1460Y521D02*
X1536Y521D01*
X1666Y521D02*
X1730Y521D01*
X297Y520D02*
X373Y520D01*
X1460Y520D02*
X1536Y520D01*
X1665Y520D02*
X1731Y520D01*
X298Y519D02*
X372Y519D01*
X1461Y519D02*
X1536Y519D01*
X1664Y519D02*
X1732Y519D01*
X298Y518D02*
X372Y518D01*
X1461Y518D02*
X1535Y518D01*
X1663Y518D02*
X1732Y518D01*
X299Y517D02*
X371Y517D01*
X1462Y517D02*
X1535Y517D01*
X1663Y517D02*
X1733Y517D01*
X299Y516D02*
X370Y516D01*
X1462Y516D02*
X1534Y516D01*
X1662Y516D02*
X1734Y516D01*
X300Y515D02*
X370Y515D01*
X1463Y515D02*
X1533Y515D01*
X1662Y515D02*
X1734Y515D01*
X300Y514D02*
X369Y514D01*
X1463Y514D02*
X1533Y514D01*
X1661Y514D02*
X1735Y514D01*
X301Y513D02*
X368Y513D01*
X1464Y513D02*
X1532Y513D01*
X1661Y513D02*
X1735Y513D01*
X302Y512D02*
X368Y512D01*
X1465Y512D02*
X1531Y512D01*
X1660Y512D02*
X1736Y512D01*
X303Y511D02*
X367Y511D01*
X1466Y511D02*
X1531Y511D01*
X1660Y511D02*
X1736Y511D01*
X303Y510D02*
X366Y510D01*
X1466Y510D02*
X1530Y510D01*
X1659Y510D02*
X1736Y510D01*
X304Y509D02*
X365Y509D01*
X1467Y509D02*
X1529Y509D01*
X1659Y509D02*
X1737Y509D01*
X305Y508D02*
X364Y508D01*
X1468Y508D02*
X1528Y508D01*
X1658Y508D02*
X1737Y508D01*
X306Y507D02*
X363Y507D01*
X1469Y507D02*
X1527Y507D01*
X1658Y507D02*
X1738Y507D01*
X307Y506D02*
X362Y506D01*
X1470Y506D02*
X1526Y506D01*
X1658Y506D02*
X1738Y506D01*
X308Y505D02*
X361Y505D01*
X1471Y505D02*
X1525Y505D01*
X1658Y505D02*
X1738Y505D01*
X310Y504D02*
X360Y504D01*
X1473Y504D02*
X1524Y504D01*
X1657Y504D02*
X1738Y504D01*
X311Y503D02*
X358Y503D01*
X1474Y503D02*
X1522Y503D01*
X1657Y503D02*
X1738Y503D01*
X313Y502D02*
X357Y502D01*
X1475Y502D02*
X1521Y502D01*
X1657Y502D02*
X1739Y502D01*
X314Y501D02*
X355Y501D01*
X1477Y501D02*
X1519Y501D01*
X1657Y501D02*
X1739Y501D01*
X316Y500D02*
X353Y500D01*
X1479Y500D02*
X1518Y500D01*
X1657Y500D02*
X1739Y500D01*
X318Y499D02*
X351Y499D01*
X1481Y499D02*
X1516Y499D01*
X1657Y499D02*
X1739Y499D01*
X321Y498D02*
X349Y498D01*
X1483Y498D02*
X1513Y498D01*
X1657Y498D02*
X1739Y498D01*
X324Y497D02*
X346Y497D01*
X1486Y497D02*
X1511Y497D01*
X1656Y497D02*
X1739Y497D01*
X328Y496D02*
X341Y496D01*
X1489Y496D02*
X1507Y496D01*
X1656Y496D02*
X1739Y496D01*
X1496Y495D02*
X1500Y495D01*
X1656Y495D02*
X1739Y495D01*
X1656Y494D02*
X1739Y494D01*
X1656Y493D02*
X1739Y493D01*
X1656Y492D02*
X1739Y492D01*
X1657Y491D02*
X1739Y491D01*
X1657Y490D02*
X1739Y490D01*
X1657Y489D02*
X1739Y489D01*
X1657Y488D02*
X1739Y488D01*
X1657Y487D02*
X1739Y487D01*
X1657Y486D02*
X1738Y486D01*
X1658Y485D02*
X1738Y485D01*
X1658Y484D02*
X1738Y484D01*
X1658Y483D02*
X1738Y483D01*
X1658Y482D02*
X1737Y482D01*
X1659Y481D02*
X1737Y481D01*
X1659Y480D02*
X1737Y480D01*
X331Y479D02*
X339Y479D01*
X1659Y479D02*
X1736Y479D01*
X325Y478D02*
X344Y478D01*
X1491Y478D02*
X1505Y478D01*
X1660Y478D02*
X1736Y478D01*
X322Y477D02*
X348Y477D01*
X1486Y477D02*
X1510Y477D01*
X1660Y477D02*
X1735Y477D01*
X319Y476D02*
X351Y476D01*
X1483Y476D02*
X1513Y476D01*
X1661Y476D02*
X1735Y476D01*
X317Y475D02*
X353Y475D01*
X1481Y475D02*
X1515Y475D01*
X1661Y475D02*
X1734Y475D01*
X315Y474D02*
X355Y474D01*
X1479Y474D02*
X1517Y474D01*
X1662Y474D02*
X1734Y474D01*
X313Y473D02*
X356Y473D01*
X1477Y473D02*
X1519Y473D01*
X1662Y473D02*
X1733Y473D01*
X312Y472D02*
X358Y472D01*
X1476Y472D02*
X1520Y472D01*
X1663Y472D02*
X1733Y472D01*
X310Y471D02*
X359Y471D01*
X1474Y471D02*
X1522Y471D01*
X1664Y471D02*
X1732Y471D01*
X309Y470D02*
X361Y470D01*
X1473Y470D02*
X1523Y470D01*
X1664Y470D02*
X1731Y470D01*
X308Y469D02*
X362Y469D01*
X1472Y469D02*
X1525Y469D01*
X1665Y469D02*
X1730Y469D01*
X307Y468D02*
X363Y468D01*
X1470Y468D02*
X1526Y468D01*
X1666Y468D02*
X1730Y468D01*
X306Y467D02*
X364Y467D01*
X1469Y467D02*
X1527Y467D01*
X1667Y467D02*
X1729Y467D01*
X305Y466D02*
X365Y466D01*
X1468Y466D02*
X1528Y466D01*
X1668Y466D02*
X1728Y466D01*
X304Y465D02*
X366Y465D01*
X1467Y465D02*
X1529Y465D01*
X1669Y465D02*
X1727Y465D01*
X303Y464D02*
X367Y464D01*
X1467Y464D02*
X1530Y464D01*
X1670Y464D02*
X1726Y464D01*
X302Y463D02*
X367Y463D01*
X1466Y463D02*
X1530Y463D01*
X1671Y463D02*
X1725Y463D01*
X301Y462D02*
X368Y462D01*
X1465Y462D02*
X1531Y462D01*
X1672Y462D02*
X1724Y462D01*
X301Y461D02*
X369Y461D01*
X1464Y461D02*
X1532Y461D01*
X1673Y461D02*
X1722Y461D01*
X300Y460D02*
X370Y460D01*
X1464Y460D02*
X1533Y460D01*
X1675Y460D02*
X1721Y460D01*
X299Y459D02*
X370Y459D01*
X1463Y459D02*
X1533Y459D01*
X1676Y459D02*
X1719Y459D01*
X299Y458D02*
X371Y458D01*
X1462Y458D02*
X1534Y458D01*
X1678Y458D02*
X1718Y458D01*
X298Y457D02*
X371Y457D01*
X1462Y457D02*
X1534Y457D01*
X1680Y457D02*
X1716Y457D01*
X298Y456D02*
X372Y456D01*
X1461Y456D02*
X1535Y456D01*
X1682Y456D02*
X1714Y456D01*
X297Y455D02*
X372Y455D01*
X1461Y455D02*
X1535Y455D01*
X1685Y455D02*
X1711Y455D01*
X297Y454D02*
X373Y454D01*
X1460Y454D02*
X1536Y454D01*
X1688Y454D02*
X1707Y454D01*
X296Y453D02*
X373Y453D01*
X1460Y453D02*
X1536Y453D01*
X1694Y453D02*
X1702Y453D01*
X296Y452D02*
X374Y452D01*
X1459Y452D02*
X1537Y452D01*
X296Y451D02*
X374Y451D01*
X1459Y451D02*
X1537Y451D01*
X295Y450D02*
X374Y450D01*
X1459Y450D02*
X1537Y450D01*
X295Y449D02*
X375Y449D01*
X1458Y449D02*
X1538Y449D01*
X295Y448D02*
X375Y448D01*
X1458Y448D02*
X1538Y448D01*
X294Y447D02*
X375Y447D01*
X1458Y447D02*
X1538Y447D01*
X294Y446D02*
X375Y446D01*
X1458Y446D02*
X1538Y446D01*
X294Y445D02*
X375Y445D01*
X1457Y445D02*
X1539Y445D01*
X294Y444D02*
X376Y444D01*
X1457Y444D02*
X1539Y444D01*
X294Y443D02*
X376Y443D01*
X1457Y443D02*
X1539Y443D01*
X294Y442D02*
X376Y442D01*
X1457Y442D02*
X1539Y442D01*
X293Y441D02*
X376Y441D01*
X1457Y441D02*
X1539Y441D01*
X293Y440D02*
X376Y440D01*
X1457Y440D02*
X1539Y440D01*
X293Y439D02*
X376Y439D01*
X1457Y439D02*
X1539Y439D01*
X293Y438D02*
X376Y438D01*
X1457Y438D02*
X1540Y438D01*
X293Y437D02*
X376Y437D01*
X1457Y437D02*
X1540Y437D01*
X293Y436D02*
X376Y436D01*
X1457Y436D02*
X1540Y436D01*
X1691Y436D02*
X1704Y436D01*
X293Y435D02*
X376Y435D01*
X1457Y435D02*
X1539Y435D01*
X1687Y435D02*
X1709Y435D01*
X293Y434D02*
X376Y434D01*
X1457Y434D02*
X1539Y434D01*
X1684Y434D02*
X1712Y434D01*
X293Y433D02*
X376Y433D01*
X1457Y433D02*
X1539Y433D01*
X1681Y433D02*
X1714Y433D01*
X294Y432D02*
X376Y432D01*
X1457Y432D02*
X1539Y432D01*
X1679Y432D02*
X1717Y432D01*
X294Y431D02*
X376Y431D01*
X1457Y431D02*
X1539Y431D01*
X1677Y431D02*
X1718Y431D01*
X294Y430D02*
X376Y430D01*
X1457Y430D02*
X1539Y430D01*
X1676Y430D02*
X1720Y430D01*
X294Y429D02*
X375Y429D01*
X1457Y429D02*
X1539Y429D01*
X1674Y429D02*
X1721Y429D01*
X294Y428D02*
X375Y428D01*
X1458Y428D02*
X1539Y428D01*
X1673Y428D02*
X1723Y428D01*
X295Y427D02*
X375Y427D01*
X1458Y427D02*
X1538Y427D01*
X1672Y427D02*
X1724Y427D01*
X295Y426D02*
X375Y426D01*
X1458Y426D02*
X1538Y426D01*
X1670Y426D02*
X1725Y426D01*
X295Y425D02*
X374Y425D01*
X1458Y425D02*
X1538Y425D01*
X1669Y425D02*
X1726Y425D01*
X295Y424D02*
X374Y424D01*
X1459Y424D02*
X1538Y424D01*
X1668Y424D02*
X1727Y424D01*
X296Y423D02*
X374Y423D01*
X1459Y423D02*
X1537Y423D01*
X1667Y423D02*
X1728Y423D01*
X296Y422D02*
X373Y422D01*
X1459Y422D02*
X1537Y422D01*
X1667Y422D02*
X1729Y422D01*
X296Y421D02*
X373Y421D01*
X1460Y421D02*
X1536Y421D01*
X1666Y421D02*
X1730Y421D01*
X297Y420D02*
X373Y420D01*
X1460Y420D02*
X1536Y420D01*
X1665Y420D02*
X1731Y420D01*
X297Y419D02*
X372Y419D01*
X1461Y419D02*
X1536Y419D01*
X1664Y419D02*
X1731Y419D01*
X298Y418D02*
X372Y418D01*
X1461Y418D02*
X1535Y418D01*
X1664Y418D02*
X1732Y418D01*
X298Y417D02*
X371Y417D01*
X1461Y417D02*
X1535Y417D01*
X1663Y417D02*
X1733Y417D01*
X299Y416D02*
X370Y416D01*
X1462Y416D02*
X1534Y416D01*
X1662Y416D02*
X1733Y416D01*
X300Y415D02*
X370Y415D01*
X1463Y415D02*
X1533Y415D01*
X1662Y415D02*
X1734Y415D01*
X300Y414D02*
X369Y414D01*
X1463Y414D02*
X1533Y414D01*
X1661Y414D02*
X1735Y414D01*
X301Y413D02*
X368Y413D01*
X1464Y413D02*
X1532Y413D01*
X1661Y413D02*
X1735Y413D01*
X302Y412D02*
X368Y412D01*
X1465Y412D02*
X1531Y412D01*
X1660Y412D02*
X1736Y412D01*
X302Y411D02*
X367Y411D01*
X1465Y411D02*
X1531Y411D01*
X1660Y411D02*
X1736Y411D01*
X303Y410D02*
X366Y410D01*
X1466Y410D02*
X1530Y410D01*
X1659Y410D02*
X1736Y410D01*
X304Y409D02*
X365Y409D01*
X1467Y409D02*
X1529Y409D01*
X1659Y409D02*
X1737Y409D01*
X305Y408D02*
X364Y408D01*
X1468Y408D02*
X1528Y408D01*
X1659Y408D02*
X1737Y408D01*
X306Y407D02*
X363Y407D01*
X1469Y407D02*
X1527Y407D01*
X1658Y407D02*
X1737Y407D01*
X307Y406D02*
X362Y406D01*
X1470Y406D02*
X1526Y406D01*
X1658Y406D02*
X1738Y406D01*
X308Y405D02*
X361Y405D01*
X1471Y405D02*
X1525Y405D01*
X1658Y405D02*
X1738Y405D01*
X310Y404D02*
X360Y404D01*
X1472Y404D02*
X1524Y404D01*
X1657Y404D02*
X1738Y404D01*
X311Y403D02*
X358Y403D01*
X1474Y403D02*
X1522Y403D01*
X1657Y403D02*
X1738Y403D01*
X313Y402D02*
X357Y402D01*
X1475Y402D02*
X1521Y402D01*
X1657Y402D02*
X1739Y402D01*
X314Y401D02*
X355Y401D01*
X1477Y401D02*
X1519Y401D01*
X1657Y401D02*
X1739Y401D01*
X316Y400D02*
X354Y400D01*
X1478Y400D02*
X1518Y400D01*
X1657Y400D02*
X1739Y400D01*
X318Y399D02*
X352Y399D01*
X1480Y399D02*
X1516Y399D01*
X1657Y399D02*
X1739Y399D01*
X320Y398D02*
X349Y398D01*
X1482Y398D02*
X1514Y398D01*
X1657Y398D02*
X1739Y398D01*
X323Y397D02*
X346Y397D01*
X1485Y397D02*
X1511Y397D01*
X1656Y397D02*
X1739Y397D01*
X328Y396D02*
X342Y396D01*
X1489Y396D02*
X1507Y396D01*
X1656Y396D02*
X1739Y396D01*
X1495Y395D02*
X1501Y395D01*
X1656Y395D02*
X1739Y395D01*
X1656Y394D02*
X1739Y394D01*
X1656Y393D02*
X1739Y393D01*
X1656Y392D02*
X1739Y392D01*
X1657Y391D02*
X1739Y391D01*
X1657Y390D02*
X1739Y390D01*
X1657Y389D02*
X1739Y389D01*
X1657Y388D02*
X1739Y388D01*
X1657Y387D02*
X1739Y387D01*
X1657Y386D02*
X1738Y386D01*
X1658Y385D02*
X1738Y385D01*
X1658Y384D02*
X1738Y384D01*
X1658Y383D02*
X1738Y383D01*
X1658Y382D02*
X1737Y382D01*
X1659Y381D02*
X1737Y381D01*
X1659Y380D02*
X1737Y380D01*
X332Y379D02*
X337Y379D01*
X1659Y379D02*
X1736Y379D01*
X326Y378D02*
X344Y378D01*
X1491Y378D02*
X1505Y378D01*
X1660Y378D02*
X1736Y378D01*
X322Y377D02*
X347Y377D01*
X1487Y377D02*
X1509Y377D01*
X1660Y377D02*
X1735Y377D01*
X319Y376D02*
X350Y376D01*
X1484Y376D02*
X1512Y376D01*
X1661Y376D02*
X1735Y376D01*
X317Y375D02*
X352Y375D01*
X1481Y375D02*
X1515Y375D01*
X1661Y375D02*
X1734Y375D01*
X315Y374D02*
X354Y374D01*
X1479Y374D02*
X1517Y374D01*
X1662Y374D02*
X1734Y374D01*
X314Y373D02*
X356Y373D01*
X1478Y373D02*
X1519Y373D01*
X1662Y373D02*
X1733Y373D01*
X312Y372D02*
X358Y372D01*
X1476Y372D02*
X1520Y372D01*
X1663Y372D02*
X1733Y372D01*
X311Y371D02*
X359Y371D01*
X1474Y371D02*
X1522Y371D01*
X1664Y371D02*
X1732Y371D01*
X309Y370D02*
X360Y370D01*
X1473Y370D02*
X1523Y370D01*
X1664Y370D02*
X1731Y370D01*
X308Y369D02*
X362Y369D01*
X1472Y369D02*
X1524Y369D01*
X1665Y369D02*
X1731Y369D01*
X307Y368D02*
X363Y368D01*
X1471Y368D02*
X1525Y368D01*
X1666Y368D02*
X1730Y368D01*
X306Y367D02*
X364Y367D01*
X1469Y367D02*
X1527Y367D01*
X1667Y367D02*
X1729Y367D01*
X305Y366D02*
X365Y366D01*
X1468Y366D02*
X1528Y366D01*
X1668Y366D02*
X1728Y366D01*
X304Y365D02*
X366Y365D01*
X1468Y365D02*
X1529Y365D01*
X1669Y365D02*
X1727Y365D01*
X303Y364D02*
X367Y364D01*
X1467Y364D02*
X1529Y364D01*
X1670Y364D02*
X1726Y364D01*
X302Y363D02*
X367Y363D01*
X1466Y363D02*
X1530Y363D01*
X1671Y363D02*
X1725Y363D01*
X301Y362D02*
X368Y362D01*
X1465Y362D02*
X1531Y362D01*
X1672Y362D02*
X1724Y362D01*
X301Y361D02*
X369Y361D01*
X1464Y361D02*
X1532Y361D01*
X1673Y361D02*
X1722Y361D01*
X300Y360D02*
X369Y360D01*
X1464Y360D02*
X1532Y360D01*
X1675Y360D02*
X1721Y360D01*
X299Y359D02*
X370Y359D01*
X1463Y359D02*
X1533Y359D01*
X1676Y359D02*
X1719Y359D01*
X299Y358D02*
X371Y358D01*
X1462Y358D02*
X1534Y358D01*
X1678Y358D02*
X1718Y358D01*
X298Y357D02*
X371Y357D01*
X1462Y357D02*
X1534Y357D01*
X1680Y357D02*
X1716Y357D01*
X298Y356D02*
X372Y356D01*
X1461Y356D02*
X1535Y356D01*
X1682Y356D02*
X1714Y356D01*
X297Y355D02*
X372Y355D01*
X1461Y355D02*
X1535Y355D01*
X1685Y355D02*
X1711Y355D01*
X297Y354D02*
X373Y354D01*
X1460Y354D02*
X1536Y354D01*
X1688Y354D02*
X1708Y354D01*
X296Y353D02*
X373Y353D01*
X1460Y353D02*
X1536Y353D01*
X1693Y353D02*
X1702Y353D01*
X296Y352D02*
X374Y352D01*
X1459Y352D02*
X1537Y352D01*
X296Y351D02*
X374Y351D01*
X1459Y351D02*
X1537Y351D01*
X295Y350D02*
X374Y350D01*
X1459Y350D02*
X1537Y350D01*
X295Y349D02*
X375Y349D01*
X1458Y349D02*
X1538Y349D01*
X295Y348D02*
X375Y348D01*
X1458Y348D02*
X1538Y348D01*
X295Y347D02*
X375Y347D01*
X1458Y347D02*
X1538Y347D01*
X294Y346D02*
X375Y346D01*
X1458Y346D02*
X1538Y346D01*
X294Y345D02*
X375Y345D01*
X1457Y345D02*
X1539Y345D01*
X294Y344D02*
X376Y344D01*
X1457Y344D02*
X1539Y344D01*
X294Y343D02*
X376Y343D01*
X1457Y343D02*
X1539Y343D01*
X294Y342D02*
X376Y342D01*
X1457Y342D02*
X1539Y342D01*
X293Y341D02*
X376Y341D01*
X1457Y341D02*
X1539Y341D01*
X293Y340D02*
X376Y340D01*
X1457Y340D02*
X1539Y340D01*
X293Y339D02*
X376Y339D01*
X1457Y339D02*
X1539Y339D01*
X293Y338D02*
X376Y338D01*
X1457Y338D02*
X1540Y338D01*
X293Y337D02*
X376Y337D01*
X1457Y337D02*
X1540Y337D01*
X293Y336D02*
X376Y336D01*
X1457Y336D02*
X1540Y336D01*
X293Y335D02*
X376Y335D01*
X1457Y335D02*
X1539Y335D01*
X293Y334D02*
X376Y334D01*
X1457Y334D02*
X1539Y334D01*
X293Y333D02*
X376Y333D01*
X1457Y333D02*
X1539Y333D01*
X294Y332D02*
X376Y332D01*
X1457Y332D02*
X1539Y332D01*
X294Y331D02*
X376Y331D01*
X1457Y331D02*
X1539Y331D01*
X294Y330D02*
X376Y330D01*
X1457Y330D02*
X1539Y330D01*
X294Y329D02*
X375Y329D01*
X1457Y329D02*
X1539Y329D01*
X294Y328D02*
X375Y328D01*
X1457Y328D02*
X1539Y328D01*
X295Y327D02*
X375Y327D01*
X1458Y327D02*
X1538Y327D01*
X295Y326D02*
X375Y326D01*
X1458Y326D02*
X1538Y326D01*
X295Y325D02*
X374Y325D01*
X1458Y325D02*
X1538Y325D01*
X295Y324D02*
X374Y324D01*
X1459Y324D02*
X1538Y324D01*
X296Y323D02*
X374Y323D01*
X1459Y323D02*
X1537Y323D01*
X296Y322D02*
X373Y322D01*
X1459Y322D02*
X1537Y322D01*
X296Y321D02*
X373Y321D01*
X1460Y321D02*
X1537Y321D01*
X297Y320D02*
X373Y320D01*
X1460Y320D02*
X1536Y320D01*
X297Y319D02*
X372Y319D01*
X1460Y319D02*
X1536Y319D01*
X298Y318D02*
X372Y318D01*
X1461Y318D02*
X1535Y318D01*
X298Y317D02*
X371Y317D01*
X1461Y317D02*
X1535Y317D01*
X299Y316D02*
X371Y316D01*
X1462Y316D02*
X1534Y316D01*
X300Y315D02*
X370Y315D01*
X1463Y315D02*
X1533Y315D01*
X300Y314D02*
X369Y314D01*
X1463Y314D02*
X1533Y314D01*
X301Y313D02*
X369Y313D01*
X1464Y313D02*
X1532Y313D01*
X302Y312D02*
X368Y312D01*
X1465Y312D02*
X1531Y312D01*
X302Y311D02*
X367Y311D01*
X1465Y311D02*
X1531Y311D01*
X303Y310D02*
X366Y310D01*
X1466Y310D02*
X1530Y310D01*
X304Y309D02*
X365Y309D01*
X1467Y309D02*
X1529Y309D01*
X305Y308D02*
X365Y308D01*
X1468Y308D02*
X1528Y308D01*
X306Y307D02*
X364Y307D01*
X1469Y307D02*
X1527Y307D01*
X307Y306D02*
X362Y306D01*
X1470Y306D02*
X1526Y306D01*
X308Y305D02*
X361Y305D01*
X1471Y305D02*
X1525Y305D01*
X310Y304D02*
X360Y304D01*
X1472Y304D02*
X1524Y304D01*
X311Y303D02*
X359Y303D01*
X1474Y303D02*
X1523Y303D01*
X312Y302D02*
X357Y302D01*
X1475Y302D02*
X1521Y302D01*
X314Y301D02*
X356Y301D01*
X1477Y301D02*
X1520Y301D01*
X316Y300D02*
X354Y300D01*
X1478Y300D02*
X1518Y300D01*
X318Y299D02*
X352Y299D01*
X1480Y299D02*
X1516Y299D01*
X320Y298D02*
X350Y298D01*
X1482Y298D02*
X1514Y298D01*
X323Y297D02*
X347Y297D01*
X1485Y297D02*
X1511Y297D01*
X327Y296D02*
X343Y296D01*
X1488Y296D02*
X1508Y296D01*
X1494Y295D02*
X1502Y295D01*
X334Y279D02*
X335Y279D01*
X326Y278D02*
X343Y278D01*
X322Y277D02*
X347Y277D01*
X320Y276D02*
X350Y276D01*
X317Y275D02*
X352Y275D01*
X315Y274D02*
X354Y274D01*
X314Y273D02*
X356Y273D01*
X312Y272D02*
X357Y272D01*
X311Y271D02*
X359Y271D01*
X309Y270D02*
X360Y270D01*
X308Y269D02*
X361Y269D01*
X307Y268D02*
X363Y268D01*
X306Y267D02*
X364Y267D01*
X305Y266D02*
X365Y266D01*
X304Y265D02*
X366Y265D01*
X303Y264D02*
X366Y264D01*
X302Y263D02*
X367Y263D01*
X302Y262D02*
X368Y262D01*
X301Y261D02*
X369Y261D01*
X300Y260D02*
X369Y260D01*
X300Y259D02*
X370Y259D01*
X299Y258D02*
X371Y258D01*
X298Y257D02*
X371Y257D01*
X298Y256D02*
X372Y256D01*
X297Y255D02*
X372Y255D01*
X297Y254D02*
X373Y254D01*
X296Y253D02*
X373Y253D01*
X296Y252D02*
X373Y252D01*
X296Y251D02*
X374Y251D01*
X295Y250D02*
X374Y250D01*
X295Y249D02*
X374Y249D01*
X295Y248D02*
X375Y248D01*
X295Y247D02*
X375Y247D01*
X294Y246D02*
X375Y246D01*
X294Y245D02*
X375Y245D01*
X294Y244D02*
X376Y244D01*
X294Y243D02*
X376Y243D01*
X294Y242D02*
X376Y242D01*
X293Y241D02*
X376Y241D01*
X293Y240D02*
X376Y240D01*
X293Y239D02*
X376Y239D01*
X293Y238D02*
X376Y238D01*
X293Y237D02*
X376Y237D01*
X293Y236D02*
X376Y236D01*
X293Y235D02*
X376Y235D01*
X293Y234D02*
X376Y234D01*
X293Y233D02*
X376Y233D01*
X294Y232D02*
X376Y232D01*
X294Y231D02*
X376Y231D01*
X294Y230D02*
X376Y230D01*
X294Y229D02*
X375Y229D01*
X294Y228D02*
X375Y228D01*
X295Y227D02*
X375Y227D01*
X295Y226D02*
X375Y226D01*
X295Y225D02*
X374Y225D01*
X295Y224D02*
X374Y224D01*
X296Y223D02*
X374Y223D01*
X296Y222D02*
X373Y222D01*
X296Y221D02*
X373Y221D01*
X297Y220D02*
X373Y220D01*
X297Y219D02*
X372Y219D01*
X298Y218D02*
X372Y218D01*
X298Y217D02*
X371Y217D01*
X299Y216D02*
X371Y216D01*
X300Y215D02*
X370Y215D01*
X300Y214D02*
X369Y214D01*
X301Y213D02*
X369Y213D01*
X302Y212D02*
X368Y212D01*
X302Y211D02*
X367Y211D01*
X303Y210D02*
X366Y210D01*
X304Y209D02*
X366Y209D01*
X305Y208D02*
X365Y208D01*
X306Y207D02*
X364Y207D01*
X307Y206D02*
X363Y206D01*
X308Y205D02*
X361Y205D01*
X309Y204D02*
X360Y204D01*
X311Y203D02*
X359Y203D01*
X312Y202D02*
X357Y202D01*
X314Y201D02*
X356Y201D01*
X315Y200D02*
X354Y200D01*
X317Y199D02*
X352Y199D01*
X320Y198D02*
X350Y198D01*
X323Y197D02*
X347Y197D01*
X326Y196D02*
X343Y196D01*
X335Y195D02*
X335Y195D01*
D02*
G04 End of Mask1*
M02*