; NON-PLATED HOLES START AT T1
; THROUGH (PLATED) HOLES START AT T100
M48
INCH
T1C0.118110
T100C0.086614
T101C0.035050
T102C0.035000
%
T1
X007351Y026221
X012989Y003448
X012989Y007448
X010989Y007448
X008989Y005448
X010989Y005448
X008989Y007448
X012448Y026221
X012989Y005448
X010989Y003448
T100
X001650Y001751
X001666Y025864
X017951Y025865
X017970Y001751
T101
X014379Y013931
X005368Y011928
X009331Y024556
X005368Y018938
X010332Y024556
X014379Y010927
X014379Y017937
X014379Y018938
X005368Y014933
X016987Y003932
X014379Y015934
X005368Y013931
X014989Y006357
X005368Y019940
X005368Y023946
X014989Y003352
X014379Y019940
X005368Y015934
X005368Y020941
X014989Y005355
X014989Y004354
X014379Y014933
X014379Y021943
X014379Y012930
X016987Y004934
X005368Y022944
X014379Y016935
X005368Y021943
X016987Y006936
X005368Y017937
X003353Y003357
X003353Y005360
X005368Y010927
X014379Y011928
X003353Y004358
X005368Y024947
X014379Y022944
X014379Y024947
X005368Y016935
X014379Y023946
X005368Y012930
X003353Y006361
X008329Y024556
X016987Y005935
X014379Y020941
X011334Y024556
X003353Y002355
T102
X018069Y015559
X001481Y012559
X001481Y020559
X001481Y018559
X018069Y021559
X001561Y023559
X017989Y003559
X001481Y016559
X001561Y019559
X001481Y008559
X001561Y017559
X017989Y022559
X001481Y022559
X001561Y011559
X018069Y023559
X001561Y009559
X017989Y012559
X018069Y011559
X017989Y014559
X018069Y013559
X017989Y008559
X018989Y003559
X018069Y017559
X001481Y014559
X001561Y013559
X017989Y018559
X001481Y010559
X001561Y015559
X017989Y016559
X018989Y007559
X017989Y010559
X018069Y009559
X017989Y020559
X017989Y007559
X018069Y019559
X001561Y021559
T00
M30
