G04 MADE WITH FRITZING*
G04 WWW.FRITZING.ORG*
G04 DOUBLE SIDED*
G04 HOLES PLATED*
G04 CONTOUR ON CENTER OF CONTOUR VECTOR*
%ASAXBY*%
%FSLAX23Y23*%
%MOIN*%
%OFA0B0*%
%SFA1.0B1.0*%
%ADD10C,0.075000*%
%ADD11C,0.055000*%
%ADD12C,0.074106*%
%ADD13C,0.196850*%
%ADD14C,0.024000*%
%ADD15R,0.001000X0.001000*%
%LNCOPPER0*%
G90*
G70*
G54D10*
X1899Y356D03*
X1899Y756D03*
X1799Y356D03*
X1799Y756D03*
G54D11*
X148Y856D03*
X156Y956D03*
X148Y1056D03*
X156Y1156D03*
X148Y1256D03*
X156Y1356D03*
X148Y1456D03*
X156Y1556D03*
X148Y1656D03*
X156Y1756D03*
X148Y1856D03*
X156Y1956D03*
X148Y2056D03*
X156Y2156D03*
X148Y2256D03*
X156Y2356D03*
X1799Y856D03*
X1807Y956D03*
X1799Y1056D03*
X1807Y1156D03*
X1799Y1256D03*
X1807Y1356D03*
X1799Y1456D03*
X1807Y1556D03*
X1799Y1656D03*
X1807Y1756D03*
X1799Y1856D03*
X1807Y1956D03*
X1799Y2056D03*
X1807Y2156D03*
X1799Y2256D03*
X1807Y2356D03*
G54D12*
X1699Y393D03*
X1699Y493D03*
X1699Y594D03*
X1699Y694D03*
X1699Y393D03*
X1699Y493D03*
X1699Y594D03*
X1699Y694D03*
G54D13*
X1797Y175D03*
X165Y175D03*
X1795Y2587D03*
X1795Y2587D03*
X167Y2586D03*
X167Y2586D03*
G54D12*
X537Y1093D03*
X537Y1193D03*
X537Y1293D03*
X537Y1393D03*
X537Y1493D03*
X537Y1593D03*
X537Y1694D03*
X537Y1794D03*
X537Y1894D03*
X537Y1994D03*
X537Y2094D03*
X537Y2194D03*
X537Y2294D03*
X537Y2395D03*
X537Y2495D03*
X1438Y1093D03*
X1438Y1193D03*
X1438Y1293D03*
X1438Y1393D03*
X1438Y1493D03*
X1438Y1593D03*
X1438Y1694D03*
X1438Y1794D03*
X1438Y1894D03*
X1438Y1994D03*
X1438Y2094D03*
X1438Y2194D03*
X1438Y2294D03*
X1438Y2395D03*
X1438Y2495D03*
X537Y1093D03*
X537Y1193D03*
X537Y1293D03*
X537Y1393D03*
X537Y1493D03*
X537Y1593D03*
X537Y1694D03*
X537Y1794D03*
X537Y1894D03*
X537Y1994D03*
X537Y2094D03*
X537Y2194D03*
X537Y2294D03*
X537Y2395D03*
X537Y2495D03*
X1438Y1093D03*
X1438Y1193D03*
X1438Y1293D03*
X1438Y1393D03*
X1438Y1493D03*
X1438Y1593D03*
X1438Y1694D03*
X1438Y1794D03*
X1438Y1894D03*
X1438Y1994D03*
X1438Y2094D03*
X1438Y2194D03*
X1438Y2294D03*
X1438Y2395D03*
X1438Y2495D03*
X1499Y335D03*
X1499Y435D03*
X1499Y536D03*
X1499Y636D03*
X335Y236D03*
X335Y336D03*
X335Y436D03*
X335Y536D03*
X335Y636D03*
X833Y2456D03*
X933Y2456D03*
X1033Y2456D03*
X1133Y2456D03*
G54D14*
X1522Y519D02*
X1675Y410D01*
D02*
X1799Y556D02*
X1726Y583D01*
D02*
X1799Y385D02*
X1799Y556D01*
D02*
X1899Y656D02*
X1727Y688D01*
D02*
X1899Y385D02*
X1899Y656D01*
D02*
X1799Y827D02*
X1799Y785D01*
D02*
X1828Y756D02*
X1870Y756D01*
D02*
X1903Y2385D02*
X1815Y2445D01*
D02*
X1815Y2445D02*
X1466Y2398D01*
D02*
X1899Y1660D02*
X1903Y2385D01*
D02*
X1704Y851D02*
X1770Y854D01*
D02*
X84Y1824D02*
X122Y1843D01*
D02*
X84Y1592D02*
X84Y1824D01*
D02*
X131Y1569D02*
X84Y1592D01*
D02*
X85Y1912D02*
X127Y1875D01*
D02*
X84Y2312D02*
X85Y1912D01*
D02*
X132Y2341D02*
X84Y2312D01*
D02*
X576Y2579D02*
X396Y2582D01*
D02*
X728Y2489D02*
X576Y2579D01*
D02*
X850Y2555D02*
X728Y2489D01*
D02*
X1083Y2557D02*
X850Y2555D01*
D02*
X1121Y2481D02*
X1083Y2557D01*
D02*
X396Y2582D02*
X177Y2376D01*
D02*
X236Y1917D02*
X182Y1943D01*
D02*
X235Y1504D02*
X236Y1917D01*
D02*
X173Y1470D02*
X235Y1504D01*
D02*
X509Y2099D02*
X184Y2151D01*
D02*
X294Y1412D02*
X183Y1367D01*
D02*
X297Y2010D02*
X294Y1412D01*
D02*
X176Y2048D02*
X297Y2010D01*
D02*
X795Y1471D02*
X1409Y1492D01*
D02*
X1461Y1811D02*
X1776Y2039D01*
D02*
X1461Y1910D02*
X1784Y2139D01*
D02*
X1776Y2239D02*
X1461Y2011D01*
D02*
X1784Y2339D02*
X1461Y2111D01*
D02*
X508Y1996D02*
X297Y2010D01*
D02*
X672Y1295D02*
X828Y1374D01*
D02*
X619Y1372D02*
X795Y1471D01*
D02*
X301Y1217D02*
X300Y1312D01*
D02*
X300Y1312D02*
X184Y1348D01*
D02*
X182Y1167D02*
X301Y1217D01*
D02*
X612Y1004D02*
X619Y1372D01*
D02*
X666Y956D02*
X672Y1295D01*
D02*
X499Y456D02*
X666Y956D01*
D02*
X364Y439D02*
X499Y456D01*
D02*
X828Y1374D02*
X1409Y1392D01*
D02*
X463Y548D02*
X612Y1004D01*
D02*
X364Y539D02*
X463Y548D01*
D02*
X1699Y1756D02*
X1778Y1756D01*
D02*
X1699Y1356D02*
X1699Y1756D01*
D02*
X1899Y1660D02*
X1828Y1657D01*
D02*
X1898Y1270D02*
X1899Y1660D01*
D02*
X1699Y1356D02*
X1778Y1356D01*
D02*
X1898Y1270D02*
X1827Y1260D01*
D02*
X1899Y956D02*
X1898Y1270D01*
D02*
X1836Y956D02*
X1899Y956D01*
D02*
X1314Y2470D02*
X1199Y2356D01*
D02*
X959Y2353D02*
X940Y2428D01*
D02*
X1199Y2356D02*
X959Y2353D01*
D02*
X1410Y2489D02*
X1314Y2470D01*
D02*
X1602Y1216D02*
X1464Y1281D01*
D02*
X1598Y757D02*
X1602Y1216D01*
D02*
X1675Y709D02*
X1598Y757D01*
D02*
X1699Y1356D02*
X1459Y1574D01*
D02*
X1704Y851D02*
X1699Y1356D01*
D02*
X805Y2450D02*
X565Y2400D01*
G54D15*
X532Y2532D02*
X541Y2532D01*
X1432Y2532D02*
X1442Y2532D01*
X527Y2531D02*
X545Y2531D01*
X1428Y2531D02*
X1446Y2531D01*
X524Y2530D02*
X548Y2530D01*
X1425Y2530D02*
X1449Y2530D01*
X522Y2529D02*
X551Y2529D01*
X1422Y2529D02*
X1452Y2529D01*
X519Y2528D02*
X553Y2528D01*
X1420Y2528D02*
X1454Y2528D01*
X518Y2527D02*
X555Y2527D01*
X1419Y2527D02*
X1456Y2527D01*
X516Y2526D02*
X556Y2526D01*
X1417Y2526D02*
X1457Y2526D01*
X515Y2525D02*
X558Y2525D01*
X1416Y2525D02*
X1459Y2525D01*
X513Y2524D02*
X559Y2524D01*
X1414Y2524D02*
X1460Y2524D01*
X512Y2523D02*
X560Y2523D01*
X1413Y2523D02*
X1461Y2523D01*
X511Y2522D02*
X561Y2522D01*
X1412Y2522D02*
X1462Y2522D01*
X510Y2521D02*
X562Y2521D01*
X1411Y2521D02*
X1463Y2521D01*
X509Y2520D02*
X563Y2520D01*
X1410Y2520D02*
X1464Y2520D01*
X508Y2519D02*
X564Y2519D01*
X1409Y2519D02*
X1465Y2519D01*
X507Y2518D02*
X565Y2518D01*
X1408Y2518D02*
X1466Y2518D01*
X507Y2517D02*
X566Y2517D01*
X1408Y2517D02*
X1467Y2517D01*
X506Y2516D02*
X566Y2516D01*
X1407Y2516D02*
X1467Y2516D01*
X505Y2515D02*
X567Y2515D01*
X1406Y2515D02*
X1468Y2515D01*
X505Y2514D02*
X568Y2514D01*
X1406Y2514D02*
X1468Y2514D01*
X504Y2513D02*
X568Y2513D01*
X1405Y2513D02*
X1469Y2513D01*
X504Y2512D02*
X530Y2512D01*
X543Y2512D02*
X569Y2512D01*
X1405Y2512D02*
X1431Y2512D01*
X1444Y2512D02*
X1470Y2512D01*
X503Y2511D02*
X528Y2511D01*
X545Y2511D02*
X569Y2511D01*
X1404Y2511D02*
X1428Y2511D01*
X1446Y2511D02*
X1470Y2511D01*
X503Y2510D02*
X526Y2510D01*
X547Y2510D02*
X570Y2510D01*
X1404Y2510D02*
X1427Y2510D01*
X1447Y2510D02*
X1470Y2510D01*
X502Y2509D02*
X525Y2509D01*
X548Y2509D02*
X570Y2509D01*
X1403Y2509D02*
X1426Y2509D01*
X1449Y2509D02*
X1471Y2509D01*
X502Y2508D02*
X524Y2508D01*
X549Y2508D02*
X570Y2508D01*
X1403Y2508D02*
X1424Y2508D01*
X1450Y2508D02*
X1471Y2508D01*
X502Y2507D02*
X523Y2507D01*
X550Y2507D02*
X571Y2507D01*
X1403Y2507D02*
X1424Y2507D01*
X1451Y2507D02*
X1472Y2507D01*
X501Y2506D02*
X522Y2506D01*
X551Y2506D02*
X571Y2506D01*
X1402Y2506D02*
X1423Y2506D01*
X1452Y2506D02*
X1472Y2506D01*
X501Y2505D02*
X521Y2505D01*
X551Y2505D02*
X571Y2505D01*
X1402Y2505D02*
X1422Y2505D01*
X1452Y2505D02*
X1472Y2505D01*
X501Y2504D02*
X520Y2504D01*
X552Y2504D02*
X572Y2504D01*
X1402Y2504D02*
X1421Y2504D01*
X1453Y2504D02*
X1472Y2504D01*
X501Y2503D02*
X520Y2503D01*
X553Y2503D02*
X572Y2503D01*
X1401Y2503D02*
X1421Y2503D01*
X1454Y2503D02*
X1473Y2503D01*
X500Y2502D02*
X519Y2502D01*
X553Y2502D02*
X572Y2502D01*
X1401Y2502D02*
X1420Y2502D01*
X1454Y2502D02*
X1473Y2502D01*
X500Y2501D02*
X519Y2501D01*
X553Y2501D02*
X572Y2501D01*
X1401Y2501D02*
X1420Y2501D01*
X1454Y2501D02*
X1473Y2501D01*
X500Y2500D02*
X519Y2500D01*
X554Y2500D02*
X572Y2500D01*
X1401Y2500D02*
X1420Y2500D01*
X1455Y2500D02*
X1473Y2500D01*
X500Y2499D02*
X518Y2499D01*
X554Y2499D02*
X573Y2499D01*
X1401Y2499D02*
X1419Y2499D01*
X1455Y2499D02*
X1473Y2499D01*
X500Y2498D02*
X518Y2498D01*
X554Y2498D02*
X573Y2498D01*
X1401Y2498D02*
X1419Y2498D01*
X1455Y2498D02*
X1474Y2498D01*
X500Y2497D02*
X518Y2497D01*
X554Y2497D02*
X573Y2497D01*
X1401Y2497D02*
X1419Y2497D01*
X1455Y2497D02*
X1474Y2497D01*
X500Y2496D02*
X518Y2496D01*
X554Y2496D02*
X573Y2496D01*
X1401Y2496D02*
X1419Y2496D01*
X1455Y2496D02*
X1474Y2496D01*
X500Y2495D02*
X518Y2495D01*
X554Y2495D02*
X573Y2495D01*
X1401Y2495D02*
X1419Y2495D01*
X1455Y2495D02*
X1474Y2495D01*
X500Y2494D02*
X518Y2494D01*
X554Y2494D02*
X573Y2494D01*
X1401Y2494D02*
X1419Y2494D01*
X1455Y2494D02*
X1474Y2494D01*
X500Y2493D02*
X518Y2493D01*
X554Y2493D02*
X573Y2493D01*
X828Y2493D02*
X837Y2493D01*
X928Y2493D02*
X937Y2493D01*
X1028Y2493D02*
X1037Y2493D01*
X1128Y2493D02*
X1137Y2493D01*
X1401Y2493D02*
X1419Y2493D01*
X1455Y2493D02*
X1474Y2493D01*
X500Y2492D02*
X518Y2492D01*
X554Y2492D02*
X573Y2492D01*
X823Y2492D02*
X841Y2492D01*
X923Y2492D02*
X941Y2492D01*
X1024Y2492D02*
X1041Y2492D01*
X1124Y2492D02*
X1142Y2492D01*
X1401Y2492D02*
X1419Y2492D01*
X1455Y2492D02*
X1473Y2492D01*
X500Y2491D02*
X519Y2491D01*
X554Y2491D02*
X572Y2491D01*
X820Y2491D02*
X844Y2491D01*
X920Y2491D02*
X944Y2491D01*
X1020Y2491D02*
X1045Y2491D01*
X1121Y2491D02*
X1145Y2491D01*
X1401Y2491D02*
X1420Y2491D01*
X1455Y2491D02*
X1473Y2491D01*
X500Y2490D02*
X519Y2490D01*
X553Y2490D02*
X572Y2490D01*
X818Y2490D02*
X847Y2490D01*
X918Y2490D02*
X947Y2490D01*
X1018Y2490D02*
X1047Y2490D01*
X1118Y2490D02*
X1147Y2490D01*
X1401Y2490D02*
X1420Y2490D01*
X1454Y2490D02*
X1473Y2490D01*
X500Y2489D02*
X519Y2489D01*
X553Y2489D02*
X572Y2489D01*
X816Y2489D02*
X849Y2489D01*
X916Y2489D02*
X949Y2489D01*
X1016Y2489D02*
X1049Y2489D01*
X1116Y2489D02*
X1149Y2489D01*
X1401Y2489D02*
X1420Y2489D01*
X1454Y2489D02*
X1473Y2489D01*
X501Y2488D02*
X520Y2488D01*
X553Y2488D02*
X572Y2488D01*
X814Y2488D02*
X851Y2488D01*
X914Y2488D02*
X951Y2488D01*
X1014Y2488D02*
X1051Y2488D01*
X1114Y2488D02*
X1151Y2488D01*
X1401Y2488D02*
X1421Y2488D01*
X1454Y2488D02*
X1473Y2488D01*
X501Y2487D02*
X520Y2487D01*
X552Y2487D02*
X572Y2487D01*
X812Y2487D02*
X852Y2487D01*
X912Y2487D02*
X952Y2487D01*
X1012Y2487D02*
X1053Y2487D01*
X1113Y2487D02*
X1153Y2487D01*
X1402Y2487D02*
X1421Y2487D01*
X1453Y2487D02*
X1473Y2487D01*
X501Y2486D02*
X521Y2486D01*
X552Y2486D02*
X571Y2486D01*
X811Y2486D02*
X854Y2486D01*
X911Y2486D02*
X954Y2486D01*
X1011Y2486D02*
X1054Y2486D01*
X1111Y2486D02*
X1154Y2486D01*
X1402Y2486D02*
X1422Y2486D01*
X1452Y2486D02*
X1472Y2486D01*
X501Y2485D02*
X522Y2485D01*
X551Y2485D02*
X571Y2485D01*
X809Y2485D02*
X855Y2485D01*
X909Y2485D02*
X955Y2485D01*
X1010Y2485D02*
X1055Y2485D01*
X1110Y2485D02*
X1156Y2485D01*
X1402Y2485D02*
X1423Y2485D01*
X1452Y2485D02*
X1472Y2485D01*
X502Y2484D02*
X522Y2484D01*
X550Y2484D02*
X571Y2484D01*
X808Y2484D02*
X856Y2484D01*
X908Y2484D02*
X956Y2484D01*
X1008Y2484D02*
X1057Y2484D01*
X1109Y2484D02*
X1157Y2484D01*
X1403Y2484D02*
X1423Y2484D01*
X1451Y2484D02*
X1472Y2484D01*
X502Y2483D02*
X523Y2483D01*
X549Y2483D02*
X570Y2483D01*
X807Y2483D02*
X857Y2483D01*
X907Y2483D02*
X958Y2483D01*
X1007Y2483D02*
X1058Y2483D01*
X1107Y2483D02*
X1158Y2483D01*
X1403Y2483D02*
X1424Y2483D01*
X1450Y2483D02*
X1471Y2483D01*
X502Y2482D02*
X525Y2482D01*
X548Y2482D02*
X570Y2482D01*
X806Y2482D02*
X858Y2482D01*
X906Y2482D02*
X959Y2482D01*
X1006Y2482D02*
X1059Y2482D01*
X1106Y2482D02*
X1159Y2482D01*
X1403Y2482D02*
X1425Y2482D01*
X1449Y2482D02*
X1471Y2482D01*
X503Y2481D02*
X526Y2481D01*
X547Y2481D02*
X570Y2481D01*
X805Y2481D02*
X859Y2481D01*
X905Y2481D02*
X959Y2481D01*
X1005Y2481D02*
X1060Y2481D01*
X1106Y2481D02*
X1160Y2481D01*
X1404Y2481D02*
X1427Y2481D01*
X1448Y2481D02*
X1471Y2481D01*
X503Y2480D02*
X527Y2480D01*
X545Y2480D02*
X569Y2480D01*
X804Y2480D02*
X860Y2480D01*
X904Y2480D02*
X960Y2480D01*
X1005Y2480D02*
X1060Y2480D01*
X1105Y2480D02*
X1161Y2480D01*
X1404Y2480D02*
X1428Y2480D01*
X1446Y2480D02*
X1470Y2480D01*
X504Y2479D02*
X529Y2479D01*
X543Y2479D02*
X569Y2479D01*
X804Y2479D02*
X861Y2479D01*
X904Y2479D02*
X961Y2479D01*
X1004Y2479D02*
X1061Y2479D01*
X1104Y2479D02*
X1161Y2479D01*
X1405Y2479D02*
X1430Y2479D01*
X1444Y2479D02*
X1470Y2479D01*
X504Y2478D02*
X534Y2478D01*
X538Y2478D02*
X568Y2478D01*
X803Y2478D02*
X862Y2478D01*
X903Y2478D02*
X962Y2478D01*
X1003Y2478D02*
X1062Y2478D01*
X1103Y2478D02*
X1162Y2478D01*
X1405Y2478D02*
X1435Y2478D01*
X1439Y2478D02*
X1469Y2478D01*
X505Y2477D02*
X568Y2477D01*
X802Y2477D02*
X862Y2477D01*
X902Y2477D02*
X963Y2477D01*
X1002Y2477D02*
X1063Y2477D01*
X1103Y2477D02*
X1163Y2477D01*
X1406Y2477D02*
X1469Y2477D01*
X505Y2476D02*
X567Y2476D01*
X802Y2476D02*
X863Y2476D01*
X902Y2476D02*
X963Y2476D01*
X1002Y2476D02*
X1063Y2476D01*
X1102Y2476D02*
X1163Y2476D01*
X1406Y2476D02*
X1468Y2476D01*
X506Y2475D02*
X566Y2475D01*
X801Y2475D02*
X864Y2475D01*
X901Y2475D02*
X964Y2475D01*
X1001Y2475D02*
X1064Y2475D01*
X1101Y2475D02*
X1164Y2475D01*
X1407Y2475D02*
X1467Y2475D01*
X507Y2474D02*
X566Y2474D01*
X800Y2474D02*
X864Y2474D01*
X900Y2474D02*
X964Y2474D01*
X1001Y2474D02*
X1064Y2474D01*
X1101Y2474D02*
X1165Y2474D01*
X1408Y2474D02*
X1467Y2474D01*
X507Y2473D02*
X565Y2473D01*
X800Y2473D02*
X826Y2473D01*
X839Y2473D02*
X865Y2473D01*
X900Y2473D02*
X926Y2473D01*
X939Y2473D02*
X965Y2473D01*
X1000Y2473D02*
X1026Y2473D01*
X1039Y2473D02*
X1065Y2473D01*
X1100Y2473D02*
X1126Y2473D01*
X1139Y2473D02*
X1165Y2473D01*
X1408Y2473D02*
X1466Y2473D01*
X508Y2472D02*
X564Y2472D01*
X799Y2472D02*
X824Y2472D01*
X841Y2472D02*
X865Y2472D01*
X900Y2472D02*
X924Y2472D01*
X941Y2472D02*
X965Y2472D01*
X1000Y2472D02*
X1024Y2472D01*
X1041Y2472D02*
X1065Y2472D01*
X1100Y2472D02*
X1124Y2472D01*
X1141Y2472D02*
X1165Y2472D01*
X1409Y2472D02*
X1465Y2472D01*
X509Y2471D02*
X563Y2471D01*
X799Y2471D02*
X822Y2471D01*
X843Y2471D02*
X866Y2471D01*
X899Y2471D02*
X922Y2471D01*
X943Y2471D02*
X966Y2471D01*
X999Y2471D02*
X1022Y2471D01*
X1043Y2471D02*
X1066Y2471D01*
X1099Y2471D02*
X1122Y2471D01*
X1143Y2471D02*
X1166Y2471D01*
X1410Y2471D02*
X1464Y2471D01*
X510Y2470D02*
X563Y2470D01*
X799Y2470D02*
X821Y2470D01*
X844Y2470D02*
X866Y2470D01*
X899Y2470D02*
X921Y2470D01*
X944Y2470D02*
X966Y2470D01*
X999Y2470D02*
X1021Y2470D01*
X1044Y2470D02*
X1066Y2470D01*
X1099Y2470D02*
X1121Y2470D01*
X1144Y2470D02*
X1166Y2470D01*
X1411Y2470D02*
X1464Y2470D01*
X511Y2469D02*
X562Y2469D01*
X798Y2469D02*
X820Y2469D01*
X845Y2469D02*
X866Y2469D01*
X898Y2469D02*
X920Y2469D01*
X945Y2469D02*
X966Y2469D01*
X998Y2469D02*
X1020Y2469D01*
X1045Y2469D02*
X1067Y2469D01*
X1099Y2469D02*
X1120Y2469D01*
X1145Y2469D02*
X1167Y2469D01*
X1412Y2469D02*
X1463Y2469D01*
X512Y2468D02*
X561Y2468D01*
X798Y2468D02*
X819Y2468D01*
X846Y2468D02*
X867Y2468D01*
X898Y2468D02*
X919Y2468D01*
X946Y2468D02*
X967Y2468D01*
X998Y2468D02*
X1019Y2468D01*
X1046Y2468D02*
X1067Y2468D01*
X1098Y2468D02*
X1119Y2468D01*
X1146Y2468D02*
X1167Y2468D01*
X1413Y2468D02*
X1461Y2468D01*
X513Y2467D02*
X559Y2467D01*
X797Y2467D02*
X818Y2467D01*
X847Y2467D02*
X867Y2467D01*
X898Y2467D02*
X918Y2467D01*
X947Y2467D02*
X967Y2467D01*
X998Y2467D02*
X1018Y2467D01*
X1047Y2467D02*
X1067Y2467D01*
X1098Y2467D02*
X1118Y2467D01*
X1147Y2467D02*
X1167Y2467D01*
X1414Y2467D02*
X1460Y2467D01*
X514Y2466D02*
X558Y2466D01*
X797Y2466D02*
X817Y2466D01*
X847Y2466D02*
X867Y2466D01*
X897Y2466D02*
X917Y2466D01*
X948Y2466D02*
X967Y2466D01*
X997Y2466D02*
X1017Y2466D01*
X1048Y2466D02*
X1068Y2466D01*
X1098Y2466D02*
X1117Y2466D01*
X1148Y2466D02*
X1168Y2466D01*
X1415Y2466D02*
X1459Y2466D01*
X516Y2465D02*
X557Y2465D01*
X797Y2465D02*
X816Y2465D01*
X848Y2465D02*
X868Y2465D01*
X897Y2465D02*
X917Y2465D01*
X948Y2465D02*
X968Y2465D01*
X997Y2465D02*
X1017Y2465D01*
X1048Y2465D02*
X1068Y2465D01*
X1097Y2465D02*
X1117Y2465D01*
X1148Y2465D02*
X1168Y2465D01*
X1417Y2465D02*
X1458Y2465D01*
X517Y2464D02*
X555Y2464D01*
X797Y2464D02*
X816Y2464D01*
X849Y2464D02*
X868Y2464D01*
X897Y2464D02*
X916Y2464D01*
X949Y2464D02*
X968Y2464D01*
X997Y2464D02*
X1016Y2464D01*
X1049Y2464D02*
X1068Y2464D01*
X1097Y2464D02*
X1116Y2464D01*
X1149Y2464D02*
X1168Y2464D01*
X1418Y2464D02*
X1456Y2464D01*
X519Y2463D02*
X553Y2463D01*
X796Y2463D02*
X815Y2463D01*
X849Y2463D02*
X868Y2463D01*
X897Y2463D02*
X916Y2463D01*
X949Y2463D02*
X968Y2463D01*
X997Y2463D02*
X1016Y2463D01*
X1049Y2463D02*
X1068Y2463D01*
X1097Y2463D02*
X1116Y2463D01*
X1150Y2463D02*
X1168Y2463D01*
X1420Y2463D02*
X1454Y2463D01*
X521Y2462D02*
X551Y2462D01*
X796Y2462D02*
X815Y2462D01*
X849Y2462D02*
X868Y2462D01*
X896Y2462D02*
X915Y2462D01*
X950Y2462D02*
X968Y2462D01*
X997Y2462D02*
X1015Y2462D01*
X1050Y2462D02*
X1069Y2462D01*
X1097Y2462D02*
X1115Y2462D01*
X1150Y2462D02*
X1169Y2462D01*
X1422Y2462D02*
X1452Y2462D01*
X524Y2461D02*
X549Y2461D01*
X796Y2461D02*
X815Y2461D01*
X850Y2461D02*
X868Y2461D01*
X896Y2461D02*
X915Y2461D01*
X950Y2461D02*
X969Y2461D01*
X996Y2461D02*
X1015Y2461D01*
X1050Y2461D02*
X1069Y2461D01*
X1096Y2461D02*
X1115Y2461D01*
X1150Y2461D02*
X1169Y2461D01*
X1425Y2461D02*
X1450Y2461D01*
X526Y2460D02*
X546Y2460D01*
X796Y2460D02*
X815Y2460D01*
X850Y2460D02*
X869Y2460D01*
X896Y2460D02*
X915Y2460D01*
X950Y2460D02*
X969Y2460D01*
X996Y2460D02*
X1015Y2460D01*
X1050Y2460D02*
X1069Y2460D01*
X1096Y2460D02*
X1115Y2460D01*
X1150Y2460D02*
X1169Y2460D01*
X1427Y2460D02*
X1447Y2460D01*
X531Y2459D02*
X542Y2459D01*
X796Y2459D02*
X814Y2459D01*
X850Y2459D02*
X869Y2459D01*
X896Y2459D02*
X915Y2459D01*
X950Y2459D02*
X969Y2459D01*
X996Y2459D02*
X1015Y2459D01*
X1050Y2459D02*
X1069Y2459D01*
X1096Y2459D02*
X1115Y2459D01*
X1150Y2459D02*
X1169Y2459D01*
X1432Y2459D02*
X1443Y2459D01*
X796Y2458D02*
X814Y2458D01*
X850Y2458D02*
X869Y2458D01*
X896Y2458D02*
X915Y2458D01*
X950Y2458D02*
X969Y2458D01*
X996Y2458D02*
X1015Y2458D01*
X1050Y2458D02*
X1069Y2458D01*
X1096Y2458D02*
X1115Y2458D01*
X1151Y2458D02*
X1169Y2458D01*
X796Y2457D02*
X814Y2457D01*
X850Y2457D02*
X869Y2457D01*
X896Y2457D02*
X914Y2457D01*
X950Y2457D02*
X969Y2457D01*
X996Y2457D02*
X1015Y2457D01*
X1050Y2457D02*
X1069Y2457D01*
X1096Y2457D02*
X1115Y2457D01*
X1151Y2457D02*
X1169Y2457D01*
X796Y2456D02*
X814Y2456D01*
X850Y2456D02*
X869Y2456D01*
X896Y2456D02*
X914Y2456D01*
X950Y2456D02*
X969Y2456D01*
X996Y2456D02*
X1015Y2456D01*
X1050Y2456D02*
X1069Y2456D01*
X1096Y2456D02*
X1115Y2456D01*
X1151Y2456D02*
X1169Y2456D01*
X796Y2455D02*
X814Y2455D01*
X850Y2455D02*
X869Y2455D01*
X896Y2455D02*
X914Y2455D01*
X950Y2455D02*
X969Y2455D01*
X996Y2455D02*
X1015Y2455D01*
X1050Y2455D02*
X1069Y2455D01*
X1096Y2455D02*
X1115Y2455D01*
X1151Y2455D02*
X1169Y2455D01*
X796Y2454D02*
X814Y2454D01*
X850Y2454D02*
X869Y2454D01*
X896Y2454D02*
X915Y2454D01*
X950Y2454D02*
X969Y2454D01*
X996Y2454D02*
X1015Y2454D01*
X1050Y2454D02*
X1069Y2454D01*
X1096Y2454D02*
X1115Y2454D01*
X1150Y2454D02*
X1169Y2454D01*
X796Y2453D02*
X815Y2453D01*
X850Y2453D02*
X869Y2453D01*
X896Y2453D02*
X915Y2453D01*
X950Y2453D02*
X969Y2453D01*
X996Y2453D02*
X1015Y2453D01*
X1050Y2453D02*
X1069Y2453D01*
X1096Y2453D02*
X1115Y2453D01*
X1150Y2453D02*
X1169Y2453D01*
X796Y2452D02*
X815Y2452D01*
X850Y2452D02*
X868Y2452D01*
X896Y2452D02*
X915Y2452D01*
X950Y2452D02*
X969Y2452D01*
X996Y2452D02*
X1015Y2452D01*
X1050Y2452D02*
X1069Y2452D01*
X1096Y2452D02*
X1115Y2452D01*
X1150Y2452D02*
X1169Y2452D01*
X796Y2451D02*
X815Y2451D01*
X850Y2451D02*
X868Y2451D01*
X896Y2451D02*
X915Y2451D01*
X950Y2451D02*
X968Y2451D01*
X996Y2451D02*
X1015Y2451D01*
X1050Y2451D02*
X1069Y2451D01*
X1097Y2451D02*
X1115Y2451D01*
X1150Y2451D02*
X1169Y2451D01*
X796Y2450D02*
X815Y2450D01*
X849Y2450D02*
X868Y2450D01*
X897Y2450D02*
X915Y2450D01*
X949Y2450D02*
X968Y2450D01*
X997Y2450D02*
X1016Y2450D01*
X1049Y2450D02*
X1068Y2450D01*
X1097Y2450D02*
X1116Y2450D01*
X1150Y2450D02*
X1168Y2450D01*
X797Y2449D02*
X816Y2449D01*
X849Y2449D02*
X868Y2449D01*
X897Y2449D02*
X916Y2449D01*
X949Y2449D02*
X968Y2449D01*
X997Y2449D02*
X1016Y2449D01*
X1049Y2449D02*
X1068Y2449D01*
X1097Y2449D02*
X1116Y2449D01*
X1149Y2449D02*
X1168Y2449D01*
X797Y2448D02*
X816Y2448D01*
X848Y2448D02*
X868Y2448D01*
X897Y2448D02*
X916Y2448D01*
X948Y2448D02*
X968Y2448D01*
X997Y2448D02*
X1017Y2448D01*
X1048Y2448D02*
X1068Y2448D01*
X1097Y2448D02*
X1117Y2448D01*
X1149Y2448D02*
X1168Y2448D01*
X797Y2447D02*
X817Y2447D01*
X848Y2447D02*
X867Y2447D01*
X897Y2447D02*
X917Y2447D01*
X948Y2447D02*
X968Y2447D01*
X997Y2447D02*
X1017Y2447D01*
X1048Y2447D02*
X1068Y2447D01*
X1097Y2447D02*
X1117Y2447D01*
X1148Y2447D02*
X1168Y2447D01*
X797Y2446D02*
X818Y2446D01*
X847Y2446D02*
X867Y2446D01*
X897Y2446D02*
X918Y2446D01*
X947Y2446D02*
X967Y2446D01*
X998Y2446D02*
X1018Y2446D01*
X1047Y2446D02*
X1067Y2446D01*
X1098Y2446D02*
X1118Y2446D01*
X1147Y2446D02*
X1168Y2446D01*
X798Y2445D02*
X818Y2445D01*
X846Y2445D02*
X867Y2445D01*
X898Y2445D02*
X919Y2445D01*
X946Y2445D02*
X967Y2445D01*
X998Y2445D02*
X1019Y2445D01*
X1046Y2445D02*
X1067Y2445D01*
X1098Y2445D02*
X1119Y2445D01*
X1146Y2445D02*
X1167Y2445D01*
X798Y2444D02*
X819Y2444D01*
X845Y2444D02*
X866Y2444D01*
X898Y2444D02*
X920Y2444D01*
X945Y2444D02*
X967Y2444D01*
X998Y2444D02*
X1020Y2444D01*
X1045Y2444D02*
X1067Y2444D01*
X1098Y2444D02*
X1120Y2444D01*
X1146Y2444D02*
X1167Y2444D01*
X798Y2443D02*
X821Y2443D01*
X844Y2443D02*
X866Y2443D01*
X899Y2443D02*
X921Y2443D01*
X944Y2443D02*
X966Y2443D01*
X999Y2443D02*
X1021Y2443D01*
X1044Y2443D02*
X1066Y2443D01*
X1099Y2443D02*
X1121Y2443D01*
X1144Y2443D02*
X1166Y2443D01*
X799Y2442D02*
X822Y2442D01*
X843Y2442D02*
X866Y2442D01*
X899Y2442D02*
X922Y2442D01*
X943Y2442D02*
X966Y2442D01*
X999Y2442D02*
X1022Y2442D01*
X1043Y2442D02*
X1066Y2442D01*
X1099Y2442D02*
X1122Y2442D01*
X1143Y2442D02*
X1166Y2442D01*
X799Y2441D02*
X823Y2441D01*
X841Y2441D02*
X865Y2441D01*
X899Y2441D02*
X923Y2441D01*
X941Y2441D02*
X965Y2441D01*
X1000Y2441D02*
X1023Y2441D01*
X1042Y2441D02*
X1065Y2441D01*
X1100Y2441D02*
X1124Y2441D01*
X1142Y2441D02*
X1166Y2441D01*
X800Y2440D02*
X825Y2440D01*
X839Y2440D02*
X865Y2440D01*
X900Y2440D02*
X925Y2440D01*
X940Y2440D02*
X965Y2440D01*
X1000Y2440D02*
X1025Y2440D01*
X1040Y2440D02*
X1065Y2440D01*
X1100Y2440D02*
X1125Y2440D01*
X1140Y2440D02*
X1165Y2440D01*
X800Y2439D02*
X830Y2439D01*
X835Y2439D02*
X864Y2439D01*
X900Y2439D02*
X930Y2439D01*
X935Y2439D02*
X964Y2439D01*
X1000Y2439D02*
X1030Y2439D01*
X1035Y2439D02*
X1065Y2439D01*
X1101Y2439D02*
X1130Y2439D01*
X1135Y2439D02*
X1165Y2439D01*
X801Y2438D02*
X864Y2438D01*
X901Y2438D02*
X964Y2438D01*
X1001Y2438D02*
X1064Y2438D01*
X1101Y2438D02*
X1164Y2438D01*
X801Y2437D02*
X863Y2437D01*
X901Y2437D02*
X963Y2437D01*
X1002Y2437D02*
X1063Y2437D01*
X1102Y2437D02*
X1164Y2437D01*
X802Y2436D02*
X863Y2436D01*
X902Y2436D02*
X963Y2436D01*
X1002Y2436D02*
X1063Y2436D01*
X1102Y2436D02*
X1163Y2436D01*
X803Y2435D02*
X862Y2435D01*
X903Y2435D02*
X962Y2435D01*
X1003Y2435D02*
X1062Y2435D01*
X1103Y2435D02*
X1162Y2435D01*
X803Y2434D02*
X861Y2434D01*
X903Y2434D02*
X961Y2434D01*
X1004Y2434D02*
X1061Y2434D01*
X1104Y2434D02*
X1162Y2434D01*
X804Y2433D02*
X860Y2433D01*
X904Y2433D02*
X961Y2433D01*
X1004Y2433D02*
X1061Y2433D01*
X1104Y2433D02*
X1161Y2433D01*
X532Y2432D02*
X540Y2432D01*
X805Y2432D02*
X860Y2432D01*
X905Y2432D02*
X960Y2432D01*
X1005Y2432D02*
X1060Y2432D01*
X1105Y2432D02*
X1160Y2432D01*
X1433Y2432D02*
X1441Y2432D01*
X527Y2431D02*
X545Y2431D01*
X806Y2431D02*
X859Y2431D01*
X906Y2431D02*
X959Y2431D01*
X1006Y2431D02*
X1059Y2431D01*
X1106Y2431D02*
X1159Y2431D01*
X1428Y2431D02*
X1446Y2431D01*
X524Y2430D02*
X548Y2430D01*
X807Y2430D02*
X858Y2430D01*
X907Y2430D02*
X958Y2430D01*
X1007Y2430D02*
X1058Y2430D01*
X1107Y2430D02*
X1158Y2430D01*
X1425Y2430D02*
X1449Y2430D01*
X522Y2429D02*
X551Y2429D01*
X808Y2429D02*
X857Y2429D01*
X908Y2429D02*
X957Y2429D01*
X1008Y2429D02*
X1057Y2429D01*
X1108Y2429D02*
X1157Y2429D01*
X1423Y2429D02*
X1452Y2429D01*
X520Y2428D02*
X553Y2428D01*
X809Y2428D02*
X856Y2428D01*
X909Y2428D02*
X956Y2428D01*
X1009Y2428D02*
X1056Y2428D01*
X1109Y2428D02*
X1156Y2428D01*
X1421Y2428D02*
X1454Y2428D01*
X518Y2427D02*
X555Y2427D01*
X810Y2427D02*
X854Y2427D01*
X910Y2427D02*
X954Y2427D01*
X1011Y2427D02*
X1054Y2427D01*
X1111Y2427D02*
X1155Y2427D01*
X1419Y2427D02*
X1455Y2427D01*
X516Y2426D02*
X556Y2426D01*
X812Y2426D02*
X853Y2426D01*
X912Y2426D02*
X953Y2426D01*
X1012Y2426D02*
X1053Y2426D01*
X1112Y2426D02*
X1153Y2426D01*
X1417Y2426D02*
X1457Y2426D01*
X515Y2425D02*
X558Y2425D01*
X813Y2425D02*
X851Y2425D01*
X913Y2425D02*
X951Y2425D01*
X1014Y2425D02*
X1051Y2425D01*
X1114Y2425D02*
X1152Y2425D01*
X1416Y2425D02*
X1459Y2425D01*
X513Y2424D02*
X559Y2424D01*
X815Y2424D02*
X849Y2424D01*
X915Y2424D02*
X950Y2424D01*
X1015Y2424D02*
X1050Y2424D01*
X1115Y2424D02*
X1150Y2424D01*
X1414Y2424D02*
X1460Y2424D01*
X512Y2423D02*
X560Y2423D01*
X817Y2423D02*
X847Y2423D01*
X917Y2423D02*
X947Y2423D01*
X1017Y2423D02*
X1048Y2423D01*
X1118Y2423D02*
X1148Y2423D01*
X1413Y2423D02*
X1461Y2423D01*
X511Y2422D02*
X561Y2422D01*
X820Y2422D02*
X845Y2422D01*
X920Y2422D02*
X945Y2422D01*
X1020Y2422D02*
X1045Y2422D01*
X1120Y2422D02*
X1145Y2422D01*
X1412Y2422D02*
X1462Y2422D01*
X510Y2421D02*
X562Y2421D01*
X822Y2421D02*
X842Y2421D01*
X922Y2421D02*
X942Y2421D01*
X1023Y2421D02*
X1042Y2421D01*
X1123Y2421D02*
X1143Y2421D01*
X1411Y2421D02*
X1463Y2421D01*
X509Y2420D02*
X563Y2420D01*
X826Y2420D02*
X838Y2420D01*
X926Y2420D02*
X938Y2420D01*
X1027Y2420D02*
X1038Y2420D01*
X1127Y2420D02*
X1139Y2420D01*
X1410Y2420D02*
X1464Y2420D01*
X508Y2419D02*
X564Y2419D01*
X1409Y2419D02*
X1465Y2419D01*
X508Y2418D02*
X565Y2418D01*
X1408Y2418D02*
X1466Y2418D01*
X507Y2417D02*
X566Y2417D01*
X1408Y2417D02*
X1467Y2417D01*
X506Y2416D02*
X566Y2416D01*
X1407Y2416D02*
X1467Y2416D01*
X506Y2415D02*
X567Y2415D01*
X1406Y2415D02*
X1468Y2415D01*
X505Y2414D02*
X567Y2414D01*
X1406Y2414D02*
X1468Y2414D01*
X504Y2413D02*
X568Y2413D01*
X1405Y2413D02*
X1469Y2413D01*
X504Y2412D02*
X530Y2412D01*
X542Y2412D02*
X569Y2412D01*
X1405Y2412D02*
X1431Y2412D01*
X1443Y2412D02*
X1469Y2412D01*
X503Y2411D02*
X528Y2411D01*
X545Y2411D02*
X569Y2411D01*
X1404Y2411D02*
X1429Y2411D01*
X1446Y2411D02*
X1470Y2411D01*
X503Y2410D02*
X526Y2410D01*
X546Y2410D02*
X570Y2410D01*
X1404Y2410D02*
X1427Y2410D01*
X1447Y2410D02*
X1470Y2410D01*
X503Y2409D02*
X525Y2409D01*
X548Y2409D02*
X570Y2409D01*
X1403Y2409D02*
X1426Y2409D01*
X1449Y2409D02*
X1471Y2409D01*
X502Y2408D02*
X524Y2408D01*
X549Y2408D02*
X570Y2408D01*
X1403Y2408D02*
X1425Y2408D01*
X1450Y2408D02*
X1471Y2408D01*
X502Y2407D02*
X523Y2407D01*
X550Y2407D02*
X571Y2407D01*
X1403Y2407D02*
X1424Y2407D01*
X1451Y2407D02*
X1472Y2407D01*
X501Y2406D02*
X522Y2406D01*
X551Y2406D02*
X571Y2406D01*
X1402Y2406D02*
X1423Y2406D01*
X1451Y2406D02*
X1472Y2406D01*
X501Y2405D02*
X521Y2405D01*
X551Y2405D02*
X571Y2405D01*
X1402Y2405D02*
X1422Y2405D01*
X1452Y2405D02*
X1472Y2405D01*
X501Y2404D02*
X520Y2404D01*
X552Y2404D02*
X572Y2404D01*
X1402Y2404D02*
X1421Y2404D01*
X1453Y2404D02*
X1472Y2404D01*
X501Y2403D02*
X520Y2403D01*
X553Y2403D02*
X572Y2403D01*
X1402Y2403D02*
X1421Y2403D01*
X1453Y2403D02*
X1473Y2403D01*
X500Y2402D02*
X519Y2402D01*
X553Y2402D02*
X572Y2402D01*
X1401Y2402D02*
X1420Y2402D01*
X1454Y2402D02*
X1473Y2402D01*
X500Y2401D02*
X519Y2401D01*
X553Y2401D02*
X572Y2401D01*
X1401Y2401D02*
X1420Y2401D01*
X1454Y2401D02*
X1473Y2401D01*
X500Y2400D02*
X519Y2400D01*
X554Y2400D02*
X572Y2400D01*
X1401Y2400D02*
X1420Y2400D01*
X1455Y2400D02*
X1473Y2400D01*
X500Y2399D02*
X518Y2399D01*
X554Y2399D02*
X573Y2399D01*
X1401Y2399D02*
X1419Y2399D01*
X1455Y2399D02*
X1473Y2399D01*
X500Y2398D02*
X518Y2398D01*
X554Y2398D02*
X573Y2398D01*
X1401Y2398D02*
X1419Y2398D01*
X1455Y2398D02*
X1474Y2398D01*
X500Y2397D02*
X518Y2397D01*
X554Y2397D02*
X573Y2397D01*
X1401Y2397D02*
X1419Y2397D01*
X1455Y2397D02*
X1474Y2397D01*
X500Y2396D02*
X518Y2396D01*
X554Y2396D02*
X573Y2396D01*
X1401Y2396D02*
X1419Y2396D01*
X1455Y2396D02*
X1474Y2396D01*
X500Y2395D02*
X518Y2395D01*
X554Y2395D02*
X573Y2395D01*
X1401Y2395D02*
X1419Y2395D01*
X1455Y2395D02*
X1474Y2395D01*
X500Y2394D02*
X518Y2394D01*
X554Y2394D02*
X573Y2394D01*
X1401Y2394D02*
X1419Y2394D01*
X1455Y2394D02*
X1474Y2394D01*
X500Y2393D02*
X518Y2393D01*
X554Y2393D02*
X573Y2393D01*
X1401Y2393D02*
X1419Y2393D01*
X1455Y2393D02*
X1474Y2393D01*
X500Y2392D02*
X518Y2392D01*
X554Y2392D02*
X573Y2392D01*
X1401Y2392D02*
X1419Y2392D01*
X1455Y2392D02*
X1473Y2392D01*
X500Y2391D02*
X519Y2391D01*
X554Y2391D02*
X572Y2391D01*
X1401Y2391D02*
X1420Y2391D01*
X1455Y2391D02*
X1473Y2391D01*
X500Y2390D02*
X519Y2390D01*
X553Y2390D02*
X572Y2390D01*
X1401Y2390D02*
X1420Y2390D01*
X1454Y2390D02*
X1473Y2390D01*
X500Y2389D02*
X519Y2389D01*
X553Y2389D02*
X572Y2389D01*
X1401Y2389D02*
X1420Y2389D01*
X1454Y2389D02*
X1473Y2389D01*
X501Y2388D02*
X520Y2388D01*
X553Y2388D02*
X572Y2388D01*
X1401Y2388D02*
X1421Y2388D01*
X1454Y2388D02*
X1473Y2388D01*
X501Y2387D02*
X520Y2387D01*
X552Y2387D02*
X572Y2387D01*
X1402Y2387D02*
X1421Y2387D01*
X1453Y2387D02*
X1473Y2387D01*
X501Y2386D02*
X521Y2386D01*
X552Y2386D02*
X571Y2386D01*
X1402Y2386D02*
X1422Y2386D01*
X1453Y2386D02*
X1472Y2386D01*
X501Y2385D02*
X522Y2385D01*
X551Y2385D02*
X571Y2385D01*
X1402Y2385D02*
X1422Y2385D01*
X1452Y2385D02*
X1472Y2385D01*
X502Y2384D02*
X522Y2384D01*
X550Y2384D02*
X571Y2384D01*
X1403Y2384D02*
X1423Y2384D01*
X1451Y2384D02*
X1472Y2384D01*
X502Y2383D02*
X523Y2383D01*
X549Y2383D02*
X570Y2383D01*
X1403Y2383D02*
X1424Y2383D01*
X1450Y2383D02*
X1471Y2383D01*
X502Y2382D02*
X524Y2382D01*
X548Y2382D02*
X570Y2382D01*
X1403Y2382D02*
X1425Y2382D01*
X1449Y2382D02*
X1471Y2382D01*
X503Y2381D02*
X526Y2381D01*
X547Y2381D02*
X570Y2381D01*
X1404Y2381D02*
X1426Y2381D01*
X1448Y2381D02*
X1471Y2381D01*
X503Y2380D02*
X527Y2380D01*
X545Y2380D02*
X569Y2380D01*
X1404Y2380D02*
X1428Y2380D01*
X1446Y2380D02*
X1470Y2380D01*
X504Y2379D02*
X529Y2379D01*
X544Y2379D02*
X569Y2379D01*
X1405Y2379D02*
X1430Y2379D01*
X1444Y2379D02*
X1470Y2379D01*
X504Y2378D02*
X533Y2378D01*
X539Y2378D02*
X568Y2378D01*
X1405Y2378D02*
X1434Y2378D01*
X1440Y2378D02*
X1469Y2378D01*
X505Y2377D02*
X568Y2377D01*
X1406Y2377D02*
X1469Y2377D01*
X505Y2376D02*
X567Y2376D01*
X1406Y2376D02*
X1468Y2376D01*
X506Y2375D02*
X567Y2375D01*
X1407Y2375D02*
X1467Y2375D01*
X507Y2374D02*
X566Y2374D01*
X1407Y2374D02*
X1467Y2374D01*
X507Y2373D02*
X565Y2373D01*
X1408Y2373D02*
X1466Y2373D01*
X508Y2372D02*
X564Y2372D01*
X1409Y2372D02*
X1465Y2372D01*
X509Y2371D02*
X564Y2371D01*
X1410Y2371D02*
X1464Y2371D01*
X510Y2370D02*
X563Y2370D01*
X1411Y2370D02*
X1464Y2370D01*
X511Y2369D02*
X562Y2369D01*
X1412Y2369D02*
X1463Y2369D01*
X512Y2368D02*
X561Y2368D01*
X1413Y2368D02*
X1462Y2368D01*
X513Y2367D02*
X560Y2367D01*
X1414Y2367D02*
X1460Y2367D01*
X514Y2366D02*
X558Y2366D01*
X1415Y2366D02*
X1459Y2366D01*
X516Y2365D02*
X557Y2365D01*
X1417Y2365D02*
X1458Y2365D01*
X517Y2364D02*
X555Y2364D01*
X1418Y2364D02*
X1456Y2364D01*
X519Y2363D02*
X553Y2363D01*
X1420Y2363D02*
X1454Y2363D01*
X521Y2362D02*
X551Y2362D01*
X1422Y2362D02*
X1452Y2362D01*
X523Y2361D02*
X549Y2361D01*
X1424Y2361D02*
X1450Y2361D01*
X526Y2360D02*
X546Y2360D01*
X1427Y2360D02*
X1447Y2360D01*
X530Y2359D02*
X542Y2359D01*
X1431Y2359D02*
X1443Y2359D01*
X533Y2332D02*
X539Y2332D01*
X1434Y2332D02*
X1440Y2332D01*
X528Y2331D02*
X545Y2331D01*
X1429Y2331D02*
X1445Y2331D01*
X525Y2330D02*
X548Y2330D01*
X1426Y2330D02*
X1449Y2330D01*
X522Y2329D02*
X550Y2329D01*
X1423Y2329D02*
X1451Y2329D01*
X520Y2328D02*
X552Y2328D01*
X1421Y2328D02*
X1453Y2328D01*
X518Y2327D02*
X554Y2327D01*
X1419Y2327D02*
X1455Y2327D01*
X516Y2326D02*
X556Y2326D01*
X1417Y2326D02*
X1457Y2326D01*
X515Y2325D02*
X558Y2325D01*
X1416Y2325D02*
X1458Y2325D01*
X514Y2324D02*
X559Y2324D01*
X1414Y2324D02*
X1460Y2324D01*
X512Y2323D02*
X560Y2323D01*
X1413Y2323D02*
X1461Y2323D01*
X511Y2322D02*
X561Y2322D01*
X1412Y2322D02*
X1462Y2322D01*
X510Y2321D02*
X562Y2321D01*
X1411Y2321D02*
X1463Y2321D01*
X509Y2320D02*
X563Y2320D01*
X1410Y2320D02*
X1464Y2320D01*
X508Y2319D02*
X564Y2319D01*
X1409Y2319D02*
X1465Y2319D01*
X508Y2318D02*
X565Y2318D01*
X1409Y2318D02*
X1466Y2318D01*
X507Y2317D02*
X566Y2317D01*
X1408Y2317D02*
X1466Y2317D01*
X506Y2316D02*
X566Y2316D01*
X1407Y2316D02*
X1467Y2316D01*
X506Y2315D02*
X567Y2315D01*
X1407Y2315D02*
X1468Y2315D01*
X505Y2314D02*
X567Y2314D01*
X1406Y2314D02*
X1468Y2314D01*
X504Y2313D02*
X568Y2313D01*
X1405Y2313D02*
X1469Y2313D01*
X504Y2312D02*
X530Y2312D01*
X542Y2312D02*
X568Y2312D01*
X1405Y2312D02*
X1431Y2312D01*
X1443Y2312D02*
X1469Y2312D01*
X503Y2311D02*
X528Y2311D01*
X545Y2311D02*
X569Y2311D01*
X1404Y2311D02*
X1429Y2311D01*
X1445Y2311D02*
X1470Y2311D01*
X503Y2310D02*
X526Y2310D01*
X546Y2310D02*
X569Y2310D01*
X1404Y2310D02*
X1427Y2310D01*
X1447Y2310D02*
X1470Y2310D01*
X503Y2309D02*
X525Y2309D01*
X547Y2309D02*
X570Y2309D01*
X1403Y2309D02*
X1426Y2309D01*
X1448Y2309D02*
X1471Y2309D01*
X502Y2308D02*
X524Y2308D01*
X549Y2308D02*
X570Y2308D01*
X1403Y2308D02*
X1425Y2308D01*
X1450Y2308D02*
X1471Y2308D01*
X502Y2307D02*
X523Y2307D01*
X550Y2307D02*
X571Y2307D01*
X1403Y2307D02*
X1424Y2307D01*
X1451Y2307D02*
X1472Y2307D01*
X501Y2306D02*
X522Y2306D01*
X550Y2306D02*
X571Y2306D01*
X1402Y2306D02*
X1423Y2306D01*
X1451Y2306D02*
X1472Y2306D01*
X501Y2305D02*
X521Y2305D01*
X551Y2305D02*
X571Y2305D01*
X1402Y2305D02*
X1422Y2305D01*
X1452Y2305D02*
X1472Y2305D01*
X501Y2304D02*
X520Y2304D01*
X552Y2304D02*
X572Y2304D01*
X1402Y2304D02*
X1421Y2304D01*
X1453Y2304D02*
X1472Y2304D01*
X501Y2303D02*
X520Y2303D01*
X553Y2303D02*
X572Y2303D01*
X1402Y2303D02*
X1421Y2303D01*
X1453Y2303D02*
X1473Y2303D01*
X500Y2302D02*
X519Y2302D01*
X553Y2302D02*
X572Y2302D01*
X1401Y2302D02*
X1420Y2302D01*
X1454Y2302D02*
X1473Y2302D01*
X500Y2301D02*
X519Y2301D01*
X553Y2301D02*
X572Y2301D01*
X1401Y2301D02*
X1420Y2301D01*
X1454Y2301D02*
X1473Y2301D01*
X500Y2300D02*
X519Y2300D01*
X554Y2300D02*
X572Y2300D01*
X1401Y2300D02*
X1420Y2300D01*
X1455Y2300D02*
X1473Y2300D01*
X500Y2299D02*
X519Y2299D01*
X554Y2299D02*
X573Y2299D01*
X1401Y2299D02*
X1419Y2299D01*
X1455Y2299D02*
X1473Y2299D01*
X500Y2298D02*
X518Y2298D01*
X554Y2298D02*
X573Y2298D01*
X1401Y2298D02*
X1419Y2298D01*
X1455Y2298D02*
X1474Y2298D01*
X500Y2297D02*
X518Y2297D01*
X554Y2297D02*
X573Y2297D01*
X1401Y2297D02*
X1419Y2297D01*
X1455Y2297D02*
X1474Y2297D01*
X500Y2296D02*
X518Y2296D01*
X554Y2296D02*
X573Y2296D01*
X1401Y2296D02*
X1419Y2296D01*
X1455Y2296D02*
X1474Y2296D01*
X500Y2295D02*
X518Y2295D01*
X554Y2295D02*
X573Y2295D01*
X1401Y2295D02*
X1419Y2295D01*
X1455Y2295D02*
X1474Y2295D01*
X500Y2294D02*
X518Y2294D01*
X554Y2294D02*
X573Y2294D01*
X1401Y2294D02*
X1419Y2294D01*
X1455Y2294D02*
X1474Y2294D01*
X500Y2293D02*
X518Y2293D01*
X554Y2293D02*
X573Y2293D01*
X1401Y2293D02*
X1419Y2293D01*
X1455Y2293D02*
X1474Y2293D01*
X500Y2292D02*
X518Y2292D01*
X554Y2292D02*
X573Y2292D01*
X1401Y2292D02*
X1419Y2292D01*
X1455Y2292D02*
X1473Y2292D01*
X500Y2291D02*
X519Y2291D01*
X554Y2291D02*
X572Y2291D01*
X1401Y2291D02*
X1420Y2291D01*
X1455Y2291D02*
X1473Y2291D01*
X500Y2290D02*
X519Y2290D01*
X554Y2290D02*
X572Y2290D01*
X1401Y2290D02*
X1420Y2290D01*
X1454Y2290D02*
X1473Y2290D01*
X500Y2289D02*
X519Y2289D01*
X553Y2289D02*
X572Y2289D01*
X1401Y2289D02*
X1420Y2289D01*
X1454Y2289D02*
X1473Y2289D01*
X500Y2288D02*
X520Y2288D01*
X553Y2288D02*
X572Y2288D01*
X1401Y2288D02*
X1420Y2288D01*
X1454Y2288D02*
X1473Y2288D01*
X501Y2287D02*
X520Y2287D01*
X552Y2287D02*
X572Y2287D01*
X1402Y2287D02*
X1421Y2287D01*
X1453Y2287D02*
X1473Y2287D01*
X501Y2286D02*
X521Y2286D01*
X552Y2286D02*
X571Y2286D01*
X1402Y2286D02*
X1422Y2286D01*
X1453Y2286D02*
X1472Y2286D01*
X501Y2285D02*
X521Y2285D01*
X551Y2285D02*
X571Y2285D01*
X1402Y2285D02*
X1422Y2285D01*
X1452Y2285D02*
X1472Y2285D01*
X502Y2284D02*
X522Y2284D01*
X550Y2284D02*
X571Y2284D01*
X1402Y2284D02*
X1423Y2284D01*
X1451Y2284D02*
X1472Y2284D01*
X502Y2283D02*
X523Y2283D01*
X549Y2283D02*
X570Y2283D01*
X1403Y2283D02*
X1424Y2283D01*
X1450Y2283D02*
X1471Y2283D01*
X502Y2282D02*
X524Y2282D01*
X548Y2282D02*
X570Y2282D01*
X1403Y2282D02*
X1425Y2282D01*
X1449Y2282D02*
X1471Y2282D01*
X503Y2281D02*
X525Y2281D01*
X547Y2281D02*
X570Y2281D01*
X1404Y2281D02*
X1426Y2281D01*
X1448Y2281D02*
X1471Y2281D01*
X503Y2280D02*
X527Y2280D01*
X546Y2280D02*
X569Y2280D01*
X1404Y2280D02*
X1428Y2280D01*
X1446Y2280D02*
X1470Y2280D01*
X504Y2279D02*
X529Y2279D01*
X544Y2279D02*
X569Y2279D01*
X1405Y2279D02*
X1430Y2279D01*
X1445Y2279D02*
X1470Y2279D01*
X504Y2278D02*
X532Y2278D01*
X540Y2278D02*
X568Y2278D01*
X1405Y2278D02*
X1433Y2278D01*
X1441Y2278D02*
X1469Y2278D01*
X505Y2277D02*
X568Y2277D01*
X1406Y2277D02*
X1469Y2277D01*
X505Y2276D02*
X567Y2276D01*
X1406Y2276D02*
X1468Y2276D01*
X506Y2275D02*
X567Y2275D01*
X1407Y2275D02*
X1468Y2275D01*
X506Y2274D02*
X566Y2274D01*
X1407Y2274D02*
X1467Y2274D01*
X507Y2273D02*
X565Y2273D01*
X1408Y2273D02*
X1466Y2273D01*
X508Y2272D02*
X565Y2272D01*
X1409Y2272D02*
X1465Y2272D01*
X509Y2271D02*
X564Y2271D01*
X1410Y2271D02*
X1465Y2271D01*
X510Y2270D02*
X563Y2270D01*
X1411Y2270D02*
X1464Y2270D01*
X511Y2269D02*
X562Y2269D01*
X1411Y2269D02*
X1463Y2269D01*
X512Y2268D02*
X561Y2268D01*
X1413Y2268D02*
X1462Y2268D01*
X513Y2267D02*
X560Y2267D01*
X1414Y2267D02*
X1461Y2267D01*
X514Y2266D02*
X558Y2266D01*
X1415Y2266D02*
X1459Y2266D01*
X515Y2265D02*
X557Y2265D01*
X1416Y2265D02*
X1458Y2265D01*
X517Y2264D02*
X555Y2264D01*
X1418Y2264D02*
X1456Y2264D01*
X519Y2263D02*
X554Y2263D01*
X1420Y2263D02*
X1455Y2263D01*
X521Y2262D02*
X552Y2262D01*
X1422Y2262D02*
X1453Y2262D01*
X523Y2261D02*
X549Y2261D01*
X1424Y2261D02*
X1450Y2261D01*
X526Y2260D02*
X547Y2260D01*
X1427Y2260D02*
X1448Y2260D01*
X529Y2259D02*
X543Y2259D01*
X1430Y2259D02*
X1444Y2259D01*
X534Y2232D02*
X538Y2232D01*
X1435Y2232D02*
X1439Y2232D01*
X528Y2231D02*
X544Y2231D01*
X1429Y2231D02*
X1445Y2231D01*
X525Y2230D02*
X547Y2230D01*
X1426Y2230D02*
X1448Y2230D01*
X522Y2229D02*
X550Y2229D01*
X1423Y2229D02*
X1451Y2229D01*
X520Y2228D02*
X552Y2228D01*
X1421Y2228D02*
X1453Y2228D01*
X518Y2227D02*
X554Y2227D01*
X1419Y2227D02*
X1455Y2227D01*
X517Y2226D02*
X556Y2226D01*
X1417Y2226D02*
X1457Y2226D01*
X515Y2225D02*
X557Y2225D01*
X1416Y2225D02*
X1458Y2225D01*
X514Y2224D02*
X559Y2224D01*
X1415Y2224D02*
X1460Y2224D01*
X512Y2223D02*
X560Y2223D01*
X1413Y2223D02*
X1461Y2223D01*
X511Y2222D02*
X561Y2222D01*
X1412Y2222D02*
X1462Y2222D01*
X510Y2221D02*
X562Y2221D01*
X1411Y2221D02*
X1463Y2221D01*
X509Y2220D02*
X563Y2220D01*
X1410Y2220D02*
X1464Y2220D01*
X508Y2219D02*
X564Y2219D01*
X1409Y2219D02*
X1465Y2219D01*
X508Y2218D02*
X565Y2218D01*
X1409Y2218D02*
X1466Y2218D01*
X507Y2217D02*
X565Y2217D01*
X1408Y2217D02*
X1466Y2217D01*
X506Y2216D02*
X566Y2216D01*
X1407Y2216D02*
X1467Y2216D01*
X506Y2215D02*
X567Y2215D01*
X1407Y2215D02*
X1468Y2215D01*
X505Y2214D02*
X567Y2214D01*
X1406Y2214D02*
X1468Y2214D01*
X504Y2213D02*
X568Y2213D01*
X1405Y2213D02*
X1469Y2213D01*
X504Y2212D02*
X531Y2212D01*
X542Y2212D02*
X568Y2212D01*
X1405Y2212D02*
X1432Y2212D01*
X1442Y2212D02*
X1469Y2212D01*
X503Y2211D02*
X528Y2211D01*
X544Y2211D02*
X569Y2211D01*
X1404Y2211D02*
X1429Y2211D01*
X1445Y2211D02*
X1470Y2211D01*
X503Y2210D02*
X526Y2210D01*
X546Y2210D02*
X569Y2210D01*
X1404Y2210D02*
X1427Y2210D01*
X1447Y2210D02*
X1470Y2210D01*
X503Y2209D02*
X525Y2209D01*
X547Y2209D02*
X570Y2209D01*
X1403Y2209D02*
X1426Y2209D01*
X1448Y2209D02*
X1471Y2209D01*
X502Y2208D02*
X524Y2208D01*
X548Y2208D02*
X570Y2208D01*
X1403Y2208D02*
X1425Y2208D01*
X1449Y2208D02*
X1471Y2208D01*
X502Y2207D02*
X523Y2207D01*
X550Y2207D02*
X571Y2207D01*
X1403Y2207D02*
X1424Y2207D01*
X1450Y2207D02*
X1471Y2207D01*
X501Y2206D02*
X522Y2206D01*
X550Y2206D02*
X571Y2206D01*
X1402Y2206D02*
X1423Y2206D01*
X1451Y2206D02*
X1472Y2206D01*
X501Y2205D02*
X521Y2205D01*
X551Y2205D02*
X571Y2205D01*
X1402Y2205D02*
X1422Y2205D01*
X1452Y2205D02*
X1472Y2205D01*
X501Y2204D02*
X521Y2204D01*
X552Y2204D02*
X571Y2204D01*
X1402Y2204D02*
X1421Y2204D01*
X1453Y2204D02*
X1472Y2204D01*
X501Y2203D02*
X520Y2203D01*
X552Y2203D02*
X572Y2203D01*
X1402Y2203D02*
X1421Y2203D01*
X1453Y2203D02*
X1473Y2203D01*
X500Y2202D02*
X519Y2202D01*
X553Y2202D02*
X572Y2202D01*
X1401Y2202D02*
X1420Y2202D01*
X1454Y2202D02*
X1473Y2202D01*
X500Y2201D02*
X519Y2201D01*
X553Y2201D02*
X572Y2201D01*
X1401Y2201D02*
X1420Y2201D01*
X1454Y2201D02*
X1473Y2201D01*
X500Y2200D02*
X519Y2200D01*
X554Y2200D02*
X572Y2200D01*
X1401Y2200D02*
X1420Y2200D01*
X1455Y2200D02*
X1473Y2200D01*
X500Y2199D02*
X519Y2199D01*
X554Y2199D02*
X572Y2199D01*
X1401Y2199D02*
X1419Y2199D01*
X1455Y2199D02*
X1473Y2199D01*
X500Y2198D02*
X518Y2198D01*
X554Y2198D02*
X573Y2198D01*
X1401Y2198D02*
X1419Y2198D01*
X1455Y2198D02*
X1473Y2198D01*
X500Y2197D02*
X518Y2197D01*
X554Y2197D02*
X573Y2197D01*
X1401Y2197D02*
X1419Y2197D01*
X1455Y2197D02*
X1474Y2197D01*
X500Y2196D02*
X518Y2196D01*
X554Y2196D02*
X573Y2196D01*
X1401Y2196D02*
X1419Y2196D01*
X1455Y2196D02*
X1474Y2196D01*
X500Y2195D02*
X518Y2195D01*
X554Y2195D02*
X573Y2195D01*
X1401Y2195D02*
X1419Y2195D01*
X1455Y2195D02*
X1474Y2195D01*
X500Y2194D02*
X518Y2194D01*
X554Y2194D02*
X573Y2194D01*
X1401Y2194D02*
X1419Y2194D01*
X1455Y2194D02*
X1474Y2194D01*
X500Y2193D02*
X518Y2193D01*
X554Y2193D02*
X573Y2193D01*
X1401Y2193D02*
X1419Y2193D01*
X1455Y2193D02*
X1474Y2193D01*
X500Y2192D02*
X518Y2192D01*
X554Y2192D02*
X573Y2192D01*
X1401Y2192D02*
X1419Y2192D01*
X1455Y2192D02*
X1473Y2192D01*
X500Y2191D02*
X519Y2191D01*
X554Y2191D02*
X572Y2191D01*
X1401Y2191D02*
X1419Y2191D01*
X1455Y2191D02*
X1473Y2191D01*
X500Y2190D02*
X519Y2190D01*
X554Y2190D02*
X572Y2190D01*
X1401Y2190D02*
X1420Y2190D01*
X1454Y2190D02*
X1473Y2190D01*
X500Y2189D02*
X519Y2189D01*
X553Y2189D02*
X572Y2189D01*
X1401Y2189D02*
X1420Y2189D01*
X1454Y2189D02*
X1473Y2189D01*
X500Y2188D02*
X520Y2188D01*
X553Y2188D02*
X572Y2188D01*
X1401Y2188D02*
X1420Y2188D01*
X1454Y2188D02*
X1473Y2188D01*
X501Y2187D02*
X520Y2187D01*
X552Y2187D02*
X572Y2187D01*
X1402Y2187D02*
X1421Y2187D01*
X1453Y2187D02*
X1473Y2187D01*
X501Y2186D02*
X521Y2186D01*
X552Y2186D02*
X571Y2186D01*
X1402Y2186D02*
X1422Y2186D01*
X1453Y2186D02*
X1472Y2186D01*
X501Y2185D02*
X521Y2185D01*
X551Y2185D02*
X571Y2185D01*
X1402Y2185D02*
X1422Y2185D01*
X1452Y2185D02*
X1472Y2185D01*
X502Y2184D02*
X522Y2184D01*
X550Y2184D02*
X571Y2184D01*
X1402Y2184D02*
X1423Y2184D01*
X1451Y2184D02*
X1472Y2184D01*
X502Y2183D02*
X523Y2183D01*
X549Y2183D02*
X570Y2183D01*
X1403Y2183D02*
X1424Y2183D01*
X1450Y2183D02*
X1471Y2183D01*
X502Y2182D02*
X524Y2182D01*
X548Y2182D02*
X570Y2182D01*
X1403Y2182D02*
X1425Y2182D01*
X1449Y2182D02*
X1471Y2182D01*
X503Y2181D02*
X525Y2181D01*
X547Y2181D02*
X570Y2181D01*
X1404Y2181D02*
X1426Y2181D01*
X1448Y2181D02*
X1471Y2181D01*
X503Y2180D02*
X527Y2180D01*
X546Y2180D02*
X569Y2180D01*
X1404Y2180D02*
X1428Y2180D01*
X1447Y2180D02*
X1470Y2180D01*
X504Y2179D02*
X528Y2179D01*
X544Y2179D02*
X569Y2179D01*
X1404Y2179D02*
X1429Y2179D01*
X1445Y2179D02*
X1470Y2179D01*
X504Y2178D02*
X531Y2178D01*
X541Y2178D02*
X568Y2178D01*
X1405Y2178D02*
X1432Y2178D01*
X1442Y2178D02*
X1469Y2178D01*
X505Y2177D02*
X568Y2177D01*
X1405Y2177D02*
X1469Y2177D01*
X505Y2176D02*
X567Y2176D01*
X1406Y2176D02*
X1468Y2176D01*
X506Y2175D02*
X567Y2175D01*
X1407Y2175D02*
X1468Y2175D01*
X506Y2174D02*
X566Y2174D01*
X1407Y2174D02*
X1467Y2174D01*
X507Y2173D02*
X565Y2173D01*
X1408Y2173D02*
X1466Y2173D01*
X508Y2172D02*
X565Y2172D01*
X1409Y2172D02*
X1465Y2172D01*
X509Y2171D02*
X564Y2171D01*
X1410Y2171D02*
X1465Y2171D01*
X510Y2170D02*
X563Y2170D01*
X1410Y2170D02*
X1464Y2170D01*
X510Y2169D02*
X562Y2169D01*
X1411Y2169D02*
X1463Y2169D01*
X512Y2168D02*
X561Y2168D01*
X1412Y2168D02*
X1462Y2168D01*
X513Y2167D02*
X560Y2167D01*
X1414Y2167D02*
X1461Y2167D01*
X514Y2166D02*
X558Y2166D01*
X1415Y2166D02*
X1459Y2166D01*
X515Y2165D02*
X557Y2165D01*
X1416Y2165D02*
X1458Y2165D01*
X517Y2164D02*
X556Y2164D01*
X1418Y2164D02*
X1456Y2164D01*
X519Y2163D02*
X554Y2163D01*
X1419Y2163D02*
X1455Y2163D01*
X521Y2162D02*
X552Y2162D01*
X1421Y2162D02*
X1453Y2162D01*
X523Y2161D02*
X550Y2161D01*
X1424Y2161D02*
X1451Y2161D01*
X525Y2160D02*
X547Y2160D01*
X1426Y2160D02*
X1448Y2160D01*
X529Y2159D02*
X543Y2159D01*
X1430Y2159D02*
X1444Y2159D01*
X1437Y2132D02*
X1437Y2132D01*
X529Y2131D02*
X544Y2131D01*
X1430Y2131D02*
X1445Y2131D01*
X525Y2130D02*
X547Y2130D01*
X1426Y2130D02*
X1448Y2130D01*
X523Y2129D02*
X550Y2129D01*
X1423Y2129D02*
X1451Y2129D01*
X520Y2128D02*
X552Y2128D01*
X1421Y2128D02*
X1453Y2128D01*
X518Y2127D02*
X554Y2127D01*
X1419Y2127D02*
X1455Y2127D01*
X517Y2126D02*
X556Y2126D01*
X1418Y2126D02*
X1457Y2126D01*
X515Y2125D02*
X557Y2125D01*
X1416Y2125D02*
X1458Y2125D01*
X514Y2124D02*
X559Y2124D01*
X1415Y2124D02*
X1459Y2124D01*
X513Y2123D02*
X560Y2123D01*
X1413Y2123D02*
X1461Y2123D01*
X511Y2122D02*
X561Y2122D01*
X1412Y2122D02*
X1462Y2122D01*
X510Y2121D02*
X562Y2121D01*
X1411Y2121D02*
X1463Y2121D01*
X509Y2120D02*
X563Y2120D01*
X1410Y2120D02*
X1464Y2120D01*
X509Y2119D02*
X564Y2119D01*
X1409Y2119D02*
X1465Y2119D01*
X508Y2118D02*
X565Y2118D01*
X1409Y2118D02*
X1466Y2118D01*
X507Y2117D02*
X565Y2117D01*
X1408Y2117D02*
X1466Y2117D01*
X506Y2116D02*
X566Y2116D01*
X1407Y2116D02*
X1467Y2116D01*
X506Y2115D02*
X567Y2115D01*
X1407Y2115D02*
X1468Y2115D01*
X505Y2114D02*
X567Y2114D01*
X1406Y2114D02*
X1468Y2114D01*
X505Y2113D02*
X568Y2113D01*
X1405Y2113D02*
X1469Y2113D01*
X504Y2112D02*
X531Y2112D01*
X541Y2112D02*
X568Y2112D01*
X1405Y2112D02*
X1432Y2112D01*
X1442Y2112D02*
X1469Y2112D01*
X504Y2111D02*
X528Y2111D01*
X544Y2111D02*
X569Y2111D01*
X1404Y2111D02*
X1429Y2111D01*
X1445Y2111D02*
X1470Y2111D01*
X503Y2110D02*
X527Y2110D01*
X546Y2110D02*
X569Y2110D01*
X1404Y2110D02*
X1427Y2110D01*
X1447Y2110D02*
X1470Y2110D01*
X503Y2109D02*
X525Y2109D01*
X547Y2109D02*
X570Y2109D01*
X1404Y2109D02*
X1426Y2109D01*
X1448Y2109D02*
X1471Y2109D01*
X502Y2108D02*
X524Y2108D01*
X548Y2108D02*
X570Y2108D01*
X1403Y2108D02*
X1425Y2108D01*
X1449Y2108D02*
X1471Y2108D01*
X502Y2107D02*
X523Y2107D01*
X549Y2107D02*
X571Y2107D01*
X1403Y2107D02*
X1424Y2107D01*
X1450Y2107D02*
X1471Y2107D01*
X502Y2106D02*
X522Y2106D01*
X550Y2106D02*
X571Y2106D01*
X1402Y2106D02*
X1423Y2106D01*
X1451Y2106D02*
X1472Y2106D01*
X501Y2105D02*
X521Y2105D01*
X551Y2105D02*
X571Y2105D01*
X1402Y2105D02*
X1422Y2105D01*
X1452Y2105D02*
X1472Y2105D01*
X501Y2104D02*
X521Y2104D01*
X552Y2104D02*
X571Y2104D01*
X1402Y2104D02*
X1422Y2104D01*
X1453Y2104D02*
X1472Y2104D01*
X501Y2103D02*
X520Y2103D01*
X552Y2103D02*
X572Y2103D01*
X1402Y2103D02*
X1421Y2103D01*
X1453Y2103D02*
X1473Y2103D01*
X500Y2102D02*
X519Y2102D01*
X553Y2102D02*
X572Y2102D01*
X1401Y2102D02*
X1420Y2102D01*
X1454Y2102D02*
X1473Y2102D01*
X500Y2101D02*
X519Y2101D01*
X553Y2101D02*
X572Y2101D01*
X1401Y2101D02*
X1420Y2101D01*
X1454Y2101D02*
X1473Y2101D01*
X500Y2100D02*
X519Y2100D01*
X554Y2100D02*
X572Y2100D01*
X1401Y2100D02*
X1420Y2100D01*
X1454Y2100D02*
X1473Y2100D01*
X500Y2099D02*
X519Y2099D01*
X554Y2099D02*
X572Y2099D01*
X1401Y2099D02*
X1419Y2099D01*
X1455Y2099D02*
X1473Y2099D01*
X500Y2098D02*
X518Y2098D01*
X554Y2098D02*
X573Y2098D01*
X1401Y2098D02*
X1419Y2098D01*
X1455Y2098D02*
X1473Y2098D01*
X500Y2097D02*
X518Y2097D01*
X554Y2097D02*
X573Y2097D01*
X1401Y2097D02*
X1419Y2097D01*
X1455Y2097D02*
X1474Y2097D01*
X500Y2096D02*
X518Y2096D01*
X554Y2096D02*
X573Y2096D01*
X1401Y2096D02*
X1419Y2096D01*
X1455Y2096D02*
X1474Y2096D01*
X500Y2095D02*
X518Y2095D01*
X554Y2095D02*
X573Y2095D01*
X1401Y2095D02*
X1419Y2095D01*
X1455Y2095D02*
X1474Y2095D01*
X500Y2094D02*
X518Y2094D01*
X554Y2094D02*
X573Y2094D01*
X1401Y2094D02*
X1419Y2094D01*
X1455Y2094D02*
X1474Y2094D01*
X500Y2093D02*
X518Y2093D01*
X554Y2093D02*
X573Y2093D01*
X1401Y2093D02*
X1419Y2093D01*
X1455Y2093D02*
X1474Y2093D01*
X500Y2092D02*
X518Y2092D01*
X554Y2092D02*
X573Y2092D01*
X1401Y2092D02*
X1419Y2092D01*
X1455Y2092D02*
X1473Y2092D01*
X500Y2091D02*
X519Y2091D01*
X554Y2091D02*
X572Y2091D01*
X1401Y2091D02*
X1419Y2091D01*
X1455Y2091D02*
X1473Y2091D01*
X500Y2090D02*
X519Y2090D01*
X554Y2090D02*
X572Y2090D01*
X1401Y2090D02*
X1420Y2090D01*
X1454Y2090D02*
X1473Y2090D01*
X500Y2089D02*
X519Y2089D01*
X553Y2089D02*
X572Y2089D01*
X1401Y2089D02*
X1420Y2089D01*
X1454Y2089D02*
X1473Y2089D01*
X500Y2088D02*
X519Y2088D01*
X553Y2088D02*
X572Y2088D01*
X1401Y2088D02*
X1420Y2088D01*
X1454Y2088D02*
X1473Y2088D01*
X501Y2087D02*
X520Y2087D01*
X552Y2087D02*
X572Y2087D01*
X1402Y2087D02*
X1421Y2087D01*
X1453Y2087D02*
X1473Y2087D01*
X501Y2086D02*
X521Y2086D01*
X552Y2086D02*
X571Y2086D01*
X1402Y2086D02*
X1421Y2086D01*
X1453Y2086D02*
X1472Y2086D01*
X501Y2085D02*
X521Y2085D01*
X551Y2085D02*
X571Y2085D01*
X1402Y2085D02*
X1422Y2085D01*
X1452Y2085D02*
X1472Y2085D01*
X501Y2084D02*
X522Y2084D01*
X550Y2084D02*
X571Y2084D01*
X1402Y2084D02*
X1423Y2084D01*
X1451Y2084D02*
X1472Y2084D01*
X502Y2083D02*
X523Y2083D01*
X549Y2083D02*
X571Y2083D01*
X1403Y2083D02*
X1424Y2083D01*
X1450Y2083D02*
X1471Y2083D01*
X502Y2082D02*
X524Y2082D01*
X548Y2082D02*
X570Y2082D01*
X1403Y2082D02*
X1425Y2082D01*
X1449Y2082D02*
X1471Y2082D01*
X503Y2081D02*
X525Y2081D01*
X547Y2081D02*
X570Y2081D01*
X1404Y2081D02*
X1426Y2081D01*
X1448Y2081D02*
X1471Y2081D01*
X503Y2080D02*
X526Y2080D01*
X546Y2080D02*
X569Y2080D01*
X1404Y2080D02*
X1427Y2080D01*
X1447Y2080D02*
X1470Y2080D01*
X504Y2079D02*
X528Y2079D01*
X544Y2079D02*
X569Y2079D01*
X1404Y2079D02*
X1429Y2079D01*
X1445Y2079D02*
X1470Y2079D01*
X504Y2078D02*
X531Y2078D01*
X541Y2078D02*
X568Y2078D01*
X1405Y2078D02*
X1432Y2078D01*
X1442Y2078D02*
X1469Y2078D01*
X505Y2077D02*
X568Y2077D01*
X1405Y2077D02*
X1469Y2077D01*
X505Y2076D02*
X567Y2076D01*
X1406Y2076D02*
X1468Y2076D01*
X506Y2075D02*
X567Y2075D01*
X1407Y2075D02*
X1468Y2075D01*
X506Y2074D02*
X566Y2074D01*
X1407Y2074D02*
X1467Y2074D01*
X507Y2073D02*
X565Y2073D01*
X1408Y2073D02*
X1466Y2073D01*
X508Y2072D02*
X565Y2072D01*
X1409Y2072D02*
X1466Y2072D01*
X509Y2071D02*
X564Y2071D01*
X1409Y2071D02*
X1465Y2071D01*
X509Y2070D02*
X563Y2070D01*
X1410Y2070D02*
X1464Y2070D01*
X510Y2069D02*
X562Y2069D01*
X1411Y2069D02*
X1463Y2069D01*
X511Y2068D02*
X561Y2068D01*
X1412Y2068D02*
X1462Y2068D01*
X513Y2067D02*
X560Y2067D01*
X1413Y2067D02*
X1461Y2067D01*
X514Y2066D02*
X559Y2066D01*
X1415Y2066D02*
X1460Y2066D01*
X515Y2065D02*
X557Y2065D01*
X1416Y2065D02*
X1458Y2065D01*
X517Y2064D02*
X556Y2064D01*
X1418Y2064D02*
X1457Y2064D01*
X518Y2063D02*
X554Y2063D01*
X1419Y2063D02*
X1455Y2063D01*
X520Y2062D02*
X552Y2062D01*
X1421Y2062D02*
X1453Y2062D01*
X522Y2061D02*
X550Y2061D01*
X1423Y2061D02*
X1451Y2061D01*
X525Y2060D02*
X547Y2060D01*
X1426Y2060D02*
X1448Y2060D01*
X529Y2059D02*
X544Y2059D01*
X1429Y2059D02*
X1445Y2059D01*
X536Y2058D02*
X537Y2058D01*
X1437Y2058D02*
X1438Y2058D01*
X529Y2031D02*
X543Y2031D01*
X1430Y2031D02*
X1444Y2031D01*
X526Y2030D02*
X547Y2030D01*
X1426Y2030D02*
X1448Y2030D01*
X523Y2029D02*
X550Y2029D01*
X1424Y2029D02*
X1450Y2029D01*
X521Y2028D02*
X552Y2028D01*
X1422Y2028D02*
X1453Y2028D01*
X519Y2027D02*
X554Y2027D01*
X1420Y2027D02*
X1455Y2027D01*
X517Y2026D02*
X555Y2026D01*
X1418Y2026D02*
X1456Y2026D01*
X515Y2025D02*
X557Y2025D01*
X1416Y2025D02*
X1458Y2025D01*
X514Y2024D02*
X558Y2024D01*
X1415Y2024D02*
X1459Y2024D01*
X513Y2023D02*
X560Y2023D01*
X1414Y2023D02*
X1461Y2023D01*
X512Y2022D02*
X561Y2022D01*
X1412Y2022D02*
X1462Y2022D01*
X510Y2021D02*
X562Y2021D01*
X1411Y2021D02*
X1463Y2021D01*
X510Y2020D02*
X563Y2020D01*
X1410Y2020D02*
X1464Y2020D01*
X509Y2019D02*
X564Y2019D01*
X1410Y2019D02*
X1465Y2019D01*
X508Y2018D02*
X565Y2018D01*
X1409Y2018D02*
X1465Y2018D01*
X507Y2017D02*
X565Y2017D01*
X1408Y2017D02*
X1466Y2017D01*
X506Y2016D02*
X566Y2016D01*
X1407Y2016D02*
X1467Y2016D01*
X506Y2015D02*
X567Y2015D01*
X1407Y2015D02*
X1468Y2015D01*
X505Y2014D02*
X567Y2014D01*
X1406Y2014D02*
X1468Y2014D01*
X505Y2013D02*
X568Y2013D01*
X1406Y2013D02*
X1469Y2013D01*
X504Y2012D02*
X532Y2012D01*
X541Y2012D02*
X568Y2012D01*
X1405Y2012D02*
X1433Y2012D01*
X1442Y2012D02*
X1469Y2012D01*
X504Y2011D02*
X529Y2011D01*
X544Y2011D02*
X569Y2011D01*
X1405Y2011D02*
X1429Y2011D01*
X1445Y2011D02*
X1470Y2011D01*
X503Y2010D02*
X527Y2010D01*
X546Y2010D02*
X569Y2010D01*
X1404Y2010D02*
X1428Y2010D01*
X1447Y2010D02*
X1470Y2010D01*
X503Y2009D02*
X525Y2009D01*
X547Y2009D02*
X570Y2009D01*
X1404Y2009D02*
X1426Y2009D01*
X1448Y2009D02*
X1471Y2009D01*
X502Y2008D02*
X524Y2008D01*
X548Y2008D02*
X570Y2008D01*
X1403Y2008D02*
X1425Y2008D01*
X1449Y2008D02*
X1471Y2008D01*
X502Y2007D02*
X523Y2007D01*
X549Y2007D02*
X570Y2007D01*
X1403Y2007D02*
X1424Y2007D01*
X1450Y2007D02*
X1471Y2007D01*
X502Y2006D02*
X522Y2006D01*
X550Y2006D02*
X571Y2006D01*
X1402Y2006D02*
X1423Y2006D01*
X1451Y2006D02*
X1472Y2006D01*
X501Y2005D02*
X521Y2005D01*
X551Y2005D02*
X571Y2005D01*
X1402Y2005D02*
X1422Y2005D01*
X1452Y2005D02*
X1472Y2005D01*
X501Y2004D02*
X521Y2004D01*
X552Y2004D02*
X571Y2004D01*
X1402Y2004D02*
X1422Y2004D01*
X1453Y2004D02*
X1472Y2004D01*
X501Y2003D02*
X520Y2003D01*
X552Y2003D02*
X572Y2003D01*
X1402Y2003D02*
X1421Y2003D01*
X1453Y2003D02*
X1473Y2003D01*
X500Y2002D02*
X520Y2002D01*
X553Y2002D02*
X572Y2002D01*
X1401Y2002D02*
X1420Y2002D01*
X1454Y2002D02*
X1473Y2002D01*
X500Y2001D02*
X519Y2001D01*
X553Y2001D02*
X572Y2001D01*
X1401Y2001D02*
X1420Y2001D01*
X1454Y2001D02*
X1473Y2001D01*
X500Y2000D02*
X519Y2000D01*
X554Y2000D02*
X572Y2000D01*
X1401Y2000D02*
X1420Y2000D01*
X1454Y2000D02*
X1473Y2000D01*
X500Y1999D02*
X519Y1999D01*
X554Y1999D02*
X572Y1999D01*
X1401Y1999D02*
X1420Y1999D01*
X1455Y1999D02*
X1473Y1999D01*
X500Y1998D02*
X518Y1998D01*
X554Y1998D02*
X573Y1998D01*
X1401Y1998D02*
X1419Y1998D01*
X1455Y1998D02*
X1473Y1998D01*
X500Y1997D02*
X518Y1997D01*
X554Y1997D02*
X573Y1997D01*
X1401Y1997D02*
X1419Y1997D01*
X1455Y1997D02*
X1474Y1997D01*
X500Y1996D02*
X518Y1996D01*
X554Y1996D02*
X573Y1996D01*
X1401Y1996D02*
X1419Y1996D01*
X1455Y1996D02*
X1474Y1996D01*
X500Y1995D02*
X518Y1995D01*
X554Y1995D02*
X573Y1995D01*
X1401Y1995D02*
X1419Y1995D01*
X1455Y1995D02*
X1474Y1995D01*
X500Y1994D02*
X518Y1994D01*
X554Y1994D02*
X573Y1994D01*
X1401Y1994D02*
X1419Y1994D01*
X1455Y1994D02*
X1474Y1994D01*
X500Y1993D02*
X518Y1993D01*
X554Y1993D02*
X573Y1993D01*
X1401Y1993D02*
X1419Y1993D01*
X1455Y1993D02*
X1474Y1993D01*
X500Y1992D02*
X518Y1992D01*
X554Y1992D02*
X573Y1992D01*
X1401Y1992D02*
X1419Y1992D01*
X1455Y1992D02*
X1473Y1992D01*
X500Y1991D02*
X519Y1991D01*
X554Y1991D02*
X573Y1991D01*
X1401Y1991D02*
X1419Y1991D01*
X1455Y1991D02*
X1473Y1991D01*
X500Y1990D02*
X519Y1990D01*
X554Y1990D02*
X572Y1990D01*
X1401Y1990D02*
X1420Y1990D01*
X1455Y1990D02*
X1473Y1990D01*
X500Y1989D02*
X519Y1989D01*
X553Y1989D02*
X572Y1989D01*
X1401Y1989D02*
X1420Y1989D01*
X1454Y1989D02*
X1473Y1989D01*
X500Y1988D02*
X519Y1988D01*
X553Y1988D02*
X572Y1988D01*
X1401Y1988D02*
X1420Y1988D01*
X1454Y1988D02*
X1473Y1988D01*
X501Y1987D02*
X520Y1987D01*
X552Y1987D02*
X572Y1987D01*
X1402Y1987D02*
X1421Y1987D01*
X1453Y1987D02*
X1473Y1987D01*
X501Y1986D02*
X521Y1986D01*
X552Y1986D02*
X572Y1986D01*
X1402Y1986D02*
X1421Y1986D01*
X1453Y1986D02*
X1472Y1986D01*
X501Y1985D02*
X521Y1985D01*
X551Y1985D02*
X571Y1985D01*
X1402Y1985D02*
X1422Y1985D01*
X1452Y1985D02*
X1472Y1985D01*
X501Y1984D02*
X522Y1984D01*
X550Y1984D02*
X571Y1984D01*
X1402Y1984D02*
X1423Y1984D01*
X1451Y1984D02*
X1472Y1984D01*
X502Y1983D02*
X523Y1983D01*
X550Y1983D02*
X571Y1983D01*
X1403Y1983D02*
X1424Y1983D01*
X1450Y1983D02*
X1472Y1983D01*
X502Y1982D02*
X524Y1982D01*
X549Y1982D02*
X570Y1982D01*
X1403Y1982D02*
X1425Y1982D01*
X1449Y1982D02*
X1471Y1982D01*
X503Y1981D02*
X525Y1981D01*
X547Y1981D02*
X570Y1981D01*
X1403Y1981D02*
X1426Y1981D01*
X1448Y1981D02*
X1471Y1981D01*
X503Y1980D02*
X526Y1980D01*
X546Y1980D02*
X569Y1980D01*
X1404Y1980D02*
X1427Y1980D01*
X1447Y1980D02*
X1470Y1980D01*
X503Y1979D02*
X528Y1979D01*
X544Y1979D02*
X569Y1979D01*
X1404Y1979D02*
X1429Y1979D01*
X1445Y1979D02*
X1470Y1979D01*
X504Y1978D02*
X531Y1978D01*
X542Y1978D02*
X568Y1978D01*
X1405Y1978D02*
X1432Y1978D01*
X1443Y1978D02*
X1469Y1978D01*
X504Y1977D02*
X568Y1977D01*
X1405Y1977D02*
X1469Y1977D01*
X505Y1976D02*
X567Y1976D01*
X1406Y1976D02*
X1468Y1976D01*
X506Y1975D02*
X567Y1975D01*
X1407Y1975D02*
X1468Y1975D01*
X506Y1974D02*
X566Y1974D01*
X1407Y1974D02*
X1467Y1974D01*
X507Y1973D02*
X565Y1973D01*
X1408Y1973D02*
X1466Y1973D01*
X508Y1972D02*
X565Y1972D01*
X1409Y1972D02*
X1466Y1972D01*
X508Y1971D02*
X564Y1971D01*
X1409Y1971D02*
X1465Y1971D01*
X509Y1970D02*
X563Y1970D01*
X1410Y1970D02*
X1464Y1970D01*
X510Y1969D02*
X562Y1969D01*
X1411Y1969D02*
X1463Y1969D01*
X511Y1968D02*
X561Y1968D01*
X1412Y1968D02*
X1462Y1968D01*
X512Y1967D02*
X560Y1967D01*
X1413Y1967D02*
X1461Y1967D01*
X514Y1966D02*
X559Y1966D01*
X1415Y1966D02*
X1460Y1966D01*
X515Y1965D02*
X557Y1965D01*
X1416Y1965D02*
X1458Y1965D01*
X516Y1964D02*
X556Y1964D01*
X1417Y1964D02*
X1457Y1964D01*
X518Y1963D02*
X554Y1963D01*
X1419Y1963D02*
X1455Y1963D01*
X520Y1962D02*
X552Y1962D01*
X1421Y1962D02*
X1453Y1962D01*
X522Y1961D02*
X550Y1961D01*
X1423Y1961D02*
X1451Y1961D01*
X525Y1960D02*
X548Y1960D01*
X1426Y1960D02*
X1449Y1960D01*
X528Y1959D02*
X544Y1959D01*
X1429Y1959D02*
X1445Y1959D01*
X534Y1958D02*
X539Y1958D01*
X1435Y1958D02*
X1440Y1958D01*
X530Y1931D02*
X543Y1931D01*
X1430Y1931D02*
X1444Y1931D01*
X526Y1930D02*
X547Y1930D01*
X1427Y1930D02*
X1447Y1930D01*
X523Y1929D02*
X549Y1929D01*
X1424Y1929D02*
X1450Y1929D01*
X521Y1928D02*
X552Y1928D01*
X1422Y1928D02*
X1452Y1928D01*
X519Y1927D02*
X554Y1927D01*
X1420Y1927D02*
X1455Y1927D01*
X517Y1926D02*
X555Y1926D01*
X1418Y1926D02*
X1456Y1926D01*
X516Y1925D02*
X557Y1925D01*
X1416Y1925D02*
X1458Y1925D01*
X514Y1924D02*
X558Y1924D01*
X1415Y1924D02*
X1459Y1924D01*
X513Y1923D02*
X560Y1923D01*
X1414Y1923D02*
X1461Y1923D01*
X512Y1922D02*
X561Y1922D01*
X1413Y1922D02*
X1462Y1922D01*
X511Y1921D02*
X562Y1921D01*
X1412Y1921D02*
X1463Y1921D01*
X510Y1920D02*
X563Y1920D01*
X1411Y1920D02*
X1464Y1920D01*
X509Y1919D02*
X564Y1919D01*
X1410Y1919D02*
X1465Y1919D01*
X508Y1918D02*
X564Y1918D01*
X1409Y1918D02*
X1465Y1918D01*
X507Y1917D02*
X565Y1917D01*
X1408Y1917D02*
X1466Y1917D01*
X506Y1916D02*
X566Y1916D01*
X1407Y1916D02*
X1467Y1916D01*
X506Y1915D02*
X567Y1915D01*
X1407Y1915D02*
X1467Y1915D01*
X505Y1914D02*
X567Y1914D01*
X1406Y1914D02*
X1468Y1914D01*
X505Y1913D02*
X568Y1913D01*
X1406Y1913D02*
X1469Y1913D01*
X504Y1912D02*
X532Y1912D01*
X540Y1912D02*
X568Y1912D01*
X1405Y1912D02*
X1433Y1912D01*
X1441Y1912D02*
X1469Y1912D01*
X504Y1911D02*
X529Y1911D01*
X544Y1911D02*
X569Y1911D01*
X1405Y1911D02*
X1430Y1911D01*
X1445Y1911D02*
X1470Y1911D01*
X503Y1910D02*
X527Y1910D01*
X545Y1910D02*
X569Y1910D01*
X1404Y1910D02*
X1428Y1910D01*
X1446Y1910D02*
X1470Y1910D01*
X503Y1909D02*
X525Y1909D01*
X547Y1909D02*
X570Y1909D01*
X1404Y1909D02*
X1426Y1909D01*
X1448Y1909D02*
X1471Y1909D01*
X502Y1908D02*
X524Y1908D01*
X548Y1908D02*
X570Y1908D01*
X1403Y1908D02*
X1425Y1908D01*
X1449Y1908D02*
X1471Y1908D01*
X502Y1907D02*
X523Y1907D01*
X549Y1907D02*
X570Y1907D01*
X1403Y1907D02*
X1424Y1907D01*
X1450Y1907D02*
X1471Y1907D01*
X502Y1906D02*
X522Y1906D01*
X550Y1906D02*
X571Y1906D01*
X1403Y1906D02*
X1423Y1906D01*
X1451Y1906D02*
X1472Y1906D01*
X501Y1905D02*
X521Y1905D01*
X551Y1905D02*
X571Y1905D01*
X1402Y1905D02*
X1422Y1905D01*
X1452Y1905D02*
X1472Y1905D01*
X501Y1904D02*
X521Y1904D01*
X552Y1904D02*
X571Y1904D01*
X1402Y1904D02*
X1422Y1904D01*
X1453Y1904D02*
X1472Y1904D01*
X501Y1903D02*
X520Y1903D01*
X552Y1903D02*
X572Y1903D01*
X1402Y1903D02*
X1421Y1903D01*
X1453Y1903D02*
X1473Y1903D01*
X500Y1902D02*
X520Y1902D01*
X553Y1902D02*
X572Y1902D01*
X1401Y1902D02*
X1421Y1902D01*
X1454Y1902D02*
X1473Y1902D01*
X500Y1901D02*
X519Y1901D01*
X553Y1901D02*
X572Y1901D01*
X1401Y1901D02*
X1420Y1901D01*
X1454Y1901D02*
X1473Y1901D01*
X500Y1900D02*
X519Y1900D01*
X553Y1900D02*
X572Y1900D01*
X1401Y1900D02*
X1420Y1900D01*
X1454Y1900D02*
X1473Y1900D01*
X500Y1899D02*
X519Y1899D01*
X554Y1899D02*
X572Y1899D01*
X1401Y1899D02*
X1420Y1899D01*
X1455Y1899D02*
X1473Y1899D01*
X500Y1898D02*
X518Y1898D01*
X554Y1898D02*
X573Y1898D01*
X1401Y1898D02*
X1419Y1898D01*
X1455Y1898D02*
X1473Y1898D01*
X500Y1897D02*
X518Y1897D01*
X554Y1897D02*
X573Y1897D01*
X1401Y1897D02*
X1419Y1897D01*
X1455Y1897D02*
X1474Y1897D01*
X500Y1896D02*
X518Y1896D01*
X554Y1896D02*
X573Y1896D01*
X1401Y1896D02*
X1419Y1896D01*
X1455Y1896D02*
X1474Y1896D01*
X500Y1895D02*
X518Y1895D01*
X554Y1895D02*
X573Y1895D01*
X1401Y1895D02*
X1419Y1895D01*
X1455Y1895D02*
X1474Y1895D01*
X500Y1894D02*
X518Y1894D01*
X554Y1894D02*
X573Y1894D01*
X1401Y1894D02*
X1419Y1894D01*
X1455Y1894D02*
X1474Y1894D01*
X500Y1893D02*
X518Y1893D01*
X554Y1893D02*
X573Y1893D01*
X1401Y1893D02*
X1419Y1893D01*
X1455Y1893D02*
X1474Y1893D01*
X500Y1892D02*
X518Y1892D01*
X554Y1892D02*
X573Y1892D01*
X1401Y1892D02*
X1419Y1892D01*
X1455Y1892D02*
X1474Y1892D01*
X500Y1891D02*
X519Y1891D01*
X554Y1891D02*
X573Y1891D01*
X1401Y1891D02*
X1419Y1891D01*
X1455Y1891D02*
X1473Y1891D01*
X500Y1890D02*
X519Y1890D01*
X554Y1890D02*
X572Y1890D01*
X1401Y1890D02*
X1420Y1890D01*
X1455Y1890D02*
X1473Y1890D01*
X500Y1889D02*
X519Y1889D01*
X553Y1889D02*
X572Y1889D01*
X1401Y1889D02*
X1420Y1889D01*
X1454Y1889D02*
X1473Y1889D01*
X500Y1888D02*
X519Y1888D01*
X553Y1888D02*
X572Y1888D01*
X1401Y1888D02*
X1420Y1888D01*
X1454Y1888D02*
X1473Y1888D01*
X501Y1887D02*
X520Y1887D01*
X553Y1887D02*
X572Y1887D01*
X1402Y1887D02*
X1421Y1887D01*
X1453Y1887D02*
X1473Y1887D01*
X501Y1886D02*
X520Y1886D01*
X552Y1886D02*
X572Y1886D01*
X1402Y1886D02*
X1421Y1886D01*
X1453Y1886D02*
X1472Y1886D01*
X501Y1885D02*
X521Y1885D01*
X551Y1885D02*
X571Y1885D01*
X1402Y1885D02*
X1422Y1885D01*
X1452Y1885D02*
X1472Y1885D01*
X501Y1884D02*
X522Y1884D01*
X551Y1884D02*
X571Y1884D01*
X1402Y1884D02*
X1423Y1884D01*
X1451Y1884D02*
X1472Y1884D01*
X502Y1883D02*
X523Y1883D01*
X550Y1883D02*
X571Y1883D01*
X1403Y1883D02*
X1424Y1883D01*
X1451Y1883D02*
X1472Y1883D01*
X502Y1882D02*
X524Y1882D01*
X549Y1882D02*
X570Y1882D01*
X1403Y1882D02*
X1425Y1882D01*
X1450Y1882D02*
X1471Y1882D01*
X503Y1881D02*
X525Y1881D01*
X548Y1881D02*
X570Y1881D01*
X1403Y1881D02*
X1426Y1881D01*
X1448Y1881D02*
X1471Y1881D01*
X503Y1880D02*
X526Y1880D01*
X546Y1880D02*
X569Y1880D01*
X1404Y1880D02*
X1427Y1880D01*
X1447Y1880D02*
X1470Y1880D01*
X503Y1879D02*
X528Y1879D01*
X545Y1879D02*
X569Y1879D01*
X1404Y1879D02*
X1429Y1879D01*
X1445Y1879D02*
X1470Y1879D01*
X504Y1878D02*
X530Y1878D01*
X542Y1878D02*
X569Y1878D01*
X1405Y1878D02*
X1431Y1878D01*
X1443Y1878D02*
X1469Y1878D01*
X504Y1877D02*
X568Y1877D01*
X1405Y1877D02*
X1469Y1877D01*
X505Y1876D02*
X567Y1876D01*
X1406Y1876D02*
X1468Y1876D01*
X506Y1875D02*
X567Y1875D01*
X1406Y1875D02*
X1468Y1875D01*
X506Y1874D02*
X566Y1874D01*
X1407Y1874D02*
X1467Y1874D01*
X507Y1873D02*
X566Y1873D01*
X1408Y1873D02*
X1466Y1873D01*
X508Y1872D02*
X565Y1872D01*
X1409Y1872D02*
X1466Y1872D01*
X508Y1871D02*
X564Y1871D01*
X1409Y1871D02*
X1465Y1871D01*
X509Y1870D02*
X563Y1870D01*
X1410Y1870D02*
X1464Y1870D01*
X510Y1869D02*
X562Y1869D01*
X1411Y1869D02*
X1463Y1869D01*
X511Y1868D02*
X561Y1868D01*
X1412Y1868D02*
X1462Y1868D01*
X512Y1867D02*
X560Y1867D01*
X1413Y1867D02*
X1461Y1867D01*
X513Y1866D02*
X559Y1866D01*
X1414Y1866D02*
X1460Y1866D01*
X515Y1865D02*
X558Y1865D01*
X1416Y1865D02*
X1458Y1865D01*
X516Y1864D02*
X556Y1864D01*
X1417Y1864D02*
X1457Y1864D01*
X518Y1863D02*
X554Y1863D01*
X1419Y1863D02*
X1455Y1863D01*
X520Y1862D02*
X553Y1862D01*
X1421Y1862D02*
X1453Y1862D01*
X522Y1861D02*
X550Y1861D01*
X1423Y1861D02*
X1451Y1861D01*
X525Y1860D02*
X548Y1860D01*
X1425Y1860D02*
X1449Y1860D01*
X528Y1859D02*
X545Y1859D01*
X1429Y1859D02*
X1446Y1859D01*
X533Y1858D02*
X540Y1858D01*
X1434Y1858D02*
X1441Y1858D01*
X530Y1831D02*
X542Y1831D01*
X1431Y1831D02*
X1443Y1831D01*
X526Y1830D02*
X546Y1830D01*
X1427Y1830D02*
X1447Y1830D01*
X523Y1829D02*
X549Y1829D01*
X1424Y1829D02*
X1450Y1829D01*
X521Y1828D02*
X551Y1828D01*
X1422Y1828D02*
X1452Y1828D01*
X519Y1827D02*
X553Y1827D01*
X1420Y1827D02*
X1454Y1827D01*
X517Y1826D02*
X555Y1826D01*
X1418Y1826D02*
X1456Y1826D01*
X516Y1825D02*
X557Y1825D01*
X1417Y1825D02*
X1458Y1825D01*
X514Y1824D02*
X558Y1824D01*
X1415Y1824D02*
X1459Y1824D01*
X513Y1823D02*
X559Y1823D01*
X1414Y1823D02*
X1460Y1823D01*
X512Y1822D02*
X561Y1822D01*
X1413Y1822D02*
X1462Y1822D01*
X511Y1821D02*
X562Y1821D01*
X1412Y1821D02*
X1463Y1821D01*
X510Y1820D02*
X563Y1820D01*
X1411Y1820D02*
X1464Y1820D01*
X509Y1819D02*
X564Y1819D01*
X1410Y1819D02*
X1464Y1819D01*
X508Y1818D02*
X564Y1818D01*
X1409Y1818D02*
X1465Y1818D01*
X507Y1817D02*
X565Y1817D01*
X1408Y1817D02*
X1466Y1817D01*
X507Y1816D02*
X566Y1816D01*
X1407Y1816D02*
X1467Y1816D01*
X506Y1815D02*
X567Y1815D01*
X1407Y1815D02*
X1467Y1815D01*
X505Y1814D02*
X567Y1814D01*
X1406Y1814D02*
X1468Y1814D01*
X505Y1813D02*
X568Y1813D01*
X1406Y1813D02*
X1469Y1813D01*
X504Y1812D02*
X534Y1812D01*
X539Y1812D02*
X568Y1812D01*
X1405Y1812D02*
X1435Y1812D01*
X1440Y1812D02*
X1469Y1812D01*
X504Y1811D02*
X529Y1811D01*
X543Y1811D02*
X569Y1811D01*
X1405Y1811D02*
X1430Y1811D01*
X1444Y1811D02*
X1470Y1811D01*
X503Y1810D02*
X527Y1810D01*
X545Y1810D02*
X569Y1810D01*
X1404Y1810D02*
X1428Y1810D01*
X1446Y1810D02*
X1470Y1810D01*
X503Y1809D02*
X526Y1809D01*
X547Y1809D02*
X570Y1809D01*
X1404Y1809D02*
X1427Y1809D01*
X1448Y1809D02*
X1471Y1809D01*
X502Y1808D02*
X524Y1808D01*
X548Y1808D02*
X570Y1808D01*
X1403Y1808D02*
X1425Y1808D01*
X1449Y1808D02*
X1471Y1808D01*
X502Y1807D02*
X523Y1807D01*
X549Y1807D02*
X570Y1807D01*
X1403Y1807D02*
X1424Y1807D01*
X1450Y1807D02*
X1471Y1807D01*
X502Y1806D02*
X522Y1806D01*
X550Y1806D02*
X571Y1806D01*
X1403Y1806D02*
X1423Y1806D01*
X1451Y1806D02*
X1472Y1806D01*
X501Y1805D02*
X522Y1805D01*
X551Y1805D02*
X571Y1805D01*
X1402Y1805D02*
X1422Y1805D01*
X1452Y1805D02*
X1472Y1805D01*
X501Y1804D02*
X521Y1804D01*
X552Y1804D02*
X571Y1804D01*
X1402Y1804D02*
X1422Y1804D01*
X1453Y1804D02*
X1472Y1804D01*
X501Y1803D02*
X520Y1803D01*
X552Y1803D02*
X572Y1803D01*
X1402Y1803D02*
X1421Y1803D01*
X1453Y1803D02*
X1473Y1803D01*
X501Y1802D02*
X520Y1802D01*
X553Y1802D02*
X572Y1802D01*
X1401Y1802D02*
X1421Y1802D01*
X1454Y1802D02*
X1473Y1802D01*
X500Y1801D02*
X519Y1801D01*
X553Y1801D02*
X572Y1801D01*
X1401Y1801D02*
X1420Y1801D01*
X1454Y1801D02*
X1473Y1801D01*
X500Y1800D02*
X519Y1800D01*
X553Y1800D02*
X572Y1800D01*
X1401Y1800D02*
X1420Y1800D01*
X1454Y1800D02*
X1473Y1800D01*
X500Y1799D02*
X519Y1799D01*
X554Y1799D02*
X572Y1799D01*
X1401Y1799D02*
X1420Y1799D01*
X1455Y1799D02*
X1473Y1799D01*
X500Y1798D02*
X518Y1798D01*
X554Y1798D02*
X573Y1798D01*
X1401Y1798D02*
X1419Y1798D01*
X1455Y1798D02*
X1473Y1798D01*
X500Y1797D02*
X518Y1797D01*
X554Y1797D02*
X573Y1797D01*
X1401Y1797D02*
X1419Y1797D01*
X1455Y1797D02*
X1474Y1797D01*
X500Y1796D02*
X518Y1796D01*
X554Y1796D02*
X573Y1796D01*
X1401Y1796D02*
X1419Y1796D01*
X1455Y1796D02*
X1474Y1796D01*
X500Y1795D02*
X518Y1795D01*
X554Y1795D02*
X573Y1795D01*
X1401Y1795D02*
X1419Y1795D01*
X1455Y1795D02*
X1474Y1795D01*
X500Y1794D02*
X518Y1794D01*
X554Y1794D02*
X573Y1794D01*
X1401Y1794D02*
X1419Y1794D01*
X1455Y1794D02*
X1474Y1794D01*
X500Y1793D02*
X518Y1793D01*
X554Y1793D02*
X573Y1793D01*
X1401Y1793D02*
X1419Y1793D01*
X1455Y1793D02*
X1474Y1793D01*
X500Y1792D02*
X518Y1792D01*
X554Y1792D02*
X573Y1792D01*
X1401Y1792D02*
X1419Y1792D01*
X1455Y1792D02*
X1474Y1792D01*
X500Y1791D02*
X518Y1791D01*
X554Y1791D02*
X573Y1791D01*
X1401Y1791D02*
X1419Y1791D01*
X1455Y1791D02*
X1473Y1791D01*
X500Y1790D02*
X519Y1790D01*
X554Y1790D02*
X572Y1790D01*
X1401Y1790D02*
X1420Y1790D01*
X1455Y1790D02*
X1473Y1790D01*
X500Y1789D02*
X519Y1789D01*
X553Y1789D02*
X572Y1789D01*
X1401Y1789D02*
X1420Y1789D01*
X1454Y1789D02*
X1473Y1789D01*
X500Y1788D02*
X519Y1788D01*
X553Y1788D02*
X572Y1788D01*
X1401Y1788D02*
X1420Y1788D01*
X1454Y1788D02*
X1473Y1788D01*
X501Y1787D02*
X520Y1787D01*
X553Y1787D02*
X572Y1787D01*
X1402Y1787D02*
X1421Y1787D01*
X1454Y1787D02*
X1473Y1787D01*
X501Y1786D02*
X520Y1786D01*
X552Y1786D02*
X572Y1786D01*
X1402Y1786D02*
X1421Y1786D01*
X1453Y1786D02*
X1472Y1786D01*
X501Y1785D02*
X521Y1785D01*
X551Y1785D02*
X571Y1785D01*
X1402Y1785D02*
X1422Y1785D01*
X1452Y1785D02*
X1472Y1785D01*
X501Y1784D02*
X522Y1784D01*
X551Y1784D02*
X571Y1784D01*
X1402Y1784D02*
X1423Y1784D01*
X1452Y1784D02*
X1472Y1784D01*
X502Y1783D02*
X523Y1783D01*
X550Y1783D02*
X571Y1783D01*
X1403Y1783D02*
X1424Y1783D01*
X1451Y1783D02*
X1472Y1783D01*
X502Y1782D02*
X524Y1782D01*
X549Y1782D02*
X570Y1782D01*
X1403Y1782D02*
X1425Y1782D01*
X1450Y1782D02*
X1471Y1782D01*
X502Y1781D02*
X525Y1781D01*
X548Y1781D02*
X570Y1781D01*
X1403Y1781D02*
X1426Y1781D01*
X1449Y1781D02*
X1471Y1781D01*
X503Y1780D02*
X526Y1780D01*
X546Y1780D02*
X570Y1780D01*
X1404Y1780D02*
X1427Y1780D01*
X1447Y1780D02*
X1470Y1780D01*
X503Y1779D02*
X528Y1779D01*
X545Y1779D02*
X569Y1779D01*
X1404Y1779D02*
X1429Y1779D01*
X1446Y1779D02*
X1470Y1779D01*
X504Y1778D02*
X530Y1778D01*
X542Y1778D02*
X569Y1778D01*
X1405Y1778D02*
X1431Y1778D01*
X1443Y1778D02*
X1469Y1778D01*
X504Y1777D02*
X568Y1777D01*
X1405Y1777D02*
X1469Y1777D01*
X505Y1776D02*
X568Y1776D01*
X1406Y1776D02*
X1468Y1776D01*
X506Y1775D02*
X567Y1775D01*
X1406Y1775D02*
X1468Y1775D01*
X506Y1774D02*
X566Y1774D01*
X1407Y1774D02*
X1467Y1774D01*
X507Y1773D02*
X566Y1773D01*
X1408Y1773D02*
X1467Y1773D01*
X508Y1772D02*
X565Y1772D01*
X1408Y1772D02*
X1466Y1772D01*
X508Y1771D02*
X564Y1771D01*
X1409Y1771D02*
X1465Y1771D01*
X509Y1770D02*
X563Y1770D01*
X1410Y1770D02*
X1464Y1770D01*
X510Y1769D02*
X562Y1769D01*
X1411Y1769D02*
X1463Y1769D01*
X511Y1768D02*
X561Y1768D01*
X1412Y1768D02*
X1462Y1768D01*
X512Y1767D02*
X560Y1767D01*
X1413Y1767D02*
X1461Y1767D01*
X513Y1766D02*
X559Y1766D01*
X1414Y1766D02*
X1460Y1766D01*
X515Y1765D02*
X558Y1765D01*
X1416Y1765D02*
X1459Y1765D01*
X516Y1764D02*
X556Y1764D01*
X1417Y1764D02*
X1457Y1764D01*
X518Y1763D02*
X555Y1763D01*
X1419Y1763D02*
X1456Y1763D01*
X520Y1762D02*
X553Y1762D01*
X1421Y1762D02*
X1454Y1762D01*
X522Y1761D02*
X551Y1761D01*
X1423Y1761D02*
X1452Y1761D01*
X524Y1760D02*
X548Y1760D01*
X1425Y1760D02*
X1449Y1760D01*
X527Y1759D02*
X545Y1759D01*
X1428Y1759D02*
X1446Y1759D01*
X532Y1758D02*
X540Y1758D01*
X1433Y1758D02*
X1441Y1758D01*
X531Y1731D02*
X542Y1731D01*
X1432Y1731D02*
X1442Y1731D01*
X527Y1730D02*
X546Y1730D01*
X1428Y1730D02*
X1447Y1730D01*
X524Y1729D02*
X549Y1729D01*
X1425Y1729D02*
X1450Y1729D01*
X521Y1728D02*
X551Y1728D01*
X1422Y1728D02*
X1452Y1728D01*
X519Y1727D02*
X553Y1727D01*
X1420Y1727D02*
X1454Y1727D01*
X517Y1726D02*
X555Y1726D01*
X1418Y1726D02*
X1456Y1726D01*
X516Y1725D02*
X557Y1725D01*
X1417Y1725D02*
X1457Y1725D01*
X514Y1724D02*
X558Y1724D01*
X1415Y1724D02*
X1459Y1724D01*
X513Y1723D02*
X559Y1723D01*
X1414Y1723D02*
X1460Y1723D01*
X512Y1722D02*
X560Y1722D01*
X1413Y1722D02*
X1461Y1722D01*
X511Y1721D02*
X562Y1721D01*
X1412Y1721D02*
X1463Y1721D01*
X510Y1720D02*
X563Y1720D01*
X1411Y1720D02*
X1463Y1720D01*
X509Y1719D02*
X563Y1719D01*
X1410Y1719D02*
X1464Y1719D01*
X508Y1718D02*
X564Y1718D01*
X1409Y1718D02*
X1465Y1718D01*
X507Y1717D02*
X565Y1717D01*
X1408Y1717D02*
X1466Y1717D01*
X507Y1716D02*
X566Y1716D01*
X1408Y1716D02*
X1467Y1716D01*
X506Y1715D02*
X566Y1715D01*
X1407Y1715D02*
X1467Y1715D01*
X505Y1714D02*
X567Y1714D01*
X1406Y1714D02*
X1468Y1714D01*
X505Y1713D02*
X568Y1713D01*
X1406Y1713D02*
X1469Y1713D01*
X504Y1712D02*
X535Y1712D01*
X537Y1712D02*
X568Y1712D01*
X1405Y1712D02*
X1436Y1712D01*
X1438Y1712D02*
X1469Y1712D01*
X504Y1711D02*
X529Y1711D01*
X543Y1711D02*
X569Y1711D01*
X1405Y1711D02*
X1430Y1711D01*
X1444Y1711D02*
X1470Y1711D01*
X503Y1710D02*
X527Y1710D01*
X545Y1710D02*
X569Y1710D01*
X1404Y1710D02*
X1428Y1710D01*
X1446Y1710D02*
X1470Y1710D01*
X503Y1709D02*
X526Y1709D01*
X547Y1709D02*
X570Y1709D01*
X1404Y1709D02*
X1427Y1709D01*
X1448Y1709D02*
X1471Y1709D01*
X502Y1708D02*
X525Y1708D01*
X548Y1708D02*
X570Y1708D01*
X1403Y1708D02*
X1425Y1708D01*
X1449Y1708D02*
X1471Y1708D01*
X502Y1707D02*
X523Y1707D01*
X549Y1707D02*
X570Y1707D01*
X1403Y1707D02*
X1424Y1707D01*
X1450Y1707D02*
X1471Y1707D01*
X502Y1706D02*
X523Y1706D01*
X550Y1706D02*
X571Y1706D01*
X1403Y1706D02*
X1423Y1706D01*
X1451Y1706D02*
X1472Y1706D01*
X501Y1705D02*
X522Y1705D01*
X551Y1705D02*
X571Y1705D01*
X1402Y1705D02*
X1423Y1705D01*
X1452Y1705D02*
X1472Y1705D01*
X501Y1704D02*
X521Y1704D01*
X552Y1704D02*
X571Y1704D01*
X1402Y1704D02*
X1422Y1704D01*
X1452Y1704D02*
X1472Y1704D01*
X501Y1703D02*
X520Y1703D01*
X552Y1703D02*
X572Y1703D01*
X1402Y1703D02*
X1421Y1703D01*
X1453Y1703D02*
X1473Y1703D01*
X501Y1702D02*
X520Y1702D01*
X553Y1702D02*
X572Y1702D01*
X1401Y1702D02*
X1421Y1702D01*
X1454Y1702D02*
X1473Y1702D01*
X500Y1701D02*
X519Y1701D01*
X553Y1701D02*
X572Y1701D01*
X1401Y1701D02*
X1420Y1701D01*
X1454Y1701D02*
X1473Y1701D01*
X500Y1700D02*
X519Y1700D01*
X553Y1700D02*
X572Y1700D01*
X1401Y1700D02*
X1420Y1700D01*
X1454Y1700D02*
X1473Y1700D01*
X500Y1699D02*
X519Y1699D01*
X554Y1699D02*
X572Y1699D01*
X1401Y1699D02*
X1420Y1699D01*
X1455Y1699D02*
X1473Y1699D01*
X500Y1698D02*
X518Y1698D01*
X554Y1698D02*
X573Y1698D01*
X1401Y1698D02*
X1419Y1698D01*
X1455Y1698D02*
X1473Y1698D01*
X500Y1697D02*
X518Y1697D01*
X554Y1697D02*
X573Y1697D01*
X1401Y1697D02*
X1419Y1697D01*
X1455Y1697D02*
X1474Y1697D01*
X500Y1696D02*
X518Y1696D01*
X554Y1696D02*
X573Y1696D01*
X1401Y1696D02*
X1419Y1696D01*
X1455Y1696D02*
X1474Y1696D01*
X500Y1695D02*
X518Y1695D01*
X554Y1695D02*
X573Y1695D01*
X1401Y1695D02*
X1419Y1695D01*
X1455Y1695D02*
X1474Y1695D01*
X500Y1694D02*
X518Y1694D01*
X554Y1694D02*
X573Y1694D01*
X1401Y1694D02*
X1419Y1694D01*
X1455Y1694D02*
X1474Y1694D01*
X500Y1693D02*
X518Y1693D01*
X554Y1693D02*
X573Y1693D01*
X1401Y1693D02*
X1419Y1693D01*
X1455Y1693D02*
X1474Y1693D01*
X500Y1692D02*
X518Y1692D01*
X554Y1692D02*
X573Y1692D01*
X1401Y1692D02*
X1419Y1692D01*
X1455Y1692D02*
X1474Y1692D01*
X500Y1691D02*
X518Y1691D01*
X554Y1691D02*
X573Y1691D01*
X1401Y1691D02*
X1419Y1691D01*
X1455Y1691D02*
X1473Y1691D01*
X500Y1690D02*
X519Y1690D01*
X554Y1690D02*
X572Y1690D01*
X1401Y1690D02*
X1420Y1690D01*
X1455Y1690D02*
X1473Y1690D01*
X500Y1689D02*
X519Y1689D01*
X553Y1689D02*
X572Y1689D01*
X1401Y1689D02*
X1420Y1689D01*
X1454Y1689D02*
X1473Y1689D01*
X500Y1688D02*
X519Y1688D01*
X553Y1688D02*
X572Y1688D01*
X1401Y1688D02*
X1420Y1688D01*
X1454Y1688D02*
X1473Y1688D01*
X501Y1687D02*
X520Y1687D01*
X553Y1687D02*
X572Y1687D01*
X1401Y1687D02*
X1421Y1687D01*
X1454Y1687D02*
X1473Y1687D01*
X501Y1686D02*
X520Y1686D01*
X552Y1686D02*
X572Y1686D01*
X1402Y1686D02*
X1421Y1686D01*
X1453Y1686D02*
X1473Y1686D01*
X501Y1685D02*
X521Y1685D01*
X552Y1685D02*
X571Y1685D01*
X1402Y1685D02*
X1422Y1685D01*
X1452Y1685D02*
X1472Y1685D01*
X501Y1684D02*
X522Y1684D01*
X551Y1684D02*
X571Y1684D01*
X1402Y1684D02*
X1423Y1684D01*
X1452Y1684D02*
X1472Y1684D01*
X502Y1683D02*
X523Y1683D01*
X550Y1683D02*
X571Y1683D01*
X1403Y1683D02*
X1423Y1683D01*
X1451Y1683D02*
X1472Y1683D01*
X502Y1682D02*
X523Y1682D01*
X549Y1682D02*
X570Y1682D01*
X1403Y1682D02*
X1424Y1682D01*
X1450Y1682D02*
X1471Y1682D01*
X502Y1681D02*
X525Y1681D01*
X548Y1681D02*
X570Y1681D01*
X1403Y1681D02*
X1426Y1681D01*
X1449Y1681D02*
X1471Y1681D01*
X503Y1680D02*
X526Y1680D01*
X547Y1680D02*
X570Y1680D01*
X1404Y1680D02*
X1427Y1680D01*
X1448Y1680D02*
X1470Y1680D01*
X503Y1679D02*
X527Y1679D01*
X545Y1679D02*
X569Y1679D01*
X1404Y1679D02*
X1428Y1679D01*
X1446Y1679D02*
X1470Y1679D01*
X504Y1678D02*
X530Y1678D01*
X543Y1678D02*
X569Y1678D01*
X1405Y1678D02*
X1430Y1678D01*
X1444Y1678D02*
X1470Y1678D01*
X504Y1677D02*
X568Y1677D01*
X1405Y1677D02*
X1469Y1677D01*
X505Y1676D02*
X568Y1676D01*
X1406Y1676D02*
X1468Y1676D01*
X505Y1675D02*
X567Y1675D01*
X1406Y1675D02*
X1468Y1675D01*
X506Y1674D02*
X566Y1674D01*
X1407Y1674D02*
X1467Y1674D01*
X507Y1673D02*
X566Y1673D01*
X1408Y1673D02*
X1467Y1673D01*
X507Y1672D02*
X565Y1672D01*
X1408Y1672D02*
X1466Y1672D01*
X508Y1671D02*
X564Y1671D01*
X1409Y1671D02*
X1465Y1671D01*
X509Y1670D02*
X563Y1670D01*
X1410Y1670D02*
X1464Y1670D01*
X510Y1669D02*
X562Y1669D01*
X1411Y1669D02*
X1463Y1669D01*
X511Y1668D02*
X562Y1668D01*
X1412Y1668D02*
X1462Y1668D01*
X512Y1667D02*
X560Y1667D01*
X1413Y1667D02*
X1461Y1667D01*
X513Y1666D02*
X559Y1666D01*
X1414Y1666D02*
X1460Y1666D01*
X515Y1665D02*
X558Y1665D01*
X1415Y1665D02*
X1459Y1665D01*
X516Y1664D02*
X556Y1664D01*
X1417Y1664D02*
X1457Y1664D01*
X518Y1663D02*
X555Y1663D01*
X1419Y1663D02*
X1456Y1663D01*
X519Y1662D02*
X553Y1662D01*
X1420Y1662D02*
X1454Y1662D01*
X521Y1661D02*
X551Y1661D01*
X1422Y1661D02*
X1452Y1661D01*
X524Y1660D02*
X548Y1660D01*
X1425Y1660D02*
X1449Y1660D01*
X527Y1659D02*
X546Y1659D01*
X1428Y1659D02*
X1446Y1659D01*
X531Y1658D02*
X541Y1658D01*
X1432Y1658D02*
X1442Y1658D01*
X532Y1631D02*
X541Y1631D01*
X1432Y1631D02*
X1442Y1631D01*
X527Y1630D02*
X545Y1630D01*
X1428Y1630D02*
X1446Y1630D01*
X524Y1629D02*
X548Y1629D01*
X1425Y1629D02*
X1449Y1629D01*
X522Y1628D02*
X551Y1628D01*
X1422Y1628D02*
X1452Y1628D01*
X519Y1627D02*
X553Y1627D01*
X1420Y1627D02*
X1454Y1627D01*
X518Y1626D02*
X555Y1626D01*
X1419Y1626D02*
X1456Y1626D01*
X516Y1625D02*
X556Y1625D01*
X1417Y1625D02*
X1457Y1625D01*
X515Y1624D02*
X558Y1624D01*
X1416Y1624D02*
X1459Y1624D01*
X513Y1623D02*
X559Y1623D01*
X1414Y1623D02*
X1460Y1623D01*
X512Y1622D02*
X560Y1622D01*
X1413Y1622D02*
X1461Y1622D01*
X511Y1621D02*
X561Y1621D01*
X1412Y1621D02*
X1462Y1621D01*
X510Y1620D02*
X562Y1620D01*
X1411Y1620D02*
X1463Y1620D01*
X509Y1619D02*
X563Y1619D01*
X1410Y1619D02*
X1464Y1619D01*
X508Y1618D02*
X564Y1618D01*
X1409Y1618D02*
X1465Y1618D01*
X507Y1617D02*
X565Y1617D01*
X1408Y1617D02*
X1466Y1617D01*
X507Y1616D02*
X566Y1616D01*
X1408Y1616D02*
X1467Y1616D01*
X506Y1615D02*
X566Y1615D01*
X1407Y1615D02*
X1467Y1615D01*
X505Y1614D02*
X567Y1614D01*
X1406Y1614D02*
X1468Y1614D01*
X505Y1613D02*
X568Y1613D01*
X1406Y1613D02*
X1468Y1613D01*
X504Y1612D02*
X568Y1612D01*
X1405Y1612D02*
X1469Y1612D01*
X504Y1611D02*
X530Y1611D01*
X543Y1611D02*
X569Y1611D01*
X1405Y1611D02*
X1431Y1611D01*
X1444Y1611D02*
X1470Y1611D01*
X503Y1610D02*
X528Y1610D01*
X545Y1610D02*
X569Y1610D01*
X1404Y1610D02*
X1428Y1610D01*
X1446Y1610D02*
X1470Y1610D01*
X503Y1609D02*
X526Y1609D01*
X547Y1609D02*
X570Y1609D01*
X1404Y1609D02*
X1427Y1609D01*
X1447Y1609D02*
X1470Y1609D01*
X502Y1608D02*
X525Y1608D01*
X548Y1608D02*
X570Y1608D01*
X1403Y1608D02*
X1426Y1608D01*
X1449Y1608D02*
X1471Y1608D01*
X502Y1607D02*
X524Y1607D01*
X549Y1607D02*
X570Y1607D01*
X1403Y1607D02*
X1424Y1607D01*
X1450Y1607D02*
X1471Y1607D01*
X502Y1606D02*
X523Y1606D01*
X550Y1606D02*
X571Y1606D01*
X1403Y1606D02*
X1424Y1606D01*
X1451Y1606D02*
X1472Y1606D01*
X501Y1605D02*
X522Y1605D01*
X551Y1605D02*
X571Y1605D01*
X1402Y1605D02*
X1423Y1605D01*
X1452Y1605D02*
X1472Y1605D01*
X501Y1604D02*
X521Y1604D01*
X551Y1604D02*
X571Y1604D01*
X1402Y1604D02*
X1422Y1604D01*
X1452Y1604D02*
X1472Y1604D01*
X501Y1603D02*
X520Y1603D01*
X552Y1603D02*
X572Y1603D01*
X1402Y1603D02*
X1421Y1603D01*
X1453Y1603D02*
X1472Y1603D01*
X501Y1602D02*
X520Y1602D01*
X553Y1602D02*
X572Y1602D01*
X1401Y1602D02*
X1421Y1602D01*
X1454Y1602D02*
X1473Y1602D01*
X500Y1601D02*
X519Y1601D01*
X553Y1601D02*
X572Y1601D01*
X1401Y1601D02*
X1420Y1601D01*
X1454Y1601D02*
X1473Y1601D01*
X500Y1600D02*
X519Y1600D01*
X553Y1600D02*
X572Y1600D01*
X1401Y1600D02*
X1420Y1600D01*
X1454Y1600D02*
X1473Y1600D01*
X500Y1599D02*
X519Y1599D01*
X554Y1599D02*
X572Y1599D01*
X1401Y1599D02*
X1420Y1599D01*
X1455Y1599D02*
X1473Y1599D01*
X500Y1598D02*
X518Y1598D01*
X554Y1598D02*
X573Y1598D01*
X1401Y1598D02*
X1419Y1598D01*
X1455Y1598D02*
X1473Y1598D01*
X500Y1597D02*
X518Y1597D01*
X554Y1597D02*
X573Y1597D01*
X1401Y1597D02*
X1419Y1597D01*
X1455Y1597D02*
X1474Y1597D01*
X500Y1596D02*
X518Y1596D01*
X554Y1596D02*
X573Y1596D01*
X1401Y1596D02*
X1419Y1596D01*
X1455Y1596D02*
X1474Y1596D01*
X500Y1595D02*
X518Y1595D01*
X554Y1595D02*
X573Y1595D01*
X1401Y1595D02*
X1419Y1595D01*
X1455Y1595D02*
X1474Y1595D01*
X500Y1594D02*
X518Y1594D01*
X554Y1594D02*
X573Y1594D01*
X1401Y1594D02*
X1419Y1594D01*
X1455Y1594D02*
X1474Y1594D01*
X500Y1593D02*
X518Y1593D01*
X554Y1593D02*
X573Y1593D01*
X1401Y1593D02*
X1419Y1593D01*
X1455Y1593D02*
X1474Y1593D01*
X500Y1592D02*
X518Y1592D01*
X554Y1592D02*
X573Y1592D01*
X1401Y1592D02*
X1419Y1592D01*
X1455Y1592D02*
X1474Y1592D01*
X500Y1591D02*
X518Y1591D01*
X554Y1591D02*
X573Y1591D01*
X1401Y1591D02*
X1419Y1591D01*
X1455Y1591D02*
X1473Y1591D01*
X500Y1590D02*
X519Y1590D01*
X554Y1590D02*
X572Y1590D01*
X1401Y1590D02*
X1420Y1590D01*
X1455Y1590D02*
X1473Y1590D01*
X500Y1589D02*
X519Y1589D01*
X553Y1589D02*
X572Y1589D01*
X1401Y1589D02*
X1420Y1589D01*
X1454Y1589D02*
X1473Y1589D01*
X500Y1588D02*
X519Y1588D01*
X553Y1588D02*
X572Y1588D01*
X1401Y1588D02*
X1420Y1588D01*
X1454Y1588D02*
X1473Y1588D01*
X501Y1587D02*
X520Y1587D01*
X553Y1587D02*
X572Y1587D01*
X1401Y1587D02*
X1421Y1587D01*
X1454Y1587D02*
X1473Y1587D01*
X501Y1586D02*
X520Y1586D01*
X552Y1586D02*
X572Y1586D01*
X1402Y1586D02*
X1421Y1586D01*
X1453Y1586D02*
X1473Y1586D01*
X501Y1585D02*
X521Y1585D01*
X552Y1585D02*
X571Y1585D01*
X1402Y1585D02*
X1422Y1585D01*
X1452Y1585D02*
X1472Y1585D01*
X501Y1584D02*
X522Y1584D01*
X551Y1584D02*
X571Y1584D01*
X1402Y1584D02*
X1423Y1584D01*
X1452Y1584D02*
X1472Y1584D01*
X502Y1583D02*
X522Y1583D01*
X550Y1583D02*
X571Y1583D01*
X1403Y1583D02*
X1423Y1583D01*
X1451Y1583D02*
X1472Y1583D01*
X502Y1582D02*
X523Y1582D01*
X549Y1582D02*
X570Y1582D01*
X1403Y1582D02*
X1424Y1582D01*
X1450Y1582D02*
X1471Y1582D01*
X502Y1581D02*
X525Y1581D01*
X548Y1581D02*
X570Y1581D01*
X1403Y1581D02*
X1425Y1581D01*
X1449Y1581D02*
X1471Y1581D01*
X503Y1580D02*
X526Y1580D01*
X547Y1580D02*
X570Y1580D01*
X1404Y1580D02*
X1427Y1580D01*
X1448Y1580D02*
X1471Y1580D01*
X503Y1579D02*
X527Y1579D01*
X545Y1579D02*
X569Y1579D01*
X1404Y1579D02*
X1428Y1579D01*
X1446Y1579D02*
X1470Y1579D01*
X504Y1578D02*
X529Y1578D01*
X543Y1578D02*
X569Y1578D01*
X1405Y1578D02*
X1430Y1578D01*
X1444Y1578D02*
X1470Y1578D01*
X504Y1577D02*
X534Y1577D01*
X538Y1577D02*
X568Y1577D01*
X1405Y1577D02*
X1435Y1577D01*
X1439Y1577D02*
X1469Y1577D01*
X505Y1576D02*
X568Y1576D01*
X1406Y1576D02*
X1469Y1576D01*
X505Y1575D02*
X567Y1575D01*
X1406Y1575D02*
X1468Y1575D01*
X506Y1574D02*
X566Y1574D01*
X1407Y1574D02*
X1467Y1574D01*
X507Y1573D02*
X566Y1573D01*
X1408Y1573D02*
X1467Y1573D01*
X507Y1572D02*
X565Y1572D01*
X1408Y1572D02*
X1466Y1572D01*
X508Y1571D02*
X564Y1571D01*
X1409Y1571D02*
X1465Y1571D01*
X509Y1570D02*
X563Y1570D01*
X1410Y1570D02*
X1464Y1570D01*
X510Y1569D02*
X563Y1569D01*
X1411Y1569D02*
X1464Y1569D01*
X511Y1568D02*
X562Y1568D01*
X1412Y1568D02*
X1463Y1568D01*
X512Y1567D02*
X561Y1567D01*
X1413Y1567D02*
X1461Y1567D01*
X513Y1566D02*
X559Y1566D01*
X1414Y1566D02*
X1460Y1566D01*
X514Y1565D02*
X558Y1565D01*
X1415Y1565D02*
X1459Y1565D01*
X516Y1564D02*
X557Y1564D01*
X1417Y1564D02*
X1458Y1564D01*
X517Y1563D02*
X555Y1563D01*
X1418Y1563D02*
X1456Y1563D01*
X519Y1562D02*
X553Y1562D01*
X1420Y1562D02*
X1454Y1562D01*
X521Y1561D02*
X551Y1561D01*
X1422Y1561D02*
X1452Y1561D01*
X524Y1560D02*
X549Y1560D01*
X1425Y1560D02*
X1450Y1560D01*
X526Y1559D02*
X546Y1559D01*
X1427Y1559D02*
X1447Y1559D01*
X531Y1558D02*
X542Y1558D01*
X1432Y1558D02*
X1443Y1558D01*
X532Y1531D02*
X540Y1531D01*
X1433Y1531D02*
X1441Y1531D01*
X527Y1530D02*
X545Y1530D01*
X1428Y1530D02*
X1446Y1530D01*
X524Y1529D02*
X548Y1529D01*
X1425Y1529D02*
X1449Y1529D01*
X522Y1528D02*
X551Y1528D01*
X1423Y1528D02*
X1452Y1528D01*
X520Y1527D02*
X553Y1527D01*
X1421Y1527D02*
X1454Y1527D01*
X518Y1526D02*
X555Y1526D01*
X1419Y1526D02*
X1455Y1526D01*
X516Y1525D02*
X556Y1525D01*
X1417Y1525D02*
X1457Y1525D01*
X515Y1524D02*
X558Y1524D01*
X1416Y1524D02*
X1459Y1524D01*
X513Y1523D02*
X559Y1523D01*
X1414Y1523D02*
X1460Y1523D01*
X512Y1522D02*
X560Y1522D01*
X1413Y1522D02*
X1461Y1522D01*
X511Y1521D02*
X561Y1521D01*
X1412Y1521D02*
X1462Y1521D01*
X510Y1520D02*
X562Y1520D01*
X1411Y1520D02*
X1463Y1520D01*
X509Y1519D02*
X563Y1519D01*
X1410Y1519D02*
X1464Y1519D01*
X508Y1518D02*
X564Y1518D01*
X1409Y1518D02*
X1465Y1518D01*
X508Y1517D02*
X565Y1517D01*
X1408Y1517D02*
X1466Y1517D01*
X507Y1516D02*
X566Y1516D01*
X1408Y1516D02*
X1467Y1516D01*
X506Y1515D02*
X566Y1515D01*
X1407Y1515D02*
X1467Y1515D01*
X506Y1514D02*
X567Y1514D01*
X1406Y1514D02*
X1468Y1514D01*
X505Y1513D02*
X567Y1513D01*
X1406Y1513D02*
X1468Y1513D01*
X504Y1512D02*
X568Y1512D01*
X1405Y1512D02*
X1469Y1512D01*
X504Y1511D02*
X530Y1511D01*
X542Y1511D02*
X569Y1511D01*
X1405Y1511D02*
X1431Y1511D01*
X1443Y1511D02*
X1469Y1511D01*
X503Y1510D02*
X528Y1510D01*
X545Y1510D02*
X569Y1510D01*
X1404Y1510D02*
X1429Y1510D01*
X1446Y1510D02*
X1470Y1510D01*
X503Y1509D02*
X526Y1509D01*
X546Y1509D02*
X570Y1509D01*
X1404Y1509D02*
X1427Y1509D01*
X1447Y1509D02*
X1470Y1509D01*
X503Y1508D02*
X525Y1508D01*
X548Y1508D02*
X570Y1508D01*
X1403Y1508D02*
X1426Y1508D01*
X1449Y1508D02*
X1471Y1508D01*
X502Y1507D02*
X524Y1507D01*
X549Y1507D02*
X570Y1507D01*
X1403Y1507D02*
X1425Y1507D01*
X1450Y1507D02*
X1471Y1507D01*
X502Y1506D02*
X523Y1506D01*
X550Y1506D02*
X571Y1506D01*
X1403Y1506D02*
X1424Y1506D01*
X1451Y1506D02*
X1472Y1506D01*
X501Y1505D02*
X522Y1505D01*
X551Y1505D02*
X571Y1505D01*
X1402Y1505D02*
X1423Y1505D01*
X1451Y1505D02*
X1472Y1505D01*
X501Y1504D02*
X521Y1504D01*
X551Y1504D02*
X571Y1504D01*
X1402Y1504D02*
X1422Y1504D01*
X1452Y1504D02*
X1472Y1504D01*
X501Y1503D02*
X520Y1503D01*
X552Y1503D02*
X572Y1503D01*
X1402Y1503D02*
X1421Y1503D01*
X1453Y1503D02*
X1472Y1503D01*
X501Y1502D02*
X520Y1502D01*
X553Y1502D02*
X572Y1502D01*
X1402Y1502D02*
X1421Y1502D01*
X1453Y1502D02*
X1473Y1502D01*
X500Y1501D02*
X519Y1501D01*
X553Y1501D02*
X572Y1501D01*
X1401Y1501D02*
X1420Y1501D01*
X1454Y1501D02*
X1473Y1501D01*
X500Y1500D02*
X519Y1500D01*
X553Y1500D02*
X572Y1500D01*
X1401Y1500D02*
X1420Y1500D01*
X1454Y1500D02*
X1473Y1500D01*
X500Y1499D02*
X519Y1499D01*
X554Y1499D02*
X572Y1499D01*
X1401Y1499D02*
X1420Y1499D01*
X1455Y1499D02*
X1473Y1499D01*
X500Y1498D02*
X518Y1498D01*
X554Y1498D02*
X573Y1498D01*
X1401Y1498D02*
X1419Y1498D01*
X1455Y1498D02*
X1473Y1498D01*
X500Y1497D02*
X518Y1497D01*
X554Y1497D02*
X573Y1497D01*
X1401Y1497D02*
X1419Y1497D01*
X1455Y1497D02*
X1474Y1497D01*
X500Y1496D02*
X518Y1496D01*
X554Y1496D02*
X573Y1496D01*
X1401Y1496D02*
X1419Y1496D01*
X1455Y1496D02*
X1474Y1496D01*
X500Y1495D02*
X518Y1495D01*
X554Y1495D02*
X573Y1495D01*
X1401Y1495D02*
X1419Y1495D01*
X1455Y1495D02*
X1474Y1495D01*
X500Y1494D02*
X518Y1494D01*
X554Y1494D02*
X573Y1494D01*
X1401Y1494D02*
X1419Y1494D01*
X1455Y1494D02*
X1474Y1494D01*
X500Y1493D02*
X518Y1493D01*
X554Y1493D02*
X573Y1493D01*
X1401Y1493D02*
X1419Y1493D01*
X1455Y1493D02*
X1474Y1493D01*
X500Y1492D02*
X518Y1492D01*
X554Y1492D02*
X573Y1492D01*
X1401Y1492D02*
X1419Y1492D01*
X1455Y1492D02*
X1474Y1492D01*
X500Y1491D02*
X518Y1491D01*
X554Y1491D02*
X573Y1491D01*
X1401Y1491D02*
X1419Y1491D01*
X1455Y1491D02*
X1473Y1491D01*
X500Y1490D02*
X519Y1490D01*
X554Y1490D02*
X572Y1490D01*
X1401Y1490D02*
X1420Y1490D01*
X1455Y1490D02*
X1473Y1490D01*
X500Y1489D02*
X519Y1489D01*
X553Y1489D02*
X572Y1489D01*
X1401Y1489D02*
X1420Y1489D01*
X1454Y1489D02*
X1473Y1489D01*
X500Y1488D02*
X519Y1488D01*
X553Y1488D02*
X572Y1488D01*
X1401Y1488D02*
X1420Y1488D01*
X1454Y1488D02*
X1473Y1488D01*
X501Y1487D02*
X520Y1487D01*
X553Y1487D02*
X572Y1487D01*
X1401Y1487D02*
X1421Y1487D01*
X1454Y1487D02*
X1473Y1487D01*
X501Y1486D02*
X520Y1486D01*
X552Y1486D02*
X572Y1486D01*
X1402Y1486D02*
X1421Y1486D01*
X1453Y1486D02*
X1473Y1486D01*
X501Y1485D02*
X521Y1485D01*
X552Y1485D02*
X571Y1485D01*
X1402Y1485D02*
X1422Y1485D01*
X1453Y1485D02*
X1472Y1485D01*
X501Y1484D02*
X522Y1484D01*
X551Y1484D02*
X571Y1484D01*
X1402Y1484D02*
X1422Y1484D01*
X1452Y1484D02*
X1472Y1484D01*
X502Y1483D02*
X522Y1483D01*
X550Y1483D02*
X571Y1483D01*
X1403Y1483D02*
X1423Y1483D01*
X1451Y1483D02*
X1472Y1483D01*
X502Y1482D02*
X523Y1482D01*
X549Y1482D02*
X570Y1482D01*
X1403Y1482D02*
X1424Y1482D01*
X1450Y1482D02*
X1471Y1482D01*
X502Y1481D02*
X524Y1481D01*
X548Y1481D02*
X570Y1481D01*
X1403Y1481D02*
X1425Y1481D01*
X1449Y1481D02*
X1471Y1481D01*
X503Y1480D02*
X526Y1480D01*
X547Y1480D02*
X570Y1480D01*
X1404Y1480D02*
X1426Y1480D01*
X1448Y1480D02*
X1471Y1480D01*
X503Y1479D02*
X527Y1479D01*
X545Y1479D02*
X569Y1479D01*
X1404Y1479D02*
X1428Y1479D01*
X1446Y1479D02*
X1470Y1479D01*
X504Y1478D02*
X529Y1478D01*
X544Y1478D02*
X569Y1478D01*
X1405Y1478D02*
X1430Y1478D01*
X1444Y1478D02*
X1470Y1478D01*
X504Y1477D02*
X533Y1477D01*
X539Y1477D02*
X568Y1477D01*
X1405Y1477D02*
X1434Y1477D01*
X1440Y1477D02*
X1469Y1477D01*
X505Y1476D02*
X568Y1476D01*
X1406Y1476D02*
X1469Y1476D01*
X505Y1475D02*
X567Y1475D01*
X1406Y1475D02*
X1468Y1475D01*
X506Y1474D02*
X567Y1474D01*
X1407Y1474D02*
X1467Y1474D01*
X507Y1473D02*
X566Y1473D01*
X1407Y1473D02*
X1467Y1473D01*
X507Y1472D02*
X565Y1472D01*
X1408Y1472D02*
X1466Y1472D01*
X508Y1471D02*
X564Y1471D01*
X1409Y1471D02*
X1465Y1471D01*
X509Y1470D02*
X564Y1470D01*
X1410Y1470D02*
X1464Y1470D01*
X510Y1469D02*
X563Y1469D01*
X1411Y1469D02*
X1464Y1469D01*
X511Y1468D02*
X562Y1468D01*
X1412Y1468D02*
X1463Y1468D01*
X512Y1467D02*
X561Y1467D01*
X1413Y1467D02*
X1462Y1467D01*
X513Y1466D02*
X560Y1466D01*
X1414Y1466D02*
X1460Y1466D01*
X514Y1465D02*
X558Y1465D01*
X1415Y1465D02*
X1459Y1465D01*
X516Y1464D02*
X557Y1464D01*
X1417Y1464D02*
X1458Y1464D01*
X517Y1463D02*
X555Y1463D01*
X1418Y1463D02*
X1456Y1463D01*
X519Y1462D02*
X553Y1462D01*
X1420Y1462D02*
X1454Y1462D01*
X521Y1461D02*
X551Y1461D01*
X1422Y1461D02*
X1452Y1461D01*
X523Y1460D02*
X549Y1460D01*
X1424Y1460D02*
X1450Y1460D01*
X526Y1459D02*
X546Y1459D01*
X1427Y1459D02*
X1447Y1459D01*
X530Y1458D02*
X542Y1458D01*
X1431Y1458D02*
X1443Y1458D01*
X533Y1431D02*
X539Y1431D01*
X1434Y1431D02*
X1440Y1431D01*
X528Y1430D02*
X545Y1430D01*
X1429Y1430D02*
X1445Y1430D01*
X525Y1429D02*
X548Y1429D01*
X1426Y1429D02*
X1449Y1429D01*
X522Y1428D02*
X550Y1428D01*
X1423Y1428D02*
X1451Y1428D01*
X520Y1427D02*
X552Y1427D01*
X1421Y1427D02*
X1453Y1427D01*
X518Y1426D02*
X554Y1426D01*
X1419Y1426D02*
X1455Y1426D01*
X516Y1425D02*
X556Y1425D01*
X1417Y1425D02*
X1457Y1425D01*
X515Y1424D02*
X558Y1424D01*
X1416Y1424D02*
X1458Y1424D01*
X514Y1423D02*
X559Y1423D01*
X1414Y1423D02*
X1460Y1423D01*
X512Y1422D02*
X560Y1422D01*
X1413Y1422D02*
X1461Y1422D01*
X511Y1421D02*
X561Y1421D01*
X1412Y1421D02*
X1462Y1421D01*
X510Y1420D02*
X562Y1420D01*
X1411Y1420D02*
X1463Y1420D01*
X509Y1419D02*
X563Y1419D01*
X1410Y1419D02*
X1464Y1419D01*
X508Y1418D02*
X564Y1418D01*
X1409Y1418D02*
X1465Y1418D01*
X508Y1417D02*
X565Y1417D01*
X1409Y1417D02*
X1466Y1417D01*
X507Y1416D02*
X566Y1416D01*
X1408Y1416D02*
X1466Y1416D01*
X506Y1415D02*
X566Y1415D01*
X1407Y1415D02*
X1467Y1415D01*
X506Y1414D02*
X567Y1414D01*
X1407Y1414D02*
X1468Y1414D01*
X505Y1413D02*
X567Y1413D01*
X1406Y1413D02*
X1468Y1413D01*
X504Y1412D02*
X568Y1412D01*
X1405Y1412D02*
X1469Y1412D01*
X504Y1411D02*
X530Y1411D01*
X542Y1411D02*
X568Y1411D01*
X1405Y1411D02*
X1431Y1411D01*
X1443Y1411D02*
X1469Y1411D01*
X503Y1410D02*
X528Y1410D01*
X545Y1410D02*
X569Y1410D01*
X1404Y1410D02*
X1429Y1410D01*
X1445Y1410D02*
X1470Y1410D01*
X503Y1409D02*
X526Y1409D01*
X546Y1409D02*
X569Y1409D01*
X1404Y1409D02*
X1427Y1409D01*
X1447Y1409D02*
X1470Y1409D01*
X503Y1408D02*
X525Y1408D01*
X547Y1408D02*
X570Y1408D01*
X1403Y1408D02*
X1426Y1408D01*
X1448Y1408D02*
X1471Y1408D01*
X502Y1407D02*
X524Y1407D01*
X549Y1407D02*
X570Y1407D01*
X1403Y1407D02*
X1425Y1407D01*
X1450Y1407D02*
X1471Y1407D01*
X502Y1406D02*
X523Y1406D01*
X550Y1406D02*
X571Y1406D01*
X1403Y1406D02*
X1424Y1406D01*
X1451Y1406D02*
X1472Y1406D01*
X501Y1405D02*
X522Y1405D01*
X550Y1405D02*
X571Y1405D01*
X1402Y1405D02*
X1423Y1405D01*
X1451Y1405D02*
X1472Y1405D01*
X501Y1404D02*
X521Y1404D01*
X551Y1404D02*
X571Y1404D01*
X1402Y1404D02*
X1422Y1404D01*
X1452Y1404D02*
X1472Y1404D01*
X501Y1403D02*
X520Y1403D01*
X552Y1403D02*
X572Y1403D01*
X1402Y1403D02*
X1421Y1403D01*
X1453Y1403D02*
X1472Y1403D01*
X501Y1402D02*
X520Y1402D01*
X553Y1402D02*
X572Y1402D01*
X1402Y1402D02*
X1421Y1402D01*
X1453Y1402D02*
X1473Y1402D01*
X500Y1401D02*
X519Y1401D01*
X553Y1401D02*
X572Y1401D01*
X1401Y1401D02*
X1420Y1401D01*
X1454Y1401D02*
X1473Y1401D01*
X500Y1400D02*
X519Y1400D01*
X553Y1400D02*
X572Y1400D01*
X1401Y1400D02*
X1420Y1400D01*
X1454Y1400D02*
X1473Y1400D01*
X500Y1399D02*
X519Y1399D01*
X554Y1399D02*
X572Y1399D01*
X1401Y1399D02*
X1420Y1399D01*
X1455Y1399D02*
X1473Y1399D01*
X500Y1398D02*
X519Y1398D01*
X554Y1398D02*
X573Y1398D01*
X1401Y1398D02*
X1419Y1398D01*
X1455Y1398D02*
X1473Y1398D01*
X500Y1397D02*
X518Y1397D01*
X554Y1397D02*
X573Y1397D01*
X1401Y1397D02*
X1419Y1397D01*
X1455Y1397D02*
X1474Y1397D01*
X500Y1396D02*
X518Y1396D01*
X554Y1396D02*
X573Y1396D01*
X1401Y1396D02*
X1419Y1396D01*
X1455Y1396D02*
X1474Y1396D01*
X500Y1395D02*
X518Y1395D01*
X554Y1395D02*
X573Y1395D01*
X1401Y1395D02*
X1419Y1395D01*
X1455Y1395D02*
X1474Y1395D01*
X500Y1394D02*
X518Y1394D01*
X554Y1394D02*
X573Y1394D01*
X1401Y1394D02*
X1419Y1394D01*
X1455Y1394D02*
X1474Y1394D01*
X500Y1393D02*
X518Y1393D01*
X554Y1393D02*
X573Y1393D01*
X1401Y1393D02*
X1419Y1393D01*
X1455Y1393D02*
X1474Y1393D01*
X500Y1392D02*
X518Y1392D01*
X554Y1392D02*
X573Y1392D01*
X1401Y1392D02*
X1419Y1392D01*
X1455Y1392D02*
X1474Y1392D01*
X500Y1391D02*
X518Y1391D01*
X554Y1391D02*
X573Y1391D01*
X1401Y1391D02*
X1419Y1391D01*
X1455Y1391D02*
X1473Y1391D01*
X500Y1390D02*
X519Y1390D01*
X554Y1390D02*
X572Y1390D01*
X1401Y1390D02*
X1420Y1390D01*
X1455Y1390D02*
X1473Y1390D01*
X500Y1389D02*
X519Y1389D01*
X554Y1389D02*
X572Y1389D01*
X1401Y1389D02*
X1420Y1389D01*
X1454Y1389D02*
X1473Y1389D01*
X500Y1388D02*
X519Y1388D01*
X553Y1388D02*
X572Y1388D01*
X1401Y1388D02*
X1420Y1388D01*
X1454Y1388D02*
X1473Y1388D01*
X500Y1387D02*
X520Y1387D01*
X553Y1387D02*
X572Y1387D01*
X1401Y1387D02*
X1420Y1387D01*
X1454Y1387D02*
X1473Y1387D01*
X501Y1386D02*
X520Y1386D01*
X552Y1386D02*
X572Y1386D01*
X1402Y1386D02*
X1421Y1386D01*
X1453Y1386D02*
X1473Y1386D01*
X501Y1385D02*
X521Y1385D01*
X552Y1385D02*
X571Y1385D01*
X1402Y1385D02*
X1422Y1385D01*
X1453Y1385D02*
X1472Y1385D01*
X501Y1384D02*
X521Y1384D01*
X551Y1384D02*
X571Y1384D01*
X1402Y1384D02*
X1422Y1384D01*
X1452Y1384D02*
X1472Y1384D01*
X502Y1383D02*
X522Y1383D01*
X550Y1383D02*
X571Y1383D01*
X1402Y1383D02*
X1423Y1383D01*
X1451Y1383D02*
X1472Y1383D01*
X502Y1382D02*
X523Y1382D01*
X549Y1382D02*
X570Y1382D01*
X1403Y1382D02*
X1424Y1382D01*
X1450Y1382D02*
X1471Y1382D01*
X502Y1381D02*
X524Y1381D01*
X548Y1381D02*
X570Y1381D01*
X1403Y1381D02*
X1425Y1381D01*
X1449Y1381D02*
X1471Y1381D01*
X503Y1380D02*
X525Y1380D01*
X547Y1380D02*
X570Y1380D01*
X1404Y1380D02*
X1426Y1380D01*
X1448Y1380D02*
X1471Y1380D01*
X503Y1379D02*
X527Y1379D01*
X546Y1379D02*
X569Y1379D01*
X1404Y1379D02*
X1428Y1379D01*
X1446Y1379D02*
X1470Y1379D01*
X504Y1378D02*
X529Y1378D01*
X544Y1378D02*
X569Y1378D01*
X1405Y1378D02*
X1430Y1378D01*
X1445Y1378D02*
X1470Y1378D01*
X504Y1377D02*
X532Y1377D01*
X540Y1377D02*
X568Y1377D01*
X1405Y1377D02*
X1433Y1377D01*
X1441Y1377D02*
X1469Y1377D01*
X505Y1376D02*
X568Y1376D01*
X1406Y1376D02*
X1469Y1376D01*
X505Y1375D02*
X567Y1375D01*
X1406Y1375D02*
X1468Y1375D01*
X506Y1374D02*
X567Y1374D01*
X1407Y1374D02*
X1468Y1374D01*
X506Y1373D02*
X566Y1373D01*
X1407Y1373D02*
X1467Y1373D01*
X507Y1372D02*
X565Y1372D01*
X1408Y1372D02*
X1466Y1372D01*
X508Y1371D02*
X565Y1371D01*
X1409Y1371D02*
X1465Y1371D01*
X509Y1370D02*
X564Y1370D01*
X1410Y1370D02*
X1465Y1370D01*
X510Y1369D02*
X563Y1369D01*
X1411Y1369D02*
X1464Y1369D01*
X511Y1368D02*
X562Y1368D01*
X1411Y1368D02*
X1463Y1368D01*
X512Y1367D02*
X561Y1367D01*
X1413Y1367D02*
X1462Y1367D01*
X513Y1366D02*
X560Y1366D01*
X1414Y1366D02*
X1461Y1366D01*
X514Y1365D02*
X558Y1365D01*
X1415Y1365D02*
X1459Y1365D01*
X515Y1364D02*
X557Y1364D01*
X1416Y1364D02*
X1458Y1364D01*
X517Y1363D02*
X555Y1363D01*
X1418Y1363D02*
X1456Y1363D01*
X519Y1362D02*
X554Y1362D01*
X1420Y1362D02*
X1455Y1362D01*
X521Y1361D02*
X552Y1361D01*
X1422Y1361D02*
X1453Y1361D01*
X523Y1360D02*
X549Y1360D01*
X1424Y1360D02*
X1450Y1360D01*
X526Y1359D02*
X547Y1359D01*
X1427Y1359D02*
X1448Y1359D01*
X529Y1358D02*
X543Y1358D01*
X1430Y1358D02*
X1444Y1358D01*
X534Y1331D02*
X538Y1331D01*
X1435Y1331D02*
X1439Y1331D01*
X528Y1330D02*
X544Y1330D01*
X1429Y1330D02*
X1445Y1330D01*
X525Y1329D02*
X547Y1329D01*
X1426Y1329D02*
X1448Y1329D01*
X522Y1328D02*
X550Y1328D01*
X1423Y1328D02*
X1451Y1328D01*
X520Y1327D02*
X552Y1327D01*
X1421Y1327D02*
X1453Y1327D01*
X518Y1326D02*
X554Y1326D01*
X1419Y1326D02*
X1455Y1326D01*
X517Y1325D02*
X556Y1325D01*
X1417Y1325D02*
X1457Y1325D01*
X515Y1324D02*
X557Y1324D01*
X1416Y1324D02*
X1458Y1324D01*
X514Y1323D02*
X559Y1323D01*
X1415Y1323D02*
X1460Y1323D01*
X512Y1322D02*
X560Y1322D01*
X1413Y1322D02*
X1461Y1322D01*
X511Y1321D02*
X561Y1321D01*
X1412Y1321D02*
X1462Y1321D01*
X510Y1320D02*
X562Y1320D01*
X1411Y1320D02*
X1463Y1320D01*
X509Y1319D02*
X563Y1319D01*
X1410Y1319D02*
X1464Y1319D01*
X508Y1318D02*
X564Y1318D01*
X1409Y1318D02*
X1465Y1318D01*
X508Y1317D02*
X565Y1317D01*
X1409Y1317D02*
X1466Y1317D01*
X507Y1316D02*
X565Y1316D01*
X1408Y1316D02*
X1466Y1316D01*
X506Y1315D02*
X566Y1315D01*
X1407Y1315D02*
X1467Y1315D01*
X506Y1314D02*
X567Y1314D01*
X1407Y1314D02*
X1468Y1314D01*
X505Y1313D02*
X567Y1313D01*
X1406Y1313D02*
X1468Y1313D01*
X504Y1312D02*
X568Y1312D01*
X1405Y1312D02*
X1469Y1312D01*
X504Y1311D02*
X531Y1311D01*
X542Y1311D02*
X568Y1311D01*
X1405Y1311D02*
X1432Y1311D01*
X1442Y1311D02*
X1469Y1311D01*
X503Y1310D02*
X528Y1310D01*
X544Y1310D02*
X569Y1310D01*
X1404Y1310D02*
X1429Y1310D01*
X1445Y1310D02*
X1470Y1310D01*
X503Y1309D02*
X526Y1309D01*
X546Y1309D02*
X569Y1309D01*
X1404Y1309D02*
X1427Y1309D01*
X1447Y1309D02*
X1470Y1309D01*
X503Y1308D02*
X525Y1308D01*
X547Y1308D02*
X570Y1308D01*
X1403Y1308D02*
X1426Y1308D01*
X1448Y1308D02*
X1471Y1308D01*
X502Y1307D02*
X524Y1307D01*
X548Y1307D02*
X570Y1307D01*
X1403Y1307D02*
X1425Y1307D01*
X1449Y1307D02*
X1471Y1307D01*
X502Y1306D02*
X523Y1306D01*
X550Y1306D02*
X571Y1306D01*
X1403Y1306D02*
X1424Y1306D01*
X1450Y1306D02*
X1471Y1306D01*
X501Y1305D02*
X522Y1305D01*
X550Y1305D02*
X571Y1305D01*
X1402Y1305D02*
X1423Y1305D01*
X1451Y1305D02*
X1472Y1305D01*
X501Y1304D02*
X521Y1304D01*
X551Y1304D02*
X571Y1304D01*
X1402Y1304D02*
X1422Y1304D01*
X1452Y1304D02*
X1472Y1304D01*
X501Y1303D02*
X521Y1303D01*
X552Y1303D02*
X571Y1303D01*
X1402Y1303D02*
X1421Y1303D01*
X1453Y1303D02*
X1472Y1303D01*
X501Y1302D02*
X520Y1302D01*
X552Y1302D02*
X572Y1302D01*
X1402Y1302D02*
X1421Y1302D01*
X1453Y1302D02*
X1473Y1302D01*
X500Y1301D02*
X519Y1301D01*
X553Y1301D02*
X572Y1301D01*
X1401Y1301D02*
X1420Y1301D01*
X1454Y1301D02*
X1473Y1301D01*
X500Y1300D02*
X519Y1300D01*
X553Y1300D02*
X572Y1300D01*
X1401Y1300D02*
X1420Y1300D01*
X1454Y1300D02*
X1473Y1300D01*
X500Y1299D02*
X519Y1299D01*
X554Y1299D02*
X572Y1299D01*
X1401Y1299D02*
X1420Y1299D01*
X1455Y1299D02*
X1473Y1299D01*
X500Y1298D02*
X519Y1298D01*
X554Y1298D02*
X572Y1298D01*
X1401Y1298D02*
X1419Y1298D01*
X1455Y1298D02*
X1473Y1298D01*
X500Y1297D02*
X518Y1297D01*
X554Y1297D02*
X573Y1297D01*
X1401Y1297D02*
X1419Y1297D01*
X1455Y1297D02*
X1473Y1297D01*
X500Y1296D02*
X518Y1296D01*
X554Y1296D02*
X573Y1296D01*
X1401Y1296D02*
X1419Y1296D01*
X1455Y1296D02*
X1474Y1296D01*
X500Y1295D02*
X518Y1295D01*
X554Y1295D02*
X573Y1295D01*
X1401Y1295D02*
X1419Y1295D01*
X1455Y1295D02*
X1474Y1295D01*
X500Y1294D02*
X518Y1294D01*
X554Y1294D02*
X573Y1294D01*
X1401Y1294D02*
X1419Y1294D01*
X1455Y1294D02*
X1474Y1294D01*
X500Y1293D02*
X518Y1293D01*
X554Y1293D02*
X573Y1293D01*
X1401Y1293D02*
X1419Y1293D01*
X1455Y1293D02*
X1474Y1293D01*
X500Y1292D02*
X518Y1292D01*
X554Y1292D02*
X573Y1292D01*
X1401Y1292D02*
X1419Y1292D01*
X1455Y1292D02*
X1474Y1292D01*
X500Y1291D02*
X518Y1291D01*
X554Y1291D02*
X573Y1291D01*
X1401Y1291D02*
X1419Y1291D01*
X1455Y1291D02*
X1473Y1291D01*
X500Y1290D02*
X519Y1290D01*
X554Y1290D02*
X572Y1290D01*
X1401Y1290D02*
X1419Y1290D01*
X1455Y1290D02*
X1473Y1290D01*
X500Y1289D02*
X519Y1289D01*
X554Y1289D02*
X572Y1289D01*
X1401Y1289D02*
X1420Y1289D01*
X1454Y1289D02*
X1473Y1289D01*
X500Y1288D02*
X519Y1288D01*
X553Y1288D02*
X572Y1288D01*
X1401Y1288D02*
X1420Y1288D01*
X1454Y1288D02*
X1473Y1288D01*
X500Y1287D02*
X520Y1287D01*
X553Y1287D02*
X572Y1287D01*
X1401Y1287D02*
X1420Y1287D01*
X1454Y1287D02*
X1473Y1287D01*
X501Y1286D02*
X520Y1286D01*
X552Y1286D02*
X572Y1286D01*
X1402Y1286D02*
X1421Y1286D01*
X1453Y1286D02*
X1473Y1286D01*
X501Y1285D02*
X521Y1285D01*
X552Y1285D02*
X571Y1285D01*
X1402Y1285D02*
X1422Y1285D01*
X1453Y1285D02*
X1472Y1285D01*
X501Y1284D02*
X521Y1284D01*
X551Y1284D02*
X571Y1284D01*
X1402Y1284D02*
X1422Y1284D01*
X1452Y1284D02*
X1472Y1284D01*
X502Y1283D02*
X522Y1283D01*
X550Y1283D02*
X571Y1283D01*
X1402Y1283D02*
X1423Y1283D01*
X1451Y1283D02*
X1472Y1283D01*
X502Y1282D02*
X523Y1282D01*
X549Y1282D02*
X570Y1282D01*
X1403Y1282D02*
X1424Y1282D01*
X1450Y1282D02*
X1471Y1282D01*
X502Y1281D02*
X524Y1281D01*
X548Y1281D02*
X570Y1281D01*
X1403Y1281D02*
X1425Y1281D01*
X1449Y1281D02*
X1471Y1281D01*
X503Y1280D02*
X525Y1280D01*
X547Y1280D02*
X570Y1280D01*
X1404Y1280D02*
X1426Y1280D01*
X1448Y1280D02*
X1471Y1280D01*
X503Y1279D02*
X527Y1279D01*
X546Y1279D02*
X569Y1279D01*
X1404Y1279D02*
X1428Y1279D01*
X1447Y1279D02*
X1470Y1279D01*
X504Y1278D02*
X528Y1278D01*
X544Y1278D02*
X569Y1278D01*
X1404Y1278D02*
X1429Y1278D01*
X1445Y1278D02*
X1470Y1278D01*
X504Y1277D02*
X531Y1277D01*
X541Y1277D02*
X568Y1277D01*
X1405Y1277D02*
X1432Y1277D01*
X1442Y1277D02*
X1469Y1277D01*
X505Y1276D02*
X568Y1276D01*
X1405Y1276D02*
X1469Y1276D01*
X505Y1275D02*
X567Y1275D01*
X1406Y1275D02*
X1468Y1275D01*
X506Y1274D02*
X567Y1274D01*
X1407Y1274D02*
X1468Y1274D01*
X506Y1273D02*
X566Y1273D01*
X1407Y1273D02*
X1467Y1273D01*
X507Y1272D02*
X565Y1272D01*
X1408Y1272D02*
X1466Y1272D01*
X508Y1271D02*
X565Y1271D01*
X1409Y1271D02*
X1465Y1271D01*
X509Y1270D02*
X564Y1270D01*
X1410Y1270D02*
X1465Y1270D01*
X510Y1269D02*
X563Y1269D01*
X1410Y1269D02*
X1464Y1269D01*
X510Y1268D02*
X562Y1268D01*
X1411Y1268D02*
X1463Y1268D01*
X512Y1267D02*
X561Y1267D01*
X1412Y1267D02*
X1462Y1267D01*
X513Y1266D02*
X560Y1266D01*
X1414Y1266D02*
X1461Y1266D01*
X514Y1265D02*
X558Y1265D01*
X1415Y1265D02*
X1459Y1265D01*
X515Y1264D02*
X557Y1264D01*
X1416Y1264D02*
X1458Y1264D01*
X517Y1263D02*
X556Y1263D01*
X1418Y1263D02*
X1456Y1263D01*
X519Y1262D02*
X554Y1262D01*
X1419Y1262D02*
X1455Y1262D01*
X521Y1261D02*
X552Y1261D01*
X1421Y1261D02*
X1453Y1261D01*
X523Y1260D02*
X550Y1260D01*
X1424Y1260D02*
X1451Y1260D01*
X525Y1259D02*
X547Y1259D01*
X1426Y1259D02*
X1448Y1259D01*
X529Y1258D02*
X543Y1258D01*
X1430Y1258D02*
X1444Y1258D01*
X1437Y1231D02*
X1437Y1231D01*
X529Y1230D02*
X544Y1230D01*
X1430Y1230D02*
X1445Y1230D01*
X525Y1229D02*
X547Y1229D01*
X1426Y1229D02*
X1448Y1229D01*
X523Y1228D02*
X550Y1228D01*
X1423Y1228D02*
X1451Y1228D01*
X520Y1227D02*
X552Y1227D01*
X1421Y1227D02*
X1453Y1227D01*
X518Y1226D02*
X554Y1226D01*
X1419Y1226D02*
X1455Y1226D01*
X517Y1225D02*
X556Y1225D01*
X1418Y1225D02*
X1457Y1225D01*
X515Y1224D02*
X557Y1224D01*
X1416Y1224D02*
X1458Y1224D01*
X514Y1223D02*
X559Y1223D01*
X1415Y1223D02*
X1460Y1223D01*
X513Y1222D02*
X560Y1222D01*
X1413Y1222D02*
X1461Y1222D01*
X511Y1221D02*
X561Y1221D01*
X1412Y1221D02*
X1462Y1221D01*
X510Y1220D02*
X562Y1220D01*
X1411Y1220D02*
X1463Y1220D01*
X509Y1219D02*
X563Y1219D01*
X1410Y1219D02*
X1464Y1219D01*
X509Y1218D02*
X564Y1218D01*
X1409Y1218D02*
X1465Y1218D01*
X508Y1217D02*
X565Y1217D01*
X1409Y1217D02*
X1466Y1217D01*
X507Y1216D02*
X565Y1216D01*
X1408Y1216D02*
X1466Y1216D01*
X506Y1215D02*
X566Y1215D01*
X1407Y1215D02*
X1467Y1215D01*
X506Y1214D02*
X567Y1214D01*
X1407Y1214D02*
X1468Y1214D01*
X505Y1213D02*
X567Y1213D01*
X1406Y1213D02*
X1468Y1213D01*
X505Y1212D02*
X568Y1212D01*
X1405Y1212D02*
X1469Y1212D01*
X504Y1211D02*
X531Y1211D01*
X541Y1211D02*
X568Y1211D01*
X1405Y1211D02*
X1432Y1211D01*
X1442Y1211D02*
X1469Y1211D01*
X504Y1210D02*
X528Y1210D01*
X544Y1210D02*
X569Y1210D01*
X1404Y1210D02*
X1429Y1210D01*
X1445Y1210D02*
X1470Y1210D01*
X503Y1209D02*
X527Y1209D01*
X546Y1209D02*
X569Y1209D01*
X1404Y1209D02*
X1427Y1209D01*
X1447Y1209D02*
X1470Y1209D01*
X503Y1208D02*
X525Y1208D01*
X547Y1208D02*
X570Y1208D01*
X1404Y1208D02*
X1426Y1208D01*
X1448Y1208D02*
X1471Y1208D01*
X502Y1207D02*
X524Y1207D01*
X548Y1207D02*
X570Y1207D01*
X1403Y1207D02*
X1425Y1207D01*
X1449Y1207D02*
X1471Y1207D01*
X502Y1206D02*
X523Y1206D01*
X549Y1206D02*
X571Y1206D01*
X1403Y1206D02*
X1424Y1206D01*
X1450Y1206D02*
X1471Y1206D01*
X502Y1205D02*
X522Y1205D01*
X550Y1205D02*
X571Y1205D01*
X1402Y1205D02*
X1423Y1205D01*
X1451Y1205D02*
X1472Y1205D01*
X501Y1204D02*
X521Y1204D01*
X551Y1204D02*
X571Y1204D01*
X1402Y1204D02*
X1422Y1204D01*
X1452Y1204D02*
X1472Y1204D01*
X501Y1203D02*
X521Y1203D01*
X552Y1203D02*
X571Y1203D01*
X1402Y1203D02*
X1422Y1203D01*
X1453Y1203D02*
X1472Y1203D01*
X501Y1202D02*
X520Y1202D01*
X552Y1202D02*
X572Y1202D01*
X1402Y1202D02*
X1421Y1202D01*
X1453Y1202D02*
X1473Y1202D01*
X500Y1201D02*
X519Y1201D01*
X553Y1201D02*
X572Y1201D01*
X1401Y1201D02*
X1420Y1201D01*
X1454Y1201D02*
X1473Y1201D01*
X500Y1200D02*
X519Y1200D01*
X553Y1200D02*
X572Y1200D01*
X1401Y1200D02*
X1420Y1200D01*
X1454Y1200D02*
X1473Y1200D01*
X500Y1199D02*
X519Y1199D01*
X554Y1199D02*
X572Y1199D01*
X1401Y1199D02*
X1420Y1199D01*
X1454Y1199D02*
X1473Y1199D01*
X500Y1198D02*
X519Y1198D01*
X554Y1198D02*
X572Y1198D01*
X1401Y1198D02*
X1419Y1198D01*
X1455Y1198D02*
X1473Y1198D01*
X500Y1197D02*
X518Y1197D01*
X554Y1197D02*
X573Y1197D01*
X1401Y1197D02*
X1419Y1197D01*
X1455Y1197D02*
X1473Y1197D01*
X500Y1196D02*
X518Y1196D01*
X554Y1196D02*
X573Y1196D01*
X1401Y1196D02*
X1419Y1196D01*
X1455Y1196D02*
X1474Y1196D01*
X500Y1195D02*
X518Y1195D01*
X554Y1195D02*
X573Y1195D01*
X1401Y1195D02*
X1419Y1195D01*
X1455Y1195D02*
X1474Y1195D01*
X500Y1194D02*
X518Y1194D01*
X554Y1194D02*
X573Y1194D01*
X1401Y1194D02*
X1419Y1194D01*
X1455Y1194D02*
X1474Y1194D01*
X500Y1193D02*
X518Y1193D01*
X554Y1193D02*
X573Y1193D01*
X1401Y1193D02*
X1419Y1193D01*
X1455Y1193D02*
X1474Y1193D01*
X500Y1192D02*
X518Y1192D01*
X554Y1192D02*
X573Y1192D01*
X1401Y1192D02*
X1419Y1192D01*
X1455Y1192D02*
X1474Y1192D01*
X500Y1191D02*
X518Y1191D01*
X554Y1191D02*
X573Y1191D01*
X1401Y1191D02*
X1419Y1191D01*
X1455Y1191D02*
X1473Y1191D01*
X500Y1190D02*
X519Y1190D01*
X554Y1190D02*
X572Y1190D01*
X1401Y1190D02*
X1419Y1190D01*
X1455Y1190D02*
X1473Y1190D01*
X500Y1189D02*
X519Y1189D01*
X554Y1189D02*
X572Y1189D01*
X1401Y1189D02*
X1420Y1189D01*
X1454Y1189D02*
X1473Y1189D01*
X500Y1188D02*
X519Y1188D01*
X553Y1188D02*
X572Y1188D01*
X1401Y1188D02*
X1420Y1188D01*
X1454Y1188D02*
X1473Y1188D01*
X500Y1187D02*
X519Y1187D01*
X553Y1187D02*
X572Y1187D01*
X1401Y1187D02*
X1420Y1187D01*
X1454Y1187D02*
X1473Y1187D01*
X501Y1186D02*
X520Y1186D01*
X552Y1186D02*
X572Y1186D01*
X1402Y1186D02*
X1421Y1186D01*
X1453Y1186D02*
X1473Y1186D01*
X501Y1185D02*
X521Y1185D01*
X552Y1185D02*
X571Y1185D01*
X1402Y1185D02*
X1421Y1185D01*
X1453Y1185D02*
X1472Y1185D01*
X501Y1184D02*
X521Y1184D01*
X551Y1184D02*
X571Y1184D01*
X1402Y1184D02*
X1422Y1184D01*
X1452Y1184D02*
X1472Y1184D01*
X502Y1183D02*
X522Y1183D01*
X550Y1183D02*
X571Y1183D01*
X1402Y1183D02*
X1423Y1183D01*
X1451Y1183D02*
X1472Y1183D01*
X502Y1182D02*
X523Y1182D01*
X549Y1182D02*
X571Y1182D01*
X1403Y1182D02*
X1424Y1182D01*
X1450Y1182D02*
X1471Y1182D01*
X502Y1181D02*
X524Y1181D01*
X548Y1181D02*
X570Y1181D01*
X1403Y1181D02*
X1425Y1181D01*
X1449Y1181D02*
X1471Y1181D01*
X503Y1180D02*
X525Y1180D01*
X547Y1180D02*
X570Y1180D01*
X1404Y1180D02*
X1426Y1180D01*
X1448Y1180D02*
X1471Y1180D01*
X503Y1179D02*
X526Y1179D01*
X546Y1179D02*
X569Y1179D01*
X1404Y1179D02*
X1427Y1179D01*
X1447Y1179D02*
X1470Y1179D01*
X504Y1178D02*
X528Y1178D01*
X544Y1178D02*
X569Y1178D01*
X1404Y1178D02*
X1429Y1178D01*
X1445Y1178D02*
X1470Y1178D01*
X504Y1177D02*
X531Y1177D01*
X541Y1177D02*
X568Y1177D01*
X1405Y1177D02*
X1432Y1177D01*
X1442Y1177D02*
X1469Y1177D01*
X505Y1176D02*
X568Y1176D01*
X1405Y1176D02*
X1469Y1176D01*
X505Y1175D02*
X567Y1175D01*
X1406Y1175D02*
X1468Y1175D01*
X506Y1174D02*
X567Y1174D01*
X1407Y1174D02*
X1468Y1174D01*
X506Y1173D02*
X566Y1173D01*
X1407Y1173D02*
X1467Y1173D01*
X507Y1172D02*
X565Y1172D01*
X1408Y1172D02*
X1466Y1172D01*
X508Y1171D02*
X565Y1171D01*
X1409Y1171D02*
X1466Y1171D01*
X509Y1170D02*
X564Y1170D01*
X1409Y1170D02*
X1465Y1170D01*
X509Y1169D02*
X563Y1169D01*
X1410Y1169D02*
X1464Y1169D01*
X510Y1168D02*
X562Y1168D01*
X1411Y1168D02*
X1463Y1168D01*
X511Y1167D02*
X561Y1167D01*
X1412Y1167D02*
X1462Y1167D01*
X513Y1166D02*
X560Y1166D01*
X1413Y1166D02*
X1461Y1166D01*
X514Y1165D02*
X559Y1165D01*
X1415Y1165D02*
X1460Y1165D01*
X515Y1164D02*
X557Y1164D01*
X1416Y1164D02*
X1458Y1164D01*
X517Y1163D02*
X556Y1163D01*
X1418Y1163D02*
X1457Y1163D01*
X518Y1162D02*
X554Y1162D01*
X1419Y1162D02*
X1455Y1162D01*
X520Y1161D02*
X552Y1161D01*
X1421Y1161D02*
X1453Y1161D01*
X522Y1160D02*
X550Y1160D01*
X1423Y1160D02*
X1451Y1160D01*
X525Y1159D02*
X547Y1159D01*
X1426Y1159D02*
X1448Y1159D01*
X529Y1158D02*
X544Y1158D01*
X1429Y1158D02*
X1445Y1158D01*
X536Y1157D02*
X537Y1157D01*
X1437Y1157D02*
X1438Y1157D01*
X529Y1130D02*
X543Y1130D01*
X1430Y1130D02*
X1444Y1130D01*
X526Y1129D02*
X547Y1129D01*
X1426Y1129D02*
X1448Y1129D01*
X523Y1128D02*
X550Y1128D01*
X1424Y1128D02*
X1450Y1128D01*
X521Y1127D02*
X552Y1127D01*
X1422Y1127D02*
X1453Y1127D01*
X519Y1126D02*
X554Y1126D01*
X1420Y1126D02*
X1455Y1126D01*
X517Y1125D02*
X555Y1125D01*
X1418Y1125D02*
X1456Y1125D01*
X515Y1124D02*
X557Y1124D01*
X1416Y1124D02*
X1458Y1124D01*
X514Y1123D02*
X558Y1123D01*
X1415Y1123D02*
X1459Y1123D01*
X513Y1122D02*
X560Y1122D01*
X1414Y1122D02*
X1461Y1122D01*
X512Y1121D02*
X561Y1121D01*
X1412Y1121D02*
X1462Y1121D01*
X510Y1120D02*
X562Y1120D01*
X1411Y1120D02*
X1463Y1120D01*
X510Y1119D02*
X563Y1119D01*
X1410Y1119D02*
X1464Y1119D01*
X509Y1118D02*
X564Y1118D01*
X1410Y1118D02*
X1465Y1118D01*
X508Y1117D02*
X565Y1117D01*
X1409Y1117D02*
X1465Y1117D01*
X507Y1116D02*
X565Y1116D01*
X1408Y1116D02*
X1466Y1116D01*
X506Y1115D02*
X566Y1115D01*
X1407Y1115D02*
X1467Y1115D01*
X506Y1114D02*
X567Y1114D01*
X1407Y1114D02*
X1468Y1114D01*
X505Y1113D02*
X567Y1113D01*
X1406Y1113D02*
X1468Y1113D01*
X505Y1112D02*
X568Y1112D01*
X1406Y1112D02*
X1469Y1112D01*
X504Y1111D02*
X532Y1111D01*
X541Y1111D02*
X568Y1111D01*
X1405Y1111D02*
X1433Y1111D01*
X1442Y1111D02*
X1469Y1111D01*
X504Y1110D02*
X528Y1110D01*
X544Y1110D02*
X569Y1110D01*
X1405Y1110D02*
X1429Y1110D01*
X1445Y1110D02*
X1470Y1110D01*
X503Y1109D02*
X527Y1109D01*
X546Y1109D02*
X569Y1109D01*
X1404Y1109D02*
X1428Y1109D01*
X1447Y1109D02*
X1470Y1109D01*
X503Y1108D02*
X525Y1108D01*
X547Y1108D02*
X570Y1108D01*
X1404Y1108D02*
X1426Y1108D01*
X1448Y1108D02*
X1471Y1108D01*
X502Y1107D02*
X524Y1107D01*
X548Y1107D02*
X570Y1107D01*
X1403Y1107D02*
X1425Y1107D01*
X1449Y1107D02*
X1471Y1107D01*
X502Y1106D02*
X523Y1106D01*
X549Y1106D02*
X570Y1106D01*
X1403Y1106D02*
X1424Y1106D01*
X1450Y1106D02*
X1471Y1106D01*
X502Y1105D02*
X522Y1105D01*
X550Y1105D02*
X571Y1105D01*
X1402Y1105D02*
X1423Y1105D01*
X1451Y1105D02*
X1472Y1105D01*
X501Y1104D02*
X521Y1104D01*
X551Y1104D02*
X571Y1104D01*
X1402Y1104D02*
X1422Y1104D01*
X1452Y1104D02*
X1472Y1104D01*
X501Y1103D02*
X521Y1103D01*
X552Y1103D02*
X571Y1103D01*
X1402Y1103D02*
X1422Y1103D01*
X1453Y1103D02*
X1472Y1103D01*
X501Y1102D02*
X520Y1102D01*
X552Y1102D02*
X572Y1102D01*
X1402Y1102D02*
X1421Y1102D01*
X1453Y1102D02*
X1473Y1102D01*
X500Y1101D02*
X520Y1101D01*
X553Y1101D02*
X572Y1101D01*
X1401Y1101D02*
X1420Y1101D01*
X1454Y1101D02*
X1473Y1101D01*
X500Y1100D02*
X519Y1100D01*
X553Y1100D02*
X572Y1100D01*
X1401Y1100D02*
X1420Y1100D01*
X1454Y1100D02*
X1473Y1100D01*
X500Y1099D02*
X519Y1099D01*
X554Y1099D02*
X572Y1099D01*
X1401Y1099D02*
X1420Y1099D01*
X1454Y1099D02*
X1473Y1099D01*
X500Y1098D02*
X519Y1098D01*
X554Y1098D02*
X572Y1098D01*
X1401Y1098D02*
X1420Y1098D01*
X1455Y1098D02*
X1473Y1098D01*
X500Y1097D02*
X518Y1097D01*
X554Y1097D02*
X573Y1097D01*
X1401Y1097D02*
X1419Y1097D01*
X1455Y1097D02*
X1473Y1097D01*
X500Y1096D02*
X518Y1096D01*
X554Y1096D02*
X573Y1096D01*
X1401Y1096D02*
X1419Y1096D01*
X1455Y1096D02*
X1474Y1096D01*
X500Y1095D02*
X518Y1095D01*
X554Y1095D02*
X573Y1095D01*
X1401Y1095D02*
X1419Y1095D01*
X1455Y1095D02*
X1474Y1095D01*
X500Y1094D02*
X518Y1094D01*
X554Y1094D02*
X573Y1094D01*
X1401Y1094D02*
X1419Y1094D01*
X1455Y1094D02*
X1474Y1094D01*
X500Y1093D02*
X518Y1093D01*
X554Y1093D02*
X573Y1093D01*
X1401Y1093D02*
X1419Y1093D01*
X1455Y1093D02*
X1474Y1093D01*
X500Y1092D02*
X518Y1092D01*
X554Y1092D02*
X573Y1092D01*
X1401Y1092D02*
X1419Y1092D01*
X1455Y1092D02*
X1474Y1092D01*
X500Y1091D02*
X518Y1091D01*
X554Y1091D02*
X573Y1091D01*
X1401Y1091D02*
X1419Y1091D01*
X1455Y1091D02*
X1473Y1091D01*
X500Y1090D02*
X519Y1090D01*
X554Y1090D02*
X573Y1090D01*
X1401Y1090D02*
X1419Y1090D01*
X1455Y1090D02*
X1473Y1090D01*
X500Y1089D02*
X519Y1089D01*
X554Y1089D02*
X572Y1089D01*
X1401Y1089D02*
X1420Y1089D01*
X1455Y1089D02*
X1473Y1089D01*
X500Y1088D02*
X519Y1088D01*
X553Y1088D02*
X572Y1088D01*
X1401Y1088D02*
X1420Y1088D01*
X1454Y1088D02*
X1473Y1088D01*
X500Y1087D02*
X519Y1087D01*
X553Y1087D02*
X572Y1087D01*
X1401Y1087D02*
X1420Y1087D01*
X1454Y1087D02*
X1473Y1087D01*
X501Y1086D02*
X520Y1086D01*
X552Y1086D02*
X572Y1086D01*
X1402Y1086D02*
X1421Y1086D01*
X1453Y1086D02*
X1473Y1086D01*
X501Y1085D02*
X521Y1085D01*
X552Y1085D02*
X572Y1085D01*
X1402Y1085D02*
X1421Y1085D01*
X1453Y1085D02*
X1472Y1085D01*
X501Y1084D02*
X521Y1084D01*
X551Y1084D02*
X571Y1084D01*
X1402Y1084D02*
X1422Y1084D01*
X1452Y1084D02*
X1472Y1084D01*
X501Y1083D02*
X522Y1083D01*
X550Y1083D02*
X571Y1083D01*
X1402Y1083D02*
X1423Y1083D01*
X1451Y1083D02*
X1472Y1083D01*
X502Y1082D02*
X523Y1082D01*
X550Y1082D02*
X571Y1082D01*
X1403Y1082D02*
X1424Y1082D01*
X1450Y1082D02*
X1472Y1082D01*
X502Y1081D02*
X524Y1081D01*
X549Y1081D02*
X570Y1081D01*
X1403Y1081D02*
X1425Y1081D01*
X1449Y1081D02*
X1471Y1081D01*
X503Y1080D02*
X525Y1080D01*
X547Y1080D02*
X570Y1080D01*
X1403Y1080D02*
X1426Y1080D01*
X1448Y1080D02*
X1471Y1080D01*
X503Y1079D02*
X526Y1079D01*
X546Y1079D02*
X569Y1079D01*
X1404Y1079D02*
X1427Y1079D01*
X1447Y1079D02*
X1470Y1079D01*
X503Y1078D02*
X528Y1078D01*
X544Y1078D02*
X569Y1078D01*
X1404Y1078D02*
X1429Y1078D01*
X1445Y1078D02*
X1470Y1078D01*
X504Y1077D02*
X531Y1077D01*
X542Y1077D02*
X568Y1077D01*
X1405Y1077D02*
X1432Y1077D01*
X1443Y1077D02*
X1469Y1077D01*
X504Y1076D02*
X568Y1076D01*
X1405Y1076D02*
X1469Y1076D01*
X505Y1075D02*
X567Y1075D01*
X1406Y1075D02*
X1468Y1075D01*
X506Y1074D02*
X567Y1074D01*
X1407Y1074D02*
X1468Y1074D01*
X506Y1073D02*
X566Y1073D01*
X1407Y1073D02*
X1467Y1073D01*
X507Y1072D02*
X565Y1072D01*
X1408Y1072D02*
X1466Y1072D01*
X508Y1071D02*
X565Y1071D01*
X1409Y1071D02*
X1466Y1071D01*
X508Y1070D02*
X564Y1070D01*
X1409Y1070D02*
X1465Y1070D01*
X509Y1069D02*
X563Y1069D01*
X1410Y1069D02*
X1464Y1069D01*
X510Y1068D02*
X562Y1068D01*
X1411Y1068D02*
X1463Y1068D01*
X511Y1067D02*
X561Y1067D01*
X1412Y1067D02*
X1462Y1067D01*
X512Y1066D02*
X560Y1066D01*
X1413Y1066D02*
X1461Y1066D01*
X514Y1065D02*
X559Y1065D01*
X1415Y1065D02*
X1460Y1065D01*
X515Y1064D02*
X557Y1064D01*
X1416Y1064D02*
X1458Y1064D01*
X516Y1063D02*
X556Y1063D01*
X1417Y1063D02*
X1457Y1063D01*
X518Y1062D02*
X554Y1062D01*
X1419Y1062D02*
X1455Y1062D01*
X520Y1061D02*
X552Y1061D01*
X1421Y1061D02*
X1453Y1061D01*
X522Y1060D02*
X550Y1060D01*
X1423Y1060D02*
X1451Y1060D01*
X525Y1059D02*
X548Y1059D01*
X1426Y1059D02*
X1449Y1059D01*
X528Y1058D02*
X544Y1058D01*
X1429Y1058D02*
X1445Y1058D01*
X534Y1057D02*
X539Y1057D01*
X1435Y1057D02*
X1439Y1057D01*
X1698Y732D02*
X1698Y732D01*
X1690Y731D02*
X1705Y731D01*
X1687Y730D02*
X1709Y730D01*
X1684Y729D02*
X1712Y729D01*
X1682Y728D02*
X1714Y728D01*
X1680Y727D02*
X1716Y727D01*
X1678Y726D02*
X1717Y726D01*
X1677Y725D02*
X1719Y725D01*
X1675Y724D02*
X1720Y724D01*
X1674Y723D02*
X1721Y723D01*
X1673Y722D02*
X1723Y722D01*
X1672Y721D02*
X1724Y721D01*
X1671Y720D02*
X1725Y720D01*
X1670Y719D02*
X1725Y719D01*
X1669Y718D02*
X1726Y718D01*
X1669Y717D02*
X1727Y717D01*
X1668Y716D02*
X1728Y716D01*
X1667Y715D02*
X1728Y715D01*
X1667Y714D02*
X1729Y714D01*
X1666Y713D02*
X1730Y713D01*
X1666Y712D02*
X1693Y712D01*
X1703Y712D02*
X1730Y712D01*
X1665Y711D02*
X1690Y711D01*
X1706Y711D02*
X1731Y711D01*
X1665Y710D02*
X1688Y710D01*
X1708Y710D02*
X1731Y710D01*
X1664Y709D02*
X1687Y709D01*
X1709Y709D02*
X1731Y709D01*
X1664Y708D02*
X1686Y708D01*
X1710Y708D02*
X1732Y708D01*
X1664Y707D02*
X1685Y707D01*
X1711Y707D02*
X1732Y707D01*
X1663Y706D02*
X1684Y706D01*
X1712Y706D02*
X1733Y706D01*
X1663Y705D02*
X1683Y705D01*
X1713Y705D02*
X1733Y705D01*
X1663Y704D02*
X1682Y704D01*
X1713Y704D02*
X1733Y704D01*
X1662Y703D02*
X1682Y703D01*
X1714Y703D02*
X1733Y703D01*
X1662Y702D02*
X1681Y702D01*
X1715Y702D02*
X1734Y702D01*
X1662Y701D02*
X1681Y701D01*
X1715Y701D02*
X1734Y701D01*
X1662Y700D02*
X1680Y700D01*
X1715Y700D02*
X1734Y700D01*
X1662Y699D02*
X1680Y699D01*
X1715Y699D02*
X1734Y699D01*
X1661Y698D02*
X1680Y698D01*
X1716Y698D02*
X1734Y698D01*
X1661Y697D02*
X1680Y697D01*
X1716Y697D02*
X1734Y697D01*
X1661Y696D02*
X1680Y696D01*
X1716Y696D02*
X1734Y696D01*
X1661Y695D02*
X1680Y695D01*
X1716Y695D02*
X1734Y695D01*
X1661Y694D02*
X1680Y694D01*
X1716Y694D02*
X1734Y694D01*
X1661Y693D02*
X1680Y693D01*
X1716Y693D02*
X1734Y693D01*
X1661Y692D02*
X1680Y692D01*
X1716Y692D02*
X1734Y692D01*
X1662Y691D02*
X1680Y691D01*
X1716Y691D02*
X1734Y691D01*
X1662Y690D02*
X1680Y690D01*
X1715Y690D02*
X1734Y690D01*
X1662Y689D02*
X1681Y689D01*
X1715Y689D02*
X1734Y689D01*
X1662Y688D02*
X1681Y688D01*
X1715Y688D02*
X1734Y688D01*
X1662Y687D02*
X1682Y687D01*
X1714Y687D02*
X1733Y687D01*
X1663Y686D02*
X1682Y686D01*
X1713Y686D02*
X1733Y686D01*
X1663Y685D02*
X1683Y685D01*
X1713Y685D02*
X1733Y685D01*
X1663Y684D02*
X1684Y684D01*
X1712Y684D02*
X1733Y684D01*
X1664Y683D02*
X1685Y683D01*
X1711Y683D02*
X1732Y683D01*
X1664Y682D02*
X1686Y682D01*
X1710Y682D02*
X1732Y682D01*
X1664Y681D02*
X1687Y681D01*
X1709Y681D02*
X1731Y681D01*
X1665Y680D02*
X1688Y680D01*
X1708Y680D02*
X1731Y680D01*
X1665Y679D02*
X1690Y679D01*
X1706Y679D02*
X1731Y679D01*
X1666Y678D02*
X1693Y678D01*
X1703Y678D02*
X1730Y678D01*
X1666Y677D02*
X1730Y677D01*
X1667Y676D02*
X1729Y676D01*
X1667Y675D02*
X1728Y675D01*
X330Y674D02*
X340Y674D01*
X1497Y674D02*
X1499Y674D01*
X1668Y674D02*
X1728Y674D01*
X325Y673D02*
X344Y673D01*
X1490Y673D02*
X1506Y673D01*
X1669Y673D02*
X1727Y673D01*
X322Y672D02*
X347Y672D01*
X1487Y672D02*
X1509Y672D01*
X1669Y672D02*
X1726Y672D01*
X320Y671D02*
X350Y671D01*
X1484Y671D02*
X1512Y671D01*
X1670Y671D02*
X1726Y671D01*
X318Y670D02*
X352Y670D01*
X1482Y670D02*
X1514Y670D01*
X1671Y670D02*
X1725Y670D01*
X316Y669D02*
X353Y669D01*
X1480Y669D02*
X1516Y669D01*
X1672Y669D02*
X1724Y669D01*
X314Y668D02*
X355Y668D01*
X1478Y668D02*
X1518Y668D01*
X1673Y668D02*
X1723Y668D01*
X313Y667D02*
X356Y667D01*
X1477Y667D02*
X1519Y667D01*
X1674Y667D02*
X1722Y667D01*
X312Y666D02*
X358Y666D01*
X1476Y666D02*
X1520Y666D01*
X1675Y666D02*
X1720Y666D01*
X311Y665D02*
X359Y665D01*
X1474Y665D02*
X1522Y665D01*
X1677Y665D02*
X1719Y665D01*
X309Y664D02*
X360Y664D01*
X1473Y664D02*
X1523Y664D01*
X1678Y664D02*
X1717Y664D01*
X308Y663D02*
X361Y663D01*
X1472Y663D02*
X1524Y663D01*
X1680Y663D02*
X1716Y663D01*
X308Y662D02*
X362Y662D01*
X1471Y662D02*
X1525Y662D01*
X1682Y662D02*
X1714Y662D01*
X307Y661D02*
X363Y661D01*
X1470Y661D02*
X1526Y661D01*
X1684Y661D02*
X1712Y661D01*
X306Y660D02*
X364Y660D01*
X1470Y660D02*
X1526Y660D01*
X1687Y660D02*
X1709Y660D01*
X305Y659D02*
X364Y659D01*
X1469Y659D02*
X1527Y659D01*
X1690Y659D02*
X1706Y659D01*
X305Y658D02*
X365Y658D01*
X1468Y658D02*
X1528Y658D01*
X1697Y658D02*
X1698Y658D01*
X304Y657D02*
X366Y657D01*
X1468Y657D02*
X1529Y657D01*
X303Y656D02*
X366Y656D01*
X1467Y656D02*
X1529Y656D01*
X303Y655D02*
X367Y655D01*
X1466Y655D02*
X1530Y655D01*
X302Y654D02*
X328Y654D01*
X341Y654D02*
X367Y654D01*
X1466Y654D02*
X1493Y654D01*
X1503Y654D02*
X1530Y654D01*
X302Y653D02*
X326Y653D01*
X344Y653D02*
X368Y653D01*
X1465Y653D02*
X1490Y653D01*
X1506Y653D02*
X1531Y653D01*
X301Y652D02*
X324Y652D01*
X345Y652D02*
X368Y652D01*
X1465Y652D02*
X1488Y652D01*
X1508Y652D02*
X1531Y652D01*
X301Y651D02*
X323Y651D01*
X346Y651D02*
X369Y651D01*
X1464Y651D02*
X1487Y651D01*
X1509Y651D02*
X1532Y651D01*
X301Y650D02*
X322Y650D01*
X347Y650D02*
X369Y650D01*
X1464Y650D02*
X1486Y650D01*
X1510Y650D02*
X1532Y650D01*
X300Y649D02*
X321Y649D01*
X348Y649D02*
X369Y649D01*
X1464Y649D02*
X1485Y649D01*
X1511Y649D02*
X1532Y649D01*
X300Y648D02*
X320Y648D01*
X349Y648D02*
X370Y648D01*
X1463Y648D02*
X1484Y648D01*
X1512Y648D02*
X1533Y648D01*
X300Y647D02*
X319Y647D01*
X350Y647D02*
X370Y647D01*
X1463Y647D02*
X1483Y647D01*
X1513Y647D02*
X1533Y647D01*
X299Y646D02*
X319Y646D01*
X351Y646D02*
X370Y646D01*
X1463Y646D02*
X1482Y646D01*
X1514Y646D02*
X1533Y646D01*
X299Y645D02*
X318Y645D01*
X351Y645D02*
X370Y645D01*
X1463Y645D02*
X1482Y645D01*
X1514Y645D02*
X1534Y645D01*
X299Y644D02*
X318Y644D01*
X352Y644D02*
X371Y644D01*
X1462Y644D02*
X1481Y644D01*
X1515Y644D02*
X1534Y644D01*
X299Y643D02*
X318Y643D01*
X352Y643D02*
X371Y643D01*
X1462Y643D02*
X1481Y643D01*
X1515Y643D02*
X1534Y643D01*
X299Y642D02*
X317Y642D01*
X352Y642D02*
X371Y642D01*
X1462Y642D02*
X1481Y642D01*
X1515Y642D02*
X1534Y642D01*
X298Y641D02*
X317Y641D01*
X352Y641D02*
X371Y641D01*
X1462Y641D02*
X1480Y641D01*
X1516Y641D02*
X1534Y641D01*
X298Y640D02*
X317Y640D01*
X353Y640D02*
X371Y640D01*
X1462Y640D02*
X1480Y640D01*
X1516Y640D02*
X1534Y640D01*
X298Y639D02*
X317Y639D01*
X353Y639D02*
X371Y639D01*
X1462Y639D02*
X1480Y639D01*
X1516Y639D02*
X1534Y639D01*
X298Y638D02*
X317Y638D01*
X353Y638D02*
X371Y638D01*
X1462Y638D02*
X1480Y638D01*
X1516Y638D02*
X1535Y638D01*
X298Y637D02*
X317Y637D01*
X353Y637D02*
X371Y637D01*
X1462Y637D02*
X1480Y637D01*
X1516Y637D02*
X1535Y637D01*
X298Y636D02*
X317Y636D01*
X353Y636D02*
X371Y636D01*
X1462Y636D02*
X1480Y636D01*
X1516Y636D02*
X1535Y636D01*
X298Y635D02*
X317Y635D01*
X353Y635D02*
X371Y635D01*
X1462Y635D02*
X1480Y635D01*
X1516Y635D02*
X1534Y635D01*
X298Y634D02*
X317Y634D01*
X353Y634D02*
X371Y634D01*
X1462Y634D02*
X1480Y634D01*
X1516Y634D02*
X1534Y634D01*
X299Y633D02*
X317Y633D01*
X352Y633D02*
X371Y633D01*
X1462Y633D02*
X1480Y633D01*
X1516Y633D02*
X1534Y633D01*
X299Y632D02*
X318Y632D01*
X352Y632D02*
X371Y632D01*
X1462Y632D02*
X1481Y632D01*
X1515Y632D02*
X1534Y632D01*
X299Y631D02*
X318Y631D01*
X352Y631D02*
X371Y631D01*
X1462Y631D02*
X1481Y631D01*
X1515Y631D02*
X1534Y631D01*
X1691Y631D02*
X1705Y631D01*
X299Y630D02*
X318Y630D01*
X351Y630D02*
X370Y630D01*
X1462Y630D02*
X1481Y630D01*
X1515Y630D02*
X1534Y630D01*
X1687Y630D02*
X1709Y630D01*
X299Y629D02*
X319Y629D01*
X351Y629D02*
X370Y629D01*
X1463Y629D02*
X1482Y629D01*
X1514Y629D02*
X1534Y629D01*
X1684Y629D02*
X1711Y629D01*
X300Y628D02*
X319Y628D01*
X350Y628D02*
X370Y628D01*
X1463Y628D02*
X1482Y628D01*
X1514Y628D02*
X1533Y628D01*
X1682Y628D02*
X1713Y628D01*
X300Y627D02*
X320Y627D01*
X349Y627D02*
X370Y627D01*
X1463Y627D02*
X1483Y627D01*
X1513Y627D02*
X1533Y627D01*
X1680Y627D02*
X1715Y627D01*
X300Y626D02*
X321Y626D01*
X348Y626D02*
X369Y626D01*
X1463Y626D02*
X1484Y626D01*
X1512Y626D02*
X1533Y626D01*
X1679Y626D02*
X1717Y626D01*
X301Y625D02*
X322Y625D01*
X348Y625D02*
X369Y625D01*
X1464Y625D02*
X1485Y625D01*
X1511Y625D02*
X1532Y625D01*
X1677Y625D02*
X1719Y625D01*
X301Y624D02*
X323Y624D01*
X346Y624D02*
X369Y624D01*
X1464Y624D02*
X1486Y624D01*
X1510Y624D02*
X1532Y624D01*
X1676Y624D02*
X1720Y624D01*
X301Y623D02*
X324Y623D01*
X345Y623D02*
X368Y623D01*
X1464Y623D02*
X1487Y623D01*
X1509Y623D02*
X1532Y623D01*
X1674Y623D02*
X1721Y623D01*
X302Y622D02*
X326Y622D01*
X344Y622D02*
X368Y622D01*
X1465Y622D02*
X1488Y622D01*
X1508Y622D02*
X1531Y622D01*
X1673Y622D02*
X1722Y622D01*
X302Y621D02*
X328Y621D01*
X342Y621D02*
X367Y621D01*
X1465Y621D02*
X1490Y621D01*
X1506Y621D02*
X1531Y621D01*
X1672Y621D02*
X1724Y621D01*
X303Y620D02*
X334Y620D01*
X336Y620D02*
X367Y620D01*
X1466Y620D02*
X1493Y620D01*
X1503Y620D02*
X1530Y620D01*
X1671Y620D02*
X1724Y620D01*
X303Y619D02*
X366Y619D01*
X1466Y619D02*
X1530Y619D01*
X1670Y619D02*
X1725Y619D01*
X304Y618D02*
X366Y618D01*
X1467Y618D02*
X1529Y618D01*
X1670Y618D02*
X1726Y618D01*
X305Y617D02*
X365Y617D01*
X1468Y617D02*
X1529Y617D01*
X1669Y617D02*
X1727Y617D01*
X305Y616D02*
X364Y616D01*
X1468Y616D02*
X1528Y616D01*
X1668Y616D02*
X1728Y616D01*
X306Y615D02*
X364Y615D01*
X1469Y615D02*
X1527Y615D01*
X1667Y615D02*
X1728Y615D01*
X307Y614D02*
X363Y614D01*
X1470Y614D02*
X1526Y614D01*
X1667Y614D02*
X1729Y614D01*
X308Y613D02*
X362Y613D01*
X1470Y613D02*
X1526Y613D01*
X1666Y613D02*
X1729Y613D01*
X308Y612D02*
X361Y612D01*
X1471Y612D02*
X1525Y612D01*
X1666Y612D02*
X1693Y612D01*
X1702Y612D02*
X1730Y612D01*
X309Y611D02*
X360Y611D01*
X1472Y611D02*
X1524Y611D01*
X1665Y611D02*
X1690Y611D01*
X1706Y611D02*
X1730Y611D01*
X310Y610D02*
X359Y610D01*
X1473Y610D02*
X1523Y610D01*
X1665Y610D02*
X1688Y610D01*
X1707Y610D02*
X1731Y610D01*
X312Y609D02*
X358Y609D01*
X1474Y609D02*
X1522Y609D01*
X1664Y609D02*
X1687Y609D01*
X1709Y609D02*
X1731Y609D01*
X313Y608D02*
X357Y608D01*
X1476Y608D02*
X1520Y608D01*
X1664Y608D02*
X1686Y608D01*
X1710Y608D02*
X1732Y608D01*
X314Y607D02*
X355Y607D01*
X1477Y607D02*
X1519Y607D01*
X1664Y607D02*
X1685Y607D01*
X1711Y607D02*
X1732Y607D01*
X316Y606D02*
X353Y606D01*
X1479Y606D02*
X1518Y606D01*
X1663Y606D02*
X1684Y606D01*
X1712Y606D02*
X1732Y606D01*
X318Y605D02*
X352Y605D01*
X1480Y605D02*
X1516Y605D01*
X1663Y605D02*
X1683Y605D01*
X1713Y605D02*
X1733Y605D01*
X320Y604D02*
X350Y604D01*
X1482Y604D02*
X1514Y604D01*
X1663Y604D02*
X1682Y604D01*
X1713Y604D02*
X1733Y604D01*
X322Y603D02*
X347Y603D01*
X1484Y603D02*
X1512Y603D01*
X1662Y603D02*
X1682Y603D01*
X1714Y603D02*
X1733Y603D01*
X325Y602D02*
X344Y602D01*
X1487Y602D02*
X1509Y602D01*
X1662Y602D02*
X1681Y602D01*
X1715Y602D02*
X1734Y602D01*
X329Y601D02*
X340Y601D01*
X1491Y601D02*
X1506Y601D01*
X1662Y601D02*
X1681Y601D01*
X1715Y601D02*
X1734Y601D01*
X1498Y600D02*
X1498Y600D01*
X1662Y600D02*
X1681Y600D01*
X1715Y600D02*
X1734Y600D01*
X1662Y599D02*
X1680Y599D01*
X1715Y599D02*
X1734Y599D01*
X1661Y598D02*
X1680Y598D01*
X1716Y598D02*
X1734Y598D01*
X1661Y597D02*
X1680Y597D01*
X1716Y597D02*
X1734Y597D01*
X1661Y596D02*
X1680Y596D01*
X1716Y596D02*
X1734Y596D01*
X1661Y595D02*
X1680Y595D01*
X1716Y595D02*
X1734Y595D01*
X1661Y594D02*
X1680Y594D01*
X1716Y594D02*
X1734Y594D01*
X1661Y593D02*
X1680Y593D01*
X1716Y593D02*
X1734Y593D01*
X1661Y592D02*
X1680Y592D01*
X1716Y592D02*
X1734Y592D01*
X1662Y591D02*
X1680Y591D01*
X1716Y591D02*
X1734Y591D01*
X1662Y590D02*
X1680Y590D01*
X1715Y590D02*
X1734Y590D01*
X1662Y589D02*
X1681Y589D01*
X1715Y589D02*
X1734Y589D01*
X1662Y588D02*
X1681Y588D01*
X1715Y588D02*
X1734Y588D01*
X1662Y587D02*
X1682Y587D01*
X1714Y587D02*
X1733Y587D01*
X1663Y586D02*
X1682Y586D01*
X1714Y586D02*
X1733Y586D01*
X1663Y585D02*
X1683Y585D01*
X1713Y585D02*
X1733Y585D01*
X1663Y584D02*
X1684Y584D01*
X1712Y584D02*
X1733Y584D01*
X1663Y583D02*
X1685Y583D01*
X1711Y583D02*
X1732Y583D01*
X1664Y582D02*
X1686Y582D01*
X1710Y582D02*
X1732Y582D01*
X1664Y581D02*
X1687Y581D01*
X1709Y581D02*
X1731Y581D01*
X1665Y580D02*
X1688Y580D01*
X1708Y580D02*
X1731Y580D01*
X1665Y579D02*
X1690Y579D01*
X1706Y579D02*
X1731Y579D01*
X1666Y578D02*
X1692Y578D01*
X1703Y578D02*
X1730Y578D01*
X1666Y577D02*
X1730Y577D01*
X1667Y576D02*
X1729Y576D01*
X1667Y575D02*
X1728Y575D01*
X330Y574D02*
X339Y574D01*
X1668Y574D02*
X1728Y574D01*
X326Y573D02*
X344Y573D01*
X1491Y573D02*
X1505Y573D01*
X1669Y573D02*
X1727Y573D01*
X323Y572D02*
X347Y572D01*
X1487Y572D02*
X1509Y572D01*
X1669Y572D02*
X1726Y572D01*
X320Y571D02*
X349Y571D01*
X1485Y571D02*
X1512Y571D01*
X1670Y571D02*
X1726Y571D01*
X318Y570D02*
X351Y570D01*
X1482Y570D02*
X1514Y570D01*
X1671Y570D02*
X1725Y570D01*
X316Y569D02*
X353Y569D01*
X1480Y569D02*
X1516Y569D01*
X1672Y569D02*
X1724Y569D01*
X315Y568D02*
X355Y568D01*
X1479Y568D02*
X1517Y568D01*
X1673Y568D02*
X1723Y568D01*
X313Y567D02*
X356Y567D01*
X1477Y567D02*
X1519Y567D01*
X1674Y567D02*
X1722Y567D01*
X312Y566D02*
X358Y566D01*
X1476Y566D02*
X1520Y566D01*
X1675Y566D02*
X1720Y566D01*
X311Y565D02*
X359Y565D01*
X1474Y565D02*
X1522Y565D01*
X1677Y565D02*
X1719Y565D01*
X310Y564D02*
X360Y564D01*
X1473Y564D02*
X1523Y564D01*
X1678Y564D02*
X1718Y564D01*
X309Y563D02*
X361Y563D01*
X1472Y563D02*
X1524Y563D01*
X1680Y563D02*
X1716Y563D01*
X308Y562D02*
X362Y562D01*
X1471Y562D02*
X1525Y562D01*
X1682Y562D02*
X1714Y562D01*
X307Y561D02*
X363Y561D01*
X1470Y561D02*
X1526Y561D01*
X1684Y561D02*
X1712Y561D01*
X306Y560D02*
X363Y560D01*
X1470Y560D02*
X1526Y560D01*
X1686Y560D02*
X1709Y560D01*
X305Y559D02*
X364Y559D01*
X1469Y559D02*
X1527Y559D01*
X1690Y559D02*
X1706Y559D01*
X305Y558D02*
X365Y558D01*
X1468Y558D02*
X1528Y558D01*
X1695Y558D02*
X1700Y558D01*
X304Y557D02*
X365Y557D01*
X1468Y557D02*
X1528Y557D01*
X303Y556D02*
X366Y556D01*
X1467Y556D02*
X1529Y556D01*
X303Y555D02*
X367Y555D01*
X1466Y555D02*
X1530Y555D01*
X302Y554D02*
X329Y554D01*
X341Y554D02*
X367Y554D01*
X1466Y554D02*
X1493Y554D01*
X1503Y554D02*
X1530Y554D01*
X302Y553D02*
X326Y553D01*
X343Y553D02*
X368Y553D01*
X1465Y553D02*
X1490Y553D01*
X1506Y553D02*
X1531Y553D01*
X301Y552D02*
X325Y552D01*
X345Y552D02*
X368Y552D01*
X1465Y552D02*
X1488Y552D01*
X1508Y552D02*
X1531Y552D01*
X301Y551D02*
X323Y551D01*
X346Y551D02*
X368Y551D01*
X1464Y551D02*
X1487Y551D01*
X1509Y551D02*
X1532Y551D01*
X301Y550D02*
X322Y550D01*
X347Y550D02*
X369Y550D01*
X1464Y550D02*
X1486Y550D01*
X1510Y550D02*
X1532Y550D01*
X300Y549D02*
X321Y549D01*
X348Y549D02*
X369Y549D01*
X1464Y549D02*
X1485Y549D01*
X1511Y549D02*
X1532Y549D01*
X300Y548D02*
X320Y548D01*
X349Y548D02*
X370Y548D01*
X1463Y548D02*
X1484Y548D01*
X1512Y548D02*
X1533Y548D01*
X300Y547D02*
X320Y547D01*
X350Y547D02*
X370Y547D01*
X1463Y547D02*
X1483Y547D01*
X1513Y547D02*
X1533Y547D01*
X299Y546D02*
X319Y546D01*
X351Y546D02*
X370Y546D01*
X1463Y546D02*
X1482Y546D01*
X1514Y546D02*
X1533Y546D01*
X299Y545D02*
X318Y545D01*
X351Y545D02*
X370Y545D01*
X1463Y545D02*
X1482Y545D01*
X1514Y545D02*
X1534Y545D01*
X299Y544D02*
X318Y544D01*
X352Y544D02*
X371Y544D01*
X1462Y544D02*
X1481Y544D01*
X1515Y544D02*
X1534Y544D01*
X299Y543D02*
X318Y543D01*
X352Y543D02*
X371Y543D01*
X1462Y543D02*
X1481Y543D01*
X1515Y543D02*
X1534Y543D01*
X299Y542D02*
X317Y542D01*
X352Y542D02*
X371Y542D01*
X1462Y542D02*
X1481Y542D01*
X1515Y542D02*
X1534Y542D01*
X298Y541D02*
X317Y541D01*
X352Y541D02*
X371Y541D01*
X1462Y541D02*
X1480Y541D01*
X1516Y541D02*
X1534Y541D01*
X298Y540D02*
X317Y540D01*
X353Y540D02*
X371Y540D01*
X1462Y540D02*
X1480Y540D01*
X1516Y540D02*
X1534Y540D01*
X298Y539D02*
X317Y539D01*
X353Y539D02*
X371Y539D01*
X1462Y539D02*
X1480Y539D01*
X1516Y539D02*
X1534Y539D01*
X298Y538D02*
X317Y538D01*
X353Y538D02*
X371Y538D01*
X1462Y538D02*
X1480Y538D01*
X1516Y538D02*
X1535Y538D01*
X298Y537D02*
X317Y537D01*
X353Y537D02*
X371Y537D01*
X1462Y537D02*
X1480Y537D01*
X1516Y537D02*
X1535Y537D01*
X298Y536D02*
X317Y536D01*
X353Y536D02*
X371Y536D01*
X1462Y536D02*
X1480Y536D01*
X1516Y536D02*
X1535Y536D01*
X298Y535D02*
X317Y535D01*
X353Y535D02*
X371Y535D01*
X1462Y535D02*
X1480Y535D01*
X1516Y535D02*
X1534Y535D01*
X298Y534D02*
X317Y534D01*
X353Y534D02*
X371Y534D01*
X1462Y534D02*
X1480Y534D01*
X1516Y534D02*
X1534Y534D01*
X299Y533D02*
X317Y533D01*
X352Y533D02*
X371Y533D01*
X1462Y533D02*
X1480Y533D01*
X1516Y533D02*
X1534Y533D01*
X299Y532D02*
X318Y532D01*
X352Y532D02*
X371Y532D01*
X1462Y532D02*
X1481Y532D01*
X1515Y532D02*
X1534Y532D01*
X299Y531D02*
X318Y531D01*
X352Y531D02*
X371Y531D01*
X1462Y531D02*
X1481Y531D01*
X1515Y531D02*
X1534Y531D01*
X1691Y531D02*
X1704Y531D01*
X299Y530D02*
X318Y530D01*
X351Y530D02*
X370Y530D01*
X1462Y530D02*
X1481Y530D01*
X1515Y530D02*
X1534Y530D01*
X1688Y530D02*
X1708Y530D01*
X299Y529D02*
X319Y529D01*
X351Y529D02*
X370Y529D01*
X1462Y529D02*
X1482Y529D01*
X1514Y529D02*
X1534Y529D01*
X1685Y529D02*
X1711Y529D01*
X300Y528D02*
X319Y528D01*
X350Y528D02*
X370Y528D01*
X1463Y528D02*
X1482Y528D01*
X1514Y528D02*
X1533Y528D01*
X1683Y528D02*
X1713Y528D01*
X300Y527D02*
X320Y527D01*
X349Y527D02*
X370Y527D01*
X1463Y527D02*
X1483Y527D01*
X1513Y527D02*
X1533Y527D01*
X1680Y527D02*
X1715Y527D01*
X300Y526D02*
X321Y526D01*
X349Y526D02*
X369Y526D01*
X1463Y526D02*
X1484Y526D01*
X1512Y526D02*
X1533Y526D01*
X1679Y526D02*
X1717Y526D01*
X301Y525D02*
X322Y525D01*
X348Y525D02*
X369Y525D01*
X1464Y525D02*
X1485Y525D01*
X1511Y525D02*
X1532Y525D01*
X1677Y525D02*
X1719Y525D01*
X301Y524D02*
X323Y524D01*
X347Y524D02*
X369Y524D01*
X1464Y524D02*
X1486Y524D01*
X1510Y524D02*
X1532Y524D01*
X1676Y524D02*
X1720Y524D01*
X301Y523D02*
X324Y523D01*
X345Y523D02*
X368Y523D01*
X1464Y523D02*
X1487Y523D01*
X1509Y523D02*
X1532Y523D01*
X1674Y523D02*
X1721Y523D01*
X302Y522D02*
X326Y522D01*
X344Y522D02*
X368Y522D01*
X1465Y522D02*
X1488Y522D01*
X1508Y522D02*
X1531Y522D01*
X1673Y522D02*
X1722Y522D01*
X302Y521D02*
X328Y521D01*
X342Y521D02*
X367Y521D01*
X1465Y521D02*
X1490Y521D01*
X1506Y521D02*
X1531Y521D01*
X1672Y521D02*
X1723Y521D01*
X303Y520D02*
X332Y520D01*
X337Y520D02*
X367Y520D01*
X1466Y520D02*
X1493Y520D01*
X1503Y520D02*
X1530Y520D01*
X1671Y520D02*
X1724Y520D01*
X303Y519D02*
X366Y519D01*
X1466Y519D02*
X1530Y519D01*
X1670Y519D02*
X1725Y519D01*
X304Y518D02*
X366Y518D01*
X1467Y518D02*
X1529Y518D01*
X1670Y518D02*
X1726Y518D01*
X304Y517D02*
X365Y517D01*
X1467Y517D02*
X1529Y517D01*
X1669Y517D02*
X1727Y517D01*
X305Y516D02*
X364Y516D01*
X1468Y516D02*
X1528Y516D01*
X1668Y516D02*
X1728Y516D01*
X306Y515D02*
X364Y515D01*
X1469Y515D02*
X1527Y515D01*
X1667Y515D02*
X1728Y515D01*
X307Y514D02*
X363Y514D01*
X1470Y514D02*
X1527Y514D01*
X1667Y514D02*
X1729Y514D01*
X307Y513D02*
X362Y513D01*
X1470Y513D02*
X1526Y513D01*
X1666Y513D02*
X1729Y513D01*
X308Y512D02*
X361Y512D01*
X1471Y512D02*
X1525Y512D01*
X1666Y512D02*
X1694Y512D01*
X1702Y512D02*
X1730Y512D01*
X309Y511D02*
X360Y511D01*
X1472Y511D02*
X1524Y511D01*
X1665Y511D02*
X1690Y511D01*
X1705Y511D02*
X1730Y511D01*
X310Y510D02*
X359Y510D01*
X1473Y510D02*
X1523Y510D01*
X1665Y510D02*
X1689Y510D01*
X1707Y510D02*
X1731Y510D01*
X311Y509D02*
X358Y509D01*
X1474Y509D02*
X1522Y509D01*
X1664Y509D02*
X1687Y509D01*
X1709Y509D02*
X1731Y509D01*
X313Y508D02*
X357Y508D01*
X1476Y508D02*
X1521Y508D01*
X1664Y508D02*
X1686Y508D01*
X1710Y508D02*
X1732Y508D01*
X314Y507D02*
X355Y507D01*
X1477Y507D02*
X1519Y507D01*
X1664Y507D02*
X1685Y507D01*
X1711Y507D02*
X1732Y507D01*
X316Y506D02*
X354Y506D01*
X1478Y506D02*
X1518Y506D01*
X1663Y506D02*
X1684Y506D01*
X1712Y506D02*
X1732Y506D01*
X318Y505D02*
X352Y505D01*
X1480Y505D02*
X1516Y505D01*
X1663Y505D02*
X1683Y505D01*
X1713Y505D02*
X1733Y505D01*
X320Y504D02*
X350Y504D01*
X1482Y504D02*
X1514Y504D01*
X1663Y504D02*
X1682Y504D01*
X1713Y504D02*
X1733Y504D01*
X322Y503D02*
X348Y503D01*
X1484Y503D02*
X1512Y503D01*
X1662Y503D02*
X1682Y503D01*
X1714Y503D02*
X1733Y503D01*
X325Y502D02*
X345Y502D01*
X1487Y502D02*
X1509Y502D01*
X1662Y502D02*
X1681Y502D01*
X1714Y502D02*
X1734Y502D01*
X329Y501D02*
X341Y501D01*
X1490Y501D02*
X1506Y501D01*
X1662Y501D02*
X1681Y501D01*
X1715Y501D02*
X1734Y501D01*
X1496Y500D02*
X1500Y500D01*
X1662Y500D02*
X1681Y500D01*
X1715Y500D02*
X1734Y500D01*
X1662Y499D02*
X1680Y499D01*
X1715Y499D02*
X1734Y499D01*
X1661Y498D02*
X1680Y498D01*
X1716Y498D02*
X1734Y498D01*
X1661Y497D02*
X1680Y497D01*
X1716Y497D02*
X1734Y497D01*
X1661Y496D02*
X1680Y496D01*
X1716Y496D02*
X1734Y496D01*
X1661Y495D02*
X1680Y495D01*
X1716Y495D02*
X1734Y495D01*
X1661Y494D02*
X1680Y494D01*
X1716Y494D02*
X1734Y494D01*
X1661Y493D02*
X1680Y493D01*
X1716Y493D02*
X1734Y493D01*
X1661Y492D02*
X1680Y492D01*
X1716Y492D02*
X1734Y492D01*
X1662Y491D02*
X1680Y491D01*
X1716Y491D02*
X1734Y491D01*
X1662Y490D02*
X1680Y490D01*
X1715Y490D02*
X1734Y490D01*
X1662Y489D02*
X1681Y489D01*
X1715Y489D02*
X1734Y489D01*
X1662Y488D02*
X1681Y488D01*
X1715Y488D02*
X1734Y488D01*
X1662Y487D02*
X1682Y487D01*
X1714Y487D02*
X1733Y487D01*
X1663Y486D02*
X1682Y486D01*
X1714Y486D02*
X1733Y486D01*
X1663Y485D02*
X1683Y485D01*
X1713Y485D02*
X1733Y485D01*
X1663Y484D02*
X1684Y484D01*
X1712Y484D02*
X1733Y484D01*
X1663Y483D02*
X1684Y483D01*
X1711Y483D02*
X1732Y483D01*
X1664Y482D02*
X1685Y482D01*
X1710Y482D02*
X1732Y482D01*
X1664Y481D02*
X1687Y481D01*
X1709Y481D02*
X1732Y481D01*
X1665Y480D02*
X1688Y480D01*
X1708Y480D02*
X1731Y480D01*
X1665Y479D02*
X1689Y479D01*
X1706Y479D02*
X1731Y479D01*
X1666Y478D02*
X1692Y478D01*
X1704Y478D02*
X1730Y478D01*
X1666Y477D02*
X1730Y477D01*
X1667Y476D02*
X1729Y476D01*
X1667Y475D02*
X1728Y475D01*
X331Y474D02*
X338Y474D01*
X1668Y474D02*
X1728Y474D01*
X326Y473D02*
X343Y473D01*
X1491Y473D02*
X1505Y473D01*
X1669Y473D02*
X1727Y473D01*
X323Y472D02*
X346Y472D01*
X1488Y472D02*
X1509Y472D01*
X1669Y472D02*
X1726Y472D01*
X320Y471D02*
X349Y471D01*
X1485Y471D02*
X1511Y471D01*
X1670Y471D02*
X1726Y471D01*
X318Y470D02*
X351Y470D01*
X1483Y470D02*
X1513Y470D01*
X1671Y470D02*
X1725Y470D01*
X317Y469D02*
X353Y469D01*
X1481Y469D02*
X1516Y469D01*
X1672Y469D02*
X1724Y469D01*
X315Y468D02*
X355Y468D01*
X1479Y468D02*
X1517Y468D01*
X1673Y468D02*
X1723Y468D01*
X313Y467D02*
X356Y467D01*
X1477Y467D02*
X1519Y467D01*
X1674Y467D02*
X1722Y467D01*
X312Y466D02*
X358Y466D01*
X1476Y466D02*
X1520Y466D01*
X1675Y466D02*
X1721Y466D01*
X311Y465D02*
X359Y465D01*
X1475Y465D02*
X1521Y465D01*
X1676Y465D02*
X1719Y465D01*
X310Y464D02*
X360Y464D01*
X1473Y464D02*
X1523Y464D01*
X1678Y464D02*
X1718Y464D01*
X309Y463D02*
X361Y463D01*
X1472Y463D02*
X1524Y463D01*
X1680Y463D02*
X1716Y463D01*
X308Y462D02*
X362Y462D01*
X1471Y462D02*
X1525Y462D01*
X1681Y462D02*
X1714Y462D01*
X307Y461D02*
X363Y461D01*
X1471Y461D02*
X1526Y461D01*
X1684Y461D02*
X1712Y461D01*
X306Y460D02*
X363Y460D01*
X1470Y460D02*
X1526Y460D01*
X1686Y460D02*
X1710Y460D01*
X305Y459D02*
X364Y459D01*
X1469Y459D02*
X1527Y459D01*
X1689Y459D02*
X1706Y459D01*
X305Y458D02*
X365Y458D01*
X1468Y458D02*
X1528Y458D01*
X1694Y458D02*
X1701Y458D01*
X304Y457D02*
X365Y457D01*
X1468Y457D02*
X1528Y457D01*
X304Y456D02*
X366Y456D01*
X1467Y456D02*
X1529Y456D01*
X303Y455D02*
X367Y455D01*
X1466Y455D02*
X1530Y455D01*
X302Y454D02*
X329Y454D01*
X341Y454D02*
X367Y454D01*
X1466Y454D02*
X1494Y454D01*
X1502Y454D02*
X1530Y454D01*
X302Y453D02*
X326Y453D01*
X343Y453D02*
X368Y453D01*
X1465Y453D02*
X1490Y453D01*
X1506Y453D02*
X1531Y453D01*
X301Y452D02*
X325Y452D01*
X345Y452D02*
X368Y452D01*
X1465Y452D02*
X1489Y452D01*
X1507Y452D02*
X1531Y452D01*
X301Y451D02*
X323Y451D01*
X346Y451D02*
X368Y451D01*
X1465Y451D02*
X1487Y451D01*
X1509Y451D02*
X1532Y451D01*
X301Y450D02*
X322Y450D01*
X347Y450D02*
X369Y450D01*
X1464Y450D02*
X1486Y450D01*
X1510Y450D02*
X1532Y450D01*
X300Y449D02*
X321Y449D01*
X348Y449D02*
X369Y449D01*
X1464Y449D02*
X1485Y449D01*
X1511Y449D02*
X1532Y449D01*
X300Y448D02*
X320Y448D01*
X349Y448D02*
X370Y448D01*
X1463Y448D02*
X1484Y448D01*
X1512Y448D02*
X1533Y448D01*
X300Y447D02*
X320Y447D01*
X350Y447D02*
X370Y447D01*
X1463Y447D02*
X1483Y447D01*
X1513Y447D02*
X1533Y447D01*
X299Y446D02*
X319Y446D01*
X351Y446D02*
X370Y446D01*
X1463Y446D02*
X1483Y446D01*
X1514Y446D02*
X1533Y446D01*
X299Y445D02*
X318Y445D01*
X351Y445D02*
X370Y445D01*
X1463Y445D02*
X1482Y445D01*
X1514Y445D02*
X1534Y445D01*
X299Y444D02*
X318Y444D01*
X352Y444D02*
X371Y444D01*
X1462Y444D02*
X1481Y444D01*
X1515Y444D02*
X1534Y444D01*
X299Y443D02*
X318Y443D01*
X352Y443D02*
X371Y443D01*
X1462Y443D02*
X1481Y443D01*
X1515Y443D02*
X1534Y443D01*
X299Y442D02*
X317Y442D01*
X352Y442D02*
X371Y442D01*
X1462Y442D02*
X1481Y442D01*
X1515Y442D02*
X1534Y442D01*
X298Y441D02*
X317Y441D01*
X352Y441D02*
X371Y441D01*
X1462Y441D02*
X1480Y441D01*
X1516Y441D02*
X1534Y441D01*
X298Y440D02*
X317Y440D01*
X353Y440D02*
X371Y440D01*
X1462Y440D02*
X1480Y440D01*
X1516Y440D02*
X1534Y440D01*
X298Y439D02*
X317Y439D01*
X353Y439D02*
X371Y439D01*
X1462Y439D02*
X1480Y439D01*
X1516Y439D02*
X1534Y439D01*
X298Y438D02*
X317Y438D01*
X353Y438D02*
X371Y438D01*
X1462Y438D02*
X1480Y438D01*
X1516Y438D02*
X1535Y438D01*
X298Y437D02*
X317Y437D01*
X353Y437D02*
X371Y437D01*
X1462Y437D02*
X1480Y437D01*
X1516Y437D02*
X1535Y437D01*
X298Y436D02*
X317Y436D01*
X353Y436D02*
X371Y436D01*
X1462Y436D02*
X1480Y436D01*
X1516Y436D02*
X1535Y436D01*
X298Y435D02*
X317Y435D01*
X353Y435D02*
X371Y435D01*
X1462Y435D02*
X1480Y435D01*
X1516Y435D02*
X1534Y435D01*
X298Y434D02*
X317Y434D01*
X353Y434D02*
X371Y434D01*
X1462Y434D02*
X1480Y434D01*
X1516Y434D02*
X1534Y434D01*
X299Y433D02*
X317Y433D01*
X352Y433D02*
X371Y433D01*
X1462Y433D02*
X1480Y433D01*
X1516Y433D02*
X1534Y433D01*
X299Y432D02*
X317Y432D01*
X352Y432D02*
X371Y432D01*
X1462Y432D02*
X1481Y432D01*
X1515Y432D02*
X1534Y432D01*
X299Y431D02*
X318Y431D01*
X352Y431D02*
X371Y431D01*
X1462Y431D02*
X1481Y431D01*
X1515Y431D02*
X1534Y431D01*
X1692Y431D02*
X1704Y431D01*
X299Y430D02*
X318Y430D01*
X351Y430D02*
X370Y430D01*
X1462Y430D02*
X1481Y430D01*
X1515Y430D02*
X1534Y430D01*
X1688Y430D02*
X1708Y430D01*
X299Y429D02*
X319Y429D01*
X351Y429D02*
X370Y429D01*
X1462Y429D02*
X1482Y429D01*
X1514Y429D02*
X1534Y429D01*
X1685Y429D02*
X1711Y429D01*
X300Y428D02*
X319Y428D01*
X350Y428D02*
X370Y428D01*
X1463Y428D02*
X1482Y428D01*
X1514Y428D02*
X1533Y428D01*
X1683Y428D02*
X1713Y428D01*
X300Y427D02*
X320Y427D01*
X350Y427D02*
X370Y427D01*
X1463Y427D02*
X1483Y427D01*
X1513Y427D02*
X1533Y427D01*
X1681Y427D02*
X1715Y427D01*
X300Y426D02*
X321Y426D01*
X349Y426D02*
X369Y426D01*
X1463Y426D02*
X1484Y426D01*
X1512Y426D02*
X1533Y426D01*
X1679Y426D02*
X1717Y426D01*
X301Y425D02*
X322Y425D01*
X348Y425D02*
X369Y425D01*
X1464Y425D02*
X1485Y425D01*
X1511Y425D02*
X1532Y425D01*
X1677Y425D02*
X1718Y425D01*
X301Y424D02*
X323Y424D01*
X347Y424D02*
X369Y424D01*
X1464Y424D02*
X1486Y424D01*
X1510Y424D02*
X1532Y424D01*
X1676Y424D02*
X1720Y424D01*
X301Y423D02*
X324Y423D01*
X346Y423D02*
X368Y423D01*
X1464Y423D02*
X1487Y423D01*
X1509Y423D02*
X1532Y423D01*
X1675Y423D02*
X1721Y423D01*
X302Y422D02*
X325Y422D01*
X344Y422D02*
X368Y422D01*
X1465Y422D02*
X1488Y422D01*
X1508Y422D02*
X1531Y422D01*
X1673Y422D02*
X1722Y422D01*
X302Y421D02*
X327Y421D01*
X342Y421D02*
X367Y421D01*
X1465Y421D02*
X1490Y421D01*
X1506Y421D02*
X1531Y421D01*
X1672Y421D02*
X1723Y421D01*
X303Y420D02*
X331Y420D01*
X339Y420D02*
X367Y420D01*
X1466Y420D02*
X1492Y420D01*
X1504Y420D02*
X1530Y420D01*
X1671Y420D02*
X1724Y420D01*
X303Y419D02*
X366Y419D01*
X1466Y419D02*
X1530Y419D01*
X1671Y419D02*
X1725Y419D01*
X304Y418D02*
X366Y418D01*
X1467Y418D02*
X1529Y418D01*
X1670Y418D02*
X1726Y418D01*
X304Y417D02*
X365Y417D01*
X1467Y417D02*
X1529Y417D01*
X1669Y417D02*
X1727Y417D01*
X305Y416D02*
X364Y416D01*
X1468Y416D02*
X1528Y416D01*
X1668Y416D02*
X1727Y416D01*
X306Y415D02*
X364Y415D01*
X1469Y415D02*
X1527Y415D01*
X1668Y415D02*
X1728Y415D01*
X307Y414D02*
X363Y414D01*
X1469Y414D02*
X1527Y414D01*
X1667Y414D02*
X1729Y414D01*
X307Y413D02*
X362Y413D01*
X1470Y413D02*
X1526Y413D01*
X1666Y413D02*
X1729Y413D01*
X308Y412D02*
X361Y412D01*
X1471Y412D02*
X1525Y412D01*
X1666Y412D02*
X1695Y412D01*
X1700Y412D02*
X1730Y412D01*
X309Y411D02*
X360Y411D01*
X1472Y411D02*
X1524Y411D01*
X1665Y411D02*
X1691Y411D01*
X1705Y411D02*
X1730Y411D01*
X310Y410D02*
X359Y410D01*
X1473Y410D02*
X1523Y410D01*
X1665Y410D02*
X1689Y410D01*
X1707Y410D02*
X1731Y410D01*
X311Y409D02*
X358Y409D01*
X1474Y409D02*
X1522Y409D01*
X1664Y409D02*
X1687Y409D01*
X1708Y409D02*
X1731Y409D01*
X313Y408D02*
X357Y408D01*
X1475Y408D02*
X1521Y408D01*
X1664Y408D02*
X1686Y408D01*
X1710Y408D02*
X1732Y408D01*
X314Y407D02*
X355Y407D01*
X1477Y407D02*
X1519Y407D01*
X1664Y407D02*
X1685Y407D01*
X1711Y407D02*
X1732Y407D01*
X316Y406D02*
X354Y406D01*
X1478Y406D02*
X1518Y406D01*
X1663Y406D02*
X1684Y406D01*
X1712Y406D02*
X1732Y406D01*
X317Y405D02*
X352Y405D01*
X1480Y405D02*
X1516Y405D01*
X1663Y405D02*
X1683Y405D01*
X1712Y405D02*
X1733Y405D01*
X319Y404D02*
X350Y404D01*
X1482Y404D02*
X1514Y404D01*
X1663Y404D02*
X1682Y404D01*
X1713Y404D02*
X1733Y404D01*
X322Y403D02*
X348Y403D01*
X1484Y403D02*
X1512Y403D01*
X1662Y403D02*
X1682Y403D01*
X1714Y403D02*
X1733Y403D01*
X324Y402D02*
X345Y402D01*
X1486Y402D02*
X1510Y402D01*
X1662Y402D02*
X1681Y402D01*
X1714Y402D02*
X1734Y402D01*
X328Y401D02*
X341Y401D01*
X1490Y401D02*
X1506Y401D01*
X1662Y401D02*
X1681Y401D01*
X1715Y401D02*
X1734Y401D01*
X1495Y400D02*
X1501Y400D01*
X1662Y400D02*
X1681Y400D01*
X1715Y400D02*
X1734Y400D01*
X1662Y399D02*
X1680Y399D01*
X1715Y399D02*
X1734Y399D01*
X1662Y398D02*
X1680Y398D01*
X1716Y398D02*
X1734Y398D01*
X1661Y397D02*
X1680Y397D01*
X1716Y397D02*
X1734Y397D01*
X1661Y396D02*
X1680Y396D01*
X1716Y396D02*
X1734Y396D01*
X1661Y395D02*
X1680Y395D01*
X1716Y395D02*
X1734Y395D01*
X1661Y394D02*
X1680Y394D01*
X1716Y394D02*
X1734Y394D01*
X1661Y393D02*
X1680Y393D01*
X1716Y393D02*
X1734Y393D01*
X1661Y392D02*
X1680Y392D01*
X1716Y392D02*
X1734Y392D01*
X1662Y391D02*
X1680Y391D01*
X1716Y391D02*
X1734Y391D01*
X1662Y390D02*
X1680Y390D01*
X1715Y390D02*
X1734Y390D01*
X1662Y389D02*
X1681Y389D01*
X1715Y389D02*
X1734Y389D01*
X1662Y388D02*
X1681Y388D01*
X1715Y388D02*
X1734Y388D01*
X1662Y387D02*
X1681Y387D01*
X1714Y387D02*
X1733Y387D01*
X1662Y386D02*
X1682Y386D01*
X1714Y386D02*
X1733Y386D01*
X1663Y385D02*
X1683Y385D01*
X1713Y385D02*
X1733Y385D01*
X1663Y384D02*
X1683Y384D01*
X1712Y384D02*
X1733Y384D01*
X1663Y383D02*
X1684Y383D01*
X1711Y383D02*
X1732Y383D01*
X1664Y382D02*
X1685Y382D01*
X1710Y382D02*
X1732Y382D01*
X1664Y381D02*
X1686Y381D01*
X1709Y381D02*
X1732Y381D01*
X1665Y380D02*
X1688Y380D01*
X1708Y380D02*
X1731Y380D01*
X1665Y379D02*
X1689Y379D01*
X1706Y379D02*
X1731Y379D01*
X1665Y378D02*
X1692Y378D01*
X1704Y378D02*
X1730Y378D01*
X1666Y377D02*
X1730Y377D01*
X1667Y376D02*
X1729Y376D01*
X1667Y375D02*
X1729Y375D01*
X332Y374D02*
X337Y374D01*
X1668Y374D02*
X1728Y374D01*
X327Y373D02*
X343Y373D01*
X1492Y373D02*
X1504Y373D01*
X1668Y373D02*
X1727Y373D01*
X323Y372D02*
X346Y372D01*
X1488Y372D02*
X1508Y372D01*
X1669Y372D02*
X1727Y372D01*
X321Y371D02*
X349Y371D01*
X1485Y371D02*
X1511Y371D01*
X1670Y371D02*
X1726Y371D01*
X319Y370D02*
X351Y370D01*
X1483Y370D02*
X1513Y370D01*
X1671Y370D02*
X1725Y370D01*
X317Y369D02*
X353Y369D01*
X1481Y369D02*
X1515Y369D01*
X1672Y369D02*
X1724Y369D01*
X315Y368D02*
X354Y368D01*
X1479Y368D02*
X1517Y368D01*
X1673Y368D02*
X1723Y368D01*
X314Y367D02*
X356Y367D01*
X1477Y367D02*
X1519Y367D01*
X1674Y367D02*
X1722Y367D01*
X312Y366D02*
X357Y366D01*
X1476Y366D02*
X1520Y366D01*
X1675Y366D02*
X1721Y366D01*
X311Y365D02*
X359Y365D01*
X1475Y365D02*
X1521Y365D01*
X1676Y365D02*
X1719Y365D01*
X310Y364D02*
X360Y364D01*
X1474Y364D02*
X1522Y364D01*
X1678Y364D02*
X1718Y364D01*
X309Y363D02*
X361Y363D01*
X1472Y363D02*
X1524Y363D01*
X1679Y363D02*
X1716Y363D01*
X308Y362D02*
X362Y362D01*
X1472Y362D02*
X1525Y362D01*
X1681Y362D02*
X1714Y362D01*
X307Y361D02*
X363Y361D01*
X1471Y361D02*
X1525Y361D01*
X1683Y361D02*
X1712Y361D01*
X306Y360D02*
X363Y360D01*
X1470Y360D02*
X1526Y360D01*
X1686Y360D02*
X1710Y360D01*
X305Y359D02*
X364Y359D01*
X1469Y359D02*
X1527Y359D01*
X1689Y359D02*
X1707Y359D01*
X305Y358D02*
X365Y358D01*
X1468Y358D02*
X1528Y358D01*
X1694Y358D02*
X1702Y358D01*
X304Y357D02*
X365Y357D01*
X1468Y357D02*
X1528Y357D01*
X304Y356D02*
X366Y356D01*
X1467Y356D02*
X1529Y356D01*
X303Y355D02*
X367Y355D01*
X1467Y355D02*
X1530Y355D01*
X303Y354D02*
X329Y354D01*
X340Y354D02*
X367Y354D01*
X1466Y354D02*
X1495Y354D01*
X1501Y354D02*
X1530Y354D01*
X302Y353D02*
X327Y353D01*
X343Y353D02*
X368Y353D01*
X1466Y353D02*
X1491Y353D01*
X1505Y353D02*
X1531Y353D01*
X302Y352D02*
X325Y352D01*
X345Y352D02*
X368Y352D01*
X1465Y352D02*
X1489Y352D01*
X1507Y352D02*
X1531Y352D01*
X301Y351D02*
X324Y351D01*
X346Y351D02*
X368Y351D01*
X1465Y351D02*
X1487Y351D01*
X1509Y351D02*
X1532Y351D01*
X301Y350D02*
X322Y350D01*
X347Y350D02*
X369Y350D01*
X1464Y350D02*
X1486Y350D01*
X1510Y350D02*
X1532Y350D01*
X300Y349D02*
X321Y349D01*
X348Y349D02*
X369Y349D01*
X1464Y349D02*
X1485Y349D01*
X1511Y349D02*
X1532Y349D01*
X300Y348D02*
X321Y348D01*
X349Y348D02*
X370Y348D01*
X1463Y348D02*
X1484Y348D01*
X1512Y348D02*
X1533Y348D01*
X300Y347D02*
X320Y347D01*
X350Y347D02*
X370Y347D01*
X1463Y347D02*
X1483Y347D01*
X1513Y347D02*
X1533Y347D01*
X299Y346D02*
X319Y346D01*
X350Y346D02*
X370Y346D01*
X1463Y346D02*
X1483Y346D01*
X1513Y346D02*
X1533Y346D01*
X299Y345D02*
X319Y345D01*
X351Y345D02*
X370Y345D01*
X1463Y345D02*
X1482Y345D01*
X1514Y345D02*
X1533Y345D01*
X299Y344D02*
X318Y344D01*
X352Y344D02*
X371Y344D01*
X1462Y344D02*
X1481Y344D01*
X1515Y344D02*
X1534Y344D01*
X299Y343D02*
X318Y343D01*
X352Y343D02*
X371Y343D01*
X1462Y343D02*
X1481Y343D01*
X1515Y343D02*
X1534Y343D01*
X299Y342D02*
X317Y342D01*
X352Y342D02*
X371Y342D01*
X1462Y342D02*
X1481Y342D01*
X1515Y342D02*
X1534Y342D01*
X298Y341D02*
X317Y341D01*
X352Y341D02*
X371Y341D01*
X1462Y341D02*
X1480Y341D01*
X1516Y341D02*
X1534Y341D01*
X298Y340D02*
X317Y340D01*
X353Y340D02*
X371Y340D01*
X1462Y340D02*
X1480Y340D01*
X1516Y340D02*
X1534Y340D01*
X298Y339D02*
X317Y339D01*
X353Y339D02*
X371Y339D01*
X1462Y339D02*
X1480Y339D01*
X1516Y339D02*
X1534Y339D01*
X298Y338D02*
X317Y338D01*
X353Y338D02*
X371Y338D01*
X1462Y338D02*
X1480Y338D01*
X1516Y338D02*
X1535Y338D01*
X298Y337D02*
X317Y337D01*
X353Y337D02*
X371Y337D01*
X1462Y337D02*
X1480Y337D01*
X1516Y337D02*
X1535Y337D01*
X298Y336D02*
X317Y336D01*
X353Y336D02*
X371Y336D01*
X1462Y336D02*
X1480Y336D01*
X1516Y336D02*
X1535Y336D01*
X298Y335D02*
X317Y335D01*
X353Y335D02*
X371Y335D01*
X1462Y335D02*
X1480Y335D01*
X1516Y335D02*
X1534Y335D01*
X298Y334D02*
X317Y334D01*
X353Y334D02*
X371Y334D01*
X1462Y334D02*
X1480Y334D01*
X1516Y334D02*
X1534Y334D01*
X299Y333D02*
X317Y333D01*
X352Y333D02*
X371Y333D01*
X1462Y333D02*
X1480Y333D01*
X1516Y333D02*
X1534Y333D01*
X299Y332D02*
X317Y332D01*
X352Y332D02*
X371Y332D01*
X1462Y332D02*
X1481Y332D01*
X1515Y332D02*
X1534Y332D01*
X299Y331D02*
X318Y331D01*
X352Y331D02*
X371Y331D01*
X1462Y331D02*
X1481Y331D01*
X1515Y331D02*
X1534Y331D01*
X299Y330D02*
X318Y330D01*
X351Y330D02*
X371Y330D01*
X1462Y330D02*
X1481Y330D01*
X1515Y330D02*
X1534Y330D01*
X299Y329D02*
X319Y329D01*
X351Y329D02*
X370Y329D01*
X1462Y329D02*
X1482Y329D01*
X1514Y329D02*
X1534Y329D01*
X300Y328D02*
X319Y328D01*
X350Y328D02*
X370Y328D01*
X1463Y328D02*
X1482Y328D01*
X1514Y328D02*
X1533Y328D01*
X300Y327D02*
X320Y327D01*
X350Y327D02*
X370Y327D01*
X1463Y327D02*
X1483Y327D01*
X1513Y327D02*
X1533Y327D01*
X300Y326D02*
X321Y326D01*
X349Y326D02*
X369Y326D01*
X1463Y326D02*
X1484Y326D01*
X1512Y326D02*
X1533Y326D01*
X300Y325D02*
X322Y325D01*
X348Y325D02*
X369Y325D01*
X1464Y325D02*
X1485Y325D01*
X1512Y325D02*
X1532Y325D01*
X301Y324D02*
X323Y324D01*
X347Y324D02*
X369Y324D01*
X1464Y324D02*
X1486Y324D01*
X1511Y324D02*
X1532Y324D01*
X301Y323D02*
X324Y323D01*
X346Y323D02*
X368Y323D01*
X1464Y323D02*
X1487Y323D01*
X1509Y323D02*
X1532Y323D01*
X302Y322D02*
X325Y322D01*
X344Y322D02*
X368Y322D01*
X1465Y322D02*
X1488Y322D01*
X1508Y322D02*
X1531Y322D01*
X302Y321D02*
X327Y321D01*
X342Y321D02*
X367Y321D01*
X1465Y321D02*
X1490Y321D01*
X1507Y321D02*
X1531Y321D01*
X303Y320D02*
X330Y320D01*
X339Y320D02*
X367Y320D01*
X1466Y320D02*
X1492Y320D01*
X1504Y320D02*
X1530Y320D01*
X303Y319D02*
X366Y319D01*
X1466Y319D02*
X1530Y319D01*
X304Y318D02*
X366Y318D01*
X1467Y318D02*
X1529Y318D01*
X304Y317D02*
X365Y317D01*
X1467Y317D02*
X1529Y317D01*
X305Y316D02*
X365Y316D01*
X1468Y316D02*
X1528Y316D01*
X306Y315D02*
X364Y315D01*
X1469Y315D02*
X1527Y315D01*
X306Y314D02*
X363Y314D01*
X1469Y314D02*
X1527Y314D01*
X307Y313D02*
X362Y313D01*
X1470Y313D02*
X1526Y313D01*
X308Y312D02*
X361Y312D01*
X1471Y312D02*
X1525Y312D01*
X309Y311D02*
X360Y311D01*
X1472Y311D02*
X1524Y311D01*
X310Y310D02*
X359Y310D01*
X1473Y310D02*
X1523Y310D01*
X311Y309D02*
X358Y309D01*
X1474Y309D02*
X1522Y309D01*
X313Y308D02*
X357Y308D01*
X1475Y308D02*
X1521Y308D01*
X314Y307D02*
X356Y307D01*
X1477Y307D02*
X1519Y307D01*
X315Y306D02*
X354Y306D01*
X1478Y306D02*
X1518Y306D01*
X317Y305D02*
X352Y305D01*
X1480Y305D02*
X1516Y305D01*
X319Y304D02*
X350Y304D01*
X1482Y304D02*
X1515Y304D01*
X321Y303D02*
X348Y303D01*
X1484Y303D02*
X1512Y303D01*
X324Y302D02*
X345Y302D01*
X1486Y302D02*
X1510Y302D01*
X328Y301D02*
X342Y301D01*
X1489Y301D02*
X1507Y301D01*
X1494Y300D02*
X1502Y300D01*
X334Y274D02*
X335Y274D01*
X327Y273D02*
X342Y273D01*
X324Y272D02*
X346Y272D01*
X321Y271D02*
X349Y271D01*
X319Y270D02*
X351Y270D01*
X317Y269D02*
X353Y269D01*
X315Y268D02*
X354Y268D01*
X314Y267D02*
X356Y267D01*
X312Y266D02*
X357Y266D01*
X311Y265D02*
X358Y265D01*
X310Y264D02*
X360Y264D01*
X309Y263D02*
X361Y263D01*
X308Y262D02*
X362Y262D01*
X307Y261D02*
X362Y261D01*
X306Y260D02*
X363Y260D01*
X306Y259D02*
X364Y259D01*
X305Y258D02*
X365Y258D01*
X304Y257D02*
X365Y257D01*
X304Y256D02*
X366Y256D01*
X303Y255D02*
X366Y255D01*
X303Y254D02*
X330Y254D01*
X340Y254D02*
X367Y254D01*
X302Y253D02*
X327Y253D01*
X343Y253D02*
X367Y253D01*
X302Y252D02*
X325Y252D01*
X344Y252D02*
X368Y252D01*
X301Y251D02*
X324Y251D01*
X346Y251D02*
X368Y251D01*
X301Y250D02*
X323Y250D01*
X347Y250D02*
X369Y250D01*
X300Y249D02*
X322Y249D01*
X348Y249D02*
X369Y249D01*
X300Y248D02*
X321Y248D01*
X349Y248D02*
X369Y248D01*
X300Y247D02*
X320Y247D01*
X350Y247D02*
X370Y247D01*
X300Y246D02*
X319Y246D01*
X350Y246D02*
X370Y246D01*
X299Y245D02*
X319Y245D01*
X351Y245D02*
X370Y245D01*
X299Y244D02*
X318Y244D01*
X352Y244D02*
X371Y244D01*
X299Y243D02*
X318Y243D01*
X352Y243D02*
X371Y243D01*
X299Y242D02*
X317Y242D01*
X352Y242D02*
X371Y242D01*
X298Y241D02*
X317Y241D01*
X352Y241D02*
X371Y241D01*
X298Y240D02*
X317Y240D01*
X353Y240D02*
X371Y240D01*
X298Y239D02*
X317Y239D01*
X353Y239D02*
X371Y239D01*
X298Y238D02*
X317Y238D01*
X353Y238D02*
X371Y238D01*
X298Y237D02*
X317Y237D01*
X353Y237D02*
X371Y237D01*
X298Y236D02*
X317Y236D01*
X353Y236D02*
X371Y236D01*
X298Y235D02*
X317Y235D01*
X353Y235D02*
X371Y235D01*
X298Y234D02*
X317Y234D01*
X353Y234D02*
X371Y234D01*
X298Y233D02*
X317Y233D01*
X352Y233D02*
X371Y233D01*
X299Y232D02*
X317Y232D01*
X352Y232D02*
X371Y232D01*
X299Y231D02*
X318Y231D01*
X352Y231D02*
X371Y231D01*
X299Y230D02*
X318Y230D01*
X351Y230D02*
X371Y230D01*
X299Y229D02*
X319Y229D01*
X351Y229D02*
X370Y229D01*
X300Y228D02*
X319Y228D01*
X350Y228D02*
X370Y228D01*
X300Y227D02*
X320Y227D01*
X350Y227D02*
X370Y227D01*
X300Y226D02*
X321Y226D01*
X349Y226D02*
X369Y226D01*
X300Y225D02*
X322Y225D01*
X348Y225D02*
X369Y225D01*
X301Y224D02*
X323Y224D01*
X347Y224D02*
X369Y224D01*
X301Y223D02*
X324Y223D01*
X346Y223D02*
X368Y223D01*
X302Y222D02*
X325Y222D01*
X344Y222D02*
X368Y222D01*
X302Y221D02*
X327Y221D01*
X343Y221D02*
X367Y221D01*
X303Y220D02*
X330Y220D01*
X340Y220D02*
X367Y220D01*
X303Y219D02*
X366Y219D01*
X304Y218D02*
X366Y218D01*
X304Y217D02*
X365Y217D01*
X305Y216D02*
X365Y216D01*
X306Y215D02*
X364Y215D01*
X306Y214D02*
X363Y214D01*
X307Y213D02*
X362Y213D01*
X308Y212D02*
X362Y212D01*
X309Y211D02*
X361Y211D01*
X310Y210D02*
X360Y210D01*
X311Y209D02*
X358Y209D01*
X312Y208D02*
X357Y208D01*
X314Y207D02*
X356Y207D01*
X315Y206D02*
X354Y206D01*
X317Y205D02*
X353Y205D01*
X319Y204D02*
X351Y204D01*
X321Y203D02*
X348Y203D01*
X324Y202D02*
X346Y202D01*
X327Y201D02*
X342Y201D01*
X335Y200D02*
X335Y200D01*
D02*
G04 End of Copper0*
M02*