; NON-PLATED HOLES START AT T1
; THROUGH (PLATED) HOLES START AT T100
M48
INCH
T1C0.118110
T100C0.015748
T101C0.086614
T102C0.035050
T103C0.035000
%
T1
X012448Y026040
X008989Y005448
X012989Y003448
X010989Y003448
X008989Y007448
X007351Y026040
X010989Y007448
X012989Y005448
X012989Y007448
X010989Y005448
T100
X007986Y008557
T101
X001650Y001751
X001666Y025864
X017951Y025865
X017970Y001751
T102
X003353Y006361
X003353Y003357
X005368Y020760
X014379Y019759
X014379Y010746
X014379Y021762
X005368Y010746
X005368Y023765
X005368Y011747
X014379Y018757
X005368Y015753
X014379Y011747
X005368Y022763
X014379Y023765
X014379Y020760
X014379Y016754
X005368Y024766
X003353Y005360
X005368Y012749
X005368Y021762
X005368Y014751
X016987Y003932
X014379Y017756
X014989Y004354
X010332Y024556
X014379Y014751
X003353Y002355
X009331Y024556
X005368Y016754
X011334Y024556
X014989Y006357
X014379Y022763
X014989Y005355
X005368Y019759
X005368Y017756
X016987Y005935
X014379Y024766
X005368Y018757
X005368Y013750
X014379Y013750
X003353Y004358
X016987Y006936
X016987Y004934
X014379Y012749
X014379Y015753
X008329Y024556
X014989Y003352
T103
X001561Y013559
X018069Y009559
X017989Y008559
X017989Y018559
X001481Y010559
X017989Y012559
X001481Y016559
X018069Y023559
X018069Y021559
X018069Y013559
X018989Y007559
X017989Y022559
X001481Y022559
X018989Y003559
X001561Y011559
X018069Y011559
X018069Y017559
X017989Y010559
X001561Y015559
X001481Y020559
X001561Y009559
X017989Y020559
X001481Y018559
X017989Y016559
X001481Y008559
X018069Y015559
X001481Y012559
X017989Y007559
X018069Y019559
X001481Y014559
X001561Y017559
X001561Y023559
X001561Y019559
X017989Y003559
X017989Y014559
X001561Y021559
T00
M30
