G04 MADE WITH FRITZING*
G04 WWW.FRITZING.ORG*
G04 DOUBLE SIDED*
G04 HOLES PLATED*
G04 CONTOUR ON CENTER OF CONTOUR VECTOR*
%ASAXBY*%
%FSLAX23Y23*%
%MOIN*%
%OFA0B0*%
%SFA1.0B1.0*%
%ADD10C,0.075000*%
%ADD11C,0.055000*%
%ADD12C,0.074106*%
%ADD13C,0.196850*%
%ADD14C,0.024000*%
%ADD15R,0.001000X0.001000*%
%LNCOPPER0*%
G90*
G70*
G54D10*
X1899Y356D03*
X1899Y756D03*
X1799Y356D03*
X1799Y756D03*
G54D11*
X148Y856D03*
X156Y956D03*
X148Y1056D03*
X156Y1156D03*
X148Y1256D03*
X156Y1356D03*
X148Y1456D03*
X156Y1556D03*
X148Y1656D03*
X156Y1756D03*
X148Y1856D03*
X156Y1956D03*
X148Y2056D03*
X156Y2156D03*
X148Y2256D03*
X156Y2356D03*
X1799Y856D03*
X1807Y956D03*
X1799Y1056D03*
X1807Y1156D03*
X1799Y1256D03*
X1807Y1356D03*
X1799Y1456D03*
X1807Y1556D03*
X1799Y1656D03*
X1807Y1756D03*
X1799Y1856D03*
X1807Y1956D03*
X1799Y2056D03*
X1807Y2156D03*
X1799Y2256D03*
X1807Y2356D03*
G54D12*
X1699Y393D03*
X1699Y493D03*
X1699Y594D03*
X1699Y694D03*
X1699Y393D03*
X1699Y493D03*
X1699Y594D03*
X1699Y694D03*
G54D13*
X1797Y175D03*
X165Y175D03*
X1795Y2587D03*
X1795Y2587D03*
X167Y2586D03*
X167Y2586D03*
G54D12*
X537Y1075D03*
X537Y1175D03*
X537Y1275D03*
X537Y1375D03*
X537Y1475D03*
X537Y1575D03*
X537Y1675D03*
X537Y1776D03*
X537Y1876D03*
X537Y1976D03*
X537Y2076D03*
X537Y2176D03*
X537Y2276D03*
X537Y2377D03*
X537Y2477D03*
X1438Y1075D03*
X1438Y1175D03*
X1438Y1275D03*
X1438Y1375D03*
X1438Y1475D03*
X1438Y1575D03*
X1438Y1675D03*
X1438Y1776D03*
X1438Y1876D03*
X1438Y1976D03*
X1438Y2076D03*
X1438Y2176D03*
X1438Y2276D03*
X1438Y2377D03*
X1438Y2477D03*
X537Y1075D03*
X537Y1175D03*
X537Y1275D03*
X537Y1375D03*
X537Y1475D03*
X537Y1575D03*
X537Y1675D03*
X537Y1776D03*
X537Y1876D03*
X537Y1976D03*
X537Y2076D03*
X537Y2176D03*
X537Y2276D03*
X537Y2377D03*
X537Y2477D03*
X1438Y1075D03*
X1438Y1175D03*
X1438Y1275D03*
X1438Y1375D03*
X1438Y1475D03*
X1438Y1575D03*
X1438Y1675D03*
X1438Y1776D03*
X1438Y1876D03*
X1438Y1976D03*
X1438Y2076D03*
X1438Y2176D03*
X1438Y2276D03*
X1438Y2377D03*
X1438Y2477D03*
X1499Y335D03*
X1499Y435D03*
X1499Y536D03*
X1499Y636D03*
X335Y236D03*
X335Y336D03*
X335Y436D03*
X335Y536D03*
X335Y636D03*
X833Y2456D03*
X933Y2456D03*
X1033Y2456D03*
X1133Y2456D03*
G54D14*
X1522Y519D02*
X1675Y410D01*
D02*
X1799Y556D02*
X1726Y583D01*
D02*
X1799Y385D02*
X1799Y556D01*
D02*
X1899Y656D02*
X1727Y688D01*
D02*
X1899Y385D02*
X1899Y656D01*
D02*
X1799Y827D02*
X1799Y785D01*
D02*
X1828Y756D02*
X1870Y756D01*
D02*
X1899Y2455D02*
X1466Y2381D01*
D02*
X1899Y1660D02*
X1899Y2455D01*
D02*
X1704Y851D02*
X1770Y854D01*
D02*
X84Y1824D02*
X122Y1843D01*
D02*
X84Y1592D02*
X84Y1824D01*
D02*
X131Y1569D02*
X84Y1592D01*
D02*
X85Y1912D02*
X127Y1875D01*
D02*
X84Y2312D02*
X85Y1912D01*
D02*
X132Y2341D02*
X84Y2312D01*
D02*
X576Y2579D02*
X396Y2582D01*
D02*
X728Y2489D02*
X576Y2579D01*
D02*
X850Y2555D02*
X728Y2489D01*
D02*
X1083Y2557D02*
X850Y2555D01*
D02*
X1121Y2481D02*
X1083Y2557D01*
D02*
X396Y2582D02*
X177Y2376D01*
D02*
X236Y1917D02*
X182Y1943D01*
D02*
X235Y1504D02*
X236Y1917D01*
D02*
X173Y1470D02*
X235Y1504D01*
D02*
X509Y2082D02*
X184Y2150D01*
D02*
X294Y1412D02*
X183Y1367D01*
D02*
X297Y2010D02*
X294Y1412D01*
D02*
X176Y2048D02*
X297Y2010D01*
D02*
X795Y1471D02*
X1409Y1475D01*
D02*
X1461Y1793D02*
X1776Y2038D01*
D02*
X1461Y1893D02*
X1784Y2139D01*
D02*
X1776Y2238D02*
X1461Y1993D01*
D02*
X1784Y2339D02*
X1461Y2093D01*
D02*
X509Y1980D02*
X297Y2010D01*
D02*
X672Y1295D02*
X828Y1374D01*
D02*
X619Y1372D02*
X795Y1471D01*
D02*
X301Y1217D02*
X300Y1312D01*
D02*
X300Y1312D02*
X184Y1348D01*
D02*
X182Y1167D02*
X301Y1217D01*
D02*
X612Y1004D02*
X619Y1372D01*
D02*
X666Y956D02*
X672Y1295D01*
D02*
X499Y456D02*
X666Y956D01*
D02*
X364Y439D02*
X499Y456D01*
D02*
X828Y1374D02*
X1409Y1375D01*
D02*
X463Y548D02*
X612Y1004D01*
D02*
X364Y539D02*
X463Y548D01*
D02*
X1699Y1756D02*
X1778Y1756D01*
D02*
X1699Y1356D02*
X1699Y1756D01*
D02*
X1899Y1660D02*
X1828Y1657D01*
D02*
X1898Y1270D02*
X1899Y1660D01*
D02*
X1699Y1356D02*
X1778Y1356D01*
D02*
X1898Y1270D02*
X1827Y1260D01*
D02*
X1899Y956D02*
X1898Y1270D01*
D02*
X1836Y956D02*
X1899Y956D01*
D02*
X1314Y2470D02*
X1199Y2356D01*
D02*
X959Y2353D02*
X940Y2428D01*
D02*
X1199Y2356D02*
X959Y2353D01*
D02*
X1409Y2475D02*
X1314Y2470D01*
D02*
X1602Y1216D02*
X1465Y1265D01*
D02*
X1598Y757D02*
X1602Y1216D01*
D02*
X1675Y709D02*
X1598Y757D01*
D02*
X1699Y1356D02*
X1460Y1557D01*
D02*
X1704Y851D02*
X1699Y1356D01*
D02*
X805Y2448D02*
X565Y2384D01*
G54D15*
X532Y2514D02*
X540Y2514D01*
X1433Y2514D02*
X1441Y2514D01*
X527Y2513D02*
X545Y2513D01*
X1428Y2513D02*
X1446Y2513D01*
X524Y2512D02*
X548Y2512D01*
X1425Y2512D02*
X1449Y2512D01*
X522Y2511D02*
X551Y2511D01*
X1423Y2511D02*
X1452Y2511D01*
X520Y2510D02*
X553Y2510D01*
X1421Y2510D02*
X1454Y2510D01*
X518Y2509D02*
X555Y2509D01*
X1419Y2509D02*
X1455Y2509D01*
X516Y2508D02*
X556Y2508D01*
X1417Y2508D02*
X1457Y2508D01*
X515Y2507D02*
X558Y2507D01*
X1416Y2507D02*
X1459Y2507D01*
X513Y2506D02*
X559Y2506D01*
X1414Y2506D02*
X1460Y2506D01*
X512Y2505D02*
X560Y2505D01*
X1413Y2505D02*
X1461Y2505D01*
X511Y2504D02*
X561Y2504D01*
X1412Y2504D02*
X1462Y2504D01*
X510Y2503D02*
X562Y2503D01*
X1411Y2503D02*
X1463Y2503D01*
X509Y2502D02*
X563Y2502D01*
X1410Y2502D02*
X1464Y2502D01*
X508Y2501D02*
X564Y2501D01*
X1409Y2501D02*
X1465Y2501D01*
X508Y2500D02*
X565Y2500D01*
X1408Y2500D02*
X1466Y2500D01*
X507Y2499D02*
X566Y2499D01*
X1408Y2499D02*
X1467Y2499D01*
X506Y2498D02*
X566Y2498D01*
X1407Y2498D02*
X1467Y2498D01*
X506Y2497D02*
X567Y2497D01*
X1406Y2497D02*
X1468Y2497D01*
X505Y2496D02*
X567Y2496D01*
X1406Y2496D02*
X1468Y2496D01*
X504Y2495D02*
X568Y2495D01*
X1405Y2495D02*
X1469Y2495D01*
X504Y2494D02*
X530Y2494D01*
X542Y2494D02*
X569Y2494D01*
X1405Y2494D02*
X1431Y2494D01*
X1443Y2494D02*
X1469Y2494D01*
X503Y2493D02*
X528Y2493D01*
X545Y2493D02*
X569Y2493D01*
X828Y2493D02*
X837Y2493D01*
X928Y2493D02*
X937Y2493D01*
X1028Y2493D02*
X1037Y2493D01*
X1128Y2493D02*
X1137Y2493D01*
X1404Y2493D02*
X1429Y2493D01*
X1446Y2493D02*
X1470Y2493D01*
X503Y2492D02*
X526Y2492D01*
X546Y2492D02*
X570Y2492D01*
X823Y2492D02*
X841Y2492D01*
X923Y2492D02*
X941Y2492D01*
X1024Y2492D02*
X1041Y2492D01*
X1124Y2492D02*
X1142Y2492D01*
X1404Y2492D02*
X1427Y2492D01*
X1447Y2492D02*
X1470Y2492D01*
X502Y2491D02*
X525Y2491D01*
X548Y2491D02*
X570Y2491D01*
X820Y2491D02*
X844Y2491D01*
X920Y2491D02*
X944Y2491D01*
X1020Y2491D02*
X1045Y2491D01*
X1121Y2491D02*
X1145Y2491D01*
X1403Y2491D02*
X1426Y2491D01*
X1449Y2491D02*
X1471Y2491D01*
X502Y2490D02*
X524Y2490D01*
X549Y2490D02*
X570Y2490D01*
X818Y2490D02*
X847Y2490D01*
X918Y2490D02*
X947Y2490D01*
X1018Y2490D02*
X1047Y2490D01*
X1118Y2490D02*
X1147Y2490D01*
X1403Y2490D02*
X1425Y2490D01*
X1450Y2490D02*
X1471Y2490D01*
X502Y2489D02*
X523Y2489D01*
X550Y2489D02*
X571Y2489D01*
X816Y2489D02*
X849Y2489D01*
X916Y2489D02*
X949Y2489D01*
X1016Y2489D02*
X1049Y2489D01*
X1116Y2489D02*
X1149Y2489D01*
X1403Y2489D02*
X1424Y2489D01*
X1451Y2489D02*
X1472Y2489D01*
X501Y2488D02*
X522Y2488D01*
X551Y2488D02*
X571Y2488D01*
X814Y2488D02*
X851Y2488D01*
X914Y2488D02*
X951Y2488D01*
X1014Y2488D02*
X1051Y2488D01*
X1114Y2488D02*
X1151Y2488D01*
X1402Y2488D02*
X1423Y2488D01*
X1451Y2488D02*
X1472Y2488D01*
X501Y2487D02*
X521Y2487D01*
X551Y2487D02*
X571Y2487D01*
X812Y2487D02*
X852Y2487D01*
X912Y2487D02*
X952Y2487D01*
X1012Y2487D02*
X1053Y2487D01*
X1113Y2487D02*
X1153Y2487D01*
X1402Y2487D02*
X1422Y2487D01*
X1452Y2487D02*
X1472Y2487D01*
X501Y2486D02*
X520Y2486D01*
X552Y2486D02*
X572Y2486D01*
X811Y2486D02*
X854Y2486D01*
X911Y2486D02*
X954Y2486D01*
X1011Y2486D02*
X1054Y2486D01*
X1111Y2486D02*
X1154Y2486D01*
X1402Y2486D02*
X1421Y2486D01*
X1453Y2486D02*
X1472Y2486D01*
X501Y2485D02*
X520Y2485D01*
X553Y2485D02*
X572Y2485D01*
X809Y2485D02*
X855Y2485D01*
X909Y2485D02*
X955Y2485D01*
X1010Y2485D02*
X1055Y2485D01*
X1110Y2485D02*
X1156Y2485D01*
X1402Y2485D02*
X1421Y2485D01*
X1453Y2485D02*
X1473Y2485D01*
X500Y2484D02*
X519Y2484D01*
X553Y2484D02*
X572Y2484D01*
X808Y2484D02*
X856Y2484D01*
X908Y2484D02*
X956Y2484D01*
X1008Y2484D02*
X1057Y2484D01*
X1109Y2484D02*
X1157Y2484D01*
X1401Y2484D02*
X1420Y2484D01*
X1454Y2484D02*
X1473Y2484D01*
X500Y2483D02*
X519Y2483D01*
X553Y2483D02*
X572Y2483D01*
X807Y2483D02*
X857Y2483D01*
X907Y2483D02*
X958Y2483D01*
X1007Y2483D02*
X1058Y2483D01*
X1107Y2483D02*
X1158Y2483D01*
X1401Y2483D02*
X1420Y2483D01*
X1454Y2483D02*
X1473Y2483D01*
X500Y2482D02*
X519Y2482D01*
X554Y2482D02*
X572Y2482D01*
X806Y2482D02*
X858Y2482D01*
X906Y2482D02*
X959Y2482D01*
X1006Y2482D02*
X1059Y2482D01*
X1106Y2482D02*
X1159Y2482D01*
X1401Y2482D02*
X1420Y2482D01*
X1455Y2482D02*
X1473Y2482D01*
X500Y2481D02*
X518Y2481D01*
X554Y2481D02*
X573Y2481D01*
X805Y2481D02*
X859Y2481D01*
X905Y2481D02*
X959Y2481D01*
X1005Y2481D02*
X1060Y2481D01*
X1106Y2481D02*
X1160Y2481D01*
X1401Y2481D02*
X1419Y2481D01*
X1455Y2481D02*
X1473Y2481D01*
X500Y2480D02*
X518Y2480D01*
X554Y2480D02*
X573Y2480D01*
X804Y2480D02*
X860Y2480D01*
X904Y2480D02*
X960Y2480D01*
X1005Y2480D02*
X1060Y2480D01*
X1105Y2480D02*
X1161Y2480D01*
X1401Y2480D02*
X1419Y2480D01*
X1455Y2480D02*
X1474Y2480D01*
X500Y2479D02*
X518Y2479D01*
X554Y2479D02*
X573Y2479D01*
X804Y2479D02*
X861Y2479D01*
X904Y2479D02*
X961Y2479D01*
X1004Y2479D02*
X1061Y2479D01*
X1104Y2479D02*
X1161Y2479D01*
X1401Y2479D02*
X1419Y2479D01*
X1455Y2479D02*
X1474Y2479D01*
X500Y2478D02*
X518Y2478D01*
X554Y2478D02*
X573Y2478D01*
X803Y2478D02*
X862Y2478D01*
X903Y2478D02*
X962Y2478D01*
X1003Y2478D02*
X1062Y2478D01*
X1103Y2478D02*
X1162Y2478D01*
X1401Y2478D02*
X1419Y2478D01*
X1455Y2478D02*
X1474Y2478D01*
X500Y2477D02*
X518Y2477D01*
X554Y2477D02*
X573Y2477D01*
X802Y2477D02*
X862Y2477D01*
X902Y2477D02*
X963Y2477D01*
X1002Y2477D02*
X1063Y2477D01*
X1103Y2477D02*
X1163Y2477D01*
X1401Y2477D02*
X1419Y2477D01*
X1455Y2477D02*
X1474Y2477D01*
X500Y2476D02*
X518Y2476D01*
X554Y2476D02*
X573Y2476D01*
X802Y2476D02*
X863Y2476D01*
X902Y2476D02*
X963Y2476D01*
X1002Y2476D02*
X1063Y2476D01*
X1102Y2476D02*
X1163Y2476D01*
X1401Y2476D02*
X1419Y2476D01*
X1455Y2476D02*
X1474Y2476D01*
X500Y2475D02*
X518Y2475D01*
X554Y2475D02*
X573Y2475D01*
X801Y2475D02*
X864Y2475D01*
X901Y2475D02*
X964Y2475D01*
X1001Y2475D02*
X1064Y2475D01*
X1101Y2475D02*
X1164Y2475D01*
X1401Y2475D02*
X1419Y2475D01*
X1455Y2475D02*
X1474Y2475D01*
X500Y2474D02*
X518Y2474D01*
X554Y2474D02*
X573Y2474D01*
X800Y2474D02*
X864Y2474D01*
X900Y2474D02*
X964Y2474D01*
X1001Y2474D02*
X1064Y2474D01*
X1101Y2474D02*
X1165Y2474D01*
X1401Y2474D02*
X1419Y2474D01*
X1455Y2474D02*
X1473Y2474D01*
X500Y2473D02*
X519Y2473D01*
X554Y2473D02*
X572Y2473D01*
X800Y2473D02*
X826Y2473D01*
X839Y2473D02*
X865Y2473D01*
X900Y2473D02*
X926Y2473D01*
X939Y2473D02*
X965Y2473D01*
X1000Y2473D02*
X1026Y2473D01*
X1039Y2473D02*
X1065Y2473D01*
X1100Y2473D02*
X1126Y2473D01*
X1139Y2473D02*
X1165Y2473D01*
X1401Y2473D02*
X1420Y2473D01*
X1455Y2473D02*
X1473Y2473D01*
X500Y2472D02*
X519Y2472D01*
X553Y2472D02*
X572Y2472D01*
X799Y2472D02*
X824Y2472D01*
X841Y2472D02*
X865Y2472D01*
X900Y2472D02*
X924Y2472D01*
X941Y2472D02*
X965Y2472D01*
X1000Y2472D02*
X1024Y2472D01*
X1041Y2472D02*
X1065Y2472D01*
X1100Y2472D02*
X1124Y2472D01*
X1141Y2472D02*
X1165Y2472D01*
X1401Y2472D02*
X1420Y2472D01*
X1454Y2472D02*
X1473Y2472D01*
X500Y2471D02*
X519Y2471D01*
X553Y2471D02*
X572Y2471D01*
X799Y2471D02*
X822Y2471D01*
X843Y2471D02*
X866Y2471D01*
X899Y2471D02*
X922Y2471D01*
X943Y2471D02*
X966Y2471D01*
X999Y2471D02*
X1022Y2471D01*
X1043Y2471D02*
X1066Y2471D01*
X1099Y2471D02*
X1122Y2471D01*
X1143Y2471D02*
X1166Y2471D01*
X1401Y2471D02*
X1420Y2471D01*
X1454Y2471D02*
X1473Y2471D01*
X501Y2470D02*
X520Y2470D01*
X553Y2470D02*
X572Y2470D01*
X799Y2470D02*
X821Y2470D01*
X844Y2470D02*
X866Y2470D01*
X899Y2470D02*
X921Y2470D01*
X944Y2470D02*
X966Y2470D01*
X999Y2470D02*
X1021Y2470D01*
X1044Y2470D02*
X1066Y2470D01*
X1099Y2470D02*
X1121Y2470D01*
X1144Y2470D02*
X1166Y2470D01*
X1401Y2470D02*
X1421Y2470D01*
X1454Y2470D02*
X1473Y2470D01*
X501Y2469D02*
X520Y2469D01*
X552Y2469D02*
X572Y2469D01*
X798Y2469D02*
X820Y2469D01*
X845Y2469D02*
X866Y2469D01*
X898Y2469D02*
X920Y2469D01*
X945Y2469D02*
X966Y2469D01*
X998Y2469D02*
X1020Y2469D01*
X1045Y2469D02*
X1067Y2469D01*
X1099Y2469D02*
X1120Y2469D01*
X1145Y2469D02*
X1167Y2469D01*
X1402Y2469D02*
X1421Y2469D01*
X1453Y2469D02*
X1473Y2469D01*
X501Y2468D02*
X521Y2468D01*
X552Y2468D02*
X571Y2468D01*
X798Y2468D02*
X819Y2468D01*
X846Y2468D02*
X867Y2468D01*
X898Y2468D02*
X919Y2468D01*
X946Y2468D02*
X967Y2468D01*
X998Y2468D02*
X1019Y2468D01*
X1046Y2468D02*
X1067Y2468D01*
X1098Y2468D02*
X1119Y2468D01*
X1146Y2468D02*
X1167Y2468D01*
X1402Y2468D02*
X1422Y2468D01*
X1453Y2468D02*
X1472Y2468D01*
X501Y2467D02*
X522Y2467D01*
X551Y2467D02*
X571Y2467D01*
X797Y2467D02*
X818Y2467D01*
X847Y2467D02*
X867Y2467D01*
X898Y2467D02*
X918Y2467D01*
X947Y2467D02*
X967Y2467D01*
X998Y2467D02*
X1018Y2467D01*
X1047Y2467D02*
X1067Y2467D01*
X1098Y2467D02*
X1118Y2467D01*
X1147Y2467D02*
X1167Y2467D01*
X1402Y2467D02*
X1422Y2467D01*
X1452Y2467D02*
X1472Y2467D01*
X502Y2466D02*
X522Y2466D01*
X550Y2466D02*
X571Y2466D01*
X797Y2466D02*
X817Y2466D01*
X847Y2466D02*
X867Y2466D01*
X897Y2466D02*
X917Y2466D01*
X948Y2466D02*
X967Y2466D01*
X997Y2466D02*
X1017Y2466D01*
X1048Y2466D02*
X1068Y2466D01*
X1098Y2466D02*
X1117Y2466D01*
X1148Y2466D02*
X1168Y2466D01*
X1403Y2466D02*
X1423Y2466D01*
X1451Y2466D02*
X1472Y2466D01*
X502Y2465D02*
X523Y2465D01*
X549Y2465D02*
X570Y2465D01*
X797Y2465D02*
X816Y2465D01*
X848Y2465D02*
X868Y2465D01*
X897Y2465D02*
X917Y2465D01*
X948Y2465D02*
X968Y2465D01*
X997Y2465D02*
X1017Y2465D01*
X1048Y2465D02*
X1068Y2465D01*
X1097Y2465D02*
X1117Y2465D01*
X1148Y2465D02*
X1168Y2465D01*
X1403Y2465D02*
X1424Y2465D01*
X1450Y2465D02*
X1471Y2465D01*
X502Y2464D02*
X524Y2464D01*
X548Y2464D02*
X570Y2464D01*
X797Y2464D02*
X816Y2464D01*
X849Y2464D02*
X868Y2464D01*
X897Y2464D02*
X916Y2464D01*
X949Y2464D02*
X968Y2464D01*
X997Y2464D02*
X1016Y2464D01*
X1049Y2464D02*
X1068Y2464D01*
X1097Y2464D02*
X1116Y2464D01*
X1149Y2464D02*
X1168Y2464D01*
X1403Y2464D02*
X1425Y2464D01*
X1449Y2464D02*
X1471Y2464D01*
X503Y2463D02*
X526Y2463D01*
X547Y2463D02*
X570Y2463D01*
X796Y2463D02*
X815Y2463D01*
X849Y2463D02*
X868Y2463D01*
X897Y2463D02*
X916Y2463D01*
X949Y2463D02*
X968Y2463D01*
X997Y2463D02*
X1016Y2463D01*
X1049Y2463D02*
X1068Y2463D01*
X1097Y2463D02*
X1116Y2463D01*
X1150Y2463D02*
X1168Y2463D01*
X1404Y2463D02*
X1426Y2463D01*
X1448Y2463D02*
X1471Y2463D01*
X503Y2462D02*
X527Y2462D01*
X545Y2462D02*
X569Y2462D01*
X796Y2462D02*
X815Y2462D01*
X849Y2462D02*
X868Y2462D01*
X896Y2462D02*
X915Y2462D01*
X950Y2462D02*
X968Y2462D01*
X997Y2462D02*
X1015Y2462D01*
X1050Y2462D02*
X1069Y2462D01*
X1097Y2462D02*
X1115Y2462D01*
X1150Y2462D02*
X1169Y2462D01*
X1404Y2462D02*
X1428Y2462D01*
X1446Y2462D02*
X1470Y2462D01*
X504Y2461D02*
X529Y2461D01*
X543Y2461D02*
X569Y2461D01*
X796Y2461D02*
X815Y2461D01*
X850Y2461D02*
X868Y2461D01*
X896Y2461D02*
X915Y2461D01*
X950Y2461D02*
X969Y2461D01*
X996Y2461D02*
X1015Y2461D01*
X1050Y2461D02*
X1069Y2461D01*
X1096Y2461D02*
X1115Y2461D01*
X1150Y2461D02*
X1169Y2461D01*
X1405Y2461D02*
X1430Y2461D01*
X1444Y2461D02*
X1470Y2461D01*
X504Y2460D02*
X533Y2460D01*
X539Y2460D02*
X568Y2460D01*
X796Y2460D02*
X815Y2460D01*
X850Y2460D02*
X869Y2460D01*
X896Y2460D02*
X915Y2460D01*
X950Y2460D02*
X969Y2460D01*
X996Y2460D02*
X1015Y2460D01*
X1050Y2460D02*
X1069Y2460D01*
X1096Y2460D02*
X1115Y2460D01*
X1150Y2460D02*
X1169Y2460D01*
X1405Y2460D02*
X1434Y2460D01*
X1440Y2460D02*
X1469Y2460D01*
X505Y2459D02*
X568Y2459D01*
X796Y2459D02*
X814Y2459D01*
X850Y2459D02*
X869Y2459D01*
X896Y2459D02*
X915Y2459D01*
X950Y2459D02*
X969Y2459D01*
X996Y2459D02*
X1015Y2459D01*
X1050Y2459D02*
X1069Y2459D01*
X1096Y2459D02*
X1115Y2459D01*
X1150Y2459D02*
X1169Y2459D01*
X1406Y2459D02*
X1469Y2459D01*
X505Y2458D02*
X567Y2458D01*
X796Y2458D02*
X814Y2458D01*
X850Y2458D02*
X869Y2458D01*
X896Y2458D02*
X915Y2458D01*
X950Y2458D02*
X969Y2458D01*
X996Y2458D02*
X1015Y2458D01*
X1050Y2458D02*
X1069Y2458D01*
X1096Y2458D02*
X1115Y2458D01*
X1151Y2458D02*
X1169Y2458D01*
X1406Y2458D02*
X1468Y2458D01*
X506Y2457D02*
X567Y2457D01*
X796Y2457D02*
X814Y2457D01*
X850Y2457D02*
X869Y2457D01*
X896Y2457D02*
X914Y2457D01*
X950Y2457D02*
X969Y2457D01*
X996Y2457D02*
X1015Y2457D01*
X1050Y2457D02*
X1069Y2457D01*
X1096Y2457D02*
X1115Y2457D01*
X1151Y2457D02*
X1169Y2457D01*
X1407Y2457D02*
X1467Y2457D01*
X507Y2456D02*
X566Y2456D01*
X796Y2456D02*
X814Y2456D01*
X850Y2456D02*
X869Y2456D01*
X896Y2456D02*
X914Y2456D01*
X950Y2456D02*
X969Y2456D01*
X996Y2456D02*
X1015Y2456D01*
X1050Y2456D02*
X1069Y2456D01*
X1096Y2456D02*
X1115Y2456D01*
X1151Y2456D02*
X1169Y2456D01*
X1407Y2456D02*
X1467Y2456D01*
X507Y2455D02*
X565Y2455D01*
X796Y2455D02*
X814Y2455D01*
X850Y2455D02*
X869Y2455D01*
X896Y2455D02*
X914Y2455D01*
X950Y2455D02*
X969Y2455D01*
X996Y2455D02*
X1015Y2455D01*
X1050Y2455D02*
X1069Y2455D01*
X1096Y2455D02*
X1115Y2455D01*
X1151Y2455D02*
X1169Y2455D01*
X1408Y2455D02*
X1466Y2455D01*
X508Y2454D02*
X564Y2454D01*
X796Y2454D02*
X814Y2454D01*
X850Y2454D02*
X869Y2454D01*
X896Y2454D02*
X915Y2454D01*
X950Y2454D02*
X969Y2454D01*
X996Y2454D02*
X1015Y2454D01*
X1050Y2454D02*
X1069Y2454D01*
X1096Y2454D02*
X1115Y2454D01*
X1150Y2454D02*
X1169Y2454D01*
X1409Y2454D02*
X1465Y2454D01*
X509Y2453D02*
X564Y2453D01*
X796Y2453D02*
X815Y2453D01*
X850Y2453D02*
X869Y2453D01*
X896Y2453D02*
X915Y2453D01*
X950Y2453D02*
X969Y2453D01*
X996Y2453D02*
X1015Y2453D01*
X1050Y2453D02*
X1069Y2453D01*
X1096Y2453D02*
X1115Y2453D01*
X1150Y2453D02*
X1169Y2453D01*
X1410Y2453D02*
X1464Y2453D01*
X510Y2452D02*
X563Y2452D01*
X796Y2452D02*
X815Y2452D01*
X850Y2452D02*
X868Y2452D01*
X896Y2452D02*
X915Y2452D01*
X950Y2452D02*
X969Y2452D01*
X996Y2452D02*
X1015Y2452D01*
X1050Y2452D02*
X1069Y2452D01*
X1096Y2452D02*
X1115Y2452D01*
X1150Y2452D02*
X1169Y2452D01*
X1411Y2452D02*
X1464Y2452D01*
X511Y2451D02*
X562Y2451D01*
X796Y2451D02*
X815Y2451D01*
X850Y2451D02*
X868Y2451D01*
X896Y2451D02*
X915Y2451D01*
X950Y2451D02*
X968Y2451D01*
X996Y2451D02*
X1015Y2451D01*
X1050Y2451D02*
X1069Y2451D01*
X1097Y2451D02*
X1115Y2451D01*
X1150Y2451D02*
X1169Y2451D01*
X1412Y2451D02*
X1463Y2451D01*
X512Y2450D02*
X561Y2450D01*
X796Y2450D02*
X815Y2450D01*
X849Y2450D02*
X868Y2450D01*
X897Y2450D02*
X915Y2450D01*
X949Y2450D02*
X968Y2450D01*
X997Y2450D02*
X1016Y2450D01*
X1049Y2450D02*
X1068Y2450D01*
X1097Y2450D02*
X1116Y2450D01*
X1150Y2450D02*
X1168Y2450D01*
X1413Y2450D02*
X1462Y2450D01*
X513Y2449D02*
X559Y2449D01*
X797Y2449D02*
X816Y2449D01*
X849Y2449D02*
X868Y2449D01*
X897Y2449D02*
X916Y2449D01*
X949Y2449D02*
X968Y2449D01*
X997Y2449D02*
X1016Y2449D01*
X1049Y2449D02*
X1068Y2449D01*
X1097Y2449D02*
X1116Y2449D01*
X1149Y2449D02*
X1168Y2449D01*
X1414Y2449D02*
X1460Y2449D01*
X514Y2448D02*
X558Y2448D01*
X797Y2448D02*
X816Y2448D01*
X848Y2448D02*
X868Y2448D01*
X897Y2448D02*
X916Y2448D01*
X948Y2448D02*
X968Y2448D01*
X997Y2448D02*
X1017Y2448D01*
X1048Y2448D02*
X1068Y2448D01*
X1097Y2448D02*
X1117Y2448D01*
X1149Y2448D02*
X1168Y2448D01*
X1415Y2448D02*
X1459Y2448D01*
X516Y2447D02*
X557Y2447D01*
X797Y2447D02*
X817Y2447D01*
X848Y2447D02*
X867Y2447D01*
X897Y2447D02*
X917Y2447D01*
X948Y2447D02*
X968Y2447D01*
X997Y2447D02*
X1017Y2447D01*
X1048Y2447D02*
X1068Y2447D01*
X1097Y2447D02*
X1117Y2447D01*
X1148Y2447D02*
X1168Y2447D01*
X1417Y2447D02*
X1458Y2447D01*
X517Y2446D02*
X555Y2446D01*
X797Y2446D02*
X818Y2446D01*
X847Y2446D02*
X867Y2446D01*
X897Y2446D02*
X918Y2446D01*
X947Y2446D02*
X967Y2446D01*
X998Y2446D02*
X1018Y2446D01*
X1047Y2446D02*
X1067Y2446D01*
X1098Y2446D02*
X1118Y2446D01*
X1147Y2446D02*
X1168Y2446D01*
X1418Y2446D02*
X1456Y2446D01*
X519Y2445D02*
X553Y2445D01*
X798Y2445D02*
X818Y2445D01*
X846Y2445D02*
X867Y2445D01*
X898Y2445D02*
X919Y2445D01*
X946Y2445D02*
X967Y2445D01*
X998Y2445D02*
X1019Y2445D01*
X1046Y2445D02*
X1067Y2445D01*
X1098Y2445D02*
X1119Y2445D01*
X1146Y2445D02*
X1167Y2445D01*
X1420Y2445D02*
X1454Y2445D01*
X521Y2444D02*
X551Y2444D01*
X798Y2444D02*
X819Y2444D01*
X845Y2444D02*
X866Y2444D01*
X898Y2444D02*
X920Y2444D01*
X945Y2444D02*
X967Y2444D01*
X998Y2444D02*
X1020Y2444D01*
X1045Y2444D02*
X1067Y2444D01*
X1098Y2444D02*
X1120Y2444D01*
X1146Y2444D02*
X1167Y2444D01*
X1422Y2444D02*
X1452Y2444D01*
X523Y2443D02*
X549Y2443D01*
X798Y2443D02*
X821Y2443D01*
X844Y2443D02*
X866Y2443D01*
X899Y2443D02*
X921Y2443D01*
X944Y2443D02*
X966Y2443D01*
X999Y2443D02*
X1021Y2443D01*
X1044Y2443D02*
X1066Y2443D01*
X1099Y2443D02*
X1121Y2443D01*
X1144Y2443D02*
X1166Y2443D01*
X1424Y2443D02*
X1450Y2443D01*
X526Y2442D02*
X546Y2442D01*
X799Y2442D02*
X822Y2442D01*
X843Y2442D02*
X866Y2442D01*
X899Y2442D02*
X922Y2442D01*
X943Y2442D02*
X966Y2442D01*
X999Y2442D02*
X1022Y2442D01*
X1043Y2442D02*
X1066Y2442D01*
X1099Y2442D02*
X1122Y2442D01*
X1143Y2442D02*
X1166Y2442D01*
X1427Y2442D02*
X1447Y2442D01*
X530Y2441D02*
X542Y2441D01*
X799Y2441D02*
X823Y2441D01*
X841Y2441D02*
X865Y2441D01*
X899Y2441D02*
X923Y2441D01*
X941Y2441D02*
X965Y2441D01*
X1000Y2441D02*
X1023Y2441D01*
X1042Y2441D02*
X1065Y2441D01*
X1100Y2441D02*
X1124Y2441D01*
X1142Y2441D02*
X1166Y2441D01*
X1431Y2441D02*
X1443Y2441D01*
X800Y2440D02*
X825Y2440D01*
X839Y2440D02*
X865Y2440D01*
X900Y2440D02*
X925Y2440D01*
X940Y2440D02*
X965Y2440D01*
X1000Y2440D02*
X1025Y2440D01*
X1040Y2440D02*
X1065Y2440D01*
X1100Y2440D02*
X1125Y2440D01*
X1140Y2440D02*
X1165Y2440D01*
X800Y2439D02*
X830Y2439D01*
X835Y2439D02*
X864Y2439D01*
X900Y2439D02*
X930Y2439D01*
X935Y2439D02*
X964Y2439D01*
X1000Y2439D02*
X1030Y2439D01*
X1035Y2439D02*
X1065Y2439D01*
X1101Y2439D02*
X1130Y2439D01*
X1135Y2439D02*
X1165Y2439D01*
X801Y2438D02*
X864Y2438D01*
X901Y2438D02*
X964Y2438D01*
X1001Y2438D02*
X1064Y2438D01*
X1101Y2438D02*
X1164Y2438D01*
X801Y2437D02*
X863Y2437D01*
X901Y2437D02*
X963Y2437D01*
X1002Y2437D02*
X1063Y2437D01*
X1102Y2437D02*
X1164Y2437D01*
X802Y2436D02*
X863Y2436D01*
X902Y2436D02*
X963Y2436D01*
X1002Y2436D02*
X1063Y2436D01*
X1102Y2436D02*
X1163Y2436D01*
X803Y2435D02*
X862Y2435D01*
X903Y2435D02*
X962Y2435D01*
X1003Y2435D02*
X1062Y2435D01*
X1103Y2435D02*
X1162Y2435D01*
X803Y2434D02*
X861Y2434D01*
X903Y2434D02*
X961Y2434D01*
X1004Y2434D02*
X1061Y2434D01*
X1104Y2434D02*
X1162Y2434D01*
X804Y2433D02*
X860Y2433D01*
X904Y2433D02*
X961Y2433D01*
X1004Y2433D02*
X1061Y2433D01*
X1104Y2433D02*
X1161Y2433D01*
X805Y2432D02*
X860Y2432D01*
X905Y2432D02*
X960Y2432D01*
X1005Y2432D02*
X1060Y2432D01*
X1105Y2432D02*
X1160Y2432D01*
X806Y2431D02*
X859Y2431D01*
X906Y2431D02*
X959Y2431D01*
X1006Y2431D02*
X1059Y2431D01*
X1106Y2431D02*
X1159Y2431D01*
X807Y2430D02*
X858Y2430D01*
X907Y2430D02*
X958Y2430D01*
X1007Y2430D02*
X1058Y2430D01*
X1107Y2430D02*
X1158Y2430D01*
X808Y2429D02*
X857Y2429D01*
X908Y2429D02*
X957Y2429D01*
X1008Y2429D02*
X1057Y2429D01*
X1108Y2429D02*
X1157Y2429D01*
X809Y2428D02*
X856Y2428D01*
X909Y2428D02*
X956Y2428D01*
X1009Y2428D02*
X1056Y2428D01*
X1109Y2428D02*
X1156Y2428D01*
X810Y2427D02*
X854Y2427D01*
X910Y2427D02*
X954Y2427D01*
X1011Y2427D02*
X1054Y2427D01*
X1111Y2427D02*
X1155Y2427D01*
X812Y2426D02*
X853Y2426D01*
X912Y2426D02*
X953Y2426D01*
X1012Y2426D02*
X1053Y2426D01*
X1112Y2426D02*
X1153Y2426D01*
X813Y2425D02*
X851Y2425D01*
X913Y2425D02*
X951Y2425D01*
X1014Y2425D02*
X1051Y2425D01*
X1114Y2425D02*
X1152Y2425D01*
X815Y2424D02*
X849Y2424D01*
X915Y2424D02*
X950Y2424D01*
X1015Y2424D02*
X1050Y2424D01*
X1115Y2424D02*
X1150Y2424D01*
X817Y2423D02*
X847Y2423D01*
X917Y2423D02*
X947Y2423D01*
X1017Y2423D02*
X1048Y2423D01*
X1118Y2423D02*
X1148Y2423D01*
X820Y2422D02*
X845Y2422D01*
X920Y2422D02*
X945Y2422D01*
X1020Y2422D02*
X1045Y2422D01*
X1120Y2422D02*
X1145Y2422D01*
X822Y2421D02*
X842Y2421D01*
X922Y2421D02*
X942Y2421D01*
X1023Y2421D02*
X1042Y2421D01*
X1123Y2421D02*
X1143Y2421D01*
X826Y2420D02*
X838Y2420D01*
X926Y2420D02*
X938Y2420D01*
X1027Y2420D02*
X1038Y2420D01*
X1127Y2420D02*
X1139Y2420D01*
X533Y2414D02*
X540Y2414D01*
X1434Y2414D02*
X1441Y2414D01*
X528Y2413D02*
X545Y2413D01*
X1429Y2413D02*
X1446Y2413D01*
X525Y2412D02*
X548Y2412D01*
X1425Y2412D02*
X1449Y2412D01*
X522Y2411D02*
X550Y2411D01*
X1423Y2411D02*
X1451Y2411D01*
X520Y2410D02*
X553Y2410D01*
X1421Y2410D02*
X1453Y2410D01*
X518Y2409D02*
X554Y2409D01*
X1419Y2409D02*
X1455Y2409D01*
X516Y2408D02*
X556Y2408D01*
X1417Y2408D02*
X1457Y2408D01*
X515Y2407D02*
X558Y2407D01*
X1416Y2407D02*
X1458Y2407D01*
X514Y2406D02*
X559Y2406D01*
X1414Y2406D02*
X1460Y2406D01*
X512Y2405D02*
X560Y2405D01*
X1413Y2405D02*
X1461Y2405D01*
X511Y2404D02*
X561Y2404D01*
X1412Y2404D02*
X1462Y2404D01*
X510Y2403D02*
X562Y2403D01*
X1411Y2403D02*
X1463Y2403D01*
X509Y2402D02*
X563Y2402D01*
X1410Y2402D02*
X1464Y2402D01*
X508Y2401D02*
X564Y2401D01*
X1409Y2401D02*
X1465Y2401D01*
X508Y2400D02*
X565Y2400D01*
X1409Y2400D02*
X1466Y2400D01*
X507Y2399D02*
X566Y2399D01*
X1408Y2399D02*
X1466Y2399D01*
X506Y2398D02*
X566Y2398D01*
X1407Y2398D02*
X1467Y2398D01*
X506Y2397D02*
X567Y2397D01*
X1406Y2397D02*
X1468Y2397D01*
X505Y2396D02*
X567Y2396D01*
X1406Y2396D02*
X1468Y2396D01*
X504Y2395D02*
X568Y2395D01*
X1405Y2395D02*
X1469Y2395D01*
X504Y2394D02*
X530Y2394D01*
X542Y2394D02*
X569Y2394D01*
X1405Y2394D02*
X1431Y2394D01*
X1443Y2394D02*
X1469Y2394D01*
X503Y2393D02*
X528Y2393D01*
X545Y2393D02*
X569Y2393D01*
X1404Y2393D02*
X1429Y2393D01*
X1445Y2393D02*
X1470Y2393D01*
X503Y2392D02*
X526Y2392D01*
X546Y2392D02*
X569Y2392D01*
X1404Y2392D02*
X1427Y2392D01*
X1447Y2392D02*
X1470Y2392D01*
X503Y2391D02*
X525Y2391D01*
X547Y2391D02*
X570Y2391D01*
X1403Y2391D02*
X1426Y2391D01*
X1448Y2391D02*
X1471Y2391D01*
X502Y2390D02*
X524Y2390D01*
X549Y2390D02*
X570Y2390D01*
X1403Y2390D02*
X1425Y2390D01*
X1450Y2390D02*
X1471Y2390D01*
X502Y2389D02*
X523Y2389D01*
X550Y2389D02*
X571Y2389D01*
X1403Y2389D02*
X1424Y2389D01*
X1451Y2389D02*
X1472Y2389D01*
X501Y2388D02*
X522Y2388D01*
X550Y2388D02*
X571Y2388D01*
X1402Y2388D02*
X1423Y2388D01*
X1451Y2388D02*
X1472Y2388D01*
X501Y2387D02*
X521Y2387D01*
X551Y2387D02*
X571Y2387D01*
X1402Y2387D02*
X1422Y2387D01*
X1452Y2387D02*
X1472Y2387D01*
X501Y2386D02*
X520Y2386D01*
X552Y2386D02*
X572Y2386D01*
X1402Y2386D02*
X1421Y2386D01*
X1453Y2386D02*
X1472Y2386D01*
X501Y2385D02*
X520Y2385D01*
X553Y2385D02*
X572Y2385D01*
X1402Y2385D02*
X1421Y2385D01*
X1453Y2385D02*
X1473Y2385D01*
X500Y2384D02*
X519Y2384D01*
X553Y2384D02*
X572Y2384D01*
X1401Y2384D02*
X1420Y2384D01*
X1454Y2384D02*
X1473Y2384D01*
X500Y2383D02*
X519Y2383D01*
X553Y2383D02*
X572Y2383D01*
X1401Y2383D02*
X1420Y2383D01*
X1454Y2383D02*
X1473Y2383D01*
X500Y2382D02*
X519Y2382D01*
X554Y2382D02*
X572Y2382D01*
X1401Y2382D02*
X1420Y2382D01*
X1455Y2382D02*
X1473Y2382D01*
X500Y2381D02*
X519Y2381D01*
X554Y2381D02*
X573Y2381D01*
X1401Y2381D02*
X1419Y2381D01*
X1455Y2381D02*
X1473Y2381D01*
X500Y2380D02*
X518Y2380D01*
X554Y2380D02*
X573Y2380D01*
X1401Y2380D02*
X1419Y2380D01*
X1455Y2380D02*
X1474Y2380D01*
X500Y2379D02*
X518Y2379D01*
X554Y2379D02*
X573Y2379D01*
X1401Y2379D02*
X1419Y2379D01*
X1455Y2379D02*
X1474Y2379D01*
X500Y2378D02*
X518Y2378D01*
X554Y2378D02*
X573Y2378D01*
X1401Y2378D02*
X1419Y2378D01*
X1455Y2378D02*
X1474Y2378D01*
X500Y2377D02*
X518Y2377D01*
X554Y2377D02*
X573Y2377D01*
X1401Y2377D02*
X1419Y2377D01*
X1455Y2377D02*
X1474Y2377D01*
X500Y2376D02*
X518Y2376D01*
X554Y2376D02*
X573Y2376D01*
X1401Y2376D02*
X1419Y2376D01*
X1455Y2376D02*
X1474Y2376D01*
X500Y2375D02*
X518Y2375D01*
X554Y2375D02*
X573Y2375D01*
X1401Y2375D02*
X1419Y2375D01*
X1455Y2375D02*
X1474Y2375D01*
X500Y2374D02*
X518Y2374D01*
X554Y2374D02*
X573Y2374D01*
X1401Y2374D02*
X1419Y2374D01*
X1455Y2374D02*
X1473Y2374D01*
X500Y2373D02*
X519Y2373D01*
X554Y2373D02*
X572Y2373D01*
X1401Y2373D02*
X1420Y2373D01*
X1455Y2373D02*
X1473Y2373D01*
X500Y2372D02*
X519Y2372D01*
X554Y2372D02*
X572Y2372D01*
X1401Y2372D02*
X1420Y2372D01*
X1454Y2372D02*
X1473Y2372D01*
X500Y2371D02*
X519Y2371D01*
X553Y2371D02*
X572Y2371D01*
X1401Y2371D02*
X1420Y2371D01*
X1454Y2371D02*
X1473Y2371D01*
X500Y2370D02*
X520Y2370D01*
X553Y2370D02*
X572Y2370D01*
X1401Y2370D02*
X1421Y2370D01*
X1454Y2370D02*
X1473Y2370D01*
X501Y2369D02*
X520Y2369D01*
X552Y2369D02*
X572Y2369D01*
X1402Y2369D02*
X1421Y2369D01*
X1453Y2369D02*
X1473Y2369D01*
X501Y2368D02*
X521Y2368D01*
X552Y2368D02*
X571Y2368D01*
X1402Y2368D02*
X1422Y2368D01*
X1453Y2368D02*
X1472Y2368D01*
X501Y2367D02*
X521Y2367D01*
X551Y2367D02*
X571Y2367D01*
X1402Y2367D02*
X1422Y2367D01*
X1452Y2367D02*
X1472Y2367D01*
X502Y2366D02*
X522Y2366D01*
X550Y2366D02*
X571Y2366D01*
X1403Y2366D02*
X1423Y2366D01*
X1451Y2366D02*
X1472Y2366D01*
X502Y2365D02*
X523Y2365D01*
X549Y2365D02*
X570Y2365D01*
X1403Y2365D02*
X1424Y2365D01*
X1450Y2365D02*
X1471Y2365D01*
X502Y2364D02*
X524Y2364D01*
X548Y2364D02*
X570Y2364D01*
X1403Y2364D02*
X1425Y2364D01*
X1449Y2364D02*
X1471Y2364D01*
X503Y2363D02*
X525Y2363D01*
X547Y2363D02*
X570Y2363D01*
X1404Y2363D02*
X1426Y2363D01*
X1448Y2363D02*
X1471Y2363D01*
X503Y2362D02*
X527Y2362D01*
X546Y2362D02*
X569Y2362D01*
X1404Y2362D02*
X1428Y2362D01*
X1446Y2362D02*
X1470Y2362D01*
X504Y2361D02*
X529Y2361D01*
X544Y2361D02*
X569Y2361D01*
X1405Y2361D02*
X1430Y2361D01*
X1445Y2361D02*
X1470Y2361D01*
X504Y2360D02*
X532Y2360D01*
X540Y2360D02*
X568Y2360D01*
X1405Y2360D02*
X1433Y2360D01*
X1441Y2360D02*
X1469Y2360D01*
X505Y2359D02*
X568Y2359D01*
X1406Y2359D02*
X1469Y2359D01*
X505Y2358D02*
X567Y2358D01*
X1406Y2358D02*
X1468Y2358D01*
X506Y2357D02*
X567Y2357D01*
X1407Y2357D02*
X1468Y2357D01*
X506Y2356D02*
X566Y2356D01*
X1407Y2356D02*
X1467Y2356D01*
X507Y2355D02*
X565Y2355D01*
X1408Y2355D02*
X1466Y2355D01*
X508Y2354D02*
X564Y2354D01*
X1409Y2354D02*
X1465Y2354D01*
X509Y2353D02*
X564Y2353D01*
X1410Y2353D02*
X1465Y2353D01*
X510Y2352D02*
X563Y2352D01*
X1411Y2352D02*
X1464Y2352D01*
X511Y2351D02*
X562Y2351D01*
X1411Y2351D02*
X1463Y2351D01*
X512Y2350D02*
X561Y2350D01*
X1413Y2350D02*
X1462Y2350D01*
X513Y2349D02*
X560Y2349D01*
X1414Y2349D02*
X1461Y2349D01*
X514Y2348D02*
X558Y2348D01*
X1415Y2348D02*
X1459Y2348D01*
X515Y2347D02*
X557Y2347D01*
X1416Y2347D02*
X1458Y2347D01*
X517Y2346D02*
X555Y2346D01*
X1418Y2346D02*
X1456Y2346D01*
X519Y2345D02*
X554Y2345D01*
X1420Y2345D02*
X1455Y2345D01*
X521Y2344D02*
X552Y2344D01*
X1422Y2344D02*
X1453Y2344D01*
X523Y2343D02*
X549Y2343D01*
X1424Y2343D02*
X1450Y2343D01*
X526Y2342D02*
X547Y2342D01*
X1427Y2342D02*
X1448Y2342D01*
X530Y2341D02*
X543Y2341D01*
X1430Y2341D02*
X1444Y2341D01*
X534Y2314D02*
X538Y2314D01*
X1435Y2314D02*
X1439Y2314D01*
X528Y2313D02*
X544Y2313D01*
X1429Y2313D02*
X1445Y2313D01*
X525Y2312D02*
X548Y2312D01*
X1426Y2312D02*
X1448Y2312D01*
X522Y2311D02*
X550Y2311D01*
X1423Y2311D02*
X1451Y2311D01*
X520Y2310D02*
X552Y2310D01*
X1421Y2310D02*
X1453Y2310D01*
X518Y2309D02*
X554Y2309D01*
X1419Y2309D02*
X1455Y2309D01*
X517Y2308D02*
X556Y2308D01*
X1417Y2308D02*
X1457Y2308D01*
X515Y2307D02*
X557Y2307D01*
X1416Y2307D02*
X1458Y2307D01*
X514Y2306D02*
X559Y2306D01*
X1415Y2306D02*
X1460Y2306D01*
X512Y2305D02*
X560Y2305D01*
X1413Y2305D02*
X1461Y2305D01*
X511Y2304D02*
X561Y2304D01*
X1412Y2304D02*
X1462Y2304D01*
X510Y2303D02*
X562Y2303D01*
X1411Y2303D02*
X1463Y2303D01*
X509Y2302D02*
X563Y2302D01*
X1410Y2302D02*
X1464Y2302D01*
X508Y2301D02*
X564Y2301D01*
X1409Y2301D02*
X1465Y2301D01*
X508Y2300D02*
X565Y2300D01*
X1409Y2300D02*
X1466Y2300D01*
X507Y2299D02*
X565Y2299D01*
X1408Y2299D02*
X1466Y2299D01*
X506Y2298D02*
X566Y2298D01*
X1407Y2298D02*
X1467Y2298D01*
X506Y2297D02*
X567Y2297D01*
X1407Y2297D02*
X1468Y2297D01*
X505Y2296D02*
X567Y2296D01*
X1406Y2296D02*
X1468Y2296D01*
X504Y2295D02*
X568Y2295D01*
X1405Y2295D02*
X1469Y2295D01*
X504Y2294D02*
X531Y2294D01*
X542Y2294D02*
X568Y2294D01*
X1405Y2294D02*
X1432Y2294D01*
X1443Y2294D02*
X1469Y2294D01*
X503Y2293D02*
X528Y2293D01*
X544Y2293D02*
X569Y2293D01*
X1404Y2293D02*
X1429Y2293D01*
X1445Y2293D02*
X1470Y2293D01*
X503Y2292D02*
X526Y2292D01*
X546Y2292D02*
X569Y2292D01*
X1404Y2292D02*
X1427Y2292D01*
X1447Y2292D02*
X1470Y2292D01*
X503Y2291D02*
X525Y2291D01*
X547Y2291D02*
X570Y2291D01*
X1403Y2291D02*
X1426Y2291D01*
X1448Y2291D02*
X1471Y2291D01*
X502Y2290D02*
X524Y2290D01*
X548Y2290D02*
X570Y2290D01*
X1403Y2290D02*
X1425Y2290D01*
X1449Y2290D02*
X1471Y2290D01*
X502Y2289D02*
X523Y2289D01*
X550Y2289D02*
X571Y2289D01*
X1403Y2289D02*
X1424Y2289D01*
X1450Y2289D02*
X1471Y2289D01*
X501Y2288D02*
X522Y2288D01*
X550Y2288D02*
X571Y2288D01*
X1402Y2288D02*
X1423Y2288D01*
X1451Y2288D02*
X1472Y2288D01*
X501Y2287D02*
X521Y2287D01*
X551Y2287D02*
X571Y2287D01*
X1402Y2287D02*
X1422Y2287D01*
X1452Y2287D02*
X1472Y2287D01*
X501Y2286D02*
X521Y2286D01*
X552Y2286D02*
X571Y2286D01*
X1402Y2286D02*
X1421Y2286D01*
X1453Y2286D02*
X1472Y2286D01*
X501Y2285D02*
X520Y2285D01*
X552Y2285D02*
X572Y2285D01*
X1402Y2285D02*
X1421Y2285D01*
X1453Y2285D02*
X1473Y2285D01*
X500Y2284D02*
X519Y2284D01*
X553Y2284D02*
X572Y2284D01*
X1401Y2284D02*
X1420Y2284D01*
X1454Y2284D02*
X1473Y2284D01*
X500Y2283D02*
X519Y2283D01*
X553Y2283D02*
X572Y2283D01*
X1401Y2283D02*
X1420Y2283D01*
X1454Y2283D02*
X1473Y2283D01*
X500Y2282D02*
X519Y2282D01*
X554Y2282D02*
X572Y2282D01*
X1401Y2282D02*
X1420Y2282D01*
X1455Y2282D02*
X1473Y2282D01*
X500Y2281D02*
X519Y2281D01*
X554Y2281D02*
X572Y2281D01*
X1401Y2281D02*
X1419Y2281D01*
X1455Y2281D02*
X1473Y2281D01*
X500Y2280D02*
X518Y2280D01*
X554Y2280D02*
X573Y2280D01*
X1401Y2280D02*
X1419Y2280D01*
X1455Y2280D02*
X1473Y2280D01*
X500Y2279D02*
X518Y2279D01*
X554Y2279D02*
X573Y2279D01*
X1401Y2279D02*
X1419Y2279D01*
X1455Y2279D02*
X1474Y2279D01*
X500Y2278D02*
X518Y2278D01*
X554Y2278D02*
X573Y2278D01*
X1401Y2278D02*
X1419Y2278D01*
X1455Y2278D02*
X1474Y2278D01*
X500Y2277D02*
X518Y2277D01*
X554Y2277D02*
X573Y2277D01*
X1401Y2277D02*
X1419Y2277D01*
X1455Y2277D02*
X1474Y2277D01*
X500Y2276D02*
X518Y2276D01*
X554Y2276D02*
X573Y2276D01*
X1401Y2276D02*
X1419Y2276D01*
X1455Y2276D02*
X1474Y2276D01*
X500Y2275D02*
X518Y2275D01*
X554Y2275D02*
X573Y2275D01*
X1401Y2275D02*
X1419Y2275D01*
X1455Y2275D02*
X1474Y2275D01*
X500Y2274D02*
X518Y2274D01*
X554Y2274D02*
X573Y2274D01*
X1401Y2274D02*
X1419Y2274D01*
X1455Y2274D02*
X1473Y2274D01*
X500Y2273D02*
X519Y2273D01*
X554Y2273D02*
X572Y2273D01*
X1401Y2273D02*
X1420Y2273D01*
X1455Y2273D02*
X1473Y2273D01*
X500Y2272D02*
X519Y2272D01*
X554Y2272D02*
X572Y2272D01*
X1401Y2272D02*
X1420Y2272D01*
X1454Y2272D02*
X1473Y2272D01*
X500Y2271D02*
X519Y2271D01*
X553Y2271D02*
X572Y2271D01*
X1401Y2271D02*
X1420Y2271D01*
X1454Y2271D02*
X1473Y2271D01*
X500Y2270D02*
X520Y2270D01*
X553Y2270D02*
X572Y2270D01*
X1401Y2270D02*
X1420Y2270D01*
X1454Y2270D02*
X1473Y2270D01*
X501Y2269D02*
X520Y2269D01*
X552Y2269D02*
X572Y2269D01*
X1402Y2269D02*
X1421Y2269D01*
X1453Y2269D02*
X1473Y2269D01*
X501Y2268D02*
X521Y2268D01*
X552Y2268D02*
X571Y2268D01*
X1402Y2268D02*
X1422Y2268D01*
X1453Y2268D02*
X1472Y2268D01*
X501Y2267D02*
X521Y2267D01*
X551Y2267D02*
X571Y2267D01*
X1402Y2267D02*
X1422Y2267D01*
X1452Y2267D02*
X1472Y2267D01*
X502Y2266D02*
X522Y2266D01*
X550Y2266D02*
X571Y2266D01*
X1402Y2266D02*
X1423Y2266D01*
X1451Y2266D02*
X1472Y2266D01*
X502Y2265D02*
X523Y2265D01*
X549Y2265D02*
X570Y2265D01*
X1403Y2265D02*
X1424Y2265D01*
X1450Y2265D02*
X1471Y2265D01*
X502Y2264D02*
X524Y2264D01*
X548Y2264D02*
X570Y2264D01*
X1403Y2264D02*
X1425Y2264D01*
X1449Y2264D02*
X1471Y2264D01*
X503Y2263D02*
X525Y2263D01*
X547Y2263D02*
X570Y2263D01*
X1404Y2263D02*
X1426Y2263D01*
X1448Y2263D02*
X1471Y2263D01*
X503Y2262D02*
X527Y2262D01*
X546Y2262D02*
X569Y2262D01*
X1404Y2262D02*
X1428Y2262D01*
X1447Y2262D02*
X1470Y2262D01*
X504Y2261D02*
X528Y2261D01*
X544Y2261D02*
X569Y2261D01*
X1404Y2261D02*
X1429Y2261D01*
X1445Y2261D02*
X1470Y2261D01*
X504Y2260D02*
X532Y2260D01*
X541Y2260D02*
X568Y2260D01*
X1405Y2260D02*
X1432Y2260D01*
X1442Y2260D02*
X1469Y2260D01*
X505Y2259D02*
X568Y2259D01*
X1405Y2259D02*
X1469Y2259D01*
X505Y2258D02*
X567Y2258D01*
X1406Y2258D02*
X1468Y2258D01*
X506Y2257D02*
X567Y2257D01*
X1407Y2257D02*
X1468Y2257D01*
X506Y2256D02*
X566Y2256D01*
X1407Y2256D02*
X1467Y2256D01*
X507Y2255D02*
X565Y2255D01*
X1408Y2255D02*
X1466Y2255D01*
X508Y2254D02*
X565Y2254D01*
X1409Y2254D02*
X1465Y2254D01*
X509Y2253D02*
X564Y2253D01*
X1410Y2253D02*
X1465Y2253D01*
X510Y2252D02*
X563Y2252D01*
X1410Y2252D02*
X1464Y2252D01*
X510Y2251D02*
X562Y2251D01*
X1411Y2251D02*
X1463Y2251D01*
X512Y2250D02*
X561Y2250D01*
X1412Y2250D02*
X1462Y2250D01*
X513Y2249D02*
X560Y2249D01*
X1414Y2249D02*
X1461Y2249D01*
X514Y2248D02*
X558Y2248D01*
X1415Y2248D02*
X1459Y2248D01*
X515Y2247D02*
X557Y2247D01*
X1416Y2247D02*
X1458Y2247D01*
X517Y2246D02*
X556Y2246D01*
X1418Y2246D02*
X1456Y2246D01*
X519Y2245D02*
X554Y2245D01*
X1419Y2245D02*
X1455Y2245D01*
X521Y2244D02*
X552Y2244D01*
X1421Y2244D02*
X1453Y2244D01*
X523Y2243D02*
X550Y2243D01*
X1424Y2243D02*
X1451Y2243D01*
X525Y2242D02*
X547Y2242D01*
X1426Y2242D02*
X1448Y2242D01*
X529Y2241D02*
X543Y2241D01*
X1430Y2241D02*
X1444Y2241D01*
X536Y2214D02*
X536Y2214D01*
X1437Y2214D02*
X1437Y2214D01*
X529Y2213D02*
X544Y2213D01*
X1430Y2213D02*
X1445Y2213D01*
X525Y2212D02*
X547Y2212D01*
X1426Y2212D02*
X1448Y2212D01*
X523Y2211D02*
X550Y2211D01*
X1423Y2211D02*
X1451Y2211D01*
X520Y2210D02*
X552Y2210D01*
X1421Y2210D02*
X1453Y2210D01*
X518Y2209D02*
X554Y2209D01*
X1419Y2209D02*
X1455Y2209D01*
X517Y2208D02*
X556Y2208D01*
X1418Y2208D02*
X1457Y2208D01*
X515Y2207D02*
X557Y2207D01*
X1416Y2207D02*
X1458Y2207D01*
X514Y2206D02*
X559Y2206D01*
X1415Y2206D02*
X1460Y2206D01*
X513Y2205D02*
X560Y2205D01*
X1413Y2205D02*
X1461Y2205D01*
X511Y2204D02*
X561Y2204D01*
X1412Y2204D02*
X1462Y2204D01*
X510Y2203D02*
X562Y2203D01*
X1411Y2203D02*
X1463Y2203D01*
X509Y2202D02*
X563Y2202D01*
X1410Y2202D02*
X1464Y2202D01*
X509Y2201D02*
X564Y2201D01*
X1409Y2201D02*
X1465Y2201D01*
X508Y2200D02*
X565Y2200D01*
X1409Y2200D02*
X1466Y2200D01*
X507Y2199D02*
X565Y2199D01*
X1408Y2199D02*
X1466Y2199D01*
X506Y2198D02*
X566Y2198D01*
X1407Y2198D02*
X1467Y2198D01*
X506Y2197D02*
X567Y2197D01*
X1407Y2197D02*
X1468Y2197D01*
X505Y2196D02*
X567Y2196D01*
X1406Y2196D02*
X1468Y2196D01*
X505Y2195D02*
X568Y2195D01*
X1405Y2195D02*
X1469Y2195D01*
X504Y2194D02*
X531Y2194D01*
X541Y2194D02*
X568Y2194D01*
X1405Y2194D02*
X1432Y2194D01*
X1442Y2194D02*
X1469Y2194D01*
X504Y2193D02*
X528Y2193D01*
X544Y2193D02*
X569Y2193D01*
X1404Y2193D02*
X1429Y2193D01*
X1445Y2193D02*
X1470Y2193D01*
X503Y2192D02*
X526Y2192D01*
X546Y2192D02*
X569Y2192D01*
X1404Y2192D02*
X1427Y2192D01*
X1447Y2192D02*
X1470Y2192D01*
X503Y2191D02*
X525Y2191D01*
X547Y2191D02*
X570Y2191D01*
X1404Y2191D02*
X1426Y2191D01*
X1448Y2191D02*
X1471Y2191D01*
X502Y2190D02*
X524Y2190D01*
X548Y2190D02*
X570Y2190D01*
X1403Y2190D02*
X1425Y2190D01*
X1449Y2190D02*
X1471Y2190D01*
X502Y2189D02*
X523Y2189D01*
X549Y2189D02*
X571Y2189D01*
X1403Y2189D02*
X1424Y2189D01*
X1450Y2189D02*
X1471Y2189D01*
X502Y2188D02*
X522Y2188D01*
X550Y2188D02*
X571Y2188D01*
X1402Y2188D02*
X1423Y2188D01*
X1451Y2188D02*
X1472Y2188D01*
X501Y2187D02*
X521Y2187D01*
X551Y2187D02*
X571Y2187D01*
X1402Y2187D02*
X1422Y2187D01*
X1452Y2187D02*
X1472Y2187D01*
X501Y2186D02*
X521Y2186D01*
X552Y2186D02*
X571Y2186D01*
X1402Y2186D02*
X1422Y2186D01*
X1453Y2186D02*
X1472Y2186D01*
X501Y2185D02*
X520Y2185D01*
X552Y2185D02*
X572Y2185D01*
X1402Y2185D02*
X1421Y2185D01*
X1453Y2185D02*
X1473Y2185D01*
X500Y2184D02*
X519Y2184D01*
X553Y2184D02*
X572Y2184D01*
X1401Y2184D02*
X1420Y2184D01*
X1454Y2184D02*
X1473Y2184D01*
X500Y2183D02*
X519Y2183D01*
X553Y2183D02*
X572Y2183D01*
X1401Y2183D02*
X1420Y2183D01*
X1454Y2183D02*
X1473Y2183D01*
X500Y2182D02*
X519Y2182D01*
X554Y2182D02*
X572Y2182D01*
X1401Y2182D02*
X1420Y2182D01*
X1454Y2182D02*
X1473Y2182D01*
X500Y2181D02*
X519Y2181D01*
X554Y2181D02*
X572Y2181D01*
X1401Y2181D02*
X1419Y2181D01*
X1455Y2181D02*
X1473Y2181D01*
X500Y2180D02*
X518Y2180D01*
X554Y2180D02*
X573Y2180D01*
X1401Y2180D02*
X1419Y2180D01*
X1455Y2180D02*
X1473Y2180D01*
X500Y2179D02*
X518Y2179D01*
X554Y2179D02*
X573Y2179D01*
X1401Y2179D02*
X1419Y2179D01*
X1455Y2179D02*
X1474Y2179D01*
X500Y2178D02*
X518Y2178D01*
X554Y2178D02*
X573Y2178D01*
X1401Y2178D02*
X1419Y2178D01*
X1455Y2178D02*
X1474Y2178D01*
X500Y2177D02*
X518Y2177D01*
X554Y2177D02*
X573Y2177D01*
X1401Y2177D02*
X1419Y2177D01*
X1455Y2177D02*
X1474Y2177D01*
X500Y2176D02*
X518Y2176D01*
X554Y2176D02*
X573Y2176D01*
X1401Y2176D02*
X1419Y2176D01*
X1455Y2176D02*
X1474Y2176D01*
X500Y2175D02*
X518Y2175D01*
X554Y2175D02*
X573Y2175D01*
X1401Y2175D02*
X1419Y2175D01*
X1455Y2175D02*
X1474Y2175D01*
X500Y2174D02*
X518Y2174D01*
X554Y2174D02*
X573Y2174D01*
X1401Y2174D02*
X1419Y2174D01*
X1455Y2174D02*
X1473Y2174D01*
X500Y2173D02*
X519Y2173D01*
X554Y2173D02*
X572Y2173D01*
X1401Y2173D02*
X1419Y2173D01*
X1455Y2173D02*
X1473Y2173D01*
X500Y2172D02*
X519Y2172D01*
X554Y2172D02*
X572Y2172D01*
X1401Y2172D02*
X1420Y2172D01*
X1454Y2172D02*
X1473Y2172D01*
X500Y2171D02*
X519Y2171D01*
X553Y2171D02*
X572Y2171D01*
X1401Y2171D02*
X1420Y2171D01*
X1454Y2171D02*
X1473Y2171D01*
X500Y2170D02*
X519Y2170D01*
X553Y2170D02*
X572Y2170D01*
X1401Y2170D02*
X1420Y2170D01*
X1454Y2170D02*
X1473Y2170D01*
X501Y2169D02*
X520Y2169D01*
X552Y2169D02*
X572Y2169D01*
X1402Y2169D02*
X1421Y2169D01*
X1453Y2169D02*
X1473Y2169D01*
X501Y2168D02*
X521Y2168D01*
X552Y2168D02*
X571Y2168D01*
X1402Y2168D02*
X1422Y2168D01*
X1453Y2168D02*
X1472Y2168D01*
X501Y2167D02*
X521Y2167D01*
X551Y2167D02*
X571Y2167D01*
X1402Y2167D02*
X1422Y2167D01*
X1452Y2167D02*
X1472Y2167D01*
X502Y2166D02*
X522Y2166D01*
X550Y2166D02*
X571Y2166D01*
X1402Y2166D02*
X1423Y2166D01*
X1451Y2166D02*
X1472Y2166D01*
X502Y2165D02*
X523Y2165D01*
X549Y2165D02*
X571Y2165D01*
X1403Y2165D02*
X1424Y2165D01*
X1450Y2165D02*
X1471Y2165D01*
X502Y2164D02*
X524Y2164D01*
X548Y2164D02*
X570Y2164D01*
X1403Y2164D02*
X1425Y2164D01*
X1449Y2164D02*
X1471Y2164D01*
X503Y2163D02*
X525Y2163D01*
X547Y2163D02*
X570Y2163D01*
X1404Y2163D02*
X1426Y2163D01*
X1448Y2163D02*
X1471Y2163D01*
X503Y2162D02*
X527Y2162D01*
X546Y2162D02*
X569Y2162D01*
X1404Y2162D02*
X1427Y2162D01*
X1447Y2162D02*
X1470Y2162D01*
X504Y2161D02*
X528Y2161D01*
X544Y2161D02*
X569Y2161D01*
X1404Y2161D02*
X1429Y2161D01*
X1445Y2161D02*
X1470Y2161D01*
X504Y2160D02*
X531Y2160D01*
X541Y2160D02*
X568Y2160D01*
X1405Y2160D02*
X1432Y2160D01*
X1442Y2160D02*
X1469Y2160D01*
X505Y2159D02*
X568Y2159D01*
X1405Y2159D02*
X1469Y2159D01*
X505Y2158D02*
X567Y2158D01*
X1406Y2158D02*
X1468Y2158D01*
X506Y2157D02*
X567Y2157D01*
X1407Y2157D02*
X1468Y2157D01*
X506Y2156D02*
X566Y2156D01*
X1407Y2156D02*
X1467Y2156D01*
X507Y2155D02*
X565Y2155D01*
X1408Y2155D02*
X1466Y2155D01*
X508Y2154D02*
X565Y2154D01*
X1409Y2154D02*
X1466Y2154D01*
X509Y2153D02*
X564Y2153D01*
X1409Y2153D02*
X1465Y2153D01*
X509Y2152D02*
X563Y2152D01*
X1410Y2152D02*
X1464Y2152D01*
X510Y2151D02*
X562Y2151D01*
X1411Y2151D02*
X1463Y2151D01*
X511Y2150D02*
X561Y2150D01*
X1412Y2150D02*
X1462Y2150D01*
X513Y2149D02*
X560Y2149D01*
X1413Y2149D02*
X1461Y2149D01*
X514Y2148D02*
X559Y2148D01*
X1415Y2148D02*
X1460Y2148D01*
X515Y2147D02*
X557Y2147D01*
X1416Y2147D02*
X1458Y2147D01*
X517Y2146D02*
X556Y2146D01*
X1418Y2146D02*
X1457Y2146D01*
X518Y2145D02*
X554Y2145D01*
X1419Y2145D02*
X1455Y2145D01*
X520Y2144D02*
X552Y2144D01*
X1421Y2144D02*
X1453Y2144D01*
X522Y2143D02*
X550Y2143D01*
X1423Y2143D02*
X1451Y2143D01*
X525Y2142D02*
X547Y2142D01*
X1426Y2142D02*
X1448Y2142D01*
X529Y2141D02*
X544Y2141D01*
X1430Y2141D02*
X1445Y2141D01*
X536Y2140D02*
X536Y2140D01*
X1437Y2140D02*
X1437Y2140D01*
X529Y2113D02*
X543Y2113D01*
X1430Y2113D02*
X1444Y2113D01*
X525Y2112D02*
X547Y2112D01*
X1426Y2112D02*
X1448Y2112D01*
X523Y2111D02*
X550Y2111D01*
X1424Y2111D02*
X1451Y2111D01*
X521Y2110D02*
X552Y2110D01*
X1422Y2110D02*
X1453Y2110D01*
X519Y2109D02*
X554Y2109D01*
X1420Y2109D02*
X1455Y2109D01*
X517Y2108D02*
X556Y2108D01*
X1418Y2108D02*
X1456Y2108D01*
X515Y2107D02*
X557Y2107D01*
X1416Y2107D02*
X1458Y2107D01*
X514Y2106D02*
X558Y2106D01*
X1415Y2106D02*
X1459Y2106D01*
X513Y2105D02*
X560Y2105D01*
X1414Y2105D02*
X1461Y2105D01*
X512Y2104D02*
X561Y2104D01*
X1412Y2104D02*
X1462Y2104D01*
X510Y2103D02*
X562Y2103D01*
X1411Y2103D02*
X1463Y2103D01*
X510Y2102D02*
X563Y2102D01*
X1410Y2102D02*
X1464Y2102D01*
X509Y2101D02*
X564Y2101D01*
X1410Y2101D02*
X1465Y2101D01*
X508Y2100D02*
X565Y2100D01*
X1409Y2100D02*
X1465Y2100D01*
X507Y2099D02*
X565Y2099D01*
X1408Y2099D02*
X1466Y2099D01*
X506Y2098D02*
X566Y2098D01*
X1407Y2098D02*
X1467Y2098D01*
X506Y2097D02*
X567Y2097D01*
X1407Y2097D02*
X1468Y2097D01*
X505Y2096D02*
X567Y2096D01*
X1406Y2096D02*
X1468Y2096D01*
X505Y2095D02*
X568Y2095D01*
X1406Y2095D02*
X1469Y2095D01*
X504Y2094D02*
X532Y2094D01*
X541Y2094D02*
X568Y2094D01*
X1405Y2094D02*
X1433Y2094D01*
X1442Y2094D02*
X1469Y2094D01*
X504Y2093D02*
X528Y2093D01*
X544Y2093D02*
X569Y2093D01*
X1405Y2093D02*
X1429Y2093D01*
X1445Y2093D02*
X1470Y2093D01*
X503Y2092D02*
X527Y2092D01*
X546Y2092D02*
X569Y2092D01*
X1404Y2092D02*
X1428Y2092D01*
X1447Y2092D02*
X1470Y2092D01*
X503Y2091D02*
X525Y2091D01*
X547Y2091D02*
X570Y2091D01*
X1404Y2091D02*
X1426Y2091D01*
X1448Y2091D02*
X1471Y2091D01*
X502Y2090D02*
X524Y2090D01*
X548Y2090D02*
X570Y2090D01*
X1403Y2090D02*
X1425Y2090D01*
X1449Y2090D02*
X1471Y2090D01*
X502Y2089D02*
X523Y2089D01*
X549Y2089D02*
X570Y2089D01*
X1403Y2089D02*
X1424Y2089D01*
X1450Y2089D02*
X1471Y2089D01*
X502Y2088D02*
X522Y2088D01*
X550Y2088D02*
X571Y2088D01*
X1402Y2088D02*
X1423Y2088D01*
X1451Y2088D02*
X1472Y2088D01*
X501Y2087D02*
X521Y2087D01*
X551Y2087D02*
X571Y2087D01*
X1402Y2087D02*
X1422Y2087D01*
X1452Y2087D02*
X1472Y2087D01*
X501Y2086D02*
X521Y2086D01*
X552Y2086D02*
X571Y2086D01*
X1402Y2086D02*
X1422Y2086D01*
X1453Y2086D02*
X1472Y2086D01*
X501Y2085D02*
X520Y2085D01*
X552Y2085D02*
X572Y2085D01*
X1402Y2085D02*
X1421Y2085D01*
X1453Y2085D02*
X1473Y2085D01*
X500Y2084D02*
X520Y2084D01*
X553Y2084D02*
X572Y2084D01*
X1401Y2084D02*
X1420Y2084D01*
X1454Y2084D02*
X1473Y2084D01*
X500Y2083D02*
X519Y2083D01*
X553Y2083D02*
X572Y2083D01*
X1401Y2083D02*
X1420Y2083D01*
X1454Y2083D02*
X1473Y2083D01*
X500Y2082D02*
X519Y2082D01*
X554Y2082D02*
X572Y2082D01*
X1401Y2082D02*
X1420Y2082D01*
X1454Y2082D02*
X1473Y2082D01*
X500Y2081D02*
X519Y2081D01*
X554Y2081D02*
X572Y2081D01*
X1401Y2081D02*
X1420Y2081D01*
X1455Y2081D02*
X1473Y2081D01*
X500Y2080D02*
X518Y2080D01*
X554Y2080D02*
X573Y2080D01*
X1401Y2080D02*
X1419Y2080D01*
X1455Y2080D02*
X1473Y2080D01*
X500Y2079D02*
X518Y2079D01*
X554Y2079D02*
X573Y2079D01*
X1401Y2079D02*
X1419Y2079D01*
X1455Y2079D02*
X1474Y2079D01*
X500Y2078D02*
X518Y2078D01*
X554Y2078D02*
X573Y2078D01*
X1401Y2078D02*
X1419Y2078D01*
X1455Y2078D02*
X1474Y2078D01*
X500Y2077D02*
X518Y2077D01*
X554Y2077D02*
X573Y2077D01*
X1401Y2077D02*
X1419Y2077D01*
X1455Y2077D02*
X1474Y2077D01*
X500Y2076D02*
X518Y2076D01*
X554Y2076D02*
X573Y2076D01*
X1401Y2076D02*
X1419Y2076D01*
X1455Y2076D02*
X1474Y2076D01*
X500Y2075D02*
X518Y2075D01*
X554Y2075D02*
X573Y2075D01*
X1401Y2075D02*
X1419Y2075D01*
X1455Y2075D02*
X1474Y2075D01*
X500Y2074D02*
X518Y2074D01*
X554Y2074D02*
X573Y2074D01*
X1401Y2074D02*
X1419Y2074D01*
X1455Y2074D02*
X1473Y2074D01*
X500Y2073D02*
X519Y2073D01*
X554Y2073D02*
X573Y2073D01*
X1401Y2073D02*
X1419Y2073D01*
X1455Y2073D02*
X1473Y2073D01*
X500Y2072D02*
X519Y2072D01*
X554Y2072D02*
X572Y2072D01*
X1401Y2072D02*
X1420Y2072D01*
X1455Y2072D02*
X1473Y2072D01*
X500Y2071D02*
X519Y2071D01*
X553Y2071D02*
X572Y2071D01*
X1401Y2071D02*
X1420Y2071D01*
X1454Y2071D02*
X1473Y2071D01*
X500Y2070D02*
X519Y2070D01*
X553Y2070D02*
X572Y2070D01*
X1401Y2070D02*
X1420Y2070D01*
X1454Y2070D02*
X1473Y2070D01*
X501Y2069D02*
X520Y2069D01*
X552Y2069D02*
X572Y2069D01*
X1402Y2069D02*
X1421Y2069D01*
X1453Y2069D02*
X1473Y2069D01*
X501Y2068D02*
X521Y2068D01*
X552Y2068D02*
X572Y2068D01*
X1402Y2068D02*
X1421Y2068D01*
X1453Y2068D02*
X1472Y2068D01*
X501Y2067D02*
X521Y2067D01*
X551Y2067D02*
X571Y2067D01*
X1402Y2067D02*
X1422Y2067D01*
X1452Y2067D02*
X1472Y2067D01*
X501Y2066D02*
X522Y2066D01*
X550Y2066D02*
X571Y2066D01*
X1402Y2066D02*
X1423Y2066D01*
X1451Y2066D02*
X1472Y2066D01*
X502Y2065D02*
X523Y2065D01*
X550Y2065D02*
X571Y2065D01*
X1403Y2065D02*
X1424Y2065D01*
X1450Y2065D02*
X1472Y2065D01*
X502Y2064D02*
X524Y2064D01*
X549Y2064D02*
X570Y2064D01*
X1403Y2064D02*
X1425Y2064D01*
X1449Y2064D02*
X1471Y2064D01*
X503Y2063D02*
X525Y2063D01*
X547Y2063D02*
X570Y2063D01*
X1403Y2063D02*
X1426Y2063D01*
X1448Y2063D02*
X1471Y2063D01*
X503Y2062D02*
X526Y2062D01*
X546Y2062D02*
X569Y2062D01*
X1404Y2062D02*
X1427Y2062D01*
X1447Y2062D02*
X1470Y2062D01*
X503Y2061D02*
X528Y2061D01*
X544Y2061D02*
X569Y2061D01*
X1404Y2061D02*
X1429Y2061D01*
X1445Y2061D02*
X1470Y2061D01*
X504Y2060D02*
X531Y2060D01*
X542Y2060D02*
X568Y2060D01*
X1405Y2060D02*
X1432Y2060D01*
X1443Y2060D02*
X1469Y2060D01*
X504Y2059D02*
X568Y2059D01*
X1405Y2059D02*
X1469Y2059D01*
X505Y2058D02*
X567Y2058D01*
X1406Y2058D02*
X1468Y2058D01*
X506Y2057D02*
X567Y2057D01*
X1407Y2057D02*
X1468Y2057D01*
X506Y2056D02*
X566Y2056D01*
X1407Y2056D02*
X1467Y2056D01*
X507Y2055D02*
X565Y2055D01*
X1408Y2055D02*
X1466Y2055D01*
X508Y2054D02*
X565Y2054D01*
X1409Y2054D02*
X1466Y2054D01*
X508Y2053D02*
X564Y2053D01*
X1409Y2053D02*
X1465Y2053D01*
X509Y2052D02*
X563Y2052D01*
X1410Y2052D02*
X1464Y2052D01*
X510Y2051D02*
X562Y2051D01*
X1411Y2051D02*
X1463Y2051D01*
X511Y2050D02*
X561Y2050D01*
X1412Y2050D02*
X1462Y2050D01*
X512Y2049D02*
X560Y2049D01*
X1413Y2049D02*
X1461Y2049D01*
X514Y2048D02*
X559Y2048D01*
X1415Y2048D02*
X1460Y2048D01*
X515Y2047D02*
X557Y2047D01*
X1416Y2047D02*
X1458Y2047D01*
X517Y2046D02*
X556Y2046D01*
X1417Y2046D02*
X1457Y2046D01*
X518Y2045D02*
X554Y2045D01*
X1419Y2045D02*
X1455Y2045D01*
X520Y2044D02*
X552Y2044D01*
X1421Y2044D02*
X1453Y2044D01*
X522Y2043D02*
X550Y2043D01*
X1423Y2043D02*
X1451Y2043D01*
X525Y2042D02*
X548Y2042D01*
X1426Y2042D02*
X1448Y2042D01*
X528Y2041D02*
X544Y2041D01*
X1429Y2041D02*
X1445Y2041D01*
X534Y2040D02*
X538Y2040D01*
X1435Y2040D02*
X1439Y2040D01*
X530Y2013D02*
X543Y2013D01*
X1430Y2013D02*
X1444Y2013D01*
X526Y2012D02*
X547Y2012D01*
X1427Y2012D02*
X1448Y2012D01*
X523Y2011D02*
X549Y2011D01*
X1424Y2011D02*
X1450Y2011D01*
X521Y2010D02*
X552Y2010D01*
X1422Y2010D02*
X1453Y2010D01*
X519Y2009D02*
X554Y2009D01*
X1420Y2009D02*
X1455Y2009D01*
X517Y2008D02*
X555Y2008D01*
X1418Y2008D02*
X1456Y2008D01*
X515Y2007D02*
X557Y2007D01*
X1416Y2007D02*
X1458Y2007D01*
X514Y2006D02*
X558Y2006D01*
X1415Y2006D02*
X1459Y2006D01*
X513Y2005D02*
X560Y2005D01*
X1414Y2005D02*
X1461Y2005D01*
X512Y2004D02*
X561Y2004D01*
X1413Y2004D02*
X1462Y2004D01*
X511Y2003D02*
X562Y2003D01*
X1411Y2003D02*
X1463Y2003D01*
X510Y2002D02*
X563Y2002D01*
X1411Y2002D02*
X1464Y2002D01*
X509Y2001D02*
X564Y2001D01*
X1410Y2001D02*
X1465Y2001D01*
X508Y2000D02*
X564Y2000D01*
X1409Y2000D02*
X1465Y2000D01*
X507Y1999D02*
X565Y1999D01*
X1408Y1999D02*
X1466Y1999D01*
X506Y1998D02*
X566Y1998D01*
X1407Y1998D02*
X1467Y1998D01*
X506Y1997D02*
X567Y1997D01*
X1407Y1997D02*
X1467Y1997D01*
X505Y1996D02*
X567Y1996D01*
X1406Y1996D02*
X1468Y1996D01*
X505Y1995D02*
X568Y1995D01*
X1406Y1995D02*
X1469Y1995D01*
X504Y1994D02*
X532Y1994D01*
X540Y1994D02*
X568Y1994D01*
X1405Y1994D02*
X1433Y1994D01*
X1441Y1994D02*
X1469Y1994D01*
X504Y1993D02*
X529Y1993D01*
X544Y1993D02*
X569Y1993D01*
X1405Y1993D02*
X1430Y1993D01*
X1445Y1993D02*
X1470Y1993D01*
X503Y1992D02*
X527Y1992D01*
X545Y1992D02*
X569Y1992D01*
X1404Y1992D02*
X1428Y1992D01*
X1446Y1992D02*
X1470Y1992D01*
X503Y1991D02*
X525Y1991D01*
X547Y1991D02*
X570Y1991D01*
X1404Y1991D02*
X1426Y1991D01*
X1448Y1991D02*
X1471Y1991D01*
X502Y1990D02*
X524Y1990D01*
X548Y1990D02*
X570Y1990D01*
X1403Y1990D02*
X1425Y1990D01*
X1449Y1990D02*
X1471Y1990D01*
X502Y1989D02*
X523Y1989D01*
X549Y1989D02*
X570Y1989D01*
X1403Y1989D02*
X1424Y1989D01*
X1450Y1989D02*
X1471Y1989D01*
X502Y1988D02*
X522Y1988D01*
X550Y1988D02*
X571Y1988D01*
X1403Y1988D02*
X1423Y1988D01*
X1451Y1988D02*
X1472Y1988D01*
X501Y1987D02*
X521Y1987D01*
X551Y1987D02*
X571Y1987D01*
X1402Y1987D02*
X1422Y1987D01*
X1452Y1987D02*
X1472Y1987D01*
X501Y1986D02*
X521Y1986D01*
X552Y1986D02*
X571Y1986D01*
X1402Y1986D02*
X1422Y1986D01*
X1453Y1986D02*
X1472Y1986D01*
X501Y1985D02*
X520Y1985D01*
X552Y1985D02*
X572Y1985D01*
X1402Y1985D02*
X1421Y1985D01*
X1453Y1985D02*
X1473Y1985D01*
X500Y1984D02*
X520Y1984D01*
X553Y1984D02*
X572Y1984D01*
X1401Y1984D02*
X1421Y1984D01*
X1454Y1984D02*
X1473Y1984D01*
X500Y1983D02*
X519Y1983D01*
X553Y1983D02*
X572Y1983D01*
X1401Y1983D02*
X1420Y1983D01*
X1454Y1983D02*
X1473Y1983D01*
X500Y1982D02*
X519Y1982D01*
X553Y1982D02*
X572Y1982D01*
X1401Y1982D02*
X1420Y1982D01*
X1454Y1982D02*
X1473Y1982D01*
X500Y1981D02*
X519Y1981D01*
X554Y1981D02*
X572Y1981D01*
X1401Y1981D02*
X1420Y1981D01*
X1455Y1981D02*
X1473Y1981D01*
X500Y1980D02*
X518Y1980D01*
X554Y1980D02*
X573Y1980D01*
X1401Y1980D02*
X1419Y1980D01*
X1455Y1980D02*
X1473Y1980D01*
X500Y1979D02*
X518Y1979D01*
X554Y1979D02*
X573Y1979D01*
X1401Y1979D02*
X1419Y1979D01*
X1455Y1979D02*
X1474Y1979D01*
X500Y1978D02*
X518Y1978D01*
X554Y1978D02*
X573Y1978D01*
X1401Y1978D02*
X1419Y1978D01*
X1455Y1978D02*
X1474Y1978D01*
X500Y1977D02*
X518Y1977D01*
X554Y1977D02*
X573Y1977D01*
X1401Y1977D02*
X1419Y1977D01*
X1455Y1977D02*
X1474Y1977D01*
X500Y1976D02*
X518Y1976D01*
X554Y1976D02*
X573Y1976D01*
X1401Y1976D02*
X1419Y1976D01*
X1455Y1976D02*
X1474Y1976D01*
X500Y1975D02*
X518Y1975D01*
X554Y1975D02*
X573Y1975D01*
X1401Y1975D02*
X1419Y1975D01*
X1455Y1975D02*
X1474Y1975D01*
X500Y1974D02*
X518Y1974D01*
X554Y1974D02*
X573Y1974D01*
X1401Y1974D02*
X1419Y1974D01*
X1455Y1974D02*
X1474Y1974D01*
X500Y1973D02*
X519Y1973D01*
X554Y1973D02*
X573Y1973D01*
X1401Y1973D02*
X1419Y1973D01*
X1455Y1973D02*
X1473Y1973D01*
X500Y1972D02*
X519Y1972D01*
X554Y1972D02*
X572Y1972D01*
X1401Y1972D02*
X1420Y1972D01*
X1455Y1972D02*
X1473Y1972D01*
X500Y1971D02*
X519Y1971D01*
X553Y1971D02*
X572Y1971D01*
X1401Y1971D02*
X1420Y1971D01*
X1454Y1971D02*
X1473Y1971D01*
X500Y1970D02*
X519Y1970D01*
X553Y1970D02*
X572Y1970D01*
X1401Y1970D02*
X1420Y1970D01*
X1454Y1970D02*
X1473Y1970D01*
X501Y1969D02*
X520Y1969D01*
X553Y1969D02*
X572Y1969D01*
X1402Y1969D02*
X1421Y1969D01*
X1453Y1969D02*
X1473Y1969D01*
X501Y1968D02*
X520Y1968D01*
X552Y1968D02*
X572Y1968D01*
X1402Y1968D02*
X1421Y1968D01*
X1453Y1968D02*
X1472Y1968D01*
X501Y1967D02*
X521Y1967D01*
X551Y1967D02*
X571Y1967D01*
X1402Y1967D02*
X1422Y1967D01*
X1452Y1967D02*
X1472Y1967D01*
X501Y1966D02*
X522Y1966D01*
X551Y1966D02*
X571Y1966D01*
X1402Y1966D02*
X1423Y1966D01*
X1451Y1966D02*
X1472Y1966D01*
X502Y1965D02*
X523Y1965D01*
X550Y1965D02*
X571Y1965D01*
X1403Y1965D02*
X1424Y1965D01*
X1451Y1965D02*
X1472Y1965D01*
X502Y1964D02*
X524Y1964D01*
X549Y1964D02*
X570Y1964D01*
X1403Y1964D02*
X1425Y1964D01*
X1450Y1964D02*
X1471Y1964D01*
X503Y1963D02*
X525Y1963D01*
X547Y1963D02*
X570Y1963D01*
X1403Y1963D02*
X1426Y1963D01*
X1448Y1963D02*
X1471Y1963D01*
X503Y1962D02*
X526Y1962D01*
X546Y1962D02*
X569Y1962D01*
X1404Y1962D02*
X1427Y1962D01*
X1447Y1962D02*
X1470Y1962D01*
X503Y1961D02*
X528Y1961D01*
X545Y1961D02*
X569Y1961D01*
X1404Y1961D02*
X1429Y1961D01*
X1445Y1961D02*
X1470Y1961D01*
X504Y1960D02*
X530Y1960D01*
X542Y1960D02*
X569Y1960D01*
X1405Y1960D02*
X1431Y1960D01*
X1443Y1960D02*
X1469Y1960D01*
X504Y1959D02*
X568Y1959D01*
X1405Y1959D02*
X1469Y1959D01*
X505Y1958D02*
X567Y1958D01*
X1406Y1958D02*
X1468Y1958D01*
X506Y1957D02*
X567Y1957D01*
X1406Y1957D02*
X1468Y1957D01*
X506Y1956D02*
X566Y1956D01*
X1407Y1956D02*
X1467Y1956D01*
X507Y1955D02*
X566Y1955D01*
X1408Y1955D02*
X1466Y1955D01*
X508Y1954D02*
X565Y1954D01*
X1409Y1954D02*
X1466Y1954D01*
X508Y1953D02*
X564Y1953D01*
X1409Y1953D02*
X1465Y1953D01*
X509Y1952D02*
X563Y1952D01*
X1410Y1952D02*
X1464Y1952D01*
X510Y1951D02*
X562Y1951D01*
X1411Y1951D02*
X1463Y1951D01*
X511Y1950D02*
X561Y1950D01*
X1412Y1950D02*
X1462Y1950D01*
X512Y1949D02*
X560Y1949D01*
X1413Y1949D02*
X1461Y1949D01*
X513Y1948D02*
X559Y1948D01*
X1414Y1948D02*
X1460Y1948D01*
X515Y1947D02*
X558Y1947D01*
X1416Y1947D02*
X1458Y1947D01*
X516Y1946D02*
X556Y1946D01*
X1417Y1946D02*
X1457Y1946D01*
X518Y1945D02*
X554Y1945D01*
X1419Y1945D02*
X1455Y1945D01*
X520Y1944D02*
X553Y1944D01*
X1421Y1944D02*
X1453Y1944D01*
X522Y1943D02*
X550Y1943D01*
X1423Y1943D02*
X1451Y1943D01*
X525Y1942D02*
X548Y1942D01*
X1425Y1942D02*
X1449Y1942D01*
X528Y1941D02*
X545Y1941D01*
X1429Y1941D02*
X1446Y1941D01*
X533Y1940D02*
X540Y1940D01*
X1434Y1940D02*
X1441Y1940D01*
X530Y1913D02*
X542Y1913D01*
X1431Y1913D02*
X1443Y1913D01*
X526Y1912D02*
X546Y1912D01*
X1427Y1912D02*
X1447Y1912D01*
X523Y1911D02*
X549Y1911D01*
X1424Y1911D02*
X1450Y1911D01*
X521Y1910D02*
X551Y1910D01*
X1422Y1910D02*
X1452Y1910D01*
X519Y1909D02*
X553Y1909D01*
X1420Y1909D02*
X1454Y1909D01*
X517Y1908D02*
X555Y1908D01*
X1418Y1908D02*
X1456Y1908D01*
X516Y1907D02*
X557Y1907D01*
X1417Y1907D02*
X1458Y1907D01*
X514Y1906D02*
X558Y1906D01*
X1415Y1906D02*
X1459Y1906D01*
X513Y1905D02*
X559Y1905D01*
X1414Y1905D02*
X1460Y1905D01*
X512Y1904D02*
X561Y1904D01*
X1413Y1904D02*
X1462Y1904D01*
X511Y1903D02*
X562Y1903D01*
X1412Y1903D02*
X1463Y1903D01*
X510Y1902D02*
X563Y1902D01*
X1411Y1902D02*
X1464Y1902D01*
X509Y1901D02*
X564Y1901D01*
X1410Y1901D02*
X1464Y1901D01*
X508Y1900D02*
X564Y1900D01*
X1409Y1900D02*
X1465Y1900D01*
X507Y1899D02*
X565Y1899D01*
X1408Y1899D02*
X1466Y1899D01*
X507Y1898D02*
X566Y1898D01*
X1407Y1898D02*
X1467Y1898D01*
X506Y1897D02*
X567Y1897D01*
X1407Y1897D02*
X1467Y1897D01*
X505Y1896D02*
X567Y1896D01*
X1406Y1896D02*
X1468Y1896D01*
X505Y1895D02*
X568Y1895D01*
X1406Y1895D02*
X1469Y1895D01*
X504Y1894D02*
X533Y1894D01*
X539Y1894D02*
X568Y1894D01*
X1405Y1894D02*
X1434Y1894D01*
X1440Y1894D02*
X1469Y1894D01*
X504Y1893D02*
X529Y1893D01*
X543Y1893D02*
X569Y1893D01*
X1405Y1893D02*
X1430Y1893D01*
X1444Y1893D02*
X1470Y1893D01*
X503Y1892D02*
X527Y1892D01*
X545Y1892D02*
X569Y1892D01*
X1404Y1892D02*
X1428Y1892D01*
X1446Y1892D02*
X1470Y1892D01*
X503Y1891D02*
X526Y1891D01*
X547Y1891D02*
X570Y1891D01*
X1404Y1891D02*
X1426Y1891D01*
X1448Y1891D02*
X1471Y1891D01*
X502Y1890D02*
X524Y1890D01*
X548Y1890D02*
X570Y1890D01*
X1403Y1890D02*
X1425Y1890D01*
X1449Y1890D02*
X1471Y1890D01*
X502Y1889D02*
X523Y1889D01*
X549Y1889D02*
X570Y1889D01*
X1403Y1889D02*
X1424Y1889D01*
X1450Y1889D02*
X1471Y1889D01*
X502Y1888D02*
X522Y1888D01*
X550Y1888D02*
X571Y1888D01*
X1403Y1888D02*
X1423Y1888D01*
X1451Y1888D02*
X1472Y1888D01*
X501Y1887D02*
X522Y1887D01*
X551Y1887D02*
X571Y1887D01*
X1402Y1887D02*
X1422Y1887D01*
X1452Y1887D02*
X1472Y1887D01*
X501Y1886D02*
X521Y1886D01*
X552Y1886D02*
X571Y1886D01*
X1402Y1886D02*
X1422Y1886D01*
X1453Y1886D02*
X1472Y1886D01*
X501Y1885D02*
X520Y1885D01*
X552Y1885D02*
X572Y1885D01*
X1402Y1885D02*
X1421Y1885D01*
X1453Y1885D02*
X1473Y1885D01*
X501Y1884D02*
X520Y1884D01*
X553Y1884D02*
X572Y1884D01*
X1401Y1884D02*
X1421Y1884D01*
X1454Y1884D02*
X1473Y1884D01*
X500Y1883D02*
X519Y1883D01*
X553Y1883D02*
X572Y1883D01*
X1401Y1883D02*
X1420Y1883D01*
X1454Y1883D02*
X1473Y1883D01*
X500Y1882D02*
X519Y1882D01*
X553Y1882D02*
X572Y1882D01*
X1401Y1882D02*
X1420Y1882D01*
X1454Y1882D02*
X1473Y1882D01*
X500Y1881D02*
X519Y1881D01*
X554Y1881D02*
X572Y1881D01*
X1401Y1881D02*
X1420Y1881D01*
X1455Y1881D02*
X1473Y1881D01*
X500Y1880D02*
X518Y1880D01*
X554Y1880D02*
X573Y1880D01*
X1401Y1880D02*
X1419Y1880D01*
X1455Y1880D02*
X1473Y1880D01*
X500Y1879D02*
X518Y1879D01*
X554Y1879D02*
X573Y1879D01*
X1401Y1879D02*
X1419Y1879D01*
X1455Y1879D02*
X1474Y1879D01*
X500Y1878D02*
X518Y1878D01*
X554Y1878D02*
X573Y1878D01*
X1401Y1878D02*
X1419Y1878D01*
X1455Y1878D02*
X1474Y1878D01*
X500Y1877D02*
X518Y1877D01*
X554Y1877D02*
X573Y1877D01*
X1401Y1877D02*
X1419Y1877D01*
X1455Y1877D02*
X1474Y1877D01*
X500Y1876D02*
X518Y1876D01*
X554Y1876D02*
X573Y1876D01*
X1401Y1876D02*
X1419Y1876D01*
X1455Y1876D02*
X1474Y1876D01*
X500Y1875D02*
X518Y1875D01*
X554Y1875D02*
X573Y1875D01*
X1401Y1875D02*
X1419Y1875D01*
X1455Y1875D02*
X1474Y1875D01*
X500Y1874D02*
X518Y1874D01*
X554Y1874D02*
X573Y1874D01*
X1401Y1874D02*
X1419Y1874D01*
X1455Y1874D02*
X1474Y1874D01*
X500Y1873D02*
X518Y1873D01*
X554Y1873D02*
X573Y1873D01*
X1401Y1873D02*
X1419Y1873D01*
X1455Y1873D02*
X1473Y1873D01*
X500Y1872D02*
X519Y1872D01*
X554Y1872D02*
X572Y1872D01*
X1401Y1872D02*
X1420Y1872D01*
X1455Y1872D02*
X1473Y1872D01*
X500Y1871D02*
X519Y1871D01*
X553Y1871D02*
X572Y1871D01*
X1401Y1871D02*
X1420Y1871D01*
X1454Y1871D02*
X1473Y1871D01*
X500Y1870D02*
X519Y1870D01*
X553Y1870D02*
X572Y1870D01*
X1401Y1870D02*
X1420Y1870D01*
X1454Y1870D02*
X1473Y1870D01*
X501Y1869D02*
X520Y1869D01*
X553Y1869D02*
X572Y1869D01*
X1402Y1869D02*
X1421Y1869D01*
X1453Y1869D02*
X1473Y1869D01*
X501Y1868D02*
X520Y1868D01*
X552Y1868D02*
X572Y1868D01*
X1402Y1868D02*
X1421Y1868D01*
X1453Y1868D02*
X1472Y1868D01*
X501Y1867D02*
X521Y1867D01*
X551Y1867D02*
X571Y1867D01*
X1402Y1867D02*
X1422Y1867D01*
X1452Y1867D02*
X1472Y1867D01*
X501Y1866D02*
X522Y1866D01*
X551Y1866D02*
X571Y1866D01*
X1402Y1866D02*
X1423Y1866D01*
X1452Y1866D02*
X1472Y1866D01*
X502Y1865D02*
X523Y1865D01*
X550Y1865D02*
X571Y1865D01*
X1403Y1865D02*
X1424Y1865D01*
X1451Y1865D02*
X1472Y1865D01*
X502Y1864D02*
X524Y1864D01*
X549Y1864D02*
X570Y1864D01*
X1403Y1864D02*
X1425Y1864D01*
X1450Y1864D02*
X1471Y1864D01*
X502Y1863D02*
X525Y1863D01*
X548Y1863D02*
X570Y1863D01*
X1403Y1863D02*
X1426Y1863D01*
X1449Y1863D02*
X1471Y1863D01*
X503Y1862D02*
X526Y1862D01*
X546Y1862D02*
X570Y1862D01*
X1404Y1862D02*
X1427Y1862D01*
X1447Y1862D02*
X1470Y1862D01*
X503Y1861D02*
X528Y1861D01*
X545Y1861D02*
X569Y1861D01*
X1404Y1861D02*
X1429Y1861D01*
X1446Y1861D02*
X1470Y1861D01*
X504Y1860D02*
X530Y1860D01*
X542Y1860D02*
X569Y1860D01*
X1405Y1860D02*
X1431Y1860D01*
X1443Y1860D02*
X1469Y1860D01*
X504Y1859D02*
X568Y1859D01*
X1405Y1859D02*
X1469Y1859D01*
X505Y1858D02*
X567Y1858D01*
X1406Y1858D02*
X1468Y1858D01*
X506Y1857D02*
X567Y1857D01*
X1406Y1857D02*
X1468Y1857D01*
X506Y1856D02*
X566Y1856D01*
X1407Y1856D02*
X1467Y1856D01*
X507Y1855D02*
X566Y1855D01*
X1408Y1855D02*
X1467Y1855D01*
X508Y1854D02*
X565Y1854D01*
X1408Y1854D02*
X1466Y1854D01*
X508Y1853D02*
X564Y1853D01*
X1409Y1853D02*
X1465Y1853D01*
X509Y1852D02*
X563Y1852D01*
X1410Y1852D02*
X1464Y1852D01*
X510Y1851D02*
X562Y1851D01*
X1411Y1851D02*
X1463Y1851D01*
X511Y1850D02*
X561Y1850D01*
X1412Y1850D02*
X1462Y1850D01*
X512Y1849D02*
X560Y1849D01*
X1413Y1849D02*
X1461Y1849D01*
X513Y1848D02*
X559Y1848D01*
X1414Y1848D02*
X1460Y1848D01*
X515Y1847D02*
X558Y1847D01*
X1416Y1847D02*
X1459Y1847D01*
X516Y1846D02*
X556Y1846D01*
X1417Y1846D02*
X1457Y1846D01*
X518Y1845D02*
X555Y1845D01*
X1419Y1845D02*
X1455Y1845D01*
X520Y1844D02*
X553Y1844D01*
X1421Y1844D02*
X1454Y1844D01*
X522Y1843D02*
X551Y1843D01*
X1423Y1843D02*
X1452Y1843D01*
X524Y1842D02*
X548Y1842D01*
X1425Y1842D02*
X1449Y1842D01*
X527Y1841D02*
X545Y1841D01*
X1428Y1841D02*
X1446Y1841D01*
X532Y1840D02*
X540Y1840D01*
X1433Y1840D02*
X1441Y1840D01*
X531Y1813D02*
X542Y1813D01*
X1432Y1813D02*
X1443Y1813D01*
X527Y1812D02*
X546Y1812D01*
X1427Y1812D02*
X1447Y1812D01*
X524Y1811D02*
X549Y1811D01*
X1425Y1811D02*
X1450Y1811D01*
X521Y1810D02*
X551Y1810D01*
X1422Y1810D02*
X1452Y1810D01*
X519Y1809D02*
X553Y1809D01*
X1420Y1809D02*
X1454Y1809D01*
X517Y1808D02*
X555Y1808D01*
X1418Y1808D02*
X1456Y1808D01*
X516Y1807D02*
X557Y1807D01*
X1417Y1807D02*
X1458Y1807D01*
X514Y1806D02*
X558Y1806D01*
X1415Y1806D02*
X1459Y1806D01*
X513Y1805D02*
X559Y1805D01*
X1414Y1805D02*
X1460Y1805D01*
X512Y1804D02*
X560Y1804D01*
X1413Y1804D02*
X1461Y1804D01*
X511Y1803D02*
X562Y1803D01*
X1412Y1803D02*
X1463Y1803D01*
X510Y1802D02*
X563Y1802D01*
X1411Y1802D02*
X1463Y1802D01*
X509Y1801D02*
X563Y1801D01*
X1410Y1801D02*
X1464Y1801D01*
X508Y1800D02*
X564Y1800D01*
X1409Y1800D02*
X1465Y1800D01*
X507Y1799D02*
X565Y1799D01*
X1408Y1799D02*
X1466Y1799D01*
X507Y1798D02*
X566Y1798D01*
X1408Y1798D02*
X1467Y1798D01*
X506Y1797D02*
X566Y1797D01*
X1407Y1797D02*
X1467Y1797D01*
X505Y1796D02*
X567Y1796D01*
X1406Y1796D02*
X1468Y1796D01*
X505Y1795D02*
X568Y1795D01*
X1406Y1795D02*
X1469Y1795D01*
X504Y1794D02*
X535Y1794D01*
X538Y1794D02*
X568Y1794D01*
X1405Y1794D02*
X1436Y1794D01*
X1438Y1794D02*
X1469Y1794D01*
X504Y1793D02*
X529Y1793D01*
X543Y1793D02*
X569Y1793D01*
X1405Y1793D02*
X1430Y1793D01*
X1444Y1793D02*
X1470Y1793D01*
X503Y1792D02*
X527Y1792D01*
X545Y1792D02*
X569Y1792D01*
X1404Y1792D02*
X1428Y1792D01*
X1446Y1792D02*
X1470Y1792D01*
X503Y1791D02*
X526Y1791D01*
X547Y1791D02*
X570Y1791D01*
X1404Y1791D02*
X1427Y1791D01*
X1448Y1791D02*
X1471Y1791D01*
X502Y1790D02*
X525Y1790D01*
X548Y1790D02*
X570Y1790D01*
X1403Y1790D02*
X1425Y1790D01*
X1449Y1790D02*
X1471Y1790D01*
X502Y1789D02*
X523Y1789D01*
X549Y1789D02*
X570Y1789D01*
X1403Y1789D02*
X1424Y1789D01*
X1450Y1789D02*
X1471Y1789D01*
X502Y1788D02*
X523Y1788D01*
X550Y1788D02*
X571Y1788D01*
X1403Y1788D02*
X1423Y1788D01*
X1451Y1788D02*
X1472Y1788D01*
X501Y1787D02*
X522Y1787D01*
X551Y1787D02*
X571Y1787D01*
X1402Y1787D02*
X1423Y1787D01*
X1452Y1787D02*
X1472Y1787D01*
X501Y1786D02*
X521Y1786D01*
X552Y1786D02*
X571Y1786D01*
X1402Y1786D02*
X1422Y1786D01*
X1452Y1786D02*
X1472Y1786D01*
X501Y1785D02*
X520Y1785D01*
X552Y1785D02*
X572Y1785D01*
X1402Y1785D02*
X1421Y1785D01*
X1453Y1785D02*
X1473Y1785D01*
X501Y1784D02*
X520Y1784D01*
X553Y1784D02*
X572Y1784D01*
X1401Y1784D02*
X1421Y1784D01*
X1454Y1784D02*
X1473Y1784D01*
X500Y1783D02*
X519Y1783D01*
X553Y1783D02*
X572Y1783D01*
X1401Y1783D02*
X1420Y1783D01*
X1454Y1783D02*
X1473Y1783D01*
X500Y1782D02*
X519Y1782D01*
X553Y1782D02*
X572Y1782D01*
X1401Y1782D02*
X1420Y1782D01*
X1454Y1782D02*
X1473Y1782D01*
X500Y1781D02*
X519Y1781D01*
X554Y1781D02*
X572Y1781D01*
X1401Y1781D02*
X1420Y1781D01*
X1455Y1781D02*
X1473Y1781D01*
X500Y1780D02*
X518Y1780D01*
X554Y1780D02*
X573Y1780D01*
X1401Y1780D02*
X1419Y1780D01*
X1455Y1780D02*
X1473Y1780D01*
X500Y1779D02*
X518Y1779D01*
X554Y1779D02*
X573Y1779D01*
X1401Y1779D02*
X1419Y1779D01*
X1455Y1779D02*
X1474Y1779D01*
X500Y1778D02*
X518Y1778D01*
X554Y1778D02*
X573Y1778D01*
X1401Y1778D02*
X1419Y1778D01*
X1455Y1778D02*
X1474Y1778D01*
X500Y1777D02*
X518Y1777D01*
X554Y1777D02*
X573Y1777D01*
X1401Y1777D02*
X1419Y1777D01*
X1455Y1777D02*
X1474Y1777D01*
X500Y1776D02*
X518Y1776D01*
X554Y1776D02*
X573Y1776D01*
X1401Y1776D02*
X1419Y1776D01*
X1455Y1776D02*
X1474Y1776D01*
X500Y1775D02*
X518Y1775D01*
X554Y1775D02*
X573Y1775D01*
X1401Y1775D02*
X1419Y1775D01*
X1455Y1775D02*
X1474Y1775D01*
X500Y1774D02*
X518Y1774D01*
X554Y1774D02*
X573Y1774D01*
X1401Y1774D02*
X1419Y1774D01*
X1455Y1774D02*
X1474Y1774D01*
X500Y1773D02*
X518Y1773D01*
X554Y1773D02*
X573Y1773D01*
X1401Y1773D02*
X1419Y1773D01*
X1455Y1773D02*
X1473Y1773D01*
X500Y1772D02*
X519Y1772D01*
X554Y1772D02*
X572Y1772D01*
X1401Y1772D02*
X1420Y1772D01*
X1455Y1772D02*
X1473Y1772D01*
X500Y1771D02*
X519Y1771D01*
X553Y1771D02*
X572Y1771D01*
X1401Y1771D02*
X1420Y1771D01*
X1454Y1771D02*
X1473Y1771D01*
X500Y1770D02*
X519Y1770D01*
X553Y1770D02*
X572Y1770D01*
X1401Y1770D02*
X1420Y1770D01*
X1454Y1770D02*
X1473Y1770D01*
X501Y1769D02*
X520Y1769D01*
X553Y1769D02*
X572Y1769D01*
X1401Y1769D02*
X1421Y1769D01*
X1454Y1769D02*
X1473Y1769D01*
X501Y1768D02*
X520Y1768D01*
X552Y1768D02*
X572Y1768D01*
X1402Y1768D02*
X1421Y1768D01*
X1453Y1768D02*
X1473Y1768D01*
X501Y1767D02*
X521Y1767D01*
X552Y1767D02*
X571Y1767D01*
X1402Y1767D02*
X1422Y1767D01*
X1452Y1767D02*
X1472Y1767D01*
X501Y1766D02*
X522Y1766D01*
X551Y1766D02*
X571Y1766D01*
X1402Y1766D02*
X1423Y1766D01*
X1452Y1766D02*
X1472Y1766D01*
X502Y1765D02*
X523Y1765D01*
X550Y1765D02*
X571Y1765D01*
X1403Y1765D02*
X1424Y1765D01*
X1451Y1765D02*
X1472Y1765D01*
X502Y1764D02*
X524Y1764D01*
X549Y1764D02*
X570Y1764D01*
X1403Y1764D02*
X1424Y1764D01*
X1450Y1764D02*
X1471Y1764D01*
X502Y1763D02*
X525Y1763D01*
X548Y1763D02*
X570Y1763D01*
X1403Y1763D02*
X1426Y1763D01*
X1449Y1763D02*
X1471Y1763D01*
X503Y1762D02*
X526Y1762D01*
X547Y1762D02*
X570Y1762D01*
X1404Y1762D02*
X1427Y1762D01*
X1447Y1762D02*
X1470Y1762D01*
X503Y1761D02*
X527Y1761D01*
X545Y1761D02*
X569Y1761D01*
X1404Y1761D02*
X1428Y1761D01*
X1446Y1761D02*
X1470Y1761D01*
X504Y1760D02*
X530Y1760D01*
X543Y1760D02*
X569Y1760D01*
X1405Y1760D02*
X1431Y1760D01*
X1444Y1760D02*
X1470Y1760D01*
X504Y1759D02*
X568Y1759D01*
X1405Y1759D02*
X1469Y1759D01*
X505Y1758D02*
X568Y1758D01*
X1406Y1758D02*
X1468Y1758D01*
X505Y1757D02*
X567Y1757D01*
X1406Y1757D02*
X1468Y1757D01*
X506Y1756D02*
X566Y1756D01*
X1407Y1756D02*
X1467Y1756D01*
X507Y1755D02*
X566Y1755D01*
X1408Y1755D02*
X1467Y1755D01*
X507Y1754D02*
X565Y1754D01*
X1408Y1754D02*
X1466Y1754D01*
X508Y1753D02*
X564Y1753D01*
X1409Y1753D02*
X1465Y1753D01*
X509Y1752D02*
X563Y1752D01*
X1410Y1752D02*
X1464Y1752D01*
X510Y1751D02*
X562Y1751D01*
X1411Y1751D02*
X1463Y1751D01*
X511Y1750D02*
X562Y1750D01*
X1412Y1750D02*
X1462Y1750D01*
X512Y1749D02*
X560Y1749D01*
X1413Y1749D02*
X1461Y1749D01*
X513Y1748D02*
X559Y1748D01*
X1414Y1748D02*
X1460Y1748D01*
X515Y1747D02*
X558Y1747D01*
X1415Y1747D02*
X1459Y1747D01*
X516Y1746D02*
X556Y1746D01*
X1417Y1746D02*
X1457Y1746D01*
X518Y1745D02*
X555Y1745D01*
X1419Y1745D02*
X1456Y1745D01*
X519Y1744D02*
X553Y1744D01*
X1420Y1744D02*
X1454Y1744D01*
X522Y1743D02*
X551Y1743D01*
X1422Y1743D02*
X1452Y1743D01*
X524Y1742D02*
X548Y1742D01*
X1425Y1742D02*
X1449Y1742D01*
X527Y1741D02*
X545Y1741D01*
X1428Y1741D02*
X1446Y1741D01*
X531Y1740D02*
X541Y1740D01*
X1432Y1740D02*
X1442Y1740D01*
X531Y1713D02*
X541Y1713D01*
X1432Y1713D02*
X1442Y1713D01*
X527Y1712D02*
X545Y1712D01*
X1428Y1712D02*
X1446Y1712D01*
X524Y1711D02*
X548Y1711D01*
X1425Y1711D02*
X1449Y1711D01*
X522Y1710D02*
X551Y1710D01*
X1422Y1710D02*
X1452Y1710D01*
X519Y1709D02*
X553Y1709D01*
X1420Y1709D02*
X1454Y1709D01*
X518Y1708D02*
X555Y1708D01*
X1419Y1708D02*
X1456Y1708D01*
X516Y1707D02*
X556Y1707D01*
X1417Y1707D02*
X1457Y1707D01*
X515Y1706D02*
X558Y1706D01*
X1415Y1706D02*
X1459Y1706D01*
X513Y1705D02*
X559Y1705D01*
X1414Y1705D02*
X1460Y1705D01*
X512Y1704D02*
X560Y1704D01*
X1413Y1704D02*
X1461Y1704D01*
X511Y1703D02*
X561Y1703D01*
X1412Y1703D02*
X1462Y1703D01*
X510Y1702D02*
X562Y1702D01*
X1411Y1702D02*
X1463Y1702D01*
X509Y1701D02*
X563Y1701D01*
X1410Y1701D02*
X1464Y1701D01*
X508Y1700D02*
X564Y1700D01*
X1409Y1700D02*
X1465Y1700D01*
X507Y1699D02*
X565Y1699D01*
X1408Y1699D02*
X1466Y1699D01*
X507Y1698D02*
X566Y1698D01*
X1408Y1698D02*
X1467Y1698D01*
X506Y1697D02*
X566Y1697D01*
X1407Y1697D02*
X1467Y1697D01*
X505Y1696D02*
X567Y1696D01*
X1406Y1696D02*
X1468Y1696D01*
X505Y1695D02*
X568Y1695D01*
X1406Y1695D02*
X1468Y1695D01*
X504Y1694D02*
X568Y1694D01*
X1405Y1694D02*
X1469Y1694D01*
X504Y1693D02*
X530Y1693D01*
X543Y1693D02*
X569Y1693D01*
X1405Y1693D02*
X1431Y1693D01*
X1444Y1693D02*
X1470Y1693D01*
X503Y1692D02*
X527Y1692D01*
X545Y1692D02*
X569Y1692D01*
X1404Y1692D02*
X1428Y1692D01*
X1446Y1692D02*
X1470Y1692D01*
X503Y1691D02*
X526Y1691D01*
X547Y1691D02*
X570Y1691D01*
X1404Y1691D02*
X1427Y1691D01*
X1447Y1691D02*
X1470Y1691D01*
X502Y1690D02*
X525Y1690D01*
X548Y1690D02*
X570Y1690D01*
X1403Y1690D02*
X1426Y1690D01*
X1449Y1690D02*
X1471Y1690D01*
X502Y1689D02*
X524Y1689D01*
X549Y1689D02*
X570Y1689D01*
X1403Y1689D02*
X1424Y1689D01*
X1450Y1689D02*
X1471Y1689D01*
X502Y1688D02*
X523Y1688D01*
X550Y1688D02*
X571Y1688D01*
X1403Y1688D02*
X1424Y1688D01*
X1451Y1688D02*
X1472Y1688D01*
X501Y1687D02*
X522Y1687D01*
X551Y1687D02*
X571Y1687D01*
X1402Y1687D02*
X1423Y1687D01*
X1452Y1687D02*
X1472Y1687D01*
X501Y1686D02*
X521Y1686D01*
X551Y1686D02*
X571Y1686D01*
X1402Y1686D02*
X1422Y1686D01*
X1452Y1686D02*
X1472Y1686D01*
X501Y1685D02*
X520Y1685D01*
X552Y1685D02*
X572Y1685D01*
X1402Y1685D02*
X1421Y1685D01*
X1453Y1685D02*
X1472Y1685D01*
X501Y1684D02*
X520Y1684D01*
X553Y1684D02*
X572Y1684D01*
X1401Y1684D02*
X1421Y1684D01*
X1454Y1684D02*
X1473Y1684D01*
X500Y1683D02*
X519Y1683D01*
X553Y1683D02*
X572Y1683D01*
X1401Y1683D02*
X1420Y1683D01*
X1454Y1683D02*
X1473Y1683D01*
X500Y1682D02*
X519Y1682D01*
X553Y1682D02*
X572Y1682D01*
X1401Y1682D02*
X1420Y1682D01*
X1454Y1682D02*
X1473Y1682D01*
X500Y1681D02*
X519Y1681D01*
X554Y1681D02*
X572Y1681D01*
X1401Y1681D02*
X1420Y1681D01*
X1455Y1681D02*
X1473Y1681D01*
X500Y1680D02*
X518Y1680D01*
X554Y1680D02*
X573Y1680D01*
X1401Y1680D02*
X1419Y1680D01*
X1455Y1680D02*
X1473Y1680D01*
X500Y1679D02*
X518Y1679D01*
X554Y1679D02*
X573Y1679D01*
X1401Y1679D02*
X1419Y1679D01*
X1455Y1679D02*
X1474Y1679D01*
X500Y1678D02*
X518Y1678D01*
X554Y1678D02*
X573Y1678D01*
X1401Y1678D02*
X1419Y1678D01*
X1455Y1678D02*
X1474Y1678D01*
X500Y1677D02*
X518Y1677D01*
X554Y1677D02*
X573Y1677D01*
X1401Y1677D02*
X1419Y1677D01*
X1455Y1677D02*
X1474Y1677D01*
X500Y1676D02*
X518Y1676D01*
X554Y1676D02*
X573Y1676D01*
X1401Y1676D02*
X1419Y1676D01*
X1455Y1676D02*
X1474Y1676D01*
X500Y1675D02*
X518Y1675D01*
X554Y1675D02*
X573Y1675D01*
X1401Y1675D02*
X1419Y1675D01*
X1455Y1675D02*
X1474Y1675D01*
X500Y1674D02*
X518Y1674D01*
X554Y1674D02*
X573Y1674D01*
X1401Y1674D02*
X1419Y1674D01*
X1455Y1674D02*
X1474Y1674D01*
X500Y1673D02*
X518Y1673D01*
X554Y1673D02*
X573Y1673D01*
X1401Y1673D02*
X1419Y1673D01*
X1455Y1673D02*
X1473Y1673D01*
X500Y1672D02*
X519Y1672D01*
X554Y1672D02*
X572Y1672D01*
X1401Y1672D02*
X1420Y1672D01*
X1455Y1672D02*
X1473Y1672D01*
X500Y1671D02*
X519Y1671D01*
X553Y1671D02*
X572Y1671D01*
X1401Y1671D02*
X1420Y1671D01*
X1454Y1671D02*
X1473Y1671D01*
X500Y1670D02*
X519Y1670D01*
X553Y1670D02*
X572Y1670D01*
X1401Y1670D02*
X1420Y1670D01*
X1454Y1670D02*
X1473Y1670D01*
X501Y1669D02*
X520Y1669D01*
X553Y1669D02*
X572Y1669D01*
X1401Y1669D02*
X1421Y1669D01*
X1454Y1669D02*
X1473Y1669D01*
X501Y1668D02*
X520Y1668D01*
X552Y1668D02*
X572Y1668D01*
X1402Y1668D02*
X1421Y1668D01*
X1453Y1668D02*
X1473Y1668D01*
X501Y1667D02*
X521Y1667D01*
X552Y1667D02*
X571Y1667D01*
X1402Y1667D02*
X1422Y1667D01*
X1452Y1667D02*
X1472Y1667D01*
X501Y1666D02*
X522Y1666D01*
X551Y1666D02*
X571Y1666D01*
X1402Y1666D02*
X1423Y1666D01*
X1452Y1666D02*
X1472Y1666D01*
X502Y1665D02*
X522Y1665D01*
X550Y1665D02*
X571Y1665D01*
X1403Y1665D02*
X1423Y1665D01*
X1451Y1665D02*
X1472Y1665D01*
X502Y1664D02*
X523Y1664D01*
X549Y1664D02*
X570Y1664D01*
X1403Y1664D02*
X1424Y1664D01*
X1450Y1664D02*
X1471Y1664D01*
X502Y1663D02*
X525Y1663D01*
X548Y1663D02*
X570Y1663D01*
X1403Y1663D02*
X1425Y1663D01*
X1449Y1663D02*
X1471Y1663D01*
X503Y1662D02*
X526Y1662D01*
X547Y1662D02*
X570Y1662D01*
X1404Y1662D02*
X1427Y1662D01*
X1448Y1662D02*
X1471Y1662D01*
X503Y1661D02*
X527Y1661D01*
X545Y1661D02*
X569Y1661D01*
X1404Y1661D02*
X1428Y1661D01*
X1446Y1661D02*
X1470Y1661D01*
X504Y1660D02*
X529Y1660D01*
X543Y1660D02*
X569Y1660D01*
X1405Y1660D02*
X1430Y1660D01*
X1444Y1660D02*
X1470Y1660D01*
X504Y1659D02*
X535Y1659D01*
X538Y1659D02*
X568Y1659D01*
X1405Y1659D02*
X1436Y1659D01*
X1439Y1659D02*
X1469Y1659D01*
X505Y1658D02*
X568Y1658D01*
X1406Y1658D02*
X1469Y1658D01*
X505Y1657D02*
X567Y1657D01*
X1406Y1657D02*
X1468Y1657D01*
X506Y1656D02*
X566Y1656D01*
X1407Y1656D02*
X1467Y1656D01*
X507Y1655D02*
X566Y1655D01*
X1408Y1655D02*
X1467Y1655D01*
X507Y1654D02*
X565Y1654D01*
X1408Y1654D02*
X1466Y1654D01*
X508Y1653D02*
X564Y1653D01*
X1409Y1653D02*
X1465Y1653D01*
X509Y1652D02*
X563Y1652D01*
X1410Y1652D02*
X1464Y1652D01*
X510Y1651D02*
X563Y1651D01*
X1411Y1651D02*
X1463Y1651D01*
X511Y1650D02*
X562Y1650D01*
X1412Y1650D02*
X1463Y1650D01*
X512Y1649D02*
X561Y1649D01*
X1413Y1649D02*
X1461Y1649D01*
X513Y1648D02*
X559Y1648D01*
X1414Y1648D02*
X1460Y1648D01*
X514Y1647D02*
X558Y1647D01*
X1415Y1647D02*
X1459Y1647D01*
X516Y1646D02*
X557Y1646D01*
X1417Y1646D02*
X1458Y1646D01*
X517Y1645D02*
X555Y1645D01*
X1418Y1645D02*
X1456Y1645D01*
X519Y1644D02*
X553Y1644D01*
X1420Y1644D02*
X1454Y1644D01*
X521Y1643D02*
X551Y1643D01*
X1422Y1643D02*
X1452Y1643D01*
X524Y1642D02*
X549Y1642D01*
X1425Y1642D02*
X1450Y1642D01*
X527Y1641D02*
X546Y1641D01*
X1427Y1641D02*
X1447Y1641D01*
X531Y1640D02*
X542Y1640D01*
X1432Y1640D02*
X1443Y1640D01*
X532Y1613D02*
X540Y1613D01*
X1433Y1613D02*
X1441Y1613D01*
X527Y1612D02*
X545Y1612D01*
X1428Y1612D02*
X1446Y1612D01*
X524Y1611D02*
X548Y1611D01*
X1425Y1611D02*
X1449Y1611D01*
X522Y1610D02*
X551Y1610D01*
X1423Y1610D02*
X1452Y1610D01*
X520Y1609D02*
X553Y1609D01*
X1421Y1609D02*
X1454Y1609D01*
X518Y1608D02*
X555Y1608D01*
X1419Y1608D02*
X1455Y1608D01*
X516Y1607D02*
X556Y1607D01*
X1417Y1607D02*
X1457Y1607D01*
X515Y1606D02*
X558Y1606D01*
X1416Y1606D02*
X1459Y1606D01*
X513Y1605D02*
X559Y1605D01*
X1414Y1605D02*
X1460Y1605D01*
X512Y1604D02*
X560Y1604D01*
X1413Y1604D02*
X1461Y1604D01*
X511Y1603D02*
X561Y1603D01*
X1412Y1603D02*
X1462Y1603D01*
X510Y1602D02*
X562Y1602D01*
X1411Y1602D02*
X1463Y1602D01*
X509Y1601D02*
X563Y1601D01*
X1410Y1601D02*
X1464Y1601D01*
X508Y1600D02*
X564Y1600D01*
X1409Y1600D02*
X1465Y1600D01*
X508Y1599D02*
X565Y1599D01*
X1408Y1599D02*
X1466Y1599D01*
X507Y1598D02*
X566Y1598D01*
X1408Y1598D02*
X1467Y1598D01*
X506Y1597D02*
X566Y1597D01*
X1407Y1597D02*
X1467Y1597D01*
X506Y1596D02*
X567Y1596D01*
X1406Y1596D02*
X1468Y1596D01*
X505Y1595D02*
X567Y1595D01*
X1406Y1595D02*
X1468Y1595D01*
X504Y1594D02*
X568Y1594D01*
X1405Y1594D02*
X1469Y1594D01*
X504Y1593D02*
X530Y1593D01*
X542Y1593D02*
X569Y1593D01*
X1405Y1593D02*
X1431Y1593D01*
X1443Y1593D02*
X1469Y1593D01*
X503Y1592D02*
X528Y1592D01*
X545Y1592D02*
X569Y1592D01*
X1404Y1592D02*
X1429Y1592D01*
X1446Y1592D02*
X1470Y1592D01*
X503Y1591D02*
X526Y1591D01*
X546Y1591D02*
X570Y1591D01*
X1404Y1591D02*
X1427Y1591D01*
X1447Y1591D02*
X1470Y1591D01*
X502Y1590D02*
X525Y1590D01*
X548Y1590D02*
X570Y1590D01*
X1403Y1590D02*
X1426Y1590D01*
X1449Y1590D02*
X1471Y1590D01*
X502Y1589D02*
X524Y1589D01*
X549Y1589D02*
X570Y1589D01*
X1403Y1589D02*
X1425Y1589D01*
X1450Y1589D02*
X1471Y1589D01*
X502Y1588D02*
X523Y1588D01*
X550Y1588D02*
X571Y1588D01*
X1403Y1588D02*
X1424Y1588D01*
X1451Y1588D02*
X1472Y1588D01*
X501Y1587D02*
X522Y1587D01*
X551Y1587D02*
X571Y1587D01*
X1402Y1587D02*
X1423Y1587D01*
X1451Y1587D02*
X1472Y1587D01*
X501Y1586D02*
X521Y1586D01*
X551Y1586D02*
X571Y1586D01*
X1402Y1586D02*
X1422Y1586D01*
X1452Y1586D02*
X1472Y1586D01*
X501Y1585D02*
X520Y1585D01*
X552Y1585D02*
X572Y1585D01*
X1402Y1585D02*
X1421Y1585D01*
X1453Y1585D02*
X1472Y1585D01*
X501Y1584D02*
X520Y1584D01*
X553Y1584D02*
X572Y1584D01*
X1402Y1584D02*
X1421Y1584D01*
X1453Y1584D02*
X1473Y1584D01*
X500Y1583D02*
X519Y1583D01*
X553Y1583D02*
X572Y1583D01*
X1401Y1583D02*
X1420Y1583D01*
X1454Y1583D02*
X1473Y1583D01*
X500Y1582D02*
X519Y1582D01*
X553Y1582D02*
X572Y1582D01*
X1401Y1582D02*
X1420Y1582D01*
X1454Y1582D02*
X1473Y1582D01*
X500Y1581D02*
X519Y1581D01*
X554Y1581D02*
X572Y1581D01*
X1401Y1581D02*
X1420Y1581D01*
X1455Y1581D02*
X1473Y1581D01*
X500Y1580D02*
X518Y1580D01*
X554Y1580D02*
X573Y1580D01*
X1401Y1580D02*
X1419Y1580D01*
X1455Y1580D02*
X1473Y1580D01*
X500Y1579D02*
X518Y1579D01*
X554Y1579D02*
X573Y1579D01*
X1401Y1579D02*
X1419Y1579D01*
X1455Y1579D02*
X1474Y1579D01*
X500Y1578D02*
X518Y1578D01*
X554Y1578D02*
X573Y1578D01*
X1401Y1578D02*
X1419Y1578D01*
X1455Y1578D02*
X1474Y1578D01*
X500Y1577D02*
X518Y1577D01*
X554Y1577D02*
X573Y1577D01*
X1401Y1577D02*
X1419Y1577D01*
X1455Y1577D02*
X1474Y1577D01*
X500Y1576D02*
X518Y1576D01*
X554Y1576D02*
X573Y1576D01*
X1401Y1576D02*
X1419Y1576D01*
X1455Y1576D02*
X1474Y1576D01*
X500Y1575D02*
X518Y1575D01*
X554Y1575D02*
X573Y1575D01*
X1401Y1575D02*
X1419Y1575D01*
X1455Y1575D02*
X1474Y1575D01*
X500Y1574D02*
X518Y1574D01*
X554Y1574D02*
X573Y1574D01*
X1401Y1574D02*
X1419Y1574D01*
X1455Y1574D02*
X1474Y1574D01*
X500Y1573D02*
X518Y1573D01*
X554Y1573D02*
X573Y1573D01*
X1401Y1573D02*
X1419Y1573D01*
X1455Y1573D02*
X1473Y1573D01*
X500Y1572D02*
X519Y1572D01*
X554Y1572D02*
X572Y1572D01*
X1401Y1572D02*
X1420Y1572D01*
X1455Y1572D02*
X1473Y1572D01*
X500Y1571D02*
X519Y1571D01*
X553Y1571D02*
X572Y1571D01*
X1401Y1571D02*
X1420Y1571D01*
X1454Y1571D02*
X1473Y1571D01*
X500Y1570D02*
X519Y1570D01*
X553Y1570D02*
X572Y1570D01*
X1401Y1570D02*
X1420Y1570D01*
X1454Y1570D02*
X1473Y1570D01*
X501Y1569D02*
X520Y1569D01*
X553Y1569D02*
X572Y1569D01*
X1401Y1569D02*
X1421Y1569D01*
X1454Y1569D02*
X1473Y1569D01*
X501Y1568D02*
X520Y1568D01*
X552Y1568D02*
X572Y1568D01*
X1402Y1568D02*
X1421Y1568D01*
X1453Y1568D02*
X1473Y1568D01*
X501Y1567D02*
X521Y1567D01*
X552Y1567D02*
X571Y1567D01*
X1402Y1567D02*
X1422Y1567D01*
X1453Y1567D02*
X1472Y1567D01*
X501Y1566D02*
X522Y1566D01*
X551Y1566D02*
X571Y1566D01*
X1402Y1566D02*
X1422Y1566D01*
X1452Y1566D02*
X1472Y1566D01*
X502Y1565D02*
X522Y1565D01*
X550Y1565D02*
X571Y1565D01*
X1403Y1565D02*
X1423Y1565D01*
X1451Y1565D02*
X1472Y1565D01*
X502Y1564D02*
X523Y1564D01*
X549Y1564D02*
X570Y1564D01*
X1403Y1564D02*
X1424Y1564D01*
X1450Y1564D02*
X1471Y1564D01*
X502Y1563D02*
X524Y1563D01*
X548Y1563D02*
X570Y1563D01*
X1403Y1563D02*
X1425Y1563D01*
X1449Y1563D02*
X1471Y1563D01*
X503Y1562D02*
X526Y1562D01*
X547Y1562D02*
X570Y1562D01*
X1404Y1562D02*
X1426Y1562D01*
X1448Y1562D02*
X1471Y1562D01*
X503Y1561D02*
X527Y1561D01*
X545Y1561D02*
X569Y1561D01*
X1404Y1561D02*
X1428Y1561D01*
X1446Y1561D02*
X1470Y1561D01*
X504Y1560D02*
X529Y1560D01*
X543Y1560D02*
X569Y1560D01*
X1405Y1560D02*
X1430Y1560D01*
X1444Y1560D02*
X1470Y1560D01*
X504Y1559D02*
X533Y1559D01*
X539Y1559D02*
X568Y1559D01*
X1405Y1559D02*
X1434Y1559D01*
X1440Y1559D02*
X1469Y1559D01*
X505Y1558D02*
X568Y1558D01*
X1406Y1558D02*
X1469Y1558D01*
X505Y1557D02*
X567Y1557D01*
X1406Y1557D02*
X1468Y1557D01*
X506Y1556D02*
X567Y1556D01*
X1407Y1556D02*
X1467Y1556D01*
X507Y1555D02*
X566Y1555D01*
X1407Y1555D02*
X1467Y1555D01*
X507Y1554D02*
X565Y1554D01*
X1408Y1554D02*
X1466Y1554D01*
X508Y1553D02*
X564Y1553D01*
X1409Y1553D02*
X1465Y1553D01*
X509Y1552D02*
X564Y1552D01*
X1410Y1552D02*
X1464Y1552D01*
X510Y1551D02*
X563Y1551D01*
X1411Y1551D02*
X1464Y1551D01*
X511Y1550D02*
X562Y1550D01*
X1412Y1550D02*
X1463Y1550D01*
X512Y1549D02*
X561Y1549D01*
X1413Y1549D02*
X1462Y1549D01*
X513Y1548D02*
X559Y1548D01*
X1414Y1548D02*
X1460Y1548D01*
X514Y1547D02*
X558Y1547D01*
X1415Y1547D02*
X1459Y1547D01*
X516Y1546D02*
X557Y1546D01*
X1417Y1546D02*
X1458Y1546D01*
X517Y1545D02*
X555Y1545D01*
X1418Y1545D02*
X1456Y1545D01*
X519Y1544D02*
X553Y1544D01*
X1420Y1544D02*
X1454Y1544D01*
X521Y1543D02*
X551Y1543D01*
X1422Y1543D02*
X1452Y1543D01*
X523Y1542D02*
X549Y1542D01*
X1424Y1542D02*
X1450Y1542D01*
X526Y1541D02*
X546Y1541D01*
X1427Y1541D02*
X1447Y1541D01*
X530Y1540D02*
X542Y1540D01*
X1431Y1540D02*
X1443Y1540D01*
X533Y1513D02*
X540Y1513D01*
X1434Y1513D02*
X1441Y1513D01*
X528Y1512D02*
X545Y1512D01*
X1429Y1512D02*
X1446Y1512D01*
X525Y1511D02*
X548Y1511D01*
X1425Y1511D02*
X1449Y1511D01*
X522Y1510D02*
X550Y1510D01*
X1423Y1510D02*
X1451Y1510D01*
X520Y1509D02*
X553Y1509D01*
X1421Y1509D02*
X1453Y1509D01*
X518Y1508D02*
X554Y1508D01*
X1419Y1508D02*
X1455Y1508D01*
X516Y1507D02*
X556Y1507D01*
X1417Y1507D02*
X1457Y1507D01*
X515Y1506D02*
X558Y1506D01*
X1416Y1506D02*
X1458Y1506D01*
X514Y1505D02*
X559Y1505D01*
X1414Y1505D02*
X1460Y1505D01*
X512Y1504D02*
X560Y1504D01*
X1413Y1504D02*
X1461Y1504D01*
X511Y1503D02*
X561Y1503D01*
X1412Y1503D02*
X1462Y1503D01*
X510Y1502D02*
X562Y1502D01*
X1411Y1502D02*
X1463Y1502D01*
X509Y1501D02*
X563Y1501D01*
X1410Y1501D02*
X1464Y1501D01*
X508Y1500D02*
X564Y1500D01*
X1409Y1500D02*
X1465Y1500D01*
X508Y1499D02*
X565Y1499D01*
X1409Y1499D02*
X1466Y1499D01*
X507Y1498D02*
X566Y1498D01*
X1408Y1498D02*
X1466Y1498D01*
X506Y1497D02*
X566Y1497D01*
X1407Y1497D02*
X1467Y1497D01*
X506Y1496D02*
X567Y1496D01*
X1406Y1496D02*
X1468Y1496D01*
X505Y1495D02*
X567Y1495D01*
X1406Y1495D02*
X1468Y1495D01*
X504Y1494D02*
X568Y1494D01*
X1405Y1494D02*
X1469Y1494D01*
X504Y1493D02*
X530Y1493D01*
X542Y1493D02*
X569Y1493D01*
X1405Y1493D02*
X1431Y1493D01*
X1443Y1493D02*
X1469Y1493D01*
X503Y1492D02*
X528Y1492D01*
X545Y1492D02*
X569Y1492D01*
X1404Y1492D02*
X1429Y1492D01*
X1445Y1492D02*
X1470Y1492D01*
X503Y1491D02*
X526Y1491D01*
X546Y1491D02*
X569Y1491D01*
X1404Y1491D02*
X1427Y1491D01*
X1447Y1491D02*
X1470Y1491D01*
X503Y1490D02*
X525Y1490D01*
X547Y1490D02*
X570Y1490D01*
X1403Y1490D02*
X1426Y1490D01*
X1448Y1490D02*
X1471Y1490D01*
X502Y1489D02*
X524Y1489D01*
X549Y1489D02*
X570Y1489D01*
X1403Y1489D02*
X1425Y1489D01*
X1450Y1489D02*
X1471Y1489D01*
X502Y1488D02*
X523Y1488D01*
X550Y1488D02*
X571Y1488D01*
X1403Y1488D02*
X1424Y1488D01*
X1451Y1488D02*
X1472Y1488D01*
X501Y1487D02*
X522Y1487D01*
X550Y1487D02*
X571Y1487D01*
X1402Y1487D02*
X1423Y1487D01*
X1451Y1487D02*
X1472Y1487D01*
X501Y1486D02*
X521Y1486D01*
X551Y1486D02*
X571Y1486D01*
X1402Y1486D02*
X1422Y1486D01*
X1452Y1486D02*
X1472Y1486D01*
X501Y1485D02*
X520Y1485D01*
X552Y1485D02*
X572Y1485D01*
X1402Y1485D02*
X1421Y1485D01*
X1453Y1485D02*
X1472Y1485D01*
X501Y1484D02*
X520Y1484D01*
X553Y1484D02*
X572Y1484D01*
X1402Y1484D02*
X1421Y1484D01*
X1453Y1484D02*
X1473Y1484D01*
X500Y1483D02*
X519Y1483D01*
X553Y1483D02*
X572Y1483D01*
X1401Y1483D02*
X1420Y1483D01*
X1454Y1483D02*
X1473Y1483D01*
X500Y1482D02*
X519Y1482D01*
X553Y1482D02*
X572Y1482D01*
X1401Y1482D02*
X1420Y1482D01*
X1454Y1482D02*
X1473Y1482D01*
X500Y1481D02*
X519Y1481D01*
X554Y1481D02*
X572Y1481D01*
X1401Y1481D02*
X1420Y1481D01*
X1455Y1481D02*
X1473Y1481D01*
X500Y1480D02*
X519Y1480D01*
X554Y1480D02*
X573Y1480D01*
X1401Y1480D02*
X1419Y1480D01*
X1455Y1480D02*
X1473Y1480D01*
X500Y1479D02*
X518Y1479D01*
X554Y1479D02*
X573Y1479D01*
X1401Y1479D02*
X1419Y1479D01*
X1455Y1479D02*
X1474Y1479D01*
X500Y1478D02*
X518Y1478D01*
X554Y1478D02*
X573Y1478D01*
X1401Y1478D02*
X1419Y1478D01*
X1455Y1478D02*
X1474Y1478D01*
X500Y1477D02*
X518Y1477D01*
X554Y1477D02*
X573Y1477D01*
X1401Y1477D02*
X1419Y1477D01*
X1455Y1477D02*
X1474Y1477D01*
X500Y1476D02*
X518Y1476D01*
X554Y1476D02*
X573Y1476D01*
X1401Y1476D02*
X1419Y1476D01*
X1455Y1476D02*
X1474Y1476D01*
X500Y1475D02*
X518Y1475D01*
X554Y1475D02*
X573Y1475D01*
X1401Y1475D02*
X1419Y1475D01*
X1455Y1475D02*
X1474Y1475D01*
X500Y1474D02*
X518Y1474D01*
X554Y1474D02*
X573Y1474D01*
X1401Y1474D02*
X1419Y1474D01*
X1455Y1474D02*
X1474Y1474D01*
X500Y1473D02*
X518Y1473D01*
X554Y1473D02*
X573Y1473D01*
X1401Y1473D02*
X1419Y1473D01*
X1455Y1473D02*
X1473Y1473D01*
X500Y1472D02*
X519Y1472D01*
X554Y1472D02*
X572Y1472D01*
X1401Y1472D02*
X1420Y1472D01*
X1455Y1472D02*
X1473Y1472D01*
X500Y1471D02*
X519Y1471D01*
X554Y1471D02*
X572Y1471D01*
X1401Y1471D02*
X1420Y1471D01*
X1454Y1471D02*
X1473Y1471D01*
X500Y1470D02*
X519Y1470D01*
X553Y1470D02*
X572Y1470D01*
X1401Y1470D02*
X1420Y1470D01*
X1454Y1470D02*
X1473Y1470D01*
X500Y1469D02*
X520Y1469D01*
X553Y1469D02*
X572Y1469D01*
X1401Y1469D02*
X1421Y1469D01*
X1454Y1469D02*
X1473Y1469D01*
X501Y1468D02*
X520Y1468D01*
X552Y1468D02*
X572Y1468D01*
X1402Y1468D02*
X1421Y1468D01*
X1453Y1468D02*
X1473Y1468D01*
X501Y1467D02*
X521Y1467D01*
X552Y1467D02*
X571Y1467D01*
X1402Y1467D02*
X1422Y1467D01*
X1453Y1467D02*
X1472Y1467D01*
X501Y1466D02*
X521Y1466D01*
X551Y1466D02*
X571Y1466D01*
X1402Y1466D02*
X1422Y1466D01*
X1452Y1466D02*
X1472Y1466D01*
X502Y1465D02*
X522Y1465D01*
X550Y1465D02*
X571Y1465D01*
X1403Y1465D02*
X1423Y1465D01*
X1451Y1465D02*
X1472Y1465D01*
X502Y1464D02*
X523Y1464D01*
X549Y1464D02*
X570Y1464D01*
X1403Y1464D02*
X1424Y1464D01*
X1450Y1464D02*
X1471Y1464D01*
X502Y1463D02*
X524Y1463D01*
X548Y1463D02*
X570Y1463D01*
X1403Y1463D02*
X1425Y1463D01*
X1449Y1463D02*
X1471Y1463D01*
X503Y1462D02*
X525Y1462D01*
X547Y1462D02*
X570Y1462D01*
X1404Y1462D02*
X1426Y1462D01*
X1448Y1462D02*
X1471Y1462D01*
X503Y1461D02*
X527Y1461D01*
X546Y1461D02*
X569Y1461D01*
X1404Y1461D02*
X1428Y1461D01*
X1446Y1461D02*
X1470Y1461D01*
X504Y1460D02*
X529Y1460D01*
X544Y1460D02*
X569Y1460D01*
X1405Y1460D02*
X1430Y1460D01*
X1445Y1460D02*
X1470Y1460D01*
X504Y1459D02*
X532Y1459D01*
X540Y1459D02*
X568Y1459D01*
X1405Y1459D02*
X1433Y1459D01*
X1441Y1459D02*
X1469Y1459D01*
X505Y1458D02*
X568Y1458D01*
X1406Y1458D02*
X1469Y1458D01*
X505Y1457D02*
X567Y1457D01*
X1406Y1457D02*
X1468Y1457D01*
X506Y1456D02*
X567Y1456D01*
X1407Y1456D02*
X1468Y1456D01*
X506Y1455D02*
X566Y1455D01*
X1407Y1455D02*
X1467Y1455D01*
X507Y1454D02*
X565Y1454D01*
X1408Y1454D02*
X1466Y1454D01*
X508Y1453D02*
X564Y1453D01*
X1409Y1453D02*
X1465Y1453D01*
X509Y1452D02*
X564Y1452D01*
X1410Y1452D02*
X1465Y1452D01*
X510Y1451D02*
X563Y1451D01*
X1411Y1451D02*
X1464Y1451D01*
X511Y1450D02*
X562Y1450D01*
X1411Y1450D02*
X1463Y1450D01*
X512Y1449D02*
X561Y1449D01*
X1413Y1449D02*
X1462Y1449D01*
X513Y1448D02*
X560Y1448D01*
X1414Y1448D02*
X1461Y1448D01*
X514Y1447D02*
X558Y1447D01*
X1415Y1447D02*
X1459Y1447D01*
X515Y1446D02*
X557Y1446D01*
X1416Y1446D02*
X1458Y1446D01*
X517Y1445D02*
X555Y1445D01*
X1418Y1445D02*
X1456Y1445D01*
X519Y1444D02*
X554Y1444D01*
X1420Y1444D02*
X1455Y1444D01*
X521Y1443D02*
X552Y1443D01*
X1422Y1443D02*
X1453Y1443D01*
X523Y1442D02*
X549Y1442D01*
X1424Y1442D02*
X1450Y1442D01*
X526Y1441D02*
X547Y1441D01*
X1427Y1441D02*
X1448Y1441D01*
X530Y1440D02*
X543Y1440D01*
X1430Y1440D02*
X1444Y1440D01*
X534Y1413D02*
X538Y1413D01*
X1435Y1413D02*
X1439Y1413D01*
X528Y1412D02*
X544Y1412D01*
X1429Y1412D02*
X1445Y1412D01*
X525Y1411D02*
X548Y1411D01*
X1426Y1411D02*
X1448Y1411D01*
X522Y1410D02*
X550Y1410D01*
X1423Y1410D02*
X1451Y1410D01*
X520Y1409D02*
X552Y1409D01*
X1421Y1409D02*
X1453Y1409D01*
X518Y1408D02*
X554Y1408D01*
X1419Y1408D02*
X1455Y1408D01*
X517Y1407D02*
X556Y1407D01*
X1417Y1407D02*
X1457Y1407D01*
X515Y1406D02*
X557Y1406D01*
X1416Y1406D02*
X1458Y1406D01*
X514Y1405D02*
X559Y1405D01*
X1415Y1405D02*
X1460Y1405D01*
X512Y1404D02*
X560Y1404D01*
X1413Y1404D02*
X1461Y1404D01*
X511Y1403D02*
X561Y1403D01*
X1412Y1403D02*
X1462Y1403D01*
X510Y1402D02*
X562Y1402D01*
X1411Y1402D02*
X1463Y1402D01*
X509Y1401D02*
X563Y1401D01*
X1410Y1401D02*
X1464Y1401D01*
X508Y1400D02*
X564Y1400D01*
X1409Y1400D02*
X1465Y1400D01*
X508Y1399D02*
X565Y1399D01*
X1409Y1399D02*
X1466Y1399D01*
X507Y1398D02*
X565Y1398D01*
X1408Y1398D02*
X1466Y1398D01*
X506Y1397D02*
X566Y1397D01*
X1407Y1397D02*
X1467Y1397D01*
X506Y1396D02*
X567Y1396D01*
X1407Y1396D02*
X1468Y1396D01*
X505Y1395D02*
X567Y1395D01*
X1406Y1395D02*
X1468Y1395D01*
X504Y1394D02*
X568Y1394D01*
X1405Y1394D02*
X1469Y1394D01*
X504Y1393D02*
X531Y1393D01*
X542Y1393D02*
X568Y1393D01*
X1405Y1393D02*
X1432Y1393D01*
X1443Y1393D02*
X1469Y1393D01*
X503Y1392D02*
X528Y1392D01*
X544Y1392D02*
X569Y1392D01*
X1404Y1392D02*
X1429Y1392D01*
X1445Y1392D02*
X1470Y1392D01*
X503Y1391D02*
X526Y1391D01*
X546Y1391D02*
X569Y1391D01*
X1404Y1391D02*
X1427Y1391D01*
X1447Y1391D02*
X1470Y1391D01*
X503Y1390D02*
X525Y1390D01*
X547Y1390D02*
X570Y1390D01*
X1403Y1390D02*
X1426Y1390D01*
X1448Y1390D02*
X1471Y1390D01*
X502Y1389D02*
X524Y1389D01*
X549Y1389D02*
X570Y1389D01*
X1403Y1389D02*
X1425Y1389D01*
X1449Y1389D02*
X1471Y1389D01*
X502Y1388D02*
X523Y1388D01*
X550Y1388D02*
X571Y1388D01*
X1403Y1388D02*
X1424Y1388D01*
X1450Y1388D02*
X1471Y1388D01*
X501Y1387D02*
X522Y1387D01*
X550Y1387D02*
X571Y1387D01*
X1402Y1387D02*
X1423Y1387D01*
X1451Y1387D02*
X1472Y1387D01*
X501Y1386D02*
X521Y1386D01*
X551Y1386D02*
X571Y1386D01*
X1402Y1386D02*
X1422Y1386D01*
X1452Y1386D02*
X1472Y1386D01*
X501Y1385D02*
X521Y1385D01*
X552Y1385D02*
X571Y1385D01*
X1402Y1385D02*
X1421Y1385D01*
X1453Y1385D02*
X1472Y1385D01*
X501Y1384D02*
X520Y1384D01*
X552Y1384D02*
X572Y1384D01*
X1402Y1384D02*
X1421Y1384D01*
X1453Y1384D02*
X1473Y1384D01*
X500Y1383D02*
X519Y1383D01*
X553Y1383D02*
X572Y1383D01*
X1401Y1383D02*
X1420Y1383D01*
X1454Y1383D02*
X1473Y1383D01*
X500Y1382D02*
X519Y1382D01*
X553Y1382D02*
X572Y1382D01*
X1401Y1382D02*
X1420Y1382D01*
X1454Y1382D02*
X1473Y1382D01*
X500Y1381D02*
X519Y1381D01*
X554Y1381D02*
X572Y1381D01*
X1401Y1381D02*
X1420Y1381D01*
X1455Y1381D02*
X1473Y1381D01*
X500Y1380D02*
X519Y1380D01*
X554Y1380D02*
X572Y1380D01*
X1401Y1380D02*
X1419Y1380D01*
X1455Y1380D02*
X1473Y1380D01*
X500Y1379D02*
X518Y1379D01*
X554Y1379D02*
X573Y1379D01*
X1401Y1379D02*
X1419Y1379D01*
X1455Y1379D02*
X1473Y1379D01*
X500Y1378D02*
X518Y1378D01*
X554Y1378D02*
X573Y1378D01*
X1401Y1378D02*
X1419Y1378D01*
X1455Y1378D02*
X1474Y1378D01*
X500Y1377D02*
X518Y1377D01*
X554Y1377D02*
X573Y1377D01*
X1401Y1377D02*
X1419Y1377D01*
X1455Y1377D02*
X1474Y1377D01*
X500Y1376D02*
X518Y1376D01*
X554Y1376D02*
X573Y1376D01*
X1401Y1376D02*
X1419Y1376D01*
X1455Y1376D02*
X1474Y1376D01*
X500Y1375D02*
X518Y1375D01*
X554Y1375D02*
X573Y1375D01*
X1401Y1375D02*
X1419Y1375D01*
X1455Y1375D02*
X1474Y1375D01*
X500Y1374D02*
X518Y1374D01*
X554Y1374D02*
X573Y1374D01*
X1401Y1374D02*
X1419Y1374D01*
X1455Y1374D02*
X1474Y1374D01*
X500Y1373D02*
X518Y1373D01*
X554Y1373D02*
X573Y1373D01*
X1401Y1373D02*
X1419Y1373D01*
X1455Y1373D02*
X1473Y1373D01*
X500Y1372D02*
X519Y1372D01*
X554Y1372D02*
X572Y1372D01*
X1401Y1372D02*
X1420Y1372D01*
X1455Y1372D02*
X1473Y1372D01*
X500Y1371D02*
X519Y1371D01*
X554Y1371D02*
X572Y1371D01*
X1401Y1371D02*
X1420Y1371D01*
X1454Y1371D02*
X1473Y1371D01*
X500Y1370D02*
X519Y1370D01*
X553Y1370D02*
X572Y1370D01*
X1401Y1370D02*
X1420Y1370D01*
X1454Y1370D02*
X1473Y1370D01*
X500Y1369D02*
X520Y1369D01*
X553Y1369D02*
X572Y1369D01*
X1401Y1369D02*
X1420Y1369D01*
X1454Y1369D02*
X1473Y1369D01*
X501Y1368D02*
X520Y1368D01*
X552Y1368D02*
X572Y1368D01*
X1402Y1368D02*
X1421Y1368D01*
X1453Y1368D02*
X1473Y1368D01*
X501Y1367D02*
X521Y1367D01*
X552Y1367D02*
X571Y1367D01*
X1402Y1367D02*
X1422Y1367D01*
X1453Y1367D02*
X1472Y1367D01*
X501Y1366D02*
X521Y1366D01*
X551Y1366D02*
X571Y1366D01*
X1402Y1366D02*
X1422Y1366D01*
X1452Y1366D02*
X1472Y1366D01*
X502Y1365D02*
X522Y1365D01*
X550Y1365D02*
X571Y1365D01*
X1402Y1365D02*
X1423Y1365D01*
X1451Y1365D02*
X1472Y1365D01*
X502Y1364D02*
X523Y1364D01*
X549Y1364D02*
X570Y1364D01*
X1403Y1364D02*
X1424Y1364D01*
X1450Y1364D02*
X1471Y1364D01*
X502Y1363D02*
X524Y1363D01*
X548Y1363D02*
X570Y1363D01*
X1403Y1363D02*
X1425Y1363D01*
X1449Y1363D02*
X1471Y1363D01*
X503Y1362D02*
X525Y1362D01*
X547Y1362D02*
X570Y1362D01*
X1404Y1362D02*
X1426Y1362D01*
X1448Y1362D02*
X1471Y1362D01*
X503Y1361D02*
X527Y1361D01*
X546Y1361D02*
X569Y1361D01*
X1404Y1361D02*
X1428Y1361D01*
X1447Y1361D02*
X1470Y1361D01*
X504Y1360D02*
X528Y1360D01*
X544Y1360D02*
X569Y1360D01*
X1404Y1360D02*
X1429Y1360D01*
X1445Y1360D02*
X1470Y1360D01*
X504Y1359D02*
X532Y1359D01*
X541Y1359D02*
X568Y1359D01*
X1405Y1359D02*
X1432Y1359D01*
X1442Y1359D02*
X1469Y1359D01*
X505Y1358D02*
X568Y1358D01*
X1405Y1358D02*
X1469Y1358D01*
X505Y1357D02*
X567Y1357D01*
X1406Y1357D02*
X1468Y1357D01*
X506Y1356D02*
X567Y1356D01*
X1407Y1356D02*
X1468Y1356D01*
X506Y1355D02*
X566Y1355D01*
X1407Y1355D02*
X1467Y1355D01*
X507Y1354D02*
X565Y1354D01*
X1408Y1354D02*
X1466Y1354D01*
X508Y1353D02*
X565Y1353D01*
X1409Y1353D02*
X1465Y1353D01*
X509Y1352D02*
X564Y1352D01*
X1410Y1352D02*
X1465Y1352D01*
X510Y1351D02*
X563Y1351D01*
X1410Y1351D02*
X1464Y1351D01*
X510Y1350D02*
X562Y1350D01*
X1411Y1350D02*
X1463Y1350D01*
X512Y1349D02*
X561Y1349D01*
X1412Y1349D02*
X1462Y1349D01*
X513Y1348D02*
X560Y1348D01*
X1414Y1348D02*
X1461Y1348D01*
X514Y1347D02*
X558Y1347D01*
X1415Y1347D02*
X1459Y1347D01*
X515Y1346D02*
X557Y1346D01*
X1416Y1346D02*
X1458Y1346D01*
X517Y1345D02*
X556Y1345D01*
X1418Y1345D02*
X1456Y1345D01*
X519Y1344D02*
X554Y1344D01*
X1419Y1344D02*
X1455Y1344D01*
X521Y1343D02*
X552Y1343D01*
X1421Y1343D02*
X1453Y1343D01*
X523Y1342D02*
X550Y1342D01*
X1424Y1342D02*
X1451Y1342D01*
X525Y1341D02*
X547Y1341D01*
X1426Y1341D02*
X1448Y1341D01*
X529Y1340D02*
X543Y1340D01*
X1430Y1340D02*
X1444Y1340D01*
X536Y1313D02*
X536Y1313D01*
X1437Y1313D02*
X1437Y1313D01*
X529Y1312D02*
X544Y1312D01*
X1430Y1312D02*
X1445Y1312D01*
X525Y1311D02*
X547Y1311D01*
X1426Y1311D02*
X1448Y1311D01*
X523Y1310D02*
X550Y1310D01*
X1423Y1310D02*
X1451Y1310D01*
X520Y1309D02*
X552Y1309D01*
X1421Y1309D02*
X1453Y1309D01*
X518Y1308D02*
X554Y1308D01*
X1419Y1308D02*
X1455Y1308D01*
X517Y1307D02*
X556Y1307D01*
X1418Y1307D02*
X1457Y1307D01*
X515Y1306D02*
X557Y1306D01*
X1416Y1306D02*
X1458Y1306D01*
X514Y1305D02*
X559Y1305D01*
X1415Y1305D02*
X1460Y1305D01*
X513Y1304D02*
X560Y1304D01*
X1413Y1304D02*
X1461Y1304D01*
X511Y1303D02*
X561Y1303D01*
X1412Y1303D02*
X1462Y1303D01*
X510Y1302D02*
X562Y1302D01*
X1411Y1302D02*
X1463Y1302D01*
X509Y1301D02*
X563Y1301D01*
X1410Y1301D02*
X1464Y1301D01*
X509Y1300D02*
X564Y1300D01*
X1409Y1300D02*
X1465Y1300D01*
X508Y1299D02*
X565Y1299D01*
X1409Y1299D02*
X1466Y1299D01*
X507Y1298D02*
X565Y1298D01*
X1408Y1298D02*
X1466Y1298D01*
X506Y1297D02*
X566Y1297D01*
X1407Y1297D02*
X1467Y1297D01*
X506Y1296D02*
X567Y1296D01*
X1407Y1296D02*
X1468Y1296D01*
X505Y1295D02*
X567Y1295D01*
X1406Y1295D02*
X1468Y1295D01*
X505Y1294D02*
X568Y1294D01*
X1405Y1294D02*
X1469Y1294D01*
X504Y1293D02*
X531Y1293D01*
X541Y1293D02*
X568Y1293D01*
X1405Y1293D02*
X1432Y1293D01*
X1442Y1293D02*
X1469Y1293D01*
X504Y1292D02*
X528Y1292D01*
X544Y1292D02*
X569Y1292D01*
X1404Y1292D02*
X1429Y1292D01*
X1445Y1292D02*
X1470Y1292D01*
X503Y1291D02*
X526Y1291D01*
X546Y1291D02*
X569Y1291D01*
X1404Y1291D02*
X1427Y1291D01*
X1447Y1291D02*
X1470Y1291D01*
X503Y1290D02*
X525Y1290D01*
X547Y1290D02*
X570Y1290D01*
X1404Y1290D02*
X1426Y1290D01*
X1448Y1290D02*
X1471Y1290D01*
X502Y1289D02*
X524Y1289D01*
X548Y1289D02*
X570Y1289D01*
X1403Y1289D02*
X1425Y1289D01*
X1449Y1289D02*
X1471Y1289D01*
X502Y1288D02*
X523Y1288D01*
X549Y1288D02*
X571Y1288D01*
X1403Y1288D02*
X1424Y1288D01*
X1450Y1288D02*
X1471Y1288D01*
X502Y1287D02*
X522Y1287D01*
X550Y1287D02*
X571Y1287D01*
X1402Y1287D02*
X1423Y1287D01*
X1451Y1287D02*
X1472Y1287D01*
X501Y1286D02*
X521Y1286D01*
X551Y1286D02*
X571Y1286D01*
X1402Y1286D02*
X1422Y1286D01*
X1452Y1286D02*
X1472Y1286D01*
X501Y1285D02*
X521Y1285D01*
X552Y1285D02*
X571Y1285D01*
X1402Y1285D02*
X1422Y1285D01*
X1453Y1285D02*
X1472Y1285D01*
X501Y1284D02*
X520Y1284D01*
X552Y1284D02*
X572Y1284D01*
X1402Y1284D02*
X1421Y1284D01*
X1453Y1284D02*
X1473Y1284D01*
X500Y1283D02*
X519Y1283D01*
X553Y1283D02*
X572Y1283D01*
X1401Y1283D02*
X1420Y1283D01*
X1454Y1283D02*
X1473Y1283D01*
X500Y1282D02*
X519Y1282D01*
X553Y1282D02*
X572Y1282D01*
X1401Y1282D02*
X1420Y1282D01*
X1454Y1282D02*
X1473Y1282D01*
X500Y1281D02*
X519Y1281D01*
X554Y1281D02*
X572Y1281D01*
X1401Y1281D02*
X1420Y1281D01*
X1454Y1281D02*
X1473Y1281D01*
X500Y1280D02*
X519Y1280D01*
X554Y1280D02*
X572Y1280D01*
X1401Y1280D02*
X1419Y1280D01*
X1455Y1280D02*
X1473Y1280D01*
X500Y1279D02*
X518Y1279D01*
X554Y1279D02*
X573Y1279D01*
X1401Y1279D02*
X1419Y1279D01*
X1455Y1279D02*
X1473Y1279D01*
X500Y1278D02*
X518Y1278D01*
X554Y1278D02*
X573Y1278D01*
X1401Y1278D02*
X1419Y1278D01*
X1455Y1278D02*
X1474Y1278D01*
X500Y1277D02*
X518Y1277D01*
X554Y1277D02*
X573Y1277D01*
X1401Y1277D02*
X1419Y1277D01*
X1455Y1277D02*
X1474Y1277D01*
X500Y1276D02*
X518Y1276D01*
X554Y1276D02*
X573Y1276D01*
X1401Y1276D02*
X1419Y1276D01*
X1455Y1276D02*
X1474Y1276D01*
X500Y1275D02*
X518Y1275D01*
X554Y1275D02*
X573Y1275D01*
X1401Y1275D02*
X1419Y1275D01*
X1455Y1275D02*
X1474Y1275D01*
X500Y1274D02*
X518Y1274D01*
X554Y1274D02*
X573Y1274D01*
X1401Y1274D02*
X1419Y1274D01*
X1455Y1274D02*
X1474Y1274D01*
X500Y1273D02*
X518Y1273D01*
X554Y1273D02*
X573Y1273D01*
X1401Y1273D02*
X1419Y1273D01*
X1455Y1273D02*
X1473Y1273D01*
X500Y1272D02*
X519Y1272D01*
X554Y1272D02*
X572Y1272D01*
X1401Y1272D02*
X1419Y1272D01*
X1455Y1272D02*
X1473Y1272D01*
X500Y1271D02*
X519Y1271D01*
X554Y1271D02*
X572Y1271D01*
X1401Y1271D02*
X1420Y1271D01*
X1454Y1271D02*
X1473Y1271D01*
X500Y1270D02*
X519Y1270D01*
X553Y1270D02*
X572Y1270D01*
X1401Y1270D02*
X1420Y1270D01*
X1454Y1270D02*
X1473Y1270D01*
X500Y1269D02*
X519Y1269D01*
X553Y1269D02*
X572Y1269D01*
X1401Y1269D02*
X1420Y1269D01*
X1454Y1269D02*
X1473Y1269D01*
X501Y1268D02*
X520Y1268D01*
X552Y1268D02*
X572Y1268D01*
X1402Y1268D02*
X1421Y1268D01*
X1453Y1268D02*
X1473Y1268D01*
X501Y1267D02*
X521Y1267D01*
X552Y1267D02*
X571Y1267D01*
X1402Y1267D02*
X1422Y1267D01*
X1453Y1267D02*
X1472Y1267D01*
X501Y1266D02*
X521Y1266D01*
X551Y1266D02*
X571Y1266D01*
X1402Y1266D02*
X1422Y1266D01*
X1452Y1266D02*
X1472Y1266D01*
X502Y1265D02*
X522Y1265D01*
X550Y1265D02*
X571Y1265D01*
X1402Y1265D02*
X1423Y1265D01*
X1451Y1265D02*
X1472Y1265D01*
X502Y1264D02*
X523Y1264D01*
X549Y1264D02*
X571Y1264D01*
X1403Y1264D02*
X1424Y1264D01*
X1450Y1264D02*
X1471Y1264D01*
X502Y1263D02*
X524Y1263D01*
X548Y1263D02*
X570Y1263D01*
X1403Y1263D02*
X1425Y1263D01*
X1449Y1263D02*
X1471Y1263D01*
X503Y1262D02*
X525Y1262D01*
X547Y1262D02*
X570Y1262D01*
X1404Y1262D02*
X1426Y1262D01*
X1448Y1262D02*
X1471Y1262D01*
X503Y1261D02*
X527Y1261D01*
X546Y1261D02*
X569Y1261D01*
X1404Y1261D02*
X1427Y1261D01*
X1447Y1261D02*
X1470Y1261D01*
X504Y1260D02*
X528Y1260D01*
X544Y1260D02*
X569Y1260D01*
X1404Y1260D02*
X1429Y1260D01*
X1445Y1260D02*
X1470Y1260D01*
X504Y1259D02*
X531Y1259D01*
X541Y1259D02*
X568Y1259D01*
X1405Y1259D02*
X1432Y1259D01*
X1442Y1259D02*
X1469Y1259D01*
X505Y1258D02*
X568Y1258D01*
X1405Y1258D02*
X1469Y1258D01*
X505Y1257D02*
X567Y1257D01*
X1406Y1257D02*
X1468Y1257D01*
X506Y1256D02*
X567Y1256D01*
X1407Y1256D02*
X1468Y1256D01*
X506Y1255D02*
X566Y1255D01*
X1407Y1255D02*
X1467Y1255D01*
X507Y1254D02*
X565Y1254D01*
X1408Y1254D02*
X1466Y1254D01*
X508Y1253D02*
X565Y1253D01*
X1409Y1253D02*
X1466Y1253D01*
X509Y1252D02*
X564Y1252D01*
X1409Y1252D02*
X1465Y1252D01*
X509Y1251D02*
X563Y1251D01*
X1410Y1251D02*
X1464Y1251D01*
X510Y1250D02*
X562Y1250D01*
X1411Y1250D02*
X1463Y1250D01*
X511Y1249D02*
X561Y1249D01*
X1412Y1249D02*
X1462Y1249D01*
X513Y1248D02*
X560Y1248D01*
X1413Y1248D02*
X1461Y1248D01*
X514Y1247D02*
X559Y1247D01*
X1415Y1247D02*
X1460Y1247D01*
X515Y1246D02*
X557Y1246D01*
X1416Y1246D02*
X1458Y1246D01*
X517Y1245D02*
X556Y1245D01*
X1418Y1245D02*
X1457Y1245D01*
X518Y1244D02*
X554Y1244D01*
X1419Y1244D02*
X1455Y1244D01*
X520Y1243D02*
X552Y1243D01*
X1421Y1243D02*
X1453Y1243D01*
X522Y1242D02*
X550Y1242D01*
X1423Y1242D02*
X1451Y1242D01*
X525Y1241D02*
X547Y1241D01*
X1426Y1241D02*
X1448Y1241D01*
X529Y1240D02*
X544Y1240D01*
X1430Y1240D02*
X1445Y1240D01*
X536Y1239D02*
X536Y1239D01*
X1437Y1239D02*
X1437Y1239D01*
X529Y1212D02*
X543Y1212D01*
X1430Y1212D02*
X1444Y1212D01*
X525Y1211D02*
X547Y1211D01*
X1426Y1211D02*
X1448Y1211D01*
X523Y1210D02*
X550Y1210D01*
X1424Y1210D02*
X1451Y1210D01*
X521Y1209D02*
X552Y1209D01*
X1422Y1209D02*
X1453Y1209D01*
X519Y1208D02*
X554Y1208D01*
X1420Y1208D02*
X1455Y1208D01*
X517Y1207D02*
X556Y1207D01*
X1418Y1207D02*
X1456Y1207D01*
X515Y1206D02*
X557Y1206D01*
X1416Y1206D02*
X1458Y1206D01*
X514Y1205D02*
X558Y1205D01*
X1415Y1205D02*
X1459Y1205D01*
X513Y1204D02*
X560Y1204D01*
X1414Y1204D02*
X1461Y1204D01*
X512Y1203D02*
X561Y1203D01*
X1412Y1203D02*
X1462Y1203D01*
X510Y1202D02*
X562Y1202D01*
X1411Y1202D02*
X1463Y1202D01*
X510Y1201D02*
X563Y1201D01*
X1410Y1201D02*
X1464Y1201D01*
X509Y1200D02*
X564Y1200D01*
X1410Y1200D02*
X1465Y1200D01*
X508Y1199D02*
X565Y1199D01*
X1409Y1199D02*
X1465Y1199D01*
X507Y1198D02*
X565Y1198D01*
X1408Y1198D02*
X1466Y1198D01*
X506Y1197D02*
X566Y1197D01*
X1407Y1197D02*
X1467Y1197D01*
X506Y1196D02*
X567Y1196D01*
X1407Y1196D02*
X1468Y1196D01*
X505Y1195D02*
X567Y1195D01*
X1406Y1195D02*
X1468Y1195D01*
X505Y1194D02*
X568Y1194D01*
X1406Y1194D02*
X1469Y1194D01*
X504Y1193D02*
X532Y1193D01*
X541Y1193D02*
X568Y1193D01*
X1405Y1193D02*
X1432Y1193D01*
X1442Y1193D02*
X1469Y1193D01*
X504Y1192D02*
X528Y1192D01*
X544Y1192D02*
X569Y1192D01*
X1404Y1192D02*
X1429Y1192D01*
X1445Y1192D02*
X1470Y1192D01*
X503Y1191D02*
X527Y1191D01*
X546Y1191D02*
X569Y1191D01*
X1404Y1191D02*
X1428Y1191D01*
X1447Y1191D02*
X1470Y1191D01*
X503Y1190D02*
X525Y1190D01*
X547Y1190D02*
X570Y1190D01*
X1404Y1190D02*
X1426Y1190D01*
X1448Y1190D02*
X1471Y1190D01*
X502Y1189D02*
X524Y1189D01*
X548Y1189D02*
X570Y1189D01*
X1403Y1189D02*
X1425Y1189D01*
X1449Y1189D02*
X1471Y1189D01*
X502Y1188D02*
X523Y1188D01*
X549Y1188D02*
X570Y1188D01*
X1403Y1188D02*
X1424Y1188D01*
X1450Y1188D02*
X1471Y1188D01*
X502Y1187D02*
X522Y1187D01*
X550Y1187D02*
X571Y1187D01*
X1402Y1187D02*
X1423Y1187D01*
X1451Y1187D02*
X1472Y1187D01*
X501Y1186D02*
X521Y1186D01*
X551Y1186D02*
X571Y1186D01*
X1402Y1186D02*
X1422Y1186D01*
X1452Y1186D02*
X1472Y1186D01*
X501Y1185D02*
X521Y1185D01*
X552Y1185D02*
X571Y1185D01*
X1402Y1185D02*
X1422Y1185D01*
X1453Y1185D02*
X1472Y1185D01*
X501Y1184D02*
X520Y1184D01*
X552Y1184D02*
X572Y1184D01*
X1402Y1184D02*
X1421Y1184D01*
X1453Y1184D02*
X1473Y1184D01*
X500Y1183D02*
X520Y1183D01*
X553Y1183D02*
X572Y1183D01*
X1401Y1183D02*
X1420Y1183D01*
X1454Y1183D02*
X1473Y1183D01*
X500Y1182D02*
X519Y1182D01*
X553Y1182D02*
X572Y1182D01*
X1401Y1182D02*
X1420Y1182D01*
X1454Y1182D02*
X1473Y1182D01*
X500Y1181D02*
X519Y1181D01*
X554Y1181D02*
X572Y1181D01*
X1401Y1181D02*
X1420Y1181D01*
X1454Y1181D02*
X1473Y1181D01*
X500Y1180D02*
X519Y1180D01*
X554Y1180D02*
X572Y1180D01*
X1401Y1180D02*
X1420Y1180D01*
X1455Y1180D02*
X1473Y1180D01*
X500Y1179D02*
X518Y1179D01*
X554Y1179D02*
X573Y1179D01*
X1401Y1179D02*
X1419Y1179D01*
X1455Y1179D02*
X1473Y1179D01*
X500Y1178D02*
X518Y1178D01*
X554Y1178D02*
X573Y1178D01*
X1401Y1178D02*
X1419Y1178D01*
X1455Y1178D02*
X1474Y1178D01*
X500Y1177D02*
X518Y1177D01*
X554Y1177D02*
X573Y1177D01*
X1401Y1177D02*
X1419Y1177D01*
X1455Y1177D02*
X1474Y1177D01*
X500Y1176D02*
X518Y1176D01*
X554Y1176D02*
X573Y1176D01*
X1401Y1176D02*
X1419Y1176D01*
X1455Y1176D02*
X1474Y1176D01*
X500Y1175D02*
X518Y1175D01*
X554Y1175D02*
X573Y1175D01*
X1401Y1175D02*
X1419Y1175D01*
X1455Y1175D02*
X1474Y1175D01*
X500Y1174D02*
X518Y1174D01*
X554Y1174D02*
X573Y1174D01*
X1401Y1174D02*
X1419Y1174D01*
X1455Y1174D02*
X1474Y1174D01*
X500Y1173D02*
X518Y1173D01*
X554Y1173D02*
X573Y1173D01*
X1401Y1173D02*
X1419Y1173D01*
X1455Y1173D02*
X1473Y1173D01*
X500Y1172D02*
X519Y1172D01*
X554Y1172D02*
X573Y1172D01*
X1401Y1172D02*
X1419Y1172D01*
X1455Y1172D02*
X1473Y1172D01*
X500Y1171D02*
X519Y1171D01*
X554Y1171D02*
X572Y1171D01*
X1401Y1171D02*
X1420Y1171D01*
X1455Y1171D02*
X1473Y1171D01*
X500Y1170D02*
X519Y1170D01*
X553Y1170D02*
X572Y1170D01*
X1401Y1170D02*
X1420Y1170D01*
X1454Y1170D02*
X1473Y1170D01*
X500Y1169D02*
X519Y1169D01*
X553Y1169D02*
X572Y1169D01*
X1401Y1169D02*
X1420Y1169D01*
X1454Y1169D02*
X1473Y1169D01*
X501Y1168D02*
X520Y1168D01*
X552Y1168D02*
X572Y1168D01*
X1402Y1168D02*
X1421Y1168D01*
X1453Y1168D02*
X1473Y1168D01*
X501Y1167D02*
X521Y1167D01*
X552Y1167D02*
X571Y1167D01*
X1402Y1167D02*
X1421Y1167D01*
X1453Y1167D02*
X1472Y1167D01*
X501Y1166D02*
X521Y1166D01*
X551Y1166D02*
X571Y1166D01*
X1402Y1166D02*
X1422Y1166D01*
X1452Y1166D02*
X1472Y1166D01*
X501Y1165D02*
X522Y1165D01*
X550Y1165D02*
X571Y1165D01*
X1402Y1165D02*
X1423Y1165D01*
X1451Y1165D02*
X1472Y1165D01*
X502Y1164D02*
X523Y1164D01*
X550Y1164D02*
X571Y1164D01*
X1403Y1164D02*
X1424Y1164D01*
X1450Y1164D02*
X1472Y1164D01*
X502Y1163D02*
X524Y1163D01*
X549Y1163D02*
X570Y1163D01*
X1403Y1163D02*
X1425Y1163D01*
X1449Y1163D02*
X1471Y1163D01*
X503Y1162D02*
X525Y1162D01*
X547Y1162D02*
X570Y1162D01*
X1403Y1162D02*
X1426Y1162D01*
X1448Y1162D02*
X1471Y1162D01*
X503Y1161D02*
X526Y1161D01*
X546Y1161D02*
X569Y1161D01*
X1404Y1161D02*
X1427Y1161D01*
X1447Y1161D02*
X1470Y1161D01*
X503Y1160D02*
X528Y1160D01*
X544Y1160D02*
X569Y1160D01*
X1404Y1160D02*
X1429Y1160D01*
X1445Y1160D02*
X1470Y1160D01*
X504Y1159D02*
X531Y1159D01*
X542Y1159D02*
X568Y1159D01*
X1405Y1159D02*
X1432Y1159D01*
X1443Y1159D02*
X1469Y1159D01*
X504Y1158D02*
X568Y1158D01*
X1405Y1158D02*
X1469Y1158D01*
X505Y1157D02*
X567Y1157D01*
X1406Y1157D02*
X1468Y1157D01*
X506Y1156D02*
X567Y1156D01*
X1407Y1156D02*
X1468Y1156D01*
X506Y1155D02*
X566Y1155D01*
X1407Y1155D02*
X1467Y1155D01*
X507Y1154D02*
X565Y1154D01*
X1408Y1154D02*
X1466Y1154D01*
X508Y1153D02*
X565Y1153D01*
X1409Y1153D02*
X1466Y1153D01*
X508Y1152D02*
X564Y1152D01*
X1409Y1152D02*
X1465Y1152D01*
X509Y1151D02*
X563Y1151D01*
X1410Y1151D02*
X1464Y1151D01*
X510Y1150D02*
X562Y1150D01*
X1411Y1150D02*
X1463Y1150D01*
X511Y1149D02*
X561Y1149D01*
X1412Y1149D02*
X1462Y1149D01*
X512Y1148D02*
X560Y1148D01*
X1413Y1148D02*
X1461Y1148D01*
X514Y1147D02*
X559Y1147D01*
X1415Y1147D02*
X1460Y1147D01*
X515Y1146D02*
X557Y1146D01*
X1416Y1146D02*
X1458Y1146D01*
X517Y1145D02*
X556Y1145D01*
X1417Y1145D02*
X1457Y1145D01*
X518Y1144D02*
X554Y1144D01*
X1419Y1144D02*
X1455Y1144D01*
X520Y1143D02*
X552Y1143D01*
X1421Y1143D02*
X1453Y1143D01*
X522Y1142D02*
X550Y1142D01*
X1423Y1142D02*
X1451Y1142D01*
X525Y1141D02*
X548Y1141D01*
X1426Y1141D02*
X1448Y1141D01*
X528Y1140D02*
X544Y1140D01*
X1429Y1140D02*
X1445Y1140D01*
X534Y1139D02*
X538Y1139D01*
X1435Y1139D02*
X1439Y1139D01*
X529Y1112D02*
X543Y1112D01*
X1430Y1112D02*
X1444Y1112D01*
X526Y1111D02*
X547Y1111D01*
X1427Y1111D02*
X1448Y1111D01*
X523Y1110D02*
X549Y1110D01*
X1424Y1110D02*
X1450Y1110D01*
X521Y1109D02*
X552Y1109D01*
X1422Y1109D02*
X1453Y1109D01*
X519Y1108D02*
X554Y1108D01*
X1420Y1108D02*
X1455Y1108D01*
X517Y1107D02*
X555Y1107D01*
X1418Y1107D02*
X1456Y1107D01*
X515Y1106D02*
X557Y1106D01*
X1416Y1106D02*
X1458Y1106D01*
X514Y1105D02*
X558Y1105D01*
X1415Y1105D02*
X1459Y1105D01*
X513Y1104D02*
X560Y1104D01*
X1414Y1104D02*
X1461Y1104D01*
X512Y1103D02*
X561Y1103D01*
X1413Y1103D02*
X1462Y1103D01*
X511Y1102D02*
X562Y1102D01*
X1411Y1102D02*
X1463Y1102D01*
X510Y1101D02*
X563Y1101D01*
X1411Y1101D02*
X1464Y1101D01*
X509Y1100D02*
X564Y1100D01*
X1410Y1100D02*
X1465Y1100D01*
X508Y1099D02*
X564Y1099D01*
X1409Y1099D02*
X1465Y1099D01*
X507Y1098D02*
X565Y1098D01*
X1408Y1098D02*
X1466Y1098D01*
X506Y1097D02*
X566Y1097D01*
X1407Y1097D02*
X1467Y1097D01*
X506Y1096D02*
X567Y1096D01*
X1407Y1096D02*
X1467Y1096D01*
X505Y1095D02*
X567Y1095D01*
X1406Y1095D02*
X1468Y1095D01*
X505Y1094D02*
X568Y1094D01*
X1406Y1094D02*
X1469Y1094D01*
X504Y1093D02*
X532Y1093D01*
X540Y1093D02*
X568Y1093D01*
X1405Y1093D02*
X1433Y1093D01*
X1441Y1093D02*
X1469Y1093D01*
X504Y1092D02*
X529Y1092D01*
X544Y1092D02*
X569Y1092D01*
X1405Y1092D02*
X1430Y1092D01*
X1445Y1092D02*
X1470Y1092D01*
X503Y1091D02*
X527Y1091D01*
X546Y1091D02*
X569Y1091D01*
X1404Y1091D02*
X1428Y1091D01*
X1446Y1091D02*
X1470Y1091D01*
X503Y1090D02*
X525Y1090D01*
X547Y1090D02*
X570Y1090D01*
X1404Y1090D02*
X1426Y1090D01*
X1448Y1090D02*
X1471Y1090D01*
X502Y1089D02*
X524Y1089D01*
X548Y1089D02*
X570Y1089D01*
X1403Y1089D02*
X1425Y1089D01*
X1449Y1089D02*
X1471Y1089D01*
X502Y1088D02*
X523Y1088D01*
X549Y1088D02*
X570Y1088D01*
X1403Y1088D02*
X1424Y1088D01*
X1450Y1088D02*
X1471Y1088D01*
X502Y1087D02*
X522Y1087D01*
X550Y1087D02*
X571Y1087D01*
X1403Y1087D02*
X1423Y1087D01*
X1451Y1087D02*
X1472Y1087D01*
X501Y1086D02*
X521Y1086D01*
X551Y1086D02*
X571Y1086D01*
X1402Y1086D02*
X1422Y1086D01*
X1452Y1086D02*
X1472Y1086D01*
X501Y1085D02*
X521Y1085D01*
X552Y1085D02*
X571Y1085D01*
X1402Y1085D02*
X1422Y1085D01*
X1453Y1085D02*
X1472Y1085D01*
X501Y1084D02*
X520Y1084D01*
X552Y1084D02*
X572Y1084D01*
X1402Y1084D02*
X1421Y1084D01*
X1453Y1084D02*
X1473Y1084D01*
X500Y1083D02*
X520Y1083D01*
X553Y1083D02*
X572Y1083D01*
X1401Y1083D02*
X1421Y1083D01*
X1454Y1083D02*
X1473Y1083D01*
X500Y1082D02*
X519Y1082D01*
X553Y1082D02*
X572Y1082D01*
X1401Y1082D02*
X1420Y1082D01*
X1454Y1082D02*
X1473Y1082D01*
X500Y1081D02*
X519Y1081D01*
X553Y1081D02*
X572Y1081D01*
X1401Y1081D02*
X1420Y1081D01*
X1454Y1081D02*
X1473Y1081D01*
X500Y1080D02*
X519Y1080D01*
X554Y1080D02*
X572Y1080D01*
X1401Y1080D02*
X1420Y1080D01*
X1455Y1080D02*
X1473Y1080D01*
X500Y1079D02*
X518Y1079D01*
X554Y1079D02*
X573Y1079D01*
X1401Y1079D02*
X1419Y1079D01*
X1455Y1079D02*
X1473Y1079D01*
X500Y1078D02*
X518Y1078D01*
X554Y1078D02*
X573Y1078D01*
X1401Y1078D02*
X1419Y1078D01*
X1455Y1078D02*
X1474Y1078D01*
X500Y1077D02*
X518Y1077D01*
X554Y1077D02*
X573Y1077D01*
X1401Y1077D02*
X1419Y1077D01*
X1455Y1077D02*
X1474Y1077D01*
X500Y1076D02*
X518Y1076D01*
X554Y1076D02*
X573Y1076D01*
X1401Y1076D02*
X1419Y1076D01*
X1455Y1076D02*
X1474Y1076D01*
X500Y1075D02*
X518Y1075D01*
X554Y1075D02*
X573Y1075D01*
X1401Y1075D02*
X1419Y1075D01*
X1455Y1075D02*
X1474Y1075D01*
X500Y1074D02*
X518Y1074D01*
X554Y1074D02*
X573Y1074D01*
X1401Y1074D02*
X1419Y1074D01*
X1455Y1074D02*
X1474Y1074D01*
X500Y1073D02*
X518Y1073D01*
X554Y1073D02*
X573Y1073D01*
X1401Y1073D02*
X1419Y1073D01*
X1455Y1073D02*
X1474Y1073D01*
X500Y1072D02*
X519Y1072D01*
X554Y1072D02*
X573Y1072D01*
X1401Y1072D02*
X1419Y1072D01*
X1455Y1072D02*
X1473Y1072D01*
X500Y1071D02*
X519Y1071D01*
X554Y1071D02*
X572Y1071D01*
X1401Y1071D02*
X1420Y1071D01*
X1455Y1071D02*
X1473Y1071D01*
X500Y1070D02*
X519Y1070D01*
X553Y1070D02*
X572Y1070D01*
X1401Y1070D02*
X1420Y1070D01*
X1454Y1070D02*
X1473Y1070D01*
X500Y1069D02*
X519Y1069D01*
X553Y1069D02*
X572Y1069D01*
X1401Y1069D02*
X1420Y1069D01*
X1454Y1069D02*
X1473Y1069D01*
X501Y1068D02*
X520Y1068D01*
X553Y1068D02*
X572Y1068D01*
X1402Y1068D02*
X1421Y1068D01*
X1453Y1068D02*
X1473Y1068D01*
X501Y1067D02*
X520Y1067D01*
X552Y1067D02*
X572Y1067D01*
X1402Y1067D02*
X1421Y1067D01*
X1453Y1067D02*
X1472Y1067D01*
X501Y1066D02*
X521Y1066D01*
X551Y1066D02*
X571Y1066D01*
X1402Y1066D02*
X1422Y1066D01*
X1452Y1066D02*
X1472Y1066D01*
X501Y1065D02*
X522Y1065D01*
X550Y1065D02*
X571Y1065D01*
X1402Y1065D02*
X1423Y1065D01*
X1451Y1065D02*
X1472Y1065D01*
X502Y1064D02*
X523Y1064D01*
X550Y1064D02*
X571Y1064D01*
X1403Y1064D02*
X1424Y1064D01*
X1451Y1064D02*
X1472Y1064D01*
X502Y1063D02*
X524Y1063D01*
X549Y1063D02*
X570Y1063D01*
X1403Y1063D02*
X1425Y1063D01*
X1450Y1063D02*
X1471Y1063D01*
X503Y1062D02*
X525Y1062D01*
X547Y1062D02*
X570Y1062D01*
X1403Y1062D02*
X1426Y1062D01*
X1448Y1062D02*
X1471Y1062D01*
X503Y1061D02*
X526Y1061D01*
X546Y1061D02*
X569Y1061D01*
X1404Y1061D02*
X1427Y1061D01*
X1447Y1061D02*
X1470Y1061D01*
X503Y1060D02*
X528Y1060D01*
X545Y1060D02*
X569Y1060D01*
X1404Y1060D02*
X1429Y1060D01*
X1445Y1060D02*
X1470Y1060D01*
X504Y1059D02*
X530Y1059D01*
X542Y1059D02*
X569Y1059D01*
X1405Y1059D02*
X1431Y1059D01*
X1443Y1059D02*
X1469Y1059D01*
X504Y1058D02*
X568Y1058D01*
X1405Y1058D02*
X1469Y1058D01*
X505Y1057D02*
X567Y1057D01*
X1406Y1057D02*
X1468Y1057D01*
X506Y1056D02*
X567Y1056D01*
X1406Y1056D02*
X1468Y1056D01*
X506Y1055D02*
X566Y1055D01*
X1407Y1055D02*
X1467Y1055D01*
X507Y1054D02*
X566Y1054D01*
X1408Y1054D02*
X1466Y1054D01*
X508Y1053D02*
X565Y1053D01*
X1409Y1053D02*
X1466Y1053D01*
X508Y1052D02*
X564Y1052D01*
X1409Y1052D02*
X1465Y1052D01*
X509Y1051D02*
X563Y1051D01*
X1410Y1051D02*
X1464Y1051D01*
X510Y1050D02*
X562Y1050D01*
X1411Y1050D02*
X1463Y1050D01*
X511Y1049D02*
X561Y1049D01*
X1412Y1049D02*
X1462Y1049D01*
X512Y1048D02*
X560Y1048D01*
X1413Y1048D02*
X1461Y1048D01*
X513Y1047D02*
X559Y1047D01*
X1414Y1047D02*
X1460Y1047D01*
X515Y1046D02*
X558Y1046D01*
X1416Y1046D02*
X1458Y1046D01*
X516Y1045D02*
X556Y1045D01*
X1417Y1045D02*
X1457Y1045D01*
X518Y1044D02*
X554Y1044D01*
X1419Y1044D02*
X1455Y1044D01*
X520Y1043D02*
X553Y1043D01*
X1421Y1043D02*
X1453Y1043D01*
X522Y1042D02*
X550Y1042D01*
X1423Y1042D02*
X1451Y1042D01*
X525Y1041D02*
X548Y1041D01*
X1425Y1041D02*
X1449Y1041D01*
X528Y1040D02*
X545Y1040D01*
X1429Y1040D02*
X1446Y1040D01*
X533Y1039D02*
X540Y1039D01*
X1434Y1039D02*
X1441Y1039D01*
X1698Y732D02*
X1698Y732D01*
X1690Y731D02*
X1705Y731D01*
X1687Y730D02*
X1709Y730D01*
X1684Y729D02*
X1712Y729D01*
X1682Y728D02*
X1714Y728D01*
X1680Y727D02*
X1716Y727D01*
X1678Y726D02*
X1717Y726D01*
X1677Y725D02*
X1719Y725D01*
X1675Y724D02*
X1720Y724D01*
X1674Y723D02*
X1721Y723D01*
X1673Y722D02*
X1723Y722D01*
X1672Y721D02*
X1724Y721D01*
X1671Y720D02*
X1725Y720D01*
X1670Y719D02*
X1725Y719D01*
X1669Y718D02*
X1726Y718D01*
X1669Y717D02*
X1727Y717D01*
X1668Y716D02*
X1728Y716D01*
X1667Y715D02*
X1728Y715D01*
X1667Y714D02*
X1729Y714D01*
X1666Y713D02*
X1730Y713D01*
X1666Y712D02*
X1693Y712D01*
X1703Y712D02*
X1730Y712D01*
X1665Y711D02*
X1690Y711D01*
X1706Y711D02*
X1731Y711D01*
X1665Y710D02*
X1688Y710D01*
X1708Y710D02*
X1731Y710D01*
X1664Y709D02*
X1687Y709D01*
X1709Y709D02*
X1731Y709D01*
X1664Y708D02*
X1686Y708D01*
X1710Y708D02*
X1732Y708D01*
X1664Y707D02*
X1685Y707D01*
X1711Y707D02*
X1732Y707D01*
X1663Y706D02*
X1684Y706D01*
X1712Y706D02*
X1733Y706D01*
X1663Y705D02*
X1683Y705D01*
X1713Y705D02*
X1733Y705D01*
X1663Y704D02*
X1682Y704D01*
X1713Y704D02*
X1733Y704D01*
X1662Y703D02*
X1682Y703D01*
X1714Y703D02*
X1733Y703D01*
X1662Y702D02*
X1681Y702D01*
X1715Y702D02*
X1734Y702D01*
X1662Y701D02*
X1681Y701D01*
X1715Y701D02*
X1734Y701D01*
X1662Y700D02*
X1680Y700D01*
X1715Y700D02*
X1734Y700D01*
X1662Y699D02*
X1680Y699D01*
X1715Y699D02*
X1734Y699D01*
X1661Y698D02*
X1680Y698D01*
X1716Y698D02*
X1734Y698D01*
X1661Y697D02*
X1680Y697D01*
X1716Y697D02*
X1734Y697D01*
X1661Y696D02*
X1680Y696D01*
X1716Y696D02*
X1734Y696D01*
X1661Y695D02*
X1680Y695D01*
X1716Y695D02*
X1734Y695D01*
X1661Y694D02*
X1680Y694D01*
X1716Y694D02*
X1734Y694D01*
X1661Y693D02*
X1680Y693D01*
X1716Y693D02*
X1734Y693D01*
X1661Y692D02*
X1680Y692D01*
X1716Y692D02*
X1734Y692D01*
X1662Y691D02*
X1680Y691D01*
X1716Y691D02*
X1734Y691D01*
X1662Y690D02*
X1680Y690D01*
X1715Y690D02*
X1734Y690D01*
X1662Y689D02*
X1681Y689D01*
X1715Y689D02*
X1734Y689D01*
X1662Y688D02*
X1681Y688D01*
X1715Y688D02*
X1734Y688D01*
X1662Y687D02*
X1682Y687D01*
X1714Y687D02*
X1733Y687D01*
X1663Y686D02*
X1682Y686D01*
X1713Y686D02*
X1733Y686D01*
X1663Y685D02*
X1683Y685D01*
X1713Y685D02*
X1733Y685D01*
X1663Y684D02*
X1684Y684D01*
X1712Y684D02*
X1733Y684D01*
X1664Y683D02*
X1685Y683D01*
X1711Y683D02*
X1732Y683D01*
X1664Y682D02*
X1686Y682D01*
X1710Y682D02*
X1732Y682D01*
X1664Y681D02*
X1687Y681D01*
X1709Y681D02*
X1731Y681D01*
X1665Y680D02*
X1688Y680D01*
X1708Y680D02*
X1731Y680D01*
X1665Y679D02*
X1690Y679D01*
X1706Y679D02*
X1731Y679D01*
X1666Y678D02*
X1693Y678D01*
X1703Y678D02*
X1730Y678D01*
X1666Y677D02*
X1730Y677D01*
X1667Y676D02*
X1729Y676D01*
X1667Y675D02*
X1728Y675D01*
X330Y674D02*
X340Y674D01*
X1497Y674D02*
X1499Y674D01*
X1668Y674D02*
X1728Y674D01*
X325Y673D02*
X344Y673D01*
X1490Y673D02*
X1506Y673D01*
X1669Y673D02*
X1727Y673D01*
X322Y672D02*
X347Y672D01*
X1487Y672D02*
X1509Y672D01*
X1669Y672D02*
X1726Y672D01*
X320Y671D02*
X350Y671D01*
X1484Y671D02*
X1512Y671D01*
X1670Y671D02*
X1726Y671D01*
X318Y670D02*
X352Y670D01*
X1482Y670D02*
X1514Y670D01*
X1671Y670D02*
X1725Y670D01*
X316Y669D02*
X353Y669D01*
X1480Y669D02*
X1516Y669D01*
X1672Y669D02*
X1724Y669D01*
X314Y668D02*
X355Y668D01*
X1478Y668D02*
X1518Y668D01*
X1673Y668D02*
X1723Y668D01*
X313Y667D02*
X356Y667D01*
X1477Y667D02*
X1519Y667D01*
X1674Y667D02*
X1722Y667D01*
X312Y666D02*
X358Y666D01*
X1476Y666D02*
X1520Y666D01*
X1675Y666D02*
X1720Y666D01*
X311Y665D02*
X359Y665D01*
X1474Y665D02*
X1522Y665D01*
X1677Y665D02*
X1719Y665D01*
X309Y664D02*
X360Y664D01*
X1473Y664D02*
X1523Y664D01*
X1678Y664D02*
X1717Y664D01*
X308Y663D02*
X361Y663D01*
X1472Y663D02*
X1524Y663D01*
X1680Y663D02*
X1716Y663D01*
X308Y662D02*
X362Y662D01*
X1471Y662D02*
X1525Y662D01*
X1682Y662D02*
X1714Y662D01*
X307Y661D02*
X363Y661D01*
X1470Y661D02*
X1526Y661D01*
X1684Y661D02*
X1712Y661D01*
X306Y660D02*
X364Y660D01*
X1470Y660D02*
X1526Y660D01*
X1687Y660D02*
X1709Y660D01*
X305Y659D02*
X364Y659D01*
X1469Y659D02*
X1527Y659D01*
X1690Y659D02*
X1706Y659D01*
X305Y658D02*
X365Y658D01*
X1468Y658D02*
X1528Y658D01*
X1697Y658D02*
X1698Y658D01*
X304Y657D02*
X366Y657D01*
X1468Y657D02*
X1529Y657D01*
X303Y656D02*
X366Y656D01*
X1467Y656D02*
X1529Y656D01*
X303Y655D02*
X367Y655D01*
X1466Y655D02*
X1530Y655D01*
X302Y654D02*
X328Y654D01*
X341Y654D02*
X367Y654D01*
X1466Y654D02*
X1493Y654D01*
X1503Y654D02*
X1530Y654D01*
X302Y653D02*
X326Y653D01*
X344Y653D02*
X368Y653D01*
X1465Y653D02*
X1490Y653D01*
X1506Y653D02*
X1531Y653D01*
X301Y652D02*
X324Y652D01*
X345Y652D02*
X368Y652D01*
X1465Y652D02*
X1488Y652D01*
X1508Y652D02*
X1531Y652D01*
X301Y651D02*
X323Y651D01*
X346Y651D02*
X369Y651D01*
X1464Y651D02*
X1487Y651D01*
X1509Y651D02*
X1532Y651D01*
X301Y650D02*
X322Y650D01*
X347Y650D02*
X369Y650D01*
X1464Y650D02*
X1486Y650D01*
X1510Y650D02*
X1532Y650D01*
X300Y649D02*
X321Y649D01*
X348Y649D02*
X369Y649D01*
X1464Y649D02*
X1485Y649D01*
X1511Y649D02*
X1532Y649D01*
X300Y648D02*
X320Y648D01*
X349Y648D02*
X370Y648D01*
X1463Y648D02*
X1484Y648D01*
X1512Y648D02*
X1533Y648D01*
X300Y647D02*
X319Y647D01*
X350Y647D02*
X370Y647D01*
X1463Y647D02*
X1483Y647D01*
X1513Y647D02*
X1533Y647D01*
X299Y646D02*
X319Y646D01*
X351Y646D02*
X370Y646D01*
X1463Y646D02*
X1482Y646D01*
X1514Y646D02*
X1533Y646D01*
X299Y645D02*
X318Y645D01*
X351Y645D02*
X370Y645D01*
X1463Y645D02*
X1482Y645D01*
X1514Y645D02*
X1534Y645D01*
X299Y644D02*
X318Y644D01*
X352Y644D02*
X371Y644D01*
X1462Y644D02*
X1481Y644D01*
X1515Y644D02*
X1534Y644D01*
X299Y643D02*
X318Y643D01*
X352Y643D02*
X371Y643D01*
X1462Y643D02*
X1481Y643D01*
X1515Y643D02*
X1534Y643D01*
X299Y642D02*
X317Y642D01*
X352Y642D02*
X371Y642D01*
X1462Y642D02*
X1481Y642D01*
X1515Y642D02*
X1534Y642D01*
X298Y641D02*
X317Y641D01*
X352Y641D02*
X371Y641D01*
X1462Y641D02*
X1480Y641D01*
X1516Y641D02*
X1534Y641D01*
X298Y640D02*
X317Y640D01*
X353Y640D02*
X371Y640D01*
X1462Y640D02*
X1480Y640D01*
X1516Y640D02*
X1534Y640D01*
X298Y639D02*
X317Y639D01*
X353Y639D02*
X371Y639D01*
X1462Y639D02*
X1480Y639D01*
X1516Y639D02*
X1534Y639D01*
X298Y638D02*
X317Y638D01*
X353Y638D02*
X371Y638D01*
X1462Y638D02*
X1480Y638D01*
X1516Y638D02*
X1535Y638D01*
X298Y637D02*
X317Y637D01*
X353Y637D02*
X371Y637D01*
X1462Y637D02*
X1480Y637D01*
X1516Y637D02*
X1535Y637D01*
X298Y636D02*
X317Y636D01*
X353Y636D02*
X371Y636D01*
X1462Y636D02*
X1480Y636D01*
X1516Y636D02*
X1535Y636D01*
X298Y635D02*
X317Y635D01*
X353Y635D02*
X371Y635D01*
X1462Y635D02*
X1480Y635D01*
X1516Y635D02*
X1534Y635D01*
X298Y634D02*
X317Y634D01*
X353Y634D02*
X371Y634D01*
X1462Y634D02*
X1480Y634D01*
X1516Y634D02*
X1534Y634D01*
X299Y633D02*
X317Y633D01*
X352Y633D02*
X371Y633D01*
X1462Y633D02*
X1480Y633D01*
X1516Y633D02*
X1534Y633D01*
X299Y632D02*
X318Y632D01*
X352Y632D02*
X371Y632D01*
X1462Y632D02*
X1481Y632D01*
X1515Y632D02*
X1534Y632D01*
X299Y631D02*
X318Y631D01*
X352Y631D02*
X371Y631D01*
X1462Y631D02*
X1481Y631D01*
X1515Y631D02*
X1534Y631D01*
X1691Y631D02*
X1705Y631D01*
X299Y630D02*
X318Y630D01*
X351Y630D02*
X370Y630D01*
X1462Y630D02*
X1481Y630D01*
X1515Y630D02*
X1534Y630D01*
X1687Y630D02*
X1709Y630D01*
X299Y629D02*
X319Y629D01*
X351Y629D02*
X370Y629D01*
X1463Y629D02*
X1482Y629D01*
X1514Y629D02*
X1534Y629D01*
X1684Y629D02*
X1711Y629D01*
X300Y628D02*
X319Y628D01*
X350Y628D02*
X370Y628D01*
X1463Y628D02*
X1482Y628D01*
X1514Y628D02*
X1533Y628D01*
X1682Y628D02*
X1713Y628D01*
X300Y627D02*
X320Y627D01*
X349Y627D02*
X370Y627D01*
X1463Y627D02*
X1483Y627D01*
X1513Y627D02*
X1533Y627D01*
X1680Y627D02*
X1715Y627D01*
X300Y626D02*
X321Y626D01*
X348Y626D02*
X369Y626D01*
X1463Y626D02*
X1484Y626D01*
X1512Y626D02*
X1533Y626D01*
X1679Y626D02*
X1717Y626D01*
X301Y625D02*
X322Y625D01*
X348Y625D02*
X369Y625D01*
X1464Y625D02*
X1485Y625D01*
X1511Y625D02*
X1532Y625D01*
X1677Y625D02*
X1719Y625D01*
X301Y624D02*
X323Y624D01*
X346Y624D02*
X369Y624D01*
X1464Y624D02*
X1486Y624D01*
X1510Y624D02*
X1532Y624D01*
X1676Y624D02*
X1720Y624D01*
X301Y623D02*
X324Y623D01*
X345Y623D02*
X368Y623D01*
X1464Y623D02*
X1487Y623D01*
X1509Y623D02*
X1532Y623D01*
X1674Y623D02*
X1721Y623D01*
X302Y622D02*
X326Y622D01*
X344Y622D02*
X368Y622D01*
X1465Y622D02*
X1488Y622D01*
X1508Y622D02*
X1531Y622D01*
X1673Y622D02*
X1722Y622D01*
X302Y621D02*
X328Y621D01*
X342Y621D02*
X367Y621D01*
X1465Y621D02*
X1490Y621D01*
X1506Y621D02*
X1531Y621D01*
X1672Y621D02*
X1724Y621D01*
X303Y620D02*
X334Y620D01*
X336Y620D02*
X367Y620D01*
X1466Y620D02*
X1493Y620D01*
X1503Y620D02*
X1530Y620D01*
X1671Y620D02*
X1724Y620D01*
X303Y619D02*
X366Y619D01*
X1466Y619D02*
X1530Y619D01*
X1670Y619D02*
X1725Y619D01*
X304Y618D02*
X366Y618D01*
X1467Y618D02*
X1529Y618D01*
X1670Y618D02*
X1726Y618D01*
X305Y617D02*
X365Y617D01*
X1468Y617D02*
X1529Y617D01*
X1669Y617D02*
X1727Y617D01*
X305Y616D02*
X364Y616D01*
X1468Y616D02*
X1528Y616D01*
X1668Y616D02*
X1728Y616D01*
X306Y615D02*
X364Y615D01*
X1469Y615D02*
X1527Y615D01*
X1667Y615D02*
X1728Y615D01*
X307Y614D02*
X363Y614D01*
X1470Y614D02*
X1526Y614D01*
X1667Y614D02*
X1729Y614D01*
X308Y613D02*
X362Y613D01*
X1470Y613D02*
X1526Y613D01*
X1666Y613D02*
X1729Y613D01*
X308Y612D02*
X361Y612D01*
X1471Y612D02*
X1525Y612D01*
X1666Y612D02*
X1693Y612D01*
X1702Y612D02*
X1730Y612D01*
X309Y611D02*
X360Y611D01*
X1472Y611D02*
X1524Y611D01*
X1665Y611D02*
X1690Y611D01*
X1706Y611D02*
X1730Y611D01*
X310Y610D02*
X359Y610D01*
X1473Y610D02*
X1523Y610D01*
X1665Y610D02*
X1688Y610D01*
X1707Y610D02*
X1731Y610D01*
X312Y609D02*
X358Y609D01*
X1474Y609D02*
X1522Y609D01*
X1664Y609D02*
X1687Y609D01*
X1709Y609D02*
X1731Y609D01*
X313Y608D02*
X357Y608D01*
X1476Y608D02*
X1520Y608D01*
X1664Y608D02*
X1686Y608D01*
X1710Y608D02*
X1732Y608D01*
X314Y607D02*
X355Y607D01*
X1477Y607D02*
X1519Y607D01*
X1664Y607D02*
X1685Y607D01*
X1711Y607D02*
X1732Y607D01*
X316Y606D02*
X353Y606D01*
X1479Y606D02*
X1518Y606D01*
X1663Y606D02*
X1684Y606D01*
X1712Y606D02*
X1732Y606D01*
X318Y605D02*
X352Y605D01*
X1480Y605D02*
X1516Y605D01*
X1663Y605D02*
X1683Y605D01*
X1713Y605D02*
X1733Y605D01*
X320Y604D02*
X350Y604D01*
X1482Y604D02*
X1514Y604D01*
X1663Y604D02*
X1682Y604D01*
X1713Y604D02*
X1733Y604D01*
X322Y603D02*
X347Y603D01*
X1484Y603D02*
X1512Y603D01*
X1662Y603D02*
X1682Y603D01*
X1714Y603D02*
X1733Y603D01*
X325Y602D02*
X344Y602D01*
X1487Y602D02*
X1509Y602D01*
X1662Y602D02*
X1681Y602D01*
X1715Y602D02*
X1734Y602D01*
X329Y601D02*
X340Y601D01*
X1491Y601D02*
X1506Y601D01*
X1662Y601D02*
X1681Y601D01*
X1715Y601D02*
X1734Y601D01*
X1498Y600D02*
X1498Y600D01*
X1662Y600D02*
X1681Y600D01*
X1715Y600D02*
X1734Y600D01*
X1662Y599D02*
X1680Y599D01*
X1715Y599D02*
X1734Y599D01*
X1661Y598D02*
X1680Y598D01*
X1716Y598D02*
X1734Y598D01*
X1661Y597D02*
X1680Y597D01*
X1716Y597D02*
X1734Y597D01*
X1661Y596D02*
X1680Y596D01*
X1716Y596D02*
X1734Y596D01*
X1661Y595D02*
X1680Y595D01*
X1716Y595D02*
X1734Y595D01*
X1661Y594D02*
X1680Y594D01*
X1716Y594D02*
X1734Y594D01*
X1661Y593D02*
X1680Y593D01*
X1716Y593D02*
X1734Y593D01*
X1661Y592D02*
X1680Y592D01*
X1716Y592D02*
X1734Y592D01*
X1662Y591D02*
X1680Y591D01*
X1716Y591D02*
X1734Y591D01*
X1662Y590D02*
X1680Y590D01*
X1715Y590D02*
X1734Y590D01*
X1662Y589D02*
X1681Y589D01*
X1715Y589D02*
X1734Y589D01*
X1662Y588D02*
X1681Y588D01*
X1715Y588D02*
X1734Y588D01*
X1662Y587D02*
X1682Y587D01*
X1714Y587D02*
X1733Y587D01*
X1663Y586D02*
X1682Y586D01*
X1714Y586D02*
X1733Y586D01*
X1663Y585D02*
X1683Y585D01*
X1713Y585D02*
X1733Y585D01*
X1663Y584D02*
X1684Y584D01*
X1712Y584D02*
X1733Y584D01*
X1663Y583D02*
X1685Y583D01*
X1711Y583D02*
X1732Y583D01*
X1664Y582D02*
X1686Y582D01*
X1710Y582D02*
X1732Y582D01*
X1664Y581D02*
X1687Y581D01*
X1709Y581D02*
X1731Y581D01*
X1665Y580D02*
X1688Y580D01*
X1708Y580D02*
X1731Y580D01*
X1665Y579D02*
X1690Y579D01*
X1706Y579D02*
X1731Y579D01*
X1666Y578D02*
X1692Y578D01*
X1703Y578D02*
X1730Y578D01*
X1666Y577D02*
X1730Y577D01*
X1667Y576D02*
X1729Y576D01*
X1667Y575D02*
X1728Y575D01*
X330Y574D02*
X339Y574D01*
X1668Y574D02*
X1728Y574D01*
X326Y573D02*
X344Y573D01*
X1491Y573D02*
X1505Y573D01*
X1669Y573D02*
X1727Y573D01*
X323Y572D02*
X347Y572D01*
X1487Y572D02*
X1509Y572D01*
X1669Y572D02*
X1726Y572D01*
X320Y571D02*
X349Y571D01*
X1485Y571D02*
X1512Y571D01*
X1670Y571D02*
X1726Y571D01*
X318Y570D02*
X351Y570D01*
X1482Y570D02*
X1514Y570D01*
X1671Y570D02*
X1725Y570D01*
X316Y569D02*
X353Y569D01*
X1480Y569D02*
X1516Y569D01*
X1672Y569D02*
X1724Y569D01*
X315Y568D02*
X355Y568D01*
X1479Y568D02*
X1517Y568D01*
X1673Y568D02*
X1723Y568D01*
X313Y567D02*
X356Y567D01*
X1477Y567D02*
X1519Y567D01*
X1674Y567D02*
X1722Y567D01*
X312Y566D02*
X358Y566D01*
X1476Y566D02*
X1520Y566D01*
X1675Y566D02*
X1720Y566D01*
X311Y565D02*
X359Y565D01*
X1474Y565D02*
X1522Y565D01*
X1677Y565D02*
X1719Y565D01*
X310Y564D02*
X360Y564D01*
X1473Y564D02*
X1523Y564D01*
X1678Y564D02*
X1718Y564D01*
X309Y563D02*
X361Y563D01*
X1472Y563D02*
X1524Y563D01*
X1680Y563D02*
X1716Y563D01*
X308Y562D02*
X362Y562D01*
X1471Y562D02*
X1525Y562D01*
X1682Y562D02*
X1714Y562D01*
X307Y561D02*
X363Y561D01*
X1470Y561D02*
X1526Y561D01*
X1684Y561D02*
X1712Y561D01*
X306Y560D02*
X363Y560D01*
X1470Y560D02*
X1526Y560D01*
X1686Y560D02*
X1709Y560D01*
X305Y559D02*
X364Y559D01*
X1469Y559D02*
X1527Y559D01*
X1690Y559D02*
X1706Y559D01*
X305Y558D02*
X365Y558D01*
X1468Y558D02*
X1528Y558D01*
X1695Y558D02*
X1700Y558D01*
X304Y557D02*
X365Y557D01*
X1468Y557D02*
X1528Y557D01*
X303Y556D02*
X366Y556D01*
X1467Y556D02*
X1529Y556D01*
X303Y555D02*
X367Y555D01*
X1466Y555D02*
X1530Y555D01*
X302Y554D02*
X329Y554D01*
X341Y554D02*
X367Y554D01*
X1466Y554D02*
X1493Y554D01*
X1503Y554D02*
X1530Y554D01*
X302Y553D02*
X326Y553D01*
X343Y553D02*
X368Y553D01*
X1465Y553D02*
X1490Y553D01*
X1506Y553D02*
X1531Y553D01*
X301Y552D02*
X325Y552D01*
X345Y552D02*
X368Y552D01*
X1465Y552D02*
X1488Y552D01*
X1508Y552D02*
X1531Y552D01*
X301Y551D02*
X323Y551D01*
X346Y551D02*
X368Y551D01*
X1464Y551D02*
X1487Y551D01*
X1509Y551D02*
X1532Y551D01*
X301Y550D02*
X322Y550D01*
X347Y550D02*
X369Y550D01*
X1464Y550D02*
X1486Y550D01*
X1510Y550D02*
X1532Y550D01*
X300Y549D02*
X321Y549D01*
X348Y549D02*
X369Y549D01*
X1464Y549D02*
X1485Y549D01*
X1511Y549D02*
X1532Y549D01*
X300Y548D02*
X320Y548D01*
X349Y548D02*
X370Y548D01*
X1463Y548D02*
X1484Y548D01*
X1512Y548D02*
X1533Y548D01*
X300Y547D02*
X320Y547D01*
X350Y547D02*
X370Y547D01*
X1463Y547D02*
X1483Y547D01*
X1513Y547D02*
X1533Y547D01*
X299Y546D02*
X319Y546D01*
X351Y546D02*
X370Y546D01*
X1463Y546D02*
X1482Y546D01*
X1514Y546D02*
X1533Y546D01*
X299Y545D02*
X318Y545D01*
X351Y545D02*
X370Y545D01*
X1463Y545D02*
X1482Y545D01*
X1514Y545D02*
X1534Y545D01*
X299Y544D02*
X318Y544D01*
X352Y544D02*
X371Y544D01*
X1462Y544D02*
X1481Y544D01*
X1515Y544D02*
X1534Y544D01*
X299Y543D02*
X318Y543D01*
X352Y543D02*
X371Y543D01*
X1462Y543D02*
X1481Y543D01*
X1515Y543D02*
X1534Y543D01*
X299Y542D02*
X317Y542D01*
X352Y542D02*
X371Y542D01*
X1462Y542D02*
X1481Y542D01*
X1515Y542D02*
X1534Y542D01*
X298Y541D02*
X317Y541D01*
X352Y541D02*
X371Y541D01*
X1462Y541D02*
X1480Y541D01*
X1516Y541D02*
X1534Y541D01*
X298Y540D02*
X317Y540D01*
X353Y540D02*
X371Y540D01*
X1462Y540D02*
X1480Y540D01*
X1516Y540D02*
X1534Y540D01*
X298Y539D02*
X317Y539D01*
X353Y539D02*
X371Y539D01*
X1462Y539D02*
X1480Y539D01*
X1516Y539D02*
X1534Y539D01*
X298Y538D02*
X317Y538D01*
X353Y538D02*
X371Y538D01*
X1462Y538D02*
X1480Y538D01*
X1516Y538D02*
X1535Y538D01*
X298Y537D02*
X317Y537D01*
X353Y537D02*
X371Y537D01*
X1462Y537D02*
X1480Y537D01*
X1516Y537D02*
X1535Y537D01*
X298Y536D02*
X317Y536D01*
X353Y536D02*
X371Y536D01*
X1462Y536D02*
X1480Y536D01*
X1516Y536D02*
X1535Y536D01*
X298Y535D02*
X317Y535D01*
X353Y535D02*
X371Y535D01*
X1462Y535D02*
X1480Y535D01*
X1516Y535D02*
X1534Y535D01*
X298Y534D02*
X317Y534D01*
X353Y534D02*
X371Y534D01*
X1462Y534D02*
X1480Y534D01*
X1516Y534D02*
X1534Y534D01*
X299Y533D02*
X317Y533D01*
X352Y533D02*
X371Y533D01*
X1462Y533D02*
X1480Y533D01*
X1516Y533D02*
X1534Y533D01*
X299Y532D02*
X318Y532D01*
X352Y532D02*
X371Y532D01*
X1462Y532D02*
X1481Y532D01*
X1515Y532D02*
X1534Y532D01*
X299Y531D02*
X318Y531D01*
X352Y531D02*
X371Y531D01*
X1462Y531D02*
X1481Y531D01*
X1515Y531D02*
X1534Y531D01*
X1691Y531D02*
X1704Y531D01*
X299Y530D02*
X318Y530D01*
X351Y530D02*
X370Y530D01*
X1462Y530D02*
X1481Y530D01*
X1515Y530D02*
X1534Y530D01*
X1688Y530D02*
X1708Y530D01*
X299Y529D02*
X319Y529D01*
X351Y529D02*
X370Y529D01*
X1462Y529D02*
X1482Y529D01*
X1514Y529D02*
X1534Y529D01*
X1685Y529D02*
X1711Y529D01*
X300Y528D02*
X319Y528D01*
X350Y528D02*
X370Y528D01*
X1463Y528D02*
X1482Y528D01*
X1514Y528D02*
X1533Y528D01*
X1683Y528D02*
X1713Y528D01*
X300Y527D02*
X320Y527D01*
X349Y527D02*
X370Y527D01*
X1463Y527D02*
X1483Y527D01*
X1513Y527D02*
X1533Y527D01*
X1680Y527D02*
X1715Y527D01*
X300Y526D02*
X321Y526D01*
X349Y526D02*
X369Y526D01*
X1463Y526D02*
X1484Y526D01*
X1512Y526D02*
X1533Y526D01*
X1679Y526D02*
X1717Y526D01*
X301Y525D02*
X322Y525D01*
X348Y525D02*
X369Y525D01*
X1464Y525D02*
X1485Y525D01*
X1511Y525D02*
X1532Y525D01*
X1677Y525D02*
X1719Y525D01*
X301Y524D02*
X323Y524D01*
X347Y524D02*
X369Y524D01*
X1464Y524D02*
X1486Y524D01*
X1510Y524D02*
X1532Y524D01*
X1676Y524D02*
X1720Y524D01*
X301Y523D02*
X324Y523D01*
X345Y523D02*
X368Y523D01*
X1464Y523D02*
X1487Y523D01*
X1509Y523D02*
X1532Y523D01*
X1674Y523D02*
X1721Y523D01*
X302Y522D02*
X326Y522D01*
X344Y522D02*
X368Y522D01*
X1465Y522D02*
X1488Y522D01*
X1508Y522D02*
X1531Y522D01*
X1673Y522D02*
X1722Y522D01*
X302Y521D02*
X328Y521D01*
X342Y521D02*
X367Y521D01*
X1465Y521D02*
X1490Y521D01*
X1506Y521D02*
X1531Y521D01*
X1672Y521D02*
X1723Y521D01*
X303Y520D02*
X332Y520D01*
X337Y520D02*
X367Y520D01*
X1466Y520D02*
X1493Y520D01*
X1503Y520D02*
X1530Y520D01*
X1671Y520D02*
X1724Y520D01*
X303Y519D02*
X366Y519D01*
X1466Y519D02*
X1530Y519D01*
X1670Y519D02*
X1725Y519D01*
X304Y518D02*
X366Y518D01*
X1467Y518D02*
X1529Y518D01*
X1670Y518D02*
X1726Y518D01*
X304Y517D02*
X365Y517D01*
X1467Y517D02*
X1529Y517D01*
X1669Y517D02*
X1727Y517D01*
X305Y516D02*
X364Y516D01*
X1468Y516D02*
X1528Y516D01*
X1668Y516D02*
X1728Y516D01*
X306Y515D02*
X364Y515D01*
X1469Y515D02*
X1527Y515D01*
X1667Y515D02*
X1728Y515D01*
X307Y514D02*
X363Y514D01*
X1470Y514D02*
X1527Y514D01*
X1667Y514D02*
X1729Y514D01*
X307Y513D02*
X362Y513D01*
X1470Y513D02*
X1526Y513D01*
X1666Y513D02*
X1729Y513D01*
X308Y512D02*
X361Y512D01*
X1471Y512D02*
X1525Y512D01*
X1666Y512D02*
X1694Y512D01*
X1702Y512D02*
X1730Y512D01*
X309Y511D02*
X360Y511D01*
X1472Y511D02*
X1524Y511D01*
X1665Y511D02*
X1690Y511D01*
X1705Y511D02*
X1730Y511D01*
X310Y510D02*
X359Y510D01*
X1473Y510D02*
X1523Y510D01*
X1665Y510D02*
X1689Y510D01*
X1707Y510D02*
X1731Y510D01*
X311Y509D02*
X358Y509D01*
X1474Y509D02*
X1522Y509D01*
X1664Y509D02*
X1687Y509D01*
X1709Y509D02*
X1731Y509D01*
X313Y508D02*
X357Y508D01*
X1476Y508D02*
X1521Y508D01*
X1664Y508D02*
X1686Y508D01*
X1710Y508D02*
X1732Y508D01*
X314Y507D02*
X355Y507D01*
X1477Y507D02*
X1519Y507D01*
X1664Y507D02*
X1685Y507D01*
X1711Y507D02*
X1732Y507D01*
X316Y506D02*
X354Y506D01*
X1478Y506D02*
X1518Y506D01*
X1663Y506D02*
X1684Y506D01*
X1712Y506D02*
X1732Y506D01*
X318Y505D02*
X352Y505D01*
X1480Y505D02*
X1516Y505D01*
X1663Y505D02*
X1683Y505D01*
X1713Y505D02*
X1733Y505D01*
X320Y504D02*
X350Y504D01*
X1482Y504D02*
X1514Y504D01*
X1663Y504D02*
X1682Y504D01*
X1713Y504D02*
X1733Y504D01*
X322Y503D02*
X348Y503D01*
X1484Y503D02*
X1512Y503D01*
X1662Y503D02*
X1682Y503D01*
X1714Y503D02*
X1733Y503D01*
X325Y502D02*
X345Y502D01*
X1487Y502D02*
X1509Y502D01*
X1662Y502D02*
X1681Y502D01*
X1714Y502D02*
X1734Y502D01*
X329Y501D02*
X341Y501D01*
X1490Y501D02*
X1506Y501D01*
X1662Y501D02*
X1681Y501D01*
X1715Y501D02*
X1734Y501D01*
X1496Y500D02*
X1500Y500D01*
X1662Y500D02*
X1681Y500D01*
X1715Y500D02*
X1734Y500D01*
X1662Y499D02*
X1680Y499D01*
X1715Y499D02*
X1734Y499D01*
X1661Y498D02*
X1680Y498D01*
X1716Y498D02*
X1734Y498D01*
X1661Y497D02*
X1680Y497D01*
X1716Y497D02*
X1734Y497D01*
X1661Y496D02*
X1680Y496D01*
X1716Y496D02*
X1734Y496D01*
X1661Y495D02*
X1680Y495D01*
X1716Y495D02*
X1734Y495D01*
X1661Y494D02*
X1680Y494D01*
X1716Y494D02*
X1734Y494D01*
X1661Y493D02*
X1680Y493D01*
X1716Y493D02*
X1734Y493D01*
X1661Y492D02*
X1680Y492D01*
X1716Y492D02*
X1734Y492D01*
X1662Y491D02*
X1680Y491D01*
X1716Y491D02*
X1734Y491D01*
X1662Y490D02*
X1680Y490D01*
X1715Y490D02*
X1734Y490D01*
X1662Y489D02*
X1681Y489D01*
X1715Y489D02*
X1734Y489D01*
X1662Y488D02*
X1681Y488D01*
X1715Y488D02*
X1734Y488D01*
X1662Y487D02*
X1682Y487D01*
X1714Y487D02*
X1733Y487D01*
X1663Y486D02*
X1682Y486D01*
X1714Y486D02*
X1733Y486D01*
X1663Y485D02*
X1683Y485D01*
X1713Y485D02*
X1733Y485D01*
X1663Y484D02*
X1684Y484D01*
X1712Y484D02*
X1733Y484D01*
X1663Y483D02*
X1684Y483D01*
X1711Y483D02*
X1732Y483D01*
X1664Y482D02*
X1685Y482D01*
X1710Y482D02*
X1732Y482D01*
X1664Y481D02*
X1687Y481D01*
X1709Y481D02*
X1732Y481D01*
X1665Y480D02*
X1688Y480D01*
X1708Y480D02*
X1731Y480D01*
X1665Y479D02*
X1689Y479D01*
X1706Y479D02*
X1731Y479D01*
X1666Y478D02*
X1692Y478D01*
X1704Y478D02*
X1730Y478D01*
X1666Y477D02*
X1730Y477D01*
X1667Y476D02*
X1729Y476D01*
X1667Y475D02*
X1728Y475D01*
X331Y474D02*
X338Y474D01*
X1668Y474D02*
X1728Y474D01*
X326Y473D02*
X343Y473D01*
X1491Y473D02*
X1505Y473D01*
X1669Y473D02*
X1727Y473D01*
X323Y472D02*
X346Y472D01*
X1488Y472D02*
X1509Y472D01*
X1669Y472D02*
X1726Y472D01*
X320Y471D02*
X349Y471D01*
X1485Y471D02*
X1511Y471D01*
X1670Y471D02*
X1726Y471D01*
X318Y470D02*
X351Y470D01*
X1483Y470D02*
X1513Y470D01*
X1671Y470D02*
X1725Y470D01*
X317Y469D02*
X353Y469D01*
X1481Y469D02*
X1516Y469D01*
X1672Y469D02*
X1724Y469D01*
X315Y468D02*
X355Y468D01*
X1479Y468D02*
X1517Y468D01*
X1673Y468D02*
X1723Y468D01*
X313Y467D02*
X356Y467D01*
X1477Y467D02*
X1519Y467D01*
X1674Y467D02*
X1722Y467D01*
X312Y466D02*
X358Y466D01*
X1476Y466D02*
X1520Y466D01*
X1675Y466D02*
X1721Y466D01*
X311Y465D02*
X359Y465D01*
X1475Y465D02*
X1521Y465D01*
X1676Y465D02*
X1719Y465D01*
X310Y464D02*
X360Y464D01*
X1473Y464D02*
X1523Y464D01*
X1678Y464D02*
X1718Y464D01*
X309Y463D02*
X361Y463D01*
X1472Y463D02*
X1524Y463D01*
X1680Y463D02*
X1716Y463D01*
X308Y462D02*
X362Y462D01*
X1471Y462D02*
X1525Y462D01*
X1681Y462D02*
X1714Y462D01*
X307Y461D02*
X363Y461D01*
X1471Y461D02*
X1526Y461D01*
X1684Y461D02*
X1712Y461D01*
X306Y460D02*
X363Y460D01*
X1470Y460D02*
X1526Y460D01*
X1686Y460D02*
X1710Y460D01*
X305Y459D02*
X364Y459D01*
X1469Y459D02*
X1527Y459D01*
X1689Y459D02*
X1706Y459D01*
X305Y458D02*
X365Y458D01*
X1468Y458D02*
X1528Y458D01*
X1694Y458D02*
X1701Y458D01*
X304Y457D02*
X365Y457D01*
X1468Y457D02*
X1528Y457D01*
X304Y456D02*
X366Y456D01*
X1467Y456D02*
X1529Y456D01*
X303Y455D02*
X367Y455D01*
X1466Y455D02*
X1530Y455D01*
X302Y454D02*
X329Y454D01*
X341Y454D02*
X367Y454D01*
X1466Y454D02*
X1494Y454D01*
X1502Y454D02*
X1530Y454D01*
X302Y453D02*
X326Y453D01*
X343Y453D02*
X368Y453D01*
X1465Y453D02*
X1490Y453D01*
X1506Y453D02*
X1531Y453D01*
X301Y452D02*
X325Y452D01*
X345Y452D02*
X368Y452D01*
X1465Y452D02*
X1489Y452D01*
X1507Y452D02*
X1531Y452D01*
X301Y451D02*
X323Y451D01*
X346Y451D02*
X368Y451D01*
X1465Y451D02*
X1487Y451D01*
X1509Y451D02*
X1532Y451D01*
X301Y450D02*
X322Y450D01*
X347Y450D02*
X369Y450D01*
X1464Y450D02*
X1486Y450D01*
X1510Y450D02*
X1532Y450D01*
X300Y449D02*
X321Y449D01*
X348Y449D02*
X369Y449D01*
X1464Y449D02*
X1485Y449D01*
X1511Y449D02*
X1532Y449D01*
X300Y448D02*
X320Y448D01*
X349Y448D02*
X370Y448D01*
X1463Y448D02*
X1484Y448D01*
X1512Y448D02*
X1533Y448D01*
X300Y447D02*
X320Y447D01*
X350Y447D02*
X370Y447D01*
X1463Y447D02*
X1483Y447D01*
X1513Y447D02*
X1533Y447D01*
X299Y446D02*
X319Y446D01*
X351Y446D02*
X370Y446D01*
X1463Y446D02*
X1483Y446D01*
X1514Y446D02*
X1533Y446D01*
X299Y445D02*
X318Y445D01*
X351Y445D02*
X370Y445D01*
X1463Y445D02*
X1482Y445D01*
X1514Y445D02*
X1534Y445D01*
X299Y444D02*
X318Y444D01*
X352Y444D02*
X371Y444D01*
X1462Y444D02*
X1481Y444D01*
X1515Y444D02*
X1534Y444D01*
X299Y443D02*
X318Y443D01*
X352Y443D02*
X371Y443D01*
X1462Y443D02*
X1481Y443D01*
X1515Y443D02*
X1534Y443D01*
X299Y442D02*
X317Y442D01*
X352Y442D02*
X371Y442D01*
X1462Y442D02*
X1481Y442D01*
X1515Y442D02*
X1534Y442D01*
X298Y441D02*
X317Y441D01*
X352Y441D02*
X371Y441D01*
X1462Y441D02*
X1480Y441D01*
X1516Y441D02*
X1534Y441D01*
X298Y440D02*
X317Y440D01*
X353Y440D02*
X371Y440D01*
X1462Y440D02*
X1480Y440D01*
X1516Y440D02*
X1534Y440D01*
X298Y439D02*
X317Y439D01*
X353Y439D02*
X371Y439D01*
X1462Y439D02*
X1480Y439D01*
X1516Y439D02*
X1534Y439D01*
X298Y438D02*
X317Y438D01*
X353Y438D02*
X371Y438D01*
X1462Y438D02*
X1480Y438D01*
X1516Y438D02*
X1535Y438D01*
X298Y437D02*
X317Y437D01*
X353Y437D02*
X371Y437D01*
X1462Y437D02*
X1480Y437D01*
X1516Y437D02*
X1535Y437D01*
X298Y436D02*
X317Y436D01*
X353Y436D02*
X371Y436D01*
X1462Y436D02*
X1480Y436D01*
X1516Y436D02*
X1535Y436D01*
X298Y435D02*
X317Y435D01*
X353Y435D02*
X371Y435D01*
X1462Y435D02*
X1480Y435D01*
X1516Y435D02*
X1534Y435D01*
X298Y434D02*
X317Y434D01*
X353Y434D02*
X371Y434D01*
X1462Y434D02*
X1480Y434D01*
X1516Y434D02*
X1534Y434D01*
X299Y433D02*
X317Y433D01*
X352Y433D02*
X371Y433D01*
X1462Y433D02*
X1480Y433D01*
X1516Y433D02*
X1534Y433D01*
X299Y432D02*
X317Y432D01*
X352Y432D02*
X371Y432D01*
X1462Y432D02*
X1481Y432D01*
X1515Y432D02*
X1534Y432D01*
X299Y431D02*
X318Y431D01*
X352Y431D02*
X371Y431D01*
X1462Y431D02*
X1481Y431D01*
X1515Y431D02*
X1534Y431D01*
X1692Y431D02*
X1704Y431D01*
X299Y430D02*
X318Y430D01*
X351Y430D02*
X370Y430D01*
X1462Y430D02*
X1481Y430D01*
X1515Y430D02*
X1534Y430D01*
X1688Y430D02*
X1708Y430D01*
X299Y429D02*
X319Y429D01*
X351Y429D02*
X370Y429D01*
X1462Y429D02*
X1482Y429D01*
X1514Y429D02*
X1534Y429D01*
X1685Y429D02*
X1711Y429D01*
X300Y428D02*
X319Y428D01*
X350Y428D02*
X370Y428D01*
X1463Y428D02*
X1482Y428D01*
X1514Y428D02*
X1533Y428D01*
X1683Y428D02*
X1713Y428D01*
X300Y427D02*
X320Y427D01*
X350Y427D02*
X370Y427D01*
X1463Y427D02*
X1483Y427D01*
X1513Y427D02*
X1533Y427D01*
X1681Y427D02*
X1715Y427D01*
X300Y426D02*
X321Y426D01*
X349Y426D02*
X369Y426D01*
X1463Y426D02*
X1484Y426D01*
X1512Y426D02*
X1533Y426D01*
X1679Y426D02*
X1717Y426D01*
X301Y425D02*
X322Y425D01*
X348Y425D02*
X369Y425D01*
X1464Y425D02*
X1485Y425D01*
X1511Y425D02*
X1532Y425D01*
X1677Y425D02*
X1718Y425D01*
X301Y424D02*
X323Y424D01*
X347Y424D02*
X369Y424D01*
X1464Y424D02*
X1486Y424D01*
X1510Y424D02*
X1532Y424D01*
X1676Y424D02*
X1720Y424D01*
X301Y423D02*
X324Y423D01*
X346Y423D02*
X368Y423D01*
X1464Y423D02*
X1487Y423D01*
X1509Y423D02*
X1532Y423D01*
X1675Y423D02*
X1721Y423D01*
X302Y422D02*
X325Y422D01*
X344Y422D02*
X368Y422D01*
X1465Y422D02*
X1488Y422D01*
X1508Y422D02*
X1531Y422D01*
X1673Y422D02*
X1722Y422D01*
X302Y421D02*
X327Y421D01*
X342Y421D02*
X367Y421D01*
X1465Y421D02*
X1490Y421D01*
X1506Y421D02*
X1531Y421D01*
X1672Y421D02*
X1723Y421D01*
X303Y420D02*
X331Y420D01*
X339Y420D02*
X367Y420D01*
X1466Y420D02*
X1492Y420D01*
X1504Y420D02*
X1530Y420D01*
X1671Y420D02*
X1724Y420D01*
X303Y419D02*
X366Y419D01*
X1466Y419D02*
X1530Y419D01*
X1671Y419D02*
X1725Y419D01*
X304Y418D02*
X366Y418D01*
X1467Y418D02*
X1529Y418D01*
X1670Y418D02*
X1726Y418D01*
X304Y417D02*
X365Y417D01*
X1467Y417D02*
X1529Y417D01*
X1669Y417D02*
X1727Y417D01*
X305Y416D02*
X364Y416D01*
X1468Y416D02*
X1528Y416D01*
X1668Y416D02*
X1727Y416D01*
X306Y415D02*
X364Y415D01*
X1469Y415D02*
X1527Y415D01*
X1668Y415D02*
X1728Y415D01*
X307Y414D02*
X363Y414D01*
X1469Y414D02*
X1527Y414D01*
X1667Y414D02*
X1729Y414D01*
X307Y413D02*
X362Y413D01*
X1470Y413D02*
X1526Y413D01*
X1666Y413D02*
X1729Y413D01*
X308Y412D02*
X361Y412D01*
X1471Y412D02*
X1525Y412D01*
X1666Y412D02*
X1695Y412D01*
X1700Y412D02*
X1730Y412D01*
X309Y411D02*
X360Y411D01*
X1472Y411D02*
X1524Y411D01*
X1665Y411D02*
X1691Y411D01*
X1705Y411D02*
X1730Y411D01*
X310Y410D02*
X359Y410D01*
X1473Y410D02*
X1523Y410D01*
X1665Y410D02*
X1689Y410D01*
X1707Y410D02*
X1731Y410D01*
X311Y409D02*
X358Y409D01*
X1474Y409D02*
X1522Y409D01*
X1664Y409D02*
X1687Y409D01*
X1708Y409D02*
X1731Y409D01*
X313Y408D02*
X357Y408D01*
X1475Y408D02*
X1521Y408D01*
X1664Y408D02*
X1686Y408D01*
X1710Y408D02*
X1732Y408D01*
X314Y407D02*
X355Y407D01*
X1477Y407D02*
X1519Y407D01*
X1664Y407D02*
X1685Y407D01*
X1711Y407D02*
X1732Y407D01*
X316Y406D02*
X354Y406D01*
X1478Y406D02*
X1518Y406D01*
X1663Y406D02*
X1684Y406D01*
X1712Y406D02*
X1732Y406D01*
X317Y405D02*
X352Y405D01*
X1480Y405D02*
X1516Y405D01*
X1663Y405D02*
X1683Y405D01*
X1712Y405D02*
X1733Y405D01*
X319Y404D02*
X350Y404D01*
X1482Y404D02*
X1514Y404D01*
X1663Y404D02*
X1682Y404D01*
X1713Y404D02*
X1733Y404D01*
X322Y403D02*
X348Y403D01*
X1484Y403D02*
X1512Y403D01*
X1662Y403D02*
X1682Y403D01*
X1714Y403D02*
X1733Y403D01*
X324Y402D02*
X345Y402D01*
X1486Y402D02*
X1510Y402D01*
X1662Y402D02*
X1681Y402D01*
X1714Y402D02*
X1734Y402D01*
X328Y401D02*
X341Y401D01*
X1490Y401D02*
X1506Y401D01*
X1662Y401D02*
X1681Y401D01*
X1715Y401D02*
X1734Y401D01*
X1495Y400D02*
X1501Y400D01*
X1662Y400D02*
X1681Y400D01*
X1715Y400D02*
X1734Y400D01*
X1662Y399D02*
X1680Y399D01*
X1715Y399D02*
X1734Y399D01*
X1662Y398D02*
X1680Y398D01*
X1716Y398D02*
X1734Y398D01*
X1661Y397D02*
X1680Y397D01*
X1716Y397D02*
X1734Y397D01*
X1661Y396D02*
X1680Y396D01*
X1716Y396D02*
X1734Y396D01*
X1661Y395D02*
X1680Y395D01*
X1716Y395D02*
X1734Y395D01*
X1661Y394D02*
X1680Y394D01*
X1716Y394D02*
X1734Y394D01*
X1661Y393D02*
X1680Y393D01*
X1716Y393D02*
X1734Y393D01*
X1661Y392D02*
X1680Y392D01*
X1716Y392D02*
X1734Y392D01*
X1662Y391D02*
X1680Y391D01*
X1716Y391D02*
X1734Y391D01*
X1662Y390D02*
X1680Y390D01*
X1715Y390D02*
X1734Y390D01*
X1662Y389D02*
X1681Y389D01*
X1715Y389D02*
X1734Y389D01*
X1662Y388D02*
X1681Y388D01*
X1715Y388D02*
X1734Y388D01*
X1662Y387D02*
X1681Y387D01*
X1714Y387D02*
X1733Y387D01*
X1662Y386D02*
X1682Y386D01*
X1714Y386D02*
X1733Y386D01*
X1663Y385D02*
X1683Y385D01*
X1713Y385D02*
X1733Y385D01*
X1663Y384D02*
X1683Y384D01*
X1712Y384D02*
X1733Y384D01*
X1663Y383D02*
X1684Y383D01*
X1711Y383D02*
X1732Y383D01*
X1664Y382D02*
X1685Y382D01*
X1710Y382D02*
X1732Y382D01*
X1664Y381D02*
X1686Y381D01*
X1709Y381D02*
X1732Y381D01*
X1665Y380D02*
X1688Y380D01*
X1708Y380D02*
X1731Y380D01*
X1665Y379D02*
X1689Y379D01*
X1706Y379D02*
X1731Y379D01*
X1665Y378D02*
X1692Y378D01*
X1704Y378D02*
X1730Y378D01*
X1666Y377D02*
X1730Y377D01*
X1667Y376D02*
X1729Y376D01*
X1667Y375D02*
X1729Y375D01*
X332Y374D02*
X337Y374D01*
X1668Y374D02*
X1728Y374D01*
X327Y373D02*
X343Y373D01*
X1492Y373D02*
X1504Y373D01*
X1668Y373D02*
X1727Y373D01*
X323Y372D02*
X346Y372D01*
X1488Y372D02*
X1508Y372D01*
X1669Y372D02*
X1727Y372D01*
X321Y371D02*
X349Y371D01*
X1485Y371D02*
X1511Y371D01*
X1670Y371D02*
X1726Y371D01*
X319Y370D02*
X351Y370D01*
X1483Y370D02*
X1513Y370D01*
X1671Y370D02*
X1725Y370D01*
X317Y369D02*
X353Y369D01*
X1481Y369D02*
X1515Y369D01*
X1672Y369D02*
X1724Y369D01*
X315Y368D02*
X354Y368D01*
X1479Y368D02*
X1517Y368D01*
X1673Y368D02*
X1723Y368D01*
X314Y367D02*
X356Y367D01*
X1477Y367D02*
X1519Y367D01*
X1674Y367D02*
X1722Y367D01*
X312Y366D02*
X357Y366D01*
X1476Y366D02*
X1520Y366D01*
X1675Y366D02*
X1721Y366D01*
X311Y365D02*
X359Y365D01*
X1475Y365D02*
X1521Y365D01*
X1676Y365D02*
X1719Y365D01*
X310Y364D02*
X360Y364D01*
X1474Y364D02*
X1522Y364D01*
X1678Y364D02*
X1718Y364D01*
X309Y363D02*
X361Y363D01*
X1472Y363D02*
X1524Y363D01*
X1679Y363D02*
X1716Y363D01*
X308Y362D02*
X362Y362D01*
X1472Y362D02*
X1525Y362D01*
X1681Y362D02*
X1714Y362D01*
X307Y361D02*
X363Y361D01*
X1471Y361D02*
X1525Y361D01*
X1683Y361D02*
X1712Y361D01*
X306Y360D02*
X363Y360D01*
X1470Y360D02*
X1526Y360D01*
X1686Y360D02*
X1710Y360D01*
X305Y359D02*
X364Y359D01*
X1469Y359D02*
X1527Y359D01*
X1689Y359D02*
X1707Y359D01*
X305Y358D02*
X365Y358D01*
X1468Y358D02*
X1528Y358D01*
X1694Y358D02*
X1702Y358D01*
X304Y357D02*
X365Y357D01*
X1468Y357D02*
X1528Y357D01*
X304Y356D02*
X366Y356D01*
X1467Y356D02*
X1529Y356D01*
X303Y355D02*
X367Y355D01*
X1467Y355D02*
X1530Y355D01*
X303Y354D02*
X329Y354D01*
X340Y354D02*
X367Y354D01*
X1466Y354D02*
X1495Y354D01*
X1501Y354D02*
X1530Y354D01*
X302Y353D02*
X327Y353D01*
X343Y353D02*
X368Y353D01*
X1466Y353D02*
X1491Y353D01*
X1505Y353D02*
X1531Y353D01*
X302Y352D02*
X325Y352D01*
X345Y352D02*
X368Y352D01*
X1465Y352D02*
X1489Y352D01*
X1507Y352D02*
X1531Y352D01*
X301Y351D02*
X324Y351D01*
X346Y351D02*
X368Y351D01*
X1465Y351D02*
X1487Y351D01*
X1509Y351D02*
X1532Y351D01*
X301Y350D02*
X322Y350D01*
X347Y350D02*
X369Y350D01*
X1464Y350D02*
X1486Y350D01*
X1510Y350D02*
X1532Y350D01*
X300Y349D02*
X321Y349D01*
X348Y349D02*
X369Y349D01*
X1464Y349D02*
X1485Y349D01*
X1511Y349D02*
X1532Y349D01*
X300Y348D02*
X321Y348D01*
X349Y348D02*
X370Y348D01*
X1463Y348D02*
X1484Y348D01*
X1512Y348D02*
X1533Y348D01*
X300Y347D02*
X320Y347D01*
X350Y347D02*
X370Y347D01*
X1463Y347D02*
X1483Y347D01*
X1513Y347D02*
X1533Y347D01*
X299Y346D02*
X319Y346D01*
X350Y346D02*
X370Y346D01*
X1463Y346D02*
X1483Y346D01*
X1513Y346D02*
X1533Y346D01*
X299Y345D02*
X319Y345D01*
X351Y345D02*
X370Y345D01*
X1463Y345D02*
X1482Y345D01*
X1514Y345D02*
X1533Y345D01*
X299Y344D02*
X318Y344D01*
X352Y344D02*
X371Y344D01*
X1462Y344D02*
X1481Y344D01*
X1515Y344D02*
X1534Y344D01*
X299Y343D02*
X318Y343D01*
X352Y343D02*
X371Y343D01*
X1462Y343D02*
X1481Y343D01*
X1515Y343D02*
X1534Y343D01*
X299Y342D02*
X317Y342D01*
X352Y342D02*
X371Y342D01*
X1462Y342D02*
X1481Y342D01*
X1515Y342D02*
X1534Y342D01*
X298Y341D02*
X317Y341D01*
X352Y341D02*
X371Y341D01*
X1462Y341D02*
X1480Y341D01*
X1516Y341D02*
X1534Y341D01*
X298Y340D02*
X317Y340D01*
X353Y340D02*
X371Y340D01*
X1462Y340D02*
X1480Y340D01*
X1516Y340D02*
X1534Y340D01*
X298Y339D02*
X317Y339D01*
X353Y339D02*
X371Y339D01*
X1462Y339D02*
X1480Y339D01*
X1516Y339D02*
X1534Y339D01*
X298Y338D02*
X317Y338D01*
X353Y338D02*
X371Y338D01*
X1462Y338D02*
X1480Y338D01*
X1516Y338D02*
X1535Y338D01*
X298Y337D02*
X317Y337D01*
X353Y337D02*
X371Y337D01*
X1462Y337D02*
X1480Y337D01*
X1516Y337D02*
X1535Y337D01*
X298Y336D02*
X317Y336D01*
X353Y336D02*
X371Y336D01*
X1462Y336D02*
X1480Y336D01*
X1516Y336D02*
X1535Y336D01*
X298Y335D02*
X317Y335D01*
X353Y335D02*
X371Y335D01*
X1462Y335D02*
X1480Y335D01*
X1516Y335D02*
X1534Y335D01*
X298Y334D02*
X317Y334D01*
X353Y334D02*
X371Y334D01*
X1462Y334D02*
X1480Y334D01*
X1516Y334D02*
X1534Y334D01*
X299Y333D02*
X317Y333D01*
X352Y333D02*
X371Y333D01*
X1462Y333D02*
X1480Y333D01*
X1516Y333D02*
X1534Y333D01*
X299Y332D02*
X317Y332D01*
X352Y332D02*
X371Y332D01*
X1462Y332D02*
X1481Y332D01*
X1515Y332D02*
X1534Y332D01*
X299Y331D02*
X318Y331D01*
X352Y331D02*
X371Y331D01*
X1462Y331D02*
X1481Y331D01*
X1515Y331D02*
X1534Y331D01*
X299Y330D02*
X318Y330D01*
X351Y330D02*
X371Y330D01*
X1462Y330D02*
X1481Y330D01*
X1515Y330D02*
X1534Y330D01*
X299Y329D02*
X319Y329D01*
X351Y329D02*
X370Y329D01*
X1462Y329D02*
X1482Y329D01*
X1514Y329D02*
X1534Y329D01*
X300Y328D02*
X319Y328D01*
X350Y328D02*
X370Y328D01*
X1463Y328D02*
X1482Y328D01*
X1514Y328D02*
X1533Y328D01*
X300Y327D02*
X320Y327D01*
X350Y327D02*
X370Y327D01*
X1463Y327D02*
X1483Y327D01*
X1513Y327D02*
X1533Y327D01*
X300Y326D02*
X321Y326D01*
X349Y326D02*
X369Y326D01*
X1463Y326D02*
X1484Y326D01*
X1512Y326D02*
X1533Y326D01*
X300Y325D02*
X322Y325D01*
X348Y325D02*
X369Y325D01*
X1464Y325D02*
X1485Y325D01*
X1512Y325D02*
X1532Y325D01*
X301Y324D02*
X323Y324D01*
X347Y324D02*
X369Y324D01*
X1464Y324D02*
X1486Y324D01*
X1511Y324D02*
X1532Y324D01*
X301Y323D02*
X324Y323D01*
X346Y323D02*
X368Y323D01*
X1464Y323D02*
X1487Y323D01*
X1509Y323D02*
X1532Y323D01*
X302Y322D02*
X325Y322D01*
X344Y322D02*
X368Y322D01*
X1465Y322D02*
X1488Y322D01*
X1508Y322D02*
X1531Y322D01*
X302Y321D02*
X327Y321D01*
X342Y321D02*
X367Y321D01*
X1465Y321D02*
X1490Y321D01*
X1507Y321D02*
X1531Y321D01*
X303Y320D02*
X330Y320D01*
X339Y320D02*
X367Y320D01*
X1466Y320D02*
X1492Y320D01*
X1504Y320D02*
X1530Y320D01*
X303Y319D02*
X366Y319D01*
X1466Y319D02*
X1530Y319D01*
X304Y318D02*
X366Y318D01*
X1467Y318D02*
X1529Y318D01*
X304Y317D02*
X365Y317D01*
X1467Y317D02*
X1529Y317D01*
X305Y316D02*
X365Y316D01*
X1468Y316D02*
X1528Y316D01*
X306Y315D02*
X364Y315D01*
X1469Y315D02*
X1527Y315D01*
X306Y314D02*
X363Y314D01*
X1469Y314D02*
X1527Y314D01*
X307Y313D02*
X362Y313D01*
X1470Y313D02*
X1526Y313D01*
X308Y312D02*
X361Y312D01*
X1471Y312D02*
X1525Y312D01*
X309Y311D02*
X360Y311D01*
X1472Y311D02*
X1524Y311D01*
X310Y310D02*
X359Y310D01*
X1473Y310D02*
X1523Y310D01*
X311Y309D02*
X358Y309D01*
X1474Y309D02*
X1522Y309D01*
X313Y308D02*
X357Y308D01*
X1475Y308D02*
X1521Y308D01*
X314Y307D02*
X356Y307D01*
X1477Y307D02*
X1519Y307D01*
X315Y306D02*
X354Y306D01*
X1478Y306D02*
X1518Y306D01*
X317Y305D02*
X352Y305D01*
X1480Y305D02*
X1516Y305D01*
X319Y304D02*
X350Y304D01*
X1482Y304D02*
X1515Y304D01*
X321Y303D02*
X348Y303D01*
X1484Y303D02*
X1512Y303D01*
X324Y302D02*
X345Y302D01*
X1486Y302D02*
X1510Y302D01*
X328Y301D02*
X342Y301D01*
X1489Y301D02*
X1507Y301D01*
X1494Y300D02*
X1502Y300D01*
X334Y274D02*
X335Y274D01*
X327Y273D02*
X342Y273D01*
X324Y272D02*
X346Y272D01*
X321Y271D02*
X349Y271D01*
X319Y270D02*
X351Y270D01*
X317Y269D02*
X353Y269D01*
X315Y268D02*
X354Y268D01*
X314Y267D02*
X356Y267D01*
X312Y266D02*
X357Y266D01*
X311Y265D02*
X358Y265D01*
X310Y264D02*
X360Y264D01*
X309Y263D02*
X361Y263D01*
X308Y262D02*
X362Y262D01*
X307Y261D02*
X362Y261D01*
X306Y260D02*
X363Y260D01*
X306Y259D02*
X364Y259D01*
X305Y258D02*
X365Y258D01*
X304Y257D02*
X365Y257D01*
X304Y256D02*
X366Y256D01*
X303Y255D02*
X366Y255D01*
X303Y254D02*
X330Y254D01*
X340Y254D02*
X367Y254D01*
X302Y253D02*
X327Y253D01*
X343Y253D02*
X367Y253D01*
X302Y252D02*
X325Y252D01*
X344Y252D02*
X368Y252D01*
X301Y251D02*
X324Y251D01*
X346Y251D02*
X368Y251D01*
X301Y250D02*
X323Y250D01*
X347Y250D02*
X369Y250D01*
X300Y249D02*
X322Y249D01*
X348Y249D02*
X369Y249D01*
X300Y248D02*
X321Y248D01*
X349Y248D02*
X369Y248D01*
X300Y247D02*
X320Y247D01*
X350Y247D02*
X370Y247D01*
X300Y246D02*
X319Y246D01*
X350Y246D02*
X370Y246D01*
X299Y245D02*
X319Y245D01*
X351Y245D02*
X370Y245D01*
X299Y244D02*
X318Y244D01*
X352Y244D02*
X371Y244D01*
X299Y243D02*
X318Y243D01*
X352Y243D02*
X371Y243D01*
X299Y242D02*
X317Y242D01*
X352Y242D02*
X371Y242D01*
X298Y241D02*
X317Y241D01*
X352Y241D02*
X371Y241D01*
X298Y240D02*
X317Y240D01*
X353Y240D02*
X371Y240D01*
X298Y239D02*
X317Y239D01*
X353Y239D02*
X371Y239D01*
X298Y238D02*
X317Y238D01*
X353Y238D02*
X371Y238D01*
X298Y237D02*
X317Y237D01*
X353Y237D02*
X371Y237D01*
X298Y236D02*
X317Y236D01*
X353Y236D02*
X371Y236D01*
X298Y235D02*
X317Y235D01*
X353Y235D02*
X371Y235D01*
X298Y234D02*
X317Y234D01*
X353Y234D02*
X371Y234D01*
X298Y233D02*
X317Y233D01*
X352Y233D02*
X371Y233D01*
X299Y232D02*
X317Y232D01*
X352Y232D02*
X371Y232D01*
X299Y231D02*
X318Y231D01*
X352Y231D02*
X371Y231D01*
X299Y230D02*
X318Y230D01*
X351Y230D02*
X371Y230D01*
X299Y229D02*
X319Y229D01*
X351Y229D02*
X370Y229D01*
X300Y228D02*
X319Y228D01*
X350Y228D02*
X370Y228D01*
X300Y227D02*
X320Y227D01*
X350Y227D02*
X370Y227D01*
X300Y226D02*
X321Y226D01*
X349Y226D02*
X369Y226D01*
X300Y225D02*
X322Y225D01*
X348Y225D02*
X369Y225D01*
X301Y224D02*
X323Y224D01*
X347Y224D02*
X369Y224D01*
X301Y223D02*
X324Y223D01*
X346Y223D02*
X368Y223D01*
X302Y222D02*
X325Y222D01*
X344Y222D02*
X368Y222D01*
X302Y221D02*
X327Y221D01*
X343Y221D02*
X367Y221D01*
X303Y220D02*
X330Y220D01*
X340Y220D02*
X367Y220D01*
X303Y219D02*
X366Y219D01*
X304Y218D02*
X366Y218D01*
X304Y217D02*
X365Y217D01*
X305Y216D02*
X365Y216D01*
X306Y215D02*
X364Y215D01*
X306Y214D02*
X363Y214D01*
X307Y213D02*
X362Y213D01*
X308Y212D02*
X362Y212D01*
X309Y211D02*
X361Y211D01*
X310Y210D02*
X360Y210D01*
X311Y209D02*
X358Y209D01*
X312Y208D02*
X357Y208D01*
X314Y207D02*
X356Y207D01*
X315Y206D02*
X354Y206D01*
X317Y205D02*
X353Y205D01*
X319Y204D02*
X351Y204D01*
X321Y203D02*
X348Y203D01*
X324Y202D02*
X346Y202D01*
X327Y201D02*
X342Y201D01*
X335Y200D02*
X335Y200D01*
D02*
G04 End of Copper0*
M02*